<svg xmlns="http://www.w3.org/2000/svg" width="210mm" height="297mm" viewBox="0 0 210 297"><path d="M31.347 213.354c-.173-.347-.315-30.987-.315-68.089V77.807h82.486c61.978 0 82.686.096 83.289.388.733.354.682.402-.611.565-.778.098-2.782.265-4.454.371-1.978.126-3.532.43-4.45.873-.806.39-2.645.793-4.301.945-1.591.146-3.622.568-4.512.938-.891.37-2.764.779-4.161.91-1.6.15-2.939.494-3.614.928-.59.38-2.007.811-3.15.959-1.142.148-2.572.568-3.18.935-.606.367-1.894.763-2.863.88-.968.117-2.402.553-3.186.968-.785.416-2.138.842-3.01.948-.87.106-2.245.558-3.054 1.007-.81.448-2.048.912-2.753 1.032-.706.119-1.588.493-1.962.83-.374.338-1.304.71-2.067.828-.763.117-1.896.562-2.519.99-.623.427-1.72.88-2.437 1.008-.717.128-1.726.502-2.24.83-.515.33-1.394.71-1.954.849-.56.138-1.602.608-2.315 1.045-.713.437-1.467.794-1.675.794-.209 0-1.07.45-1.917 1-.845.55-1.762 1-2.036 1-.275 0-1.191.449-2.037.998-.846.55-1.765 1-2.043 1-.277 0-.754.245-1.058.545-.305.3-1.335.82-2.29 1.154-.956.335-1.737.75-1.737.92 0 .294-.978.87-4.433 2.61-.8.403-1.642.94-1.871 1.195-.23.254-.83.642-1.334.861-.503.22-1.328.698-1.833 1.063-3.006 2.175-3.716 2.645-3.993 2.645-1.176 0-17.403 12.62-25.146 19.558-1.184 1.06-3.078 2.753-4.207 3.76-1.13 1.008-2.41 2.395-2.846 3.082-.435.687-.974 1.25-1.198 1.25-.224 0-.632.412-.907.915-.274.505-.912 1.19-1.417 1.524-.505.334-.918.798-.918 1.03 0 .234-.385.71-.856 1.058-.47.349-1.138 1.084-1.483 1.634-.345.55-.982 1.3-1.416 1.667-1.363 1.15-3.17 3.239-3.17 3.664 0 .224-.55.974-1.221 1.666-.673.692-1.223 1.403-1.223 1.58 0 .178-.457.768-1.018 1.312-.56.545-1.018 1.183-1.018 1.418 0 .236-.55.994-1.222 1.686-.673.692-1.222 1.45-1.222 1.686s-.433.852-.963 1.37c-.53.518-1.104 1.316-1.278 1.775-.173.458-.656 1.19-1.073 1.625-.416.437-.957 1.41-1.202 2.166-.245.754-.78 1.672-1.187 2.038-.408.367-.943 1.286-1.189 2.044-.245.757-.719 1.561-1.051 1.787-.333.226-.806 1.03-1.052 1.788-.246.757-.796 1.686-1.223 2.063-.427.377-.933 1.375-1.126 2.217-.192.842-.726 1.923-1.187 2.402-.46.479-.965 1.655-1.12 2.613-.16.98-.626 2.048-1.067 2.44-.431.383-.953 1.55-1.16 2.592-.208 1.043-.74 2.273-1.185 2.735-.475.495-.912 1.618-1.063 2.737-.14 1.044-.63 2.472-1.088 3.173-.458.7-1.002 2.392-1.21 3.758-.207 1.366-.75 3.07-1.208 3.788-.53.832-.958 2.407-1.18 4.353-.372 3.23-.6 3.802-1.11 2.781z" stroke="#000" stroke-width="1.392"/></svg>