<svg xmlns="http://www.w3.org/2000/svg" width="210mm" height="297mm" viewBox="0 0 210 297"><path d="M128.145 240.778a3738.21 3738.21 0 0 0-3.714-8.181c-1.051-2.307-2.727-5.994-3.724-8.196-.996-2.201-2.67-5.889-3.718-8.195l-3.812-8.386-3.811-8.386-3.812-8.385-3.812-8.386a9160.551 9160.551 0 0 0-3.905-8.577c-1.1-2.41-2.815-6.184-3.812-8.385-4.415-9.749-5.876-12.963-7.192-15.819-4.797-10.414-7.58-16.572-7.58-16.772 0-.126-1.327-3.094-2.948-6.594-1.62-3.501-5.954-13.055-9.628-21.231-3.675-8.176-7.705-17.096-8.957-19.821-3.481-7.58-5.578-12.209-7.423-16.39a738.046 738.046 0 0 0-3.516-7.815c-1.988-4.34-4.51-9.88-7.631-16.771a690.295 690.295 0 0 0-2.757-6.024c-1.804-3.837.438-2.781 11.604 5.466 6.499 4.8 15.418 11.379 19.82 14.619a28207.013 28207.013 0 0 1 32.4 23.865c3.774 2.786 10.464 7.72 14.866 10.964 4.403 3.245 8.527 6.323 9.165 6.841.639.518 2.869 2.105 4.956 3.526 2.087 1.42 3.966 2.793 4.175 3.051.21.257 1.582 1.304 3.05 2.326 1.467 1.023 3.183 2.278 3.811 2.79.63.513 4.918 3.692 9.53 7.063 16.091 11.765 16.447 12.086 15.952 14.373-.243 1.127-.718 2.736-1.055 3.574-.337.839-1.374 4.098-2.306 7.242-.932 3.145-2.002 6.314-2.378 7.042-.376.728-.684 1.847-.684 2.488 0 .64-.308 1.76-.684 2.488-.376.728-1.44 3.896-2.365 7.041-.925 3.145-1.99 6.313-2.366 7.041-.376.728-.684 1.848-.684 2.488 0 .64-.308 1.76-.684 2.488-.376.728-1.44 3.897-2.365 7.042-.925 3.144-1.99 6.313-2.365 7.041-.376.728-.684 1.848-.684 2.488 0 .64-.31 1.76-.688 2.488-.379.728-1.098 2.867-1.6 4.754-.5 1.887-1.22 4.027-1.598 4.755-.379.728-.688 1.994-.688 2.813 0 .82-.343 1.702-.763 1.962-.42.259-.762 1.141-.762 1.96 0 .82-.308 2.087-.684 2.815-.377.728-1.446 3.896-2.378 7.041-.932 3.145-1.955 6.404-2.274 7.242-.319.839-1.709 5.041-3.088 9.339-1.38 4.298-2.536 7.808-2.57 7.8-.033-.005-.872-1.808-1.864-4.002z" stroke="#000" stroke-width="2.881"/></svg>