<svg xmlns="http://www.w3.org/2000/svg" width="210mm" height="297mm" viewBox="0 0 210 297"><path d="M111.058 242.325c-1.177-2.602-3.07-6.764-4.209-9.25a1283.547 1283.547 0 0 1-4.08-9.022c-3.74-8.374-19.114-42.473-21.406-47.48-7.591-16.577-8.566-19.26-8.011-22.044.308-1.549 3.027-10.546 6.041-19.993 8.166-25.593 11.986-37.679 15.715-49.72 1.847-5.967 3.672-11.663 4.054-12.657.786-2.042 5.047-15.575 8.113-25.765 1.121-3.729 2.404-7.486 2.85-8.35.447-.863.812-2.365.812-3.336 0-.972.406-2.019.904-2.326.497-.307.904-1.576.904-2.819 0-1.276.393-2.017.904-1.701 1.068.66 1.294 219.234.226 219.21-.373-.008-1.64-2.145-2.817-4.747z" stroke="#000" stroke-width="3.417"/></svg>