<svg xmlns="http://www.w3.org/2000/svg" width="210mm" height="297mm" viewBox="0 0 210 297"><path d="M38.011 221.445c.833-1.61 3.173-8.566 5.2-15.461 2.028-6.895 4.361-13.842 5.186-15.438.824-1.597 1.5-4.051 1.5-5.455s.675-3.859 1.5-5.455 3.17-8.543 5.213-15.438c2.042-6.895 4.286-14.04 4.986-15.879.7-1.838 3.709-11.24 6.687-20.893 2.978-9.652 5.997-19.054 6.71-20.893 2.914-7.516 15.055-46.947 15.038-48.837-.01-1.127 1.1-1.607 2.488-1.074 1.378.529 2.507 1.611 2.507 2.405 0 1.41 3.593 9.686 13.732 31.628a4690.317 4690.317 0 0 1 9.016 19.64c6.44 14.144 12.07 26.539 16.326 35.935a17460.671 17460.671 0 0 0 16.522 36.354 6752.63 6752.63 0 0 1 9.464 20.893c2.901 6.435 5.997 13.006 6.879 14.602.882 1.597 1.604 3.665 1.604 4.597 0 1.116-22.537 1.694-66.036 1.694-62.354 0-65.951-.163-64.522-2.925z" stroke="#000" stroke-width="6.317"/></svg>