<svg xmlns="http://www.w3.org/2000/svg" width="210mm" height="297mm" viewBox="0 0 210 297"><path d="M83.65 139.712c.007-53.237.321-85.219.841-86.023.648-1.002.83-.78.841 1.017.007 1.263.398 2.535.867 2.825.47.29.854 1.279.854 2.196 0 .918.346 2.336.77 3.152.424.815 1.23 3.212 1.791 5.325.561 2.113 1.367 4.51 1.791 5.325.424.815.77 2.069.77 2.786 0 .717.346 1.971.767 2.787.421.815 1.613 4.364 2.65 7.886 1.035 3.522 2.227 7.07 2.648 7.886.422.816.766 2.07.766 2.787 0 .717.347 1.97.771 2.786.424.816 1.23 3.212 1.79 5.325.562 2.113 1.368 4.51 1.792 5.325.424.815.77 2.234.77 3.151 0 .918.384 1.907.854 2.197.47.29.854 1.279.854 2.197 0 .917.347 2.336.77 3.151.425.815 1.23 3.212 1.792 5.325.56 2.113 1.367 4.51 1.79 5.325.424.815.771 2.069.771 2.786 0 .717.347 1.971.77 2.787.425.815 1.23 3.211 1.792 5.325.56 2.113 1.367 4.509 1.79 5.324.424.816.771 2.234.771 3.152 0 .918.384 1.906.854 2.196.47.29.854 1.28.854 2.197 0 .918.346 2.336.77 3.151.424.816 1.23 3.212 1.791 5.325.561 2.113 1.367 4.51 1.791 5.325.424.815.77 2.07.77 2.787 0 .717.345 1.97.767 2.786.421.816 1.613 4.364 2.649 7.886 1.036 3.522 2.228 7.071 2.65 7.887.42.815.765 2.07.765 2.786 0 .717.347 1.971.77 2.787.425.815 1.23 3.211 1.792 5.325.561 2.113 1.367 4.509 1.79 5.324.425.816.771 2.234.771 3.152 0 .918.384 1.906.854 2.196.47.29.854 1.39.854 2.442 0 1.052.334 2.278.74 2.724.408.446.975 2.06 1.26 3.586l.518 2.775H83.637Z" stroke="#000" stroke-width="3.227"/></svg>