<svg xmlns="http://www.w3.org/2000/svg" width="210mm" height="297mm" viewBox="0 0 210 297"><path d="M38.42 194.162c-.485-1.299-.813-2.306-1.702-5.23-.255-.838-1.768-5.642-3.363-10.675-1.594-5.033-4.076-12.877-5.516-17.43-1.439-4.554-2.972-9.359-3.406-10.677a792.133 792.133 0 0 1-2.624-8.28c-1.009-3.235-1.987-6.274-2.173-6.754-.186-.479-.973-2.93-1.75-5.447-.776-2.516-1.56-4.967-1.742-5.447-.183-.479-.768-2.342-1.3-4.14-.533-1.797-1.144-3.608-1.36-4.024-.215-.416-.39-1.056-.39-1.422 0-.366-.174-1.006-.386-1.422-.567-1.113-2.125-6.182-2.448-7.964-.257-1.42-.148-1.636 1.386-2.729l1.665-1.186.626 1.421c2.47 5.613 5.203 10.842 7.49 14.333 1.471 2.246 2.797 4.181 2.947 4.301.15.12.85 1.002 1.557 1.96 2.103 2.854 10.218 10.718 13.962 13.53 13.94 10.468 29.183 15.55 46.626 15.542 15.037-.007 27.008-3.246 40.524-10.969 1.943-1.11 5.549-3.52 5.885-3.932.12-.147.904-.74 1.743-1.315.838-.576 1.623-1.16 1.743-1.298.12-.137 1.462-1.32 2.983-2.628l2.766-2.379 1.327 1.519c.73.834 2.23 2.498 3.335 3.697a235.45 235.45 0 0 1 3.714 4.14 276.947 276.947 0 0 0 4.14 4.606c2.538 2.76 8.39 9.244 9.766 10.821.438.502 1.419 1.6 2.18 2.438.76.84 2.852 3.19 4.65 5.223a584.138 584.138 0 0 0 5.267 5.883c1.1 1.202 2.865 3.165 3.922 4.364 1.057 1.198 2.027 2.277 2.155 2.397.127.12 2.772 3.06 5.876 6.536 3.104 3.475 6.333 7.081 7.176 8.013.842.932 1.727 1.924 1.967 2.205.24.28 1.112 1.234 1.937 2.118l1.502 1.608H38.91Z" stroke="#000" stroke-width="1.647"/></svg>