<svg xmlns="http://www.w3.org/2000/svg" width="210mm" height="297mm" viewBox="0 0 210 297"><path d="M55.078 157.753V74.094h57.748l.995 3.723c.548 2.048 2.292 7.665 3.877 12.483 1.585 4.818 4.543 14.082 6.573 20.586 2.03 6.505 4.79 15.177 6.131 19.272a2190.545 2190.545 0 0 1 6.16 19.273 2861.413 2861.413 0 0 0 6.139 19.272c1.329 4.095 4.48 13.95 7.003 21.9 8.286 26.11 11.532 36.266 13.656 42.723 1.152 3.504 2.094 6.756 2.094 7.227 0 .55-19.771.858-55.188.858H55.078Z" stroke="#000" stroke-width="3.311"/></svg>