<svg xmlns="http://www.w3.org/2000/svg" width="210mm" height="297mm" viewBox="0 0 210 297"><path d="M119.624 240.274c-.69-2.518-1.598-5.447-2.016-6.508-.72-1.827-2.31-6.827-9.65-30.37-1.736-5.568-3.487-10.99-3.89-12.051-.404-1.06-2.139-6.484-3.857-12.052-1.717-5.568-3.453-10.991-3.857-12.052-.403-1.06-1.705-5.182-2.892-9.159-1.186-3.977-2.488-8.099-2.891-9.16-.404-1.06-2.14-6.483-3.857-12.05-1.718-5.569-3.454-10.992-3.857-12.052-.404-1.061-2.139-6.484-3.857-12.052-1.717-5.568-3.453-10.991-3.857-12.052-.403-1.06-1.705-5.182-2.891-9.159-1.187-3.977-2.485-8.099-2.883-9.16-.399-1.06-2.024-5.94-3.612-10.846l-2.887-8.918h58.552v91.11c0 50.111-.122 91.111-.272 91.111-.149 0-.836-2.06-1.526-4.58z" stroke="#000" stroke-width="3.644"/></svg>