<svg xmlns="http://www.w3.org/2000/svg" width="210mm" height="297mm" viewBox="0 0 210 297"><path d="M42.521 196.703c1.471-4.436 4.111-12.686 5.867-18.333 1.756-5.647 3.528-11.147 3.937-12.222.41-1.076 2.169-6.576 3.911-12.223 1.742-5.646 3.502-11.146 3.912-12.222.41-1.075 1.729-5.255 2.933-9.289 1.203-4.033 2.523-8.213 2.932-9.289.41-1.075 2.17-6.575 3.912-12.222 1.742-5.647 3.502-11.147 3.911-12.222.657-1.728 3.268-9.994 8.416-26.645l1.587-5.133h79.953V204.77H39.847Z" stroke="#000" stroke-width="3.696"/></svg>