<svg xmlns="http://www.w3.org/2000/svg" width="210mm" height="297mm" viewBox="0 0 210 297"><path d="M176.649 204.58c0-.825-2.024-2.695-4.497-4.156-2.474-1.461-14.3-9.962-26.28-18.89s-25.897-19.246-30.924-22.928a4207.054 4207.054 0 0 1-12.95-9.517c-2.094-1.551-9.293-6.861-15.996-11.8-6.703-4.938-21.49-15.872-32.859-24.296-11.368-8.425-22.166-16.252-23.994-17.394-1.829-1.141-3.324-2.603-3.324-3.247 0-.644 34.45-.993 76.554-.776l76.555.394.4 55.512c.26 35.977-.142 56.054-1.142 57.054-.983.983-1.543.999-1.543.046z" stroke="#000" stroke-width="5.758"/></svg>