<svg xmlns="http://www.w3.org/2000/svg" width="210mm" height="297mm" viewBox="0 0 210 297"><path d="M148.978 241.426c-2.877-2.434-11.407-8.88-18.955-14.324-21.406-15.44-52.965-38.704-60.114-44.315l-6.484-5.089V109.2c0-43.513.727-68.948 1.995-69.731 1.097-.678 1.995-.225 1.995 1.005 0 1.232 2.797 8.243 6.216 15.58 11.1 23.825 21.358 46.41 33.703 74.199 4.144 9.328 16.704 37.161 27.91 61.853 11.208 24.691 21.16 46.913 22.116 49.383 2.277 5.88-1.389 5.853-8.382-.06z" stroke="#000" stroke-width="7.541"/></svg>