<svg xmlns="http://www.w3.org/2000/svg" width="210mm" height="297mm" viewBox="0 0 210 297"><path d="M162.886 230.484c-.905-.772-2.87-2.27-4.365-3.33-2.537-1.799-24.063-17.582-33.896-24.854-2.4-1.775-6.189-4.558-8.418-6.184-2.229-1.626-4.474-3.296-4.988-3.71-.514-.415-1.917-1.447-3.118-2.295-1.2-.848-2.603-1.88-3.117-2.295-.515-.414-2.69-2.031-4.833-3.594l-7.794-5.681c-2.143-1.562-4.318-3.18-4.832-3.594-.515-.415-1.917-1.447-3.118-2.295-1.2-.847-2.603-1.882-3.117-2.3-.515-.416-3.742-2.816-7.171-5.332-18.803-13.796-17.461-12.613-19.836-17.491-1.204-2.472-2.804-5.897-3.556-7.612a486.303 486.303 0 0 0-3.241-7.17c-1.785-3.86-2.872-6.238-6.414-14.03-3.388-7.454-4.856-10.705-5.913-13.094a537.389 537.389 0 0 0-3.128-6.859 585.204 585.204 0 0 1-3.133-6.859 577.247 577.247 0 0 0-3.04-6.663c-1.063-2.294-1.933-4.608-1.933-5.145 0-.878 7.011-.974 70.77-.974h70.77v76.382c0 42.01-.21 76.382-.467 76.382s-1.208-.632-2.112-1.403z" stroke="#000" stroke-width="2.357"/></svg>