<svg xmlns="http://www.w3.org/2000/svg" width="210mm" height="297mm" viewBox="0 0 210 297"><path d="m85.623 240.44-2.074-2.298-.398-13.76c-.25-7.568-.3-49.388-.15-92.933.3-85.613.05-79.406 3.454-94.383 1.3-5.749 1.316-5.782 2.342-4.42 1.874 2.486 2.84 7.698 3.748 20.218 1.116 15.446 1.31 17.088 2.766 23.252 1.116 4.725 4.854 13.54 5.744 13.54.957 0 3.09 4.978 3.832 8.95.449 2.363.987 7.737 1.211 11.946.449 8.584 2.029 17.81 3.862 22.663 1.311 3.469 4.496 8.83 5.246 8.83.25 0 1.007 1.28 1.68 2.845.887 2.064 1.56 6.118 2.447 14.753.672 6.548 1.64 13.148 2.153 14.666 1.26 3.743 3.493 7.453 5.493 9.135 3.942 3.314 5.561 9.925 4.974 20.28-.499 8.632-1.027 9.588-6.882 12.356-4.157 1.964-6.136 3.643-8.256 7.002-1.25 1.983-2.65 2.91-9.463 6.263-7.053 3.474-8.282 4.301-10.42 7.029-2.323 2.96-5.305 5.2-7.973 5.99-.952.298-1.734-.15-3.319-1.93z" stroke="#000" stroke-width="2.225"/></svg>