<svg xmlns="http://www.w3.org/2000/svg" width="210mm" height="297mm" viewBox="0 0 210 297"><path d="M88.484 207.372c-10.86-1.975-17.787-4.532-28.084-10.366-2.168-1.229-4.09-2.415-4.27-2.636-.18-.221-1.797-1.469-3.594-2.772-3.84-2.784-11.683-10.65-15.039-15.082-4.684-6.188-11.432-18.71-11.432-21.216 0-.824 5.35-5.16 16.781-13.602 9.23-6.816 17.726-13.129 18.88-14.027 1.155-.899 2.755-2.075 3.555-2.615.8-.539 2.49-1.787 3.755-2.774 1.264-.987 12.14-9.075 24.169-17.974a31784.943 31784.943 0 0 0 36.679-27.177c8.145-6.049 16.647-12.324 18.893-13.946l4.084-2.948 4.218 3.704c12.595 11.057 21.93 27.344 25.992 45.346 2.026 8.98 2.021 24.542-.01 33.55-5.245 23.253-19.008 42.388-39.02 54.254-16.605 9.844-37.1 13.637-55.557 10.281z" stroke="#000" stroke-width="2.47"/></svg>