<svg xmlns="http://www.w3.org/2000/svg" width="210mm" height="297mm" viewBox="0 0 210 297"><path d="M127.162 251.083a6751.55 6751.55 0 0 0-11.77-13.14c-.418-.457-3.665-4.071-7.215-8.032-3.55-3.961-7.69-8.572-9.2-10.246-1.51-1.675-6.271-6.974-10.58-11.778a7722.961 7722.961 0 0 0-13.342-14.831c-3.029-3.354-6.204-6.985-7.056-8.069l-1.55-1.97 3.912-4.462c11.778-13.436 19.576-30.369 22.643-49.166 1.89-11.584 1.89-17.089-.005-28.9-3.61-22.506-12.86-40.556-28.922-56.445-3.061-3.028-5.84-5.506-6.173-5.506-1.6 0-.172-1.646 4.36-5.028 2.733-2.038 8.241-6.183 12.242-9.21 4-3.029 7.362-5.506 7.47-5.506.109 0 2.887 2.042 6.175 4.538 3.288 2.496 6.584 4.974 7.324 5.506 2.785 2 12.802 9.38 27.132 19.992 8.144 6.03 15.066 11.052 15.38 11.16.315.106.486 45.916.38 101.799l-.192 101.606z" stroke="#000" stroke-width="2.87"/></svg>