<svg xmlns="http://www.w3.org/2000/svg" width="210mm" height="297mm" viewBox="0 0 210 297"><path d="M57.369 143.853V12.67l1.996 1.395c1.098.767 2.964 2.125 4.146 3.018 1.183.894 5.052 3.757 8.6 6.363 3.547 2.606 6.864 5.07 7.37 5.477.507.407 1.89 1.423 3.072 2.258 1.182.835 2.564 1.863 3.071 2.283.507.42 1.395 1.116 1.973 1.545.578.428 3.43 6.03 6.338 12.45a8528.707 8528.707 0 0 0 6.55 14.434c.695 1.52 1.92 4.216 2.722 5.99 1.4 3.095 2.83 6.244 5.997 13.205.806 1.774 2.079 4.607 2.828 6.296.748 1.69 2.132 4.73 3.076 6.757a424.262 424.262 0 0 1 3.065 6.757c1.482 3.37 3.449 7.69 6.292 13.82a417.941 417.941 0 0 1 2.928 6.45c.591 1.351 1.909 4.253 2.927 6.45 2.843 6.129 4.81 10.45 6.292 13.82a424.59 424.59 0 0 0 3.065 6.757 477.28 477.28 0 0 1 3.008 6.603c.71 1.604 1.88 4.225 2.6 5.822 9.051 20.101 13.188 29.271 14.415 31.954 1.802 3.937 4.037 8.852 6.083 13.378.844 1.868 1.535 3.839 1.535 4.38 0 .541-.8 3.366-1.778 6.278-.978 2.911-3.216 9.854-4.974 15.429-3.121 9.898-3.932 12.456-10.466 33.015l-3.173 9.982H57.368Z" stroke="#000" stroke-width="2.322"/></svg>