<svg xmlns="http://www.w3.org/2000/svg" width="210mm" height="297mm" viewBox="0 0 210 297"><path d="m32.787 162.353-.206-86.351h79.605c51.159 0 79.996.633 80.7 1.771.618 1.001-.833 1.772-3.334 1.772-2.436 0-4.921.796-5.523 1.77-.602.975-2.994 1.772-5.314 1.772s-4.712.797-5.314 1.772c-.602.974-2.994 1.77-5.314 1.77s-4.712.797-5.314 1.772c-.602.974-2.208 1.771-3.57 1.771-1.36 0-6.694 2.503-11.851 5.562-5.158 3.059-12.167 7.124-15.577 9.033-17.106 9.58-41.803 32.559-57.608 53.601-11.024 14.675-30.652 52.479-34.49 66.424-1.206 4.384-2.852 9.964-3.66 12.4-.806 2.435-1.816 6.022-2.245 7.97-.429 1.949-.872-35.315-.985-82.809z" stroke="#000" stroke-width="6.695"/></svg>