<svg xmlns="http://www.w3.org/2000/svg" width="210mm" height="297mm" viewBox="0 0 210 297"><path d="M19.988 183.441c.343-5.103 1.33-10.872 2.694-15.742 1.184-4.229 2.152-8.063 2.152-8.52 0-2.14 10.555-22 12.69-23.879.234-.206 1.887-2.297 3.673-4.647 3.948-5.197 14.813-15.295 19.097-17.75 6.208-3.556 7.665-4.397 10.246-5.915 5.338-3.139 18.77-7.015 26.974-7.784 9.82-.92 11.745-.95 19.142-.294 6.202.551 7.064.74 15.699 3.436 9.575 2.99 22.214 9.772 29.193 15.667 8.235 6.956 20.634 21.326 20.634 23.916 0 .407.274.852.608.989.543.223 6.146 11.386 7.647 15.235 1.358 3.48 2.938 8.896 4.483 15.36 1.085 4.537 2.385 16.403 1.887 17.21-.324.524-28.995.773-88.92.773H19.445Z" stroke="#000" stroke-width="2.832"/></svg>