<svg xmlns="http://www.w3.org/2000/svg" width="210mm" height="297mm" viewBox="0 0 210 297"><path d="M96.084 240.293c-6.727-1.849-12.274-5.15-19.147-11.392-3.713-3.373-7.98-8.069-9.482-10.435-1.502-2.366-2.994-4.304-3.316-4.307-.322-.003-.585-.464-.585-1.027s-.615-1.722-1.366-2.575c-1.93-2.195-3.316-4.762-3.316-6.144 0-.65-.35-1.181-.78-1.181-.43 0-.78-.491-.78-1.091s-1.054-3.094-2.341-5.541c-1.287-2.448-2.34-4.946-2.34-5.552 0-.606-.318-1.711-.705-2.456-.387-.746-1.13-2.935-1.65-4.866-.519-1.932-1.226-4.214-1.57-5.072-.956-2.38-1.627-5.057-2.397-9.558-.386-2.253-1.068-6.115-1.517-8.583-3.914-21.532-3.3-51.087 1.513-72.759.429-1.93 1-4.564 1.27-5.852.27-1.287.776-3.042 1.124-3.9.348-.86 1.085-3.141 1.637-5.072.553-1.932 1.295-3.845 1.65-4.253.354-.407.644-1.378.644-2.156 0-.778.316-2.025.7-2.77.386-.745 2.215-4.515 4.065-8.377 1.85-3.862 5.131-9.656 7.29-12.874l3.925-5.852.586 3.901c.322 2.146.938 6.36 1.368 9.363.75 5.222 1.366 8.68 3.166 17.75a370.29 370.29 0 0 1 1.256 6.64c.244 1.399.756 2.736 1.138 2.972.382.236.694 1.137.694 2.001 0 1.655 3.19 11.643 5.201 16.282 7.117 16.421 13.672 23.408 21.964 23.408 7.213 0 14.754-6.89 20.5-18.727 2.33-4.797 2.984-6.284 4.807-10.923.422-1.073 1.077-2.56 1.457-3.306.378-.745.689-2.216.689-3.27 0-1.053.312-2.108.694-2.344.382-.236.883-1.573 1.115-2.972.697-4.214 1.393-7.138 2.091-8.785.364-.858.89-3.14 1.17-5.071.28-1.932.807-5.092 1.172-7.023a160.34 160.34 0 0 0 1.133-7.022c.259-1.931.874-5.917 1.37-8.858l.898-5.347 2.507 2.9c1.378 1.595 2.972 3.826 3.542 4.957.57 1.131 1.938 3.461 3.04 5.178 4.085 6.358 8.394 16.484 10.21 23.992.39 1.61 1.036 4.243 1.437 5.852 5.11 20.482 6.06 25.773 6.766 37.648 1.23 20.666-.496 40.495-5.16 59.299-.479 1.93-1.066 4.48-1.303 5.666-.238 1.186-.743 2.347-1.123 2.582-.38.235-.69 1.263-.69 2.285 0 1.022-.35 2.076-.78 2.34-.43.266-.78 1.17-.78 2.008 0 .839-.338 2.135-.752 2.88-1.695 3.055-3.93 8.347-3.93 9.304 0 .563-.268 1.024-.596 1.024-.328 0-1.195 1.317-1.927 2.926-1.453 3.195-3.842 7.38-4.566 7.997-.25.215-.778.958-1.17 1.65-3.173 5.603-13.229 15.595-19.53 19.407-9.505 5.75-20.826 7.656-30.19 5.081z" stroke="#000" stroke-width="2.949"/></svg>