<svg xmlns="http://www.w3.org/2000/svg" width="210mm" height="297mm" viewBox="0 0 210 297"><path d="M58.004 146.653c.12-49.99.522-89.293.908-87.343 3.751 18.947 4.772 23.651 5.964 27.489.758 2.438 2.362 8.025 3.563 12.414 3.47 12.671 5.257 17.844 10.878 31.48 1.106 2.682 2.597 6.472 3.314 8.423.716 1.95 3.91 8.734 7.097 15.075 3.187 6.34 6.684 13.316 7.77 15.503 1.088 2.188 2.575 3.983 3.307 3.99.731.008 1.33.939 1.33 2.068 0 3.173 13.766 20.707 25.648 32.668 12.716 12.801 20.519 18.79 32.205 24.72l8.652 4.388-55.42.007-55.421.007z" stroke="#000" stroke-width="6.703"/></svg>