<svg xmlns="http://www.w3.org/2000/svg" width="210mm" height="297mm" viewBox="0 0 210 297"><path d="M18.677 193.74c8.545-4.337 14.822-10.261 21.726-20.509 2.608-3.871 6.23-10.19 8.05-14.041 3.735-7.908 8.318-22.114 9.508-29.468a343.844 343.844 0 0 1 1.769-9.83c1.346-6.798 1.918-16.166 1.838-30.116-.037-6.524.036-11.737.17-11.583.132.153 1.93 4.07 3.996 8.703 4.042 9.062 4.27 9.507 9.667 18.796 3.619 6.23 6.582 10.775 9.946 15.254 1.014 1.351 2.955 3.941 4.312 5.755 2.544 3.401 10.115 12.118 13.265 15.273 4.583 4.592 13.292 12.584 16.114 14.79 1.72 1.344 3.478 2.76 3.906 3.146 1.996 1.799 10.087 7.402 15.948 11.045 11.707 7.277 31.484 16.215 42.552 19.232 10.993 2.997 14.801 3.918 18.333 4.431 2.124.309-38.473.602-90.214.65l-94.075.09z" stroke="#000" stroke-width="2.653"/></svg>