<svg xmlns="http://www.w3.org/2000/svg" width="210mm" height="297mm" viewBox="0 0 210 297"><path d="M29.581 170.216c-12.246-6.214-22.677-11.583-23.18-11.93-.847-.587-.706-.88 1.949-4.061 6.447-7.726 19.803-20.002 26.649-24.494 7.197-4.724 19.452-11.284 24.605-13.171.963-.353 2.201-.823 2.752-1.045 2.95-1.188 5.672-2.17 7.005-2.527.826-.221 3.303-.888 5.504-1.481 5.684-1.533 7.03-1.795 16.512-3.214.826-.123 4.804-.49 8.84-.813 11.557-.927 26.28.59 39.196 4.037l5.504 1.47c1.334.357 4.056 1.34 7.006 2.528.55.222 1.789.692 2.752 1.044 2.997 1.097 14.089 6.684 17.763 8.948 3.892 2.399 9.37 6.042 9.757 6.488.138.16 1.602 1.3 3.253 2.534 1.651 1.235 4.24 3.406 5.754 4.823a376.516 376.516 0 0 0 4.951 4.549l2.2 1.97-17.63 17.599c-9.697 9.679-17.791 17.598-17.988 17.598-.197 0-1.134-.809-2.083-1.797-5.288-5.512-17.355-13.254-24.491-15.714-1.694-.584-2.758-.992-5.129-1.966-.62-.254-1.801-.602-2.627-.773a89.201 89.201 0 0 1-3.502-.829c-6.464-1.676-23.234-2.23-30.023-.993a363.69 363.69 0 0 1-5.133.903c-.897.145-1.755.464-1.906.71-.152.244-.814.444-1.473.444-.66 0-1.828.253-2.598.563l-2.65 1.068c-.688.277-1.701.673-2.252.878-6.901 2.576-18.45 9.77-23.282 14.504-.421.413-1.434 1.358-2.252 2.1l-1.486 1.349z" stroke="#000" stroke-width="1.891"/></svg>