<svg xmlns="http://www.w3.org/2000/svg" width="210mm" height="297mm" viewBox="0 0 210 297"><path d="M104.394 248.808c-4.17-4.264-9.865-11.294-13.73-16.946-1.128-1.652-2.536-3.528-3.128-4.168-.592-.64-1.076-1.364-1.076-1.608s-1.337-2.62-2.97-5.282c-5.066-8.254-10.394-19.86-13.4-29.188-2.269-7.043-6.067-22.298-7.402-29.734-4.428-24.659-1.35-56.508 7.94-82.132 2.989-8.247 8.99-21.132 11.734-25.198.932-1.38 1.695-2.675 1.695-2.876 0-.496 7.224-11.221 8.26-12.264.704-.708 3.08.315 15.956 6.874a7927.04 7927.04 0 0 0 27.055 13.712c6.56 3.302 12.06 6.35 12.221 6.772.162.423-1.051 2.33-2.697 4.24-9.536 11.07-18.403 29.612-21.05 44.019a1466.76 1466.76 0 0 0-1.255 6.944c-.836 4.7-.838 24.642-.004 29.361 1.203 6.804 3.65 16.73 5.178 21.005 3.562 9.967 12.037 24.76 17.642 30.794 4.084 4.395 5.586 2.245-17.882 25.609-11.678 11.627-21.332 21.224-21.453 21.327-.121.102-.857-.465-1.635-1.26z" stroke="#000" stroke-width="2.27"/></svg>