<svg xmlns="http://www.w3.org/2000/svg" width="210mm" height="297mm" viewBox="0 0 210 297"><path d="M92.982 226.922c-9.09-1.667-16.252-4.102-23.906-8.13-3.947-2.076-9.63-5.723-10.948-7.025-.386-.381-1.563-1.34-2.615-2.13-2.53-1.9-7.664-7.055-10.6-10.642-1.296-1.584-2.478-2.998-2.626-3.143-1.158-1.127-8.94-13.729-8.94-14.477 0-.115-.674-1.692-1.499-3.505-8.781-19.31-9.798-44.9-2.615-65.822 2.193-6.385 9.601-20.5 11.997-22.856.147-.145.968-1.208 1.825-2.364 1.915-2.585 9.59-10.293 13.148-13.206 7.774-6.364 20.402-12.636 29.949-14.876 1.445-.338 3.455-.82 4.466-1.069 1.012-.25 4.87-.75 8.573-1.114 17.023-1.67 35.502 3.119 50.537 13.097 5.27 3.498 16.078 13.585 18.673 17.43.683 1.012 1.387 1.958 1.565 2.102 1.006.82 4.635 6.723 7.087 11.529 6.133 12.022 9.717 27.194 9.717 41.14 0 10.164-2.954 25.702-6.318 33.237-3.625 8.118-8.066 16.383-9.458 17.602-.165.144-.868 1.09-1.563 2.101-3.403 4.957-9.948 11.828-15.014 15.763-4.025 3.126-5.65 4.255-8.893 6.178-12.662 7.51-23.367 10.56-38.355 10.926-7.12.173-9.999.023-14.187-.746zm52.542-55.953c9.322-2.49 16.026-10.824 16.026-19.921 0-2.988-.274-3.972-2.3-8.262-2.49-5.275-6.437-8.715-12.081-10.531-9.317-2.998-20.53 1.566-24.533 9.985a177.14 177.14 0 0 1-1.601 3.296c-.67 1.305-.579 9.534.124 11.279 3.08 7.648 7.848 12.192 14.742 14.047 3.562.959 6.32.99 9.623.107z" stroke="#000" stroke-width="1.986"/></svg>