<svg xmlns="http://www.w3.org/2000/svg" width="210mm" height="297mm" viewBox="0 0 210 297"><path d="M94.732 225 77.17 207.447l1.06-1.37a50.943 50.943 0 0 1 2.16-2.577c.605-.665 1.92-2.416 2.92-3.892 1-1.475 1.961-2.791 2.134-2.925.174-.134.779-1.064 1.345-2.067a534.444 534.444 0 0 1 2.081-3.648c1.249-2.165 1.972-3.616 3.03-6.08.43-1.003 1.117-2.583 1.526-3.51.962-2.178 2.643-7.26 3.223-9.745.25-1.07.673-2.82.94-3.89 2.185-8.771 2.19-26.951.01-36.724-1.926-8.639-2.865-11.313-7.007-19.942-1.092-2.274-2.163-4.208-2.38-4.297-.217-.09-.395-.39-.395-.67 0-.993-6.782-10.465-9.647-13.472-.553-.58 1.962-3.3 16.533-17.875 9.452-9.455 17.45-17.19 17.772-17.19.322 0 .761.31.975.689.214.38 1.383 1.747 2.597 3.04s2.965 3.336 3.891 4.54c.926 1.203 1.807 2.298 1.959 2.432.151.133 1.019 1.337 1.927 2.675.909 1.337 2.48 3.526 3.492 4.864 1.012 1.337 1.841 2.59 1.843 2.785 0 .194 1.315 2.552 2.92 5.24s2.918 5.003 2.918 5.145c0 .142 1.095 2.533 2.432 5.313 1.338 2.78 2.432 5.288 2.432 5.574 0 .286.209.9.464 1.364.255.464.926 2.267 1.491 4.006.565 1.739 1.207 3.6 1.427 4.134.376.918.59 1.686 1.962 7.053.307 1.204.742 2.845.966 3.648.383 1.372.819 3.845 1.948 11.066 1.18 7.542 1.593 17.915 1.028 25.829-.308 4.32-.784 9.276-1.056 11.015-1.213 7.739-1.539 9.575-1.942 10.944-.236.803-.785 2.987-1.22 4.853-1.362 5.848-4.786 15.708-7.35 21.17-3.704 7.891-5.65 11.57-7.503 14.18-.503.71-.915 1.434-.915 1.608 0 .44-3.502 5.55-6.999 10.213-2.757 3.676-3.793 4.911-8.122 9.678l-1.745 1.922z" stroke="#000" stroke-width="1.838"/></svg>