<svg xmlns="http://www.w3.org/2000/svg" width="210mm" height="297mm" viewBox="0 0 210 297"><path d="M98.792 196.885c-.168-.177-2.875-.551-6.014-.832-6.542-.586-11.369-1.255-15.12-2.096a106.83 106.83 0 0 0-4.32-.876c-.937-.16-1.834-.5-1.992-.755-.158-.256-.85-.466-1.54-.466-.688 0-1.792-.205-2.452-.456-.661-.25-2.143-.737-3.293-1.08-2.121-.633-2.936-.934-5.753-2.124-.863-.365-2.099-.867-2.746-1.116a490.55 490.55 0 0 1-2.353-.915c-3.722-1.458-13.214-6.385-16.45-8.537-2.072-1.379-4.014-2.507-4.314-2.507a.537.537 0 0 1-.547-.523c0-.287-.272-.523-.605-.523-.5 0-5.828-3.752-6.716-4.73-.144-.159-1.086-.858-2.092-1.555-2.107-1.459-4.527-3.57-9.555-8.333l-3.562-3.375 18.714-18.72c10.293-10.297 18.952-18.714 19.24-18.706.29.007 1.962 1.361 3.716 3.007 4.219 3.957 4.496 4.172 10.764 8.335 6.202 4.119 11.825 6.976 16.902 8.588 1.15.365 2.315.852 2.588 1.08.273.23 1.142.417 1.93.417.789 0 1.563.209 1.721.465.159.256 1.173.615 2.254.798 1.081.183 3.496.604 5.365.934 4.285.758 21.718.745 25.887-.02a564.81 564.81 0 0 1 5.104-.911c1.081-.185 2.095-.546 2.253-.802.158-.256.851-.465 1.54-.465.688 0 1.91-.264 2.714-.588.805-.323 1.993-.794 2.64-1.046l2.353-.917c4.306-1.68 13.523-6.662 13.902-7.516.096-.216.464-.392.817-.392.353 0 1.099-.412 1.656-.915.558-.504 1.953-1.618 3.1-2.476 1.148-.858 3.501-2.91 5.23-4.561 1.729-1.65 3.38-3.008 3.669-3.016.289-.007 8.966 8.429 19.283 18.749l18.758 18.763-3.072 2.886c-5.155 4.846-6.248 5.82-8.055 7.177-2.242 1.685-4.88 3.819-5.214 4.218-.593.707-8.363 5.719-8.867 5.719-.3 0-.546.235-.546.523 0 .287-.258.523-.573.523-.315 0-1.286.507-2.157 1.127-2.118 1.509-15.584 8.286-16.463 8.286-.382 0-1.103.208-1.602.462-.5.254-1.497.693-2.216.976-2.293.902-4.418 1.808-5.353 2.284-.5.254-1.486.462-2.192.462-.706 0-1.413.209-1.571.465-.158.256-1.055.592-1.992.747-2.851.472-4.79.936-5.888 1.41-.575.248-1.987.59-3.138.762-1.15.171-3.504.54-5.23.818-8.293 1.34-27.831 2.619-28.547 1.869z" stroke="#000" stroke-width="1.977"/></svg>