<svg xmlns="http://www.w3.org/2000/svg" width="210mm" height="297mm" viewBox="0 0 210 297"><path d="M33.49 205.76c2.894-.276 8.677-1.459 10.217-2.09 1.32-.541 3.69-1.1 6.971-1.643 1.11-.183 2.171-.581 2.358-.884.188-.303 1.004-.551 1.816-.551.81 0 1.646-.278 1.857-.62.21-.34.927-.618 1.593-.618.665 0 1.694-.246 2.285-.547.591-.301 1.911-.89 2.933-1.31 1.021-.42 2.34-1.01 2.932-1.311.592-.301 1.397-.547 1.79-.547 2.195 0 23.954-11.933 28.221-15.477.412-.342.969-.621 1.239-.622.27 0 1.326-.728 2.347-1.617a88.065 88.065 0 0 1 4.025-3.246c1.192-.897 2.306-1.773 2.477-1.947.17-.174 1.424-1.14 2.786-2.146 6.563-4.848 23.297-22.846 28.803-30.978 1.152-1.703 2.453-3.46 2.89-3.905 1.063-1.084 5.146-8.081 5.146-8.821 0-.322.209-.588.464-.59.256-.003.772-.63 1.146-1.394 1.83-3.726 3.7-6.981 4.117-7.167.256-.114.464-.529.464-.923s.947-2.67 2.105-5.056c2.772-5.718 3.819-8.16 4.781-11.15.438-1.363 1.019-2.742 1.29-3.065.27-.324.493-1.183.493-1.91 0-.726.188-1.51.419-1.74.757-.757 3.263-8.727 3.28-10.43.008-.917.294-1.839.634-2.05.341-.21.62-1.324.62-2.476s.249-2.248.553-2.436c.542-.335.83-1.79 1.85-9.328.28-2.065.545 27.98.598 67.642l.094 71.357-68.88-.099c-37.884-.054-67.905-.192-66.713-.305z" stroke="#000" stroke-width="2.34"/></svg>