<svg xmlns="http://www.w3.org/2000/svg" width="210mm" height="297mm" viewBox="0 0 210 297"><path d="M41.92 176.181c.129-.307.77-1.658 1.425-3 .655-1.344 1.19-2.736 1.19-3.093 0-.358.127-.729.283-.825.155-.096.358-.571.452-1.056.094-.485.342-1.456.552-2.158.402-1.348.754-4.147 1.13-9.007.399-5.136-1.12-12.463-3.648-17.588-.376-.763-.683-1.527-.683-1.698 0-.171-.4-.912-.888-1.645-.488-.734-1.085-1.727-1.327-2.206-.242-.48-.673-1.126-.956-1.436-.284-.31-.864-1.067-1.29-1.681-1.222-1.766-5.7-6.118-8.144-7.916-1.229-.903-3.167-2.112-4.308-2.685-1.14-.574-2.122-1.152-2.18-1.284-.06-.133-.312-.241-.563-.241-.251 0-.742-.144-1.09-.32l-1.268-.637c-.349-.176-.895-.32-1.213-.32-.318 0-.715-.132-.882-.294-.167-.162-.734-.356-1.26-.43-.527-.076 36.701-.159 82.728-.185 46.027-.026 83.686.057 83.686.185 0 .278-9.685 24.867-10.56 26.808-.335.744-.609 1.471-.609 1.615 0 .145-.287.858-.638 1.584-.351.727-.638 1.445-.638 1.596 0 .15-.287.869-.638 1.595-.351.727-.639 1.445-.639 1.596 0 .15-.287.869-.638 1.595-.35.727-.638 1.474-.638 1.66 0 .187-.127.588-.282.893-.298.586-.895 1.99-1.356 3.187-.152.395-.42 1.077-.596 1.516-.175.438-.443 1.12-.595 1.515-.152.395-.44 1.113-.639 1.596l-.723 1.755c-.199.483-.486 1.2-.638 1.595-.152.395-.44 1.113-.639 1.596-.198.483-.486 1.2-.638 1.595-.81 2.104-1.596 4.007-1.909 4.623-.155.305-.282.772-.282 1.037 0 .895-.656.494-3.192-1.95-1.389-1.339-2.854-2.659-3.256-2.934-.403-.274-.804-.588-.891-.696-.518-.636-5.803-4.392-8.708-6.188-2.958-1.828-10.297-5.6-12.194-6.266a35.222 35.222 0 0 1-1.436-.554c-.439-.181-1.3-.502-1.914-.713a73.303 73.303 0 0 1-1.755-.627c-1.53-.581-2.967-.969-3.594-.969-.372 0-.756-.128-.852-.284-.097-.156-.644-.36-1.216-.455a36.058 36.058 0 0 1-2.476-.54c-.79-.203-2.297-.494-3.35-.648a428.29 428.29 0 0 1-4.468-.686c-3.249-.517-15.72-.528-19.146-.019-5.688.848-6.762 1.028-8.138 1.367-.79.194-1.904.43-2.476.525-.572.094-1.119.3-1.215.455-.097.156-.48.284-.852.284-.828 0-2.405.483-5.11 1.564-.394.157-1.22.459-1.834.67-1.921.66-2.284.819-6.802 2.99-4.791 2.303-9.83 5.375-13.999 8.533-2.543 1.926-3.626 2.863-7.617 6.586-1.9 1.773-2.344 2.026-1.96 1.117z" stroke="#000" stroke-width="1.206"/></svg>