<svg xmlns="http://www.w3.org/2000/svg" width="210mm" height="297mm" viewBox="0 0 210 297"><path d="M119.078 239.082c0-1.187-.289-3.26-.642-4.604a267.386 267.386 0 0 1-1.139-4.525c-1.388-5.797-2.024-8.013-4.26-14.853-3.162-9.668-7.995-20.742-12.186-27.924-4.679-8.017-8.227-13.571-9.109-14.259-.209-.163-1.547-2.035-2.973-4.159-1.426-2.124-3.28-4.53-4.12-5.347-.84-.817-2.72-2.956-4.18-4.753-1.458-1.797-3.096-3.655-3.64-4.128-1.058-.918-1.047-.97 1.338-6.411.607-1.385 1.104-2.739 1.104-3.008 0-.269.535-1.596 1.188-2.948.654-1.353 1.189-2.743 1.189-3.09 0-.348.236-1.096.524-1.663.289-.567.797-1.7 1.13-2.517.332-.817 1.165-2.752 1.851-4.3.686-1.55 1.248-3.037 1.248-3.306 0-.269.534-1.595 1.188-2.948.653-1.353 1.188-2.82 1.188-3.26 0-.441.227-1.055.503-1.366.277-.31 1.372-2.837 2.433-5.614 2.417-6.323 2.61-6.8 4.134-10.243.687-1.548 1.248-3.035 1.248-3.304 0-.27.535-1.596 1.188-2.949.654-1.352 1.188-2.82 1.188-3.26 0-.44.23-1.055.511-1.366.281-.31 4.178-9.921 8.659-21.358 4.48-11.437 8.395-21.396 8.698-22.132l1.101-2.673c.303-.735.683-1.738.844-2.228.162-.49.315 43.557.34 97.882.028 54.325-.086 98.773-.25 98.773-.163 0-.296-.971-.296-2.159z" stroke="#000" stroke-width="2.246"/></svg>