<svg xmlns="http://www.w3.org/2000/svg" width="210mm" height="297mm" viewBox="0 0 210 297"><path d="M135.423 189.626c-27.914-4.684-56.135-14.424-79.785-27.536-16.61-9.209-16.437-8.924-12.084-19.967 5.98-15.173 14.542-28.954 23.921-38.506 17.576-17.899 30.67-17.169 50.61 2.82 8.518 8.54 13.929 16.4 20.053 29.13 4.612 9.587 9.169 18.946 10.125 20.796.956 1.85 1.738 4.694 1.738 6.321 0 1.627.787 4.472 1.749 6.322 3.372 6.487 6.47 19.436 5.159 21.559-1.528 2.47-1.04 2.492-21.486-.938z" stroke="#000" stroke-width="7.321"/></svg>