<svg xmlns="http://www.w3.org/2000/svg" width="210mm" height="297mm" viewBox="0 0 210 297"><path d="M90.437 142.983c-.011-64.298.132-116.229.312-115.402.18.827.602 2.18.936 3.007 1.059 2.614 2.321 6.84 2.321 7.768 0 .996 3.043 7.806 3.751 8.396.249.206 1.697 2.913 3.218 6.014 1.521 3.102 3.545 6.485 4.498 7.518.953 1.034 2.538 3.064 3.522 4.511 1.734 2.55 8.527 9.496 14.85 15.185 3.023 2.72 3.07 2.838 2.177 5.437-.502 1.46-1.145 2.888-1.428 3.171-.284.284-.516 1.623-.516 2.977 0 1.354-.3 2.648-.668 2.875-.368.227-.857 1.516-1.086 2.864-.23 1.347-.795 4.142-1.256 6.209-.804 3.605-1.368 6.824-2.997 17.103-1.93 12.178-2.533 23.367-2.654 49.266-.129 27.655-.359 30.462-2.664 32.493-2.262 1.992-11.229 17.985-11.229 20.026 0 .563-.338 1.024-.752 1.024-.413 0-.751.512-.751 1.138 0 .626-.3 1.725-.664 2.443-1.163 2.286-2.146 4.968-3.095 8.448-.508 1.86-1.185 4.06-1.504 4.887-1.144 2.964-3.184 11.908-4.03 17.667-.152 1.034-.283-50.728-.29-115.025z" stroke="#000" stroke-width="2.841"/></svg>