<svg xmlns="http://www.w3.org/2000/svg" width="210mm" height="297mm" viewBox="0 0 210 297"><path d="M59.066 221.656c-.417-1.004-.994-12.485-1.28-25.514-.926-42.019 3.598-80.467 13.49-114.659.843-2.91 1.918-5.292 2.39-5.292.47 0 4.745 2.246 9.498 4.991 4.753 2.745 13.067 6.446 18.475 8.225 9.2 3.026 12.2 3.637 26.466 5.386 9.595 1.176 9.81 1.276 10.43 4.825.316 1.807 1.064 5.78 1.663 8.829 4.39 22.337 6.402 41.728 7.68 74.035.77 19.399-1.08 40.562-3.344 38.298-4.314-4.314-10.845-8.819-17.941-12.375-17.937-8.988-34.559-7.873-52.554 3.526-2.848 1.803-5.82 3.865-6.606 4.581-.785.716-2.819 2.578-4.518 4.136-2.826 2.593-3.155 2.679-3.85 1.008z" stroke="#000" stroke-width="3.81"/></svg>