<svg xmlns="http://www.w3.org/2000/svg" width="210mm" height="297mm" viewBox="0 0 210 297"><path d="M92.304 245.946c-4.439-8.678-13.17-22.019-18.04-27.566l-3.377-3.846 1.281-9.625c1.42-10.663.73-59.72-1.092-77.85-1.66-16.508-4.233-33.679-6.794-45.342a946.86 946.86 0 0 1-1.866-8.677l-.637-3.08 8.245-.024c9.57-.034 13.822-.885 30.696-6.157 14.134-4.416 33.413-14.606 42.236-22.324 3.15-2.755 5.929-4.81 6.174-4.564.246.246-1.13 2.738-3.056 5.538-15.814 22.985-35.247 65.308-40.53 88.271-.976 4.243-2.205 9.225-4.417 17.914-.666 2.617-1.663 7.78-2.215 11.476a1717.614 1717.614 0 0 1-2.26 14.554c-1.878 11.728-2.588 67.152-.936 73.085.734 2.635 1.127 4.997.876 5.249-.253.252-2.182-2.912-4.288-7.03z" stroke="#000" stroke-width="4.231"/></svg>