<svg xmlns="http://www.w3.org/2000/svg" width="210mm" height="297mm" viewBox="0 0 210 297"><path d="M89.875 234.673c-18.217-10.665-35.255-53.23-43.784-109.38a3959 3959 0 0 0-2.782-17.97c-2.023-12.833-1.822-15.152 1.655-19.084 5.757-6.508 19.497-16.73 27.061-20.13 17.174-7.723 26.057-9.245 39.087-6.7 16.436 3.212 26.014 8.092 41.567 21.179l7.345 6.18-.93 6.959c-5.093 38.09-7.838 53.046-13.097 71.36-.866 3.014-1.903 7.184-2.305 9.265-.402 2.082-1.275 4.122-1.942 4.534-.667.413-1.212 1.955-1.212 3.428 0 1.473-.565 3.749-1.256 5.057-.69 1.309-2.299 4.846-3.575 7.86-6.165 14.566-10.894 22.309-18.24 29.867-10.644 10.949-18.258 13.04-27.592 7.575z" stroke="#000" stroke-width="5.179"/></svg>