<svg xmlns="http://www.w3.org/2000/svg" width="210mm" height="297mm" viewBox="0 0 210 297"><path d="M64.236 224.211v-16.774l6.077-.714c17.577-2.066 35.884-14.989 44.982-31.754 7.23-13.324 11.213-33.246 6.972-34.873-.982-.377-14.44-.685-29.908-.685H64.236V49.122h23.502l2.409 9.876a2292.246 2292.246 0 0 1 3.994 16.647c3.722 15.902 6.008 24.956 6.768 26.804.737 1.792 2.997 1.975 24.392 1.975h23.58V204.813l-5.36 2.382c-2.949 1.31-7.647 3.4-10.44 4.645-2.793 1.244-6.095 2.678-7.336 3.187-1.241.509-4.543 1.936-7.336 3.172-2.793 1.236-7.11 3.127-9.593 4.202a1139.15 1139.15 0 0 0-9.029 3.965c-13.193 5.876-15.155 6.719-15.638 6.719-.289 0-4.321 1.777-8.96 3.95-4.64 2.172-9.002 3.95-9.694 3.95-.87 0-1.259-5.187-1.259-16.774z" stroke="#000" stroke-width="4.266"/></svg>