<svg xmlns="http://www.w3.org/2000/svg" width="210mm" height="297mm" viewBox="0 0 210 297"><path d="M87.855 195.949c-2.662-2.667-9.035-7.78-9.697-7.78-.182 0-.381-.115-.444-.256-.195-.44-3.357-2.479-3.842-2.479-.254 0-.653-.23-.887-.512-.234-.283-.714-.513-1.067-.513s-.642-.118-.642-.261c0-.235-2.19-1.32-4.444-2.203a27.44 27.44 0 0 1-1.822-.815c-.532-.265-1.225-.486-1.538-.492-.314-.007-.87-.237-1.235-.513-.364-.276-1.163-.502-1.774-.502s-1.199-.142-1.306-.315c-.107-.174-.655-.417-1.217-.54l-1.021-.225-.029-4.844c-.015-2.664-.177-5.767-.358-6.895a92.926 92.926 0 0 1-.59-4.785c-.143-1.504-.443-3.071-.667-3.482-.224-.41-.407-1.159-.407-1.663s-.223-1.63-.495-2.5c-.273-.872-.766-2.508-1.098-3.636-.33-1.128-.703-2.205-.827-2.393-.124-.188-.33-.919-.457-1.624-.127-.705-.378-1.282-.557-1.282-.18 0-.326-.365-.326-.812 0-.447-.231-1.004-.513-1.239-.282-.234-.513-.625-.513-.868 0-.46-.427-1.406-1.69-3.746-.405-.752-.898-1.79-1.095-2.308-.197-.517-.497-.94-.667-.94-.17 0-.308-.205-.308-.455 0-.393-3.905-6.594-4.45-7.065-.108-.094-.951-1.171-1.874-2.393-1.78-2.36-10.206-10.939-10.743-10.939-.175 0-.521-.195-.77-.432-1.03-.987-3.31-2.644-3.634-2.644-.193 0-.401-.122-.464-.27-.31-.735-10.473-6.225-11.523-6.225-.327 0-.894-.226-1.259-.502-.365-.276-.98-.507-1.367-.513-.387-.007-1.003-.237-1.368-.513-.364-.276-1.132-.507-1.706-.513-.573-.007-1.206-.174-1.406-.374-.2-.2-1.115-.49-2.034-.643-.918-.154 42.824-.298 97.206-.32l98.877-.04V198.765l-54.609-.038-54.608-.04z" stroke="#000" stroke-width="1.292"/></svg>