<svg xmlns="http://www.w3.org/2000/svg" width="210mm" height="297mm" viewBox="0 0 210 297"><path d="M38.661 206.19c-.22-.574-.4-29.178-.4-63.564V80.105H69.41c29.112 0 31.17.072 31.486 1.111.413 1.36 2.001 4.966 3.19 7.245.483.927.879 2.142.879 2.7 0 .557.285 1.014.635 1.014.35 0 .635.42.635.933 0 .945 1.62 4.163 3.848 7.643.671 1.048 1.41 2.334 1.642 2.858.735 1.662 6.193 9.838 6.715 10.059.275.116.5.616.5 1.111s.242.9.538.9c.296 0 .796.534 1.112 1.187.83 1.718 6.147 7.745 12.063 13.675 5.265 5.278 5.914 5.86 11.38 10.232 1.747 1.397 3.271 2.754 3.388 3.016.116.263.616.477 1.111.477s.9.267.9.592c0 .326.603.784 1.34 1.018.738.234 2.046 1.04 2.907 1.79 1.568 1.366 6.666 4.51 8.459 5.217.524.207 1.81.833 2.858 1.391 3.343 1.78 3.763 1.98 6.353 3.023 1.397.562 3.35 1.434 4.34 1.936.988.503 2.275.923 2.858.935.583.013 1.615.44 2.293.952.678.513 2.122.933 3.208.933 1.087 0 2.267.293 2.624.65.357.356 1.915.897 3.462 1.2 2.478.487 2.095.565-3.221.66-3.32.06-7.465.398-9.212.753-1.747.355-5.606.848-8.576 1.095-2.97.248-5.828.717-6.352 1.045-.525.327-2.382.795-4.13 1.039-3.644.51-8.384 1.708-9.996 2.527-.607.309-1.607.562-2.224.565-.616 0-1.939.43-2.94.953-1 .521-2.243.949-2.76.949-.518 0-1.7.395-2.627.879a84.79 84.79 0 0 1-3.91 1.866c-2.999 1.331-13.98 6.652-15.564 7.541-.699.392-1.7.94-2.223 1.216-7.807 4.12-10.63 5.576-14.929 7.703-2.795 1.383-5.84 2.916-6.768 3.407-.927.49-2.142.892-2.7.892-.557 0-1.014.286-1.014.635 0 .35-.457.636-1.015.636-.559 0-1.917.382-3.018.848-3.838 1.627-6.467 2.467-9.18 2.935-1.501.26-3.06.8-3.461 1.203-.402.402-1.98.731-3.505.731s-3.384.327-4.131.727c-1.524.815-10.717 1.8-20.87 2.236-5.838.25-6.8.15-7.146-.753z" stroke="#000" stroke-width="2.401"/></svg>