<svg xmlns="http://www.w3.org/2000/svg" width="210mm" height="297mm" viewBox="0 0 210 297"><path d="M157.112 208.467c-1.31-.683-3.39-1.242-4.622-1.242-1.232 0-2.966-.549-3.854-1.22-.887-.672-2.362-1.245-3.276-1.274-.915-.026-2.39-.602-3.277-1.274-.888-.671-2.202-1.22-2.92-1.22-1.722 0-19.057-8.776-25.397-12.858-4.49-2.89-14.33-10.065-15.38-11.214-.23-.25-2.1-1.818-4.158-3.485-5.326-4.314-10.579-9.53-15.38-15.276-2.287-2.735-4.38-5.16-4.652-5.389-.272-.229-2.8-3.596-5.619-7.482-2.818-3.887-5.42-7.442-5.783-7.899-.362-.457-.925-1.392-1.25-2.078-.324-.686-1.312-2.37-2.195-3.742-2.681-4.167-11.678-22.386-11.706-23.706-.017-.68-.564-1.946-1.22-2.813-.657-.868-.997-1.897-.756-2.286.241-.39 26.605-.71 58.587-.71h58.15v53.21c0 50.124-.089 53.21-1.456 53.205-.8-.002-2.526-.564-3.836-1.247z" stroke="#000" stroke-width="3.142"/></svg>