<svg xmlns="http://www.w3.org/2000/svg" width="210mm" height="297mm" viewBox="0 0 210 297"><path d="m78.231 158.063-.19-72.715h35.025c22.335 0 35.025.551 35.025 1.523 0 .838-.545 1.523-1.21 1.523-1.492 0-20.11 25.424-20.11 27.462 0 .81-.703 1.472-1.56 1.472-.859 0-2.24 1.542-3.072 3.426-.831 1.884-3.574 6.853-6.096 11.04-2.522 4.188-5.25 8.985-6.062 10.66-.812 1.675-2.066 4.074-2.786 5.33-4.086 7.123-6.312 12.174-6.312 14.321 0 1.336-.63 2.43-1.402 2.43-.77 0-1.851 2.048-2.401 4.551-.55 2.503-1.632 4.942-2.405 5.42-.774.477-1.406 1.924-1.406 3.214 0 1.289-.915 4.504-2.033 7.143-4.011 9.465-5.975 15.544-6.713 20.788-.413 2.932-1.428 6.174-2.257 7.205-.828 1.032-2.031 5.486-2.675 9.899-.654 4.484-1.253-24.045-1.36-64.692z" stroke="#000" stroke-width="5.756"/></svg>