<svg xmlns="http://www.w3.org/2000/svg" width="210mm" height="297mm" viewBox="0 0 210 297"><path d="M43.119 201.698c-.785-.336-3.945-.846-7.02-1.133l-5.593-.523.348-3.65c.317-3.318 1.64-12.245 3.185-21.495.328-1.963.98-4.271 1.447-5.129.469-.857.862-2.624.874-3.926.016-1.301.494-2.99 1.071-3.752.577-.762 1.048-2.108 1.048-2.992 0-.883.297-1.789.659-2.013.363-.224.869-1.447 1.125-2.719.257-1.271 1.278-4.078 2.269-6.237 1.825-3.976 3.305-7.33 4.095-9.28.239-.59 1.069-2.034 1.845-3.212.777-1.178 1.636-2.624 1.91-3.212 1.05-2.267 4.843-8.22 5.379-8.447.31-.131.563-.667.563-1.19 0-.524.241-1.059.536-1.19.295-.13 1.44-1.571 2.547-3.202 1.107-1.63 3.63-4.762 5.606-6.96l3.593-3.995h59.25c56.146 0 59.223.068 58.742 1.25-.28.686-.756 2.073-1.06 3.082-.506 1.679-1.386 3.56-2.983 6.375a22.75 22.75 0 0 0-1.046 2.142c-1.126 2.75-3.34 7.1-5.268 10.35-1.165 1.963-2.344 4.05-2.621 4.64-.277.589-2.209 3.382-4.292 6.208-2.084 2.825-3.79 5.404-3.79 5.73 0 .326-.561 1.09-1.248 1.696-.687.607-2.534 2.67-4.105 4.583-3.71 4.52-10.464 11.285-15.311 15.332-2.116 1.767-4.373 3.713-5.016 4.324-.643.611-3.56 2.697-6.482 4.634-2.922 1.938-5.473 3.686-5.67 3.885-.642.654-3.127 2.044-8.565 4.794-2.945 1.489-5.461 2.948-5.592 3.242-.13.295-.564.536-.963.536-.785 0-4.718 1.61-7.958 3.256-1.111.565-2.576 1.027-3.254 1.027-.679 0-1.857.471-2.62 1.048-.761.576-2.145 1.058-3.073 1.07-.93.016-3.178.49-4.997 1.059-9.76 3.053-18.148 4.163-33.289 4.402-7.066.112-13.49-.075-14.276-.408z" stroke="#000" stroke-width="2.698"/></svg>