<svg xmlns="http://www.w3.org/2000/svg" width="210mm" height="297mm" viewBox="0 0 210 297"><path d="M97.977 205.773c-.75-.167-2.518-.448-3.927-.625-2.69-.338-6.08-1.066-6.66-1.43-.187-.119-.879-.324-1.536-.457-1.391-.282-3.825-1.06-4.692-1.499-1.43-.725-3.224-1.413-3.686-1.413-.276 0-.501-.122-.501-.27 0-.15-.907-.687-2.015-1.195-1.107-.509-2.813-1.463-3.79-2.12-.977-.658-1.846-1.196-1.931-1.196-.223 0-5.226-3.712-6.41-4.755-1.551-1.366-7.118-6.928-7.888-7.88-1.478-1.83-4.945-6.457-4.945-6.6 0-.084-.615-1.073-1.366-2.198-.751-1.126-1.366-2.208-1.366-2.406 0-.197-.192-.564-.427-.815-.449-.48-.875-1.324-2.638-5.228-.594-1.314-1.223-2.657-1.398-2.983-.175-.326-.318-.873-.318-1.215 0-.343-.225-.921-.501-1.286-.276-.364-.507-1.056-.513-1.537-.007-.48-.236-1.172-.512-1.536-.276-.365-.506-1.096-.512-1.625-.007-.529-.18-1.278-.388-1.666-.207-.387-.52-1.568-.696-2.624-1.18-7.08-1.393-8.935-1.54-13.386l-.166-4.977 2.158.348c5.017.808 22.27.272 24.697-.767.648-.278 2.296-.744 4.952-1.4 1.42-.352 3.296-1.062 4.332-1.64.41-.23.976-.417 1.257-.417.706 0 7.396-3.478 9.874-5.132 1.117-.746 2.107-1.357 2.2-1.357.161 0 2.819-2.004 3.169-2.39.094-.104.862-.713 1.707-1.353 2.992-2.267 11.267-10.997 11.55-12.187.062-.254.243-.462.403-.462.16 0 .88-.939 1.597-2.086a224.608 224.608 0 0 1 1.898-2.988c.326-.496.751-1.21.945-1.585.194-.376.816-1.452 1.382-2.39.566-.94 1.114-1.939 1.216-2.22.103-.282.405-.92.672-1.42.267-.498.486-1.132.486-1.409 0-.277.23-.694.512-.928.282-.234.512-.663.512-.955 0-.29.27-1.113.598-1.827l.598-1.299 18.668-.007 18.668-.007.968 1.06a88.31 88.31 0 0 0 1.516 1.623c.972.996 5.429 7.202 5.429 7.558 0 .19.153.346.341.346.188 0 .342.172.342.383 0 .211.691 1.523 1.537 2.915.845 1.392 1.536 2.738 1.536 2.99 0 .252.231.65.513.883.282.234.512.625.512.868 0 .244.257.955.57 1.58.93 1.857 1.04 2.134 1.291 3.28.132.602.382 1.182.556 1.29.173.106.315.54.315.962 0 .423.225 1.067.501 1.432.276.364.507 1.172.513 1.795.007.623.194 1.468.418 1.878.224.41.515 1.438.647 2.283.133.845.399 2.459.592 3.586 1.424 8.321 1.377 17.418-.127 24.076-.275 1.22-.5 2.546-.498 2.946.002.4-.228 1.278-.51 1.953-.281.674-.516 1.73-.522 2.347-.007.616-.237 1.419-.513 1.783-.275.365-.501 1.01-.501 1.432 0 .422-.142.856-.315.963-.174.107-.424.687-.556 1.29-.132.602-.352 1.33-.488 1.618a86.382 86.382 0 0 0-.77 1.718c-1.183 2.71-2.9 6.105-4.103 8.117-.705 1.177-1.281 2.226-1.281 2.331 0 .105-.692 1.09-1.537 2.188s-1.537 2.084-1.537 2.191c0 .182-.562.878-2.22 2.748-.375.424-1.368 1.599-2.206 2.611-.839 1.013-2.733 2.917-4.21 4.232a1292.355 1292.355 0 0 0-3.29 2.936c-1.27 1.145-6.579 4.893-7.54 5.323-.281.126-.588.325-.682.443-.094.118-.813.543-1.597.945-2.13 1.092-2.958 1.526-3.526 1.849-.282.16-.743.378-1.024.485-.282.108-.92.414-1.42.681-.498.267-1.138.486-1.423.486-.284 0-1.029.256-1.655.57-2.116 1.06-2.322 1.137-3.045 1.137-.396 0-1.205.21-1.797.466-1.383.598-4.198 1.21-7.223 1.57-1.315.156-3.219.454-4.23.66-2.144.44-9.493.437-11.48-.003z" stroke="#000" stroke-width="1.291"/></svg>