<svg xmlns="http://www.w3.org/2000/svg" width="210mm" height="297mm" viewBox="0 0 210 297"><path d="M46.568 139.383c.027-33.66.217-60.514.419-59.678.201.836.634 2.018.962 2.627.327.609.594 1.46.594 1.893 0 .743 2.859 5.833 3.58 6.376.186.14.498.767.694 1.394.196.627.542 1.14.77 1.14.227 0 .547.399.71.887.967 2.877 9.332 11.653 16.794 17.617 1.392 1.112 3.1 2.535 3.796 3.162.697.627 1.464 1.14 1.706 1.14.241 0 1.303.684 2.358 1.52 1.056.837 2.172 1.52 2.48 1.52.309 0 .561.177.561.392 0 .215 1.026.951 2.28 1.636 1.255.686 2.281 1.395 2.281 1.578 0 .182.4.47.887.638.488.168 1.571.75 2.408 1.291a66.179 66.179 0 0 0 3.547 2.089c1.115.607 2.141 1.25 2.28 1.429.14.178 1.28.85 2.535 1.492 1.254.642 2.965 1.609 3.8 2.148.837.54 1.863 1.137 2.281 1.33.419.191 1.559.842 2.534 1.445 1.744 1.08 5.654 3.284 9.1 5.133.963.517 2.062 1.224 2.443 1.573.381.348.94.633 1.243.633.302 0 1.255.53 2.117 1.178.863.648 1.91 1.334 2.329 1.526.418.191 1.444.804 2.28 1.362.837.558 1.92 1.152 2.408 1.32.487.169.887.493.887.72 0 .228.513.574 1.14.77.627.196 1.254.511 1.394.701.23.314 4.994 3.613 6.988 4.84a15.24 15.24 0 0 1 1.435 1.013c.337.28 1.355 1.077 2.265 1.774.91.697 1.9 1.495 2.201 1.774.301.279 1.915 1.646 3.585 3.039 1.67 1.392 3.722 3.303 4.558 4.247.836.944 2.391 2.655 3.455 3.803 3.501 3.777 9.468 13.503 9.468 15.433 0 .497.335 1.348.744 1.889.41.54.752 1.39.76 1.888.011.498.341 1.41.737 2.027.423.66.786 2.796.88 5.177l.158 4.055-61.442.128-61.442.13z" stroke="#000" stroke-width="1.915"/></svg>