<svg xmlns="http://www.w3.org/2000/svg" width="210mm" height="297mm" viewBox="0 0 210 297"><path d="M154.165 218.324c-.071-.772-.439-1.813-.817-2.312-.378-.5-.687-1.257-.687-1.683 0-.799-1.328-3.78-1.87-4.194-.167-.13-.455-.55-.64-.936-.388-.813-.977-1.783-2.798-4.608-2.056-3.188-8.594-10.124-12.653-13.423a164.93 164.93 0 0 1-3.743-3.137c-.803-.703-1.603-1.282-1.777-1.286-.175-.004-.605-.296-.957-.647-1.18-1.18-7.09-5.082-14.402-9.507-3.99-2.415-7.57-4.595-7.955-4.845-.386-.25-1.155-.65-1.71-.891-.554-.241-1.145-.662-1.314-.935-.169-.274-.716-.497-1.215-.497-.5 0-.909-.197-.909-.436 0-.24-.461-.583-1.025-.762-.565-.18-2.302-1.102-3.861-2.051-1.56-.949-3.15-1.872-3.537-2.05-.386-.18-1.333-.743-2.105-1.252-.773-.51-1.72-1.07-2.106-1.248-.386-.178-2.524-1.443-4.75-2.813-2.228-1.37-4.258-2.49-4.513-2.49-.255 0-.585-.316-.733-.702-.149-.387-.52-.702-.827-.702-.306 0-1.673-.843-3.036-1.872-1.364-1.03-2.616-1.872-2.783-1.872-.167 0-1.101-.632-2.076-1.404-.975-.772-1.988-1.404-2.251-1.404-.264 0-.55-.18-.635-.402-.138-.355-6.33-5.747-8.298-7.224-.412-.31-2.118-2.14-3.79-4.068-1.674-1.928-3.431-3.928-3.906-4.445-.475-.518-1.054-1.362-1.286-1.877-.52-1.153-1.495-2.728-1.884-3.042-.564-.455-3.22-5.757-3.22-6.428 0-.374-.286-1.24-.637-1.923-1.164-2.27-1.84-4.493-2.052-6.74l-.209-2.223 3.438-.025c1.891-.014 4.912-.222 6.714-.466 1.801-.243 4.989-.633 7.083-.867 2.094-.233 4.239-.656 4.766-.938.527-.281 1.656-.514 2.51-.515.853-.001 2.154-.318 2.891-.702.737-.385 1.836-.7 2.441-.7.985 0 3.163-.77 5.455-1.928.447-.226 1.078-.412 1.403-.414.326 0 1.132-.284 1.793-.63.66-.344 1.766-.768 2.457-.941.69-.174 1.255-.522 1.255-.774 0-.253.288-.46.64-.46.692 0 8.59-3.87 9.518-4.664.311-.266.878-.483 1.26-.483.381 0 .81-.187.95-.416.322-.52 14.352-7.539 15.07-7.539.288 0 .787-.316 1.107-.702.32-.386 1.03-.708 1.578-.717.548-.01 1.405-.323 1.904-.701.5-.378 1.382-.687 1.961-.687.58 0 1.169-.187 1.31-.415.14-.229 1.021-.559 1.957-.734.935-.176 2.043-.49 2.462-.7 1.27-.636 4.812-1.482 7.795-1.862 1.553-.197 3.238-.575 3.744-.84.506-.264 3.027-.6 5.6-.746a234.42 234.42 0 0 0 9.324-.756c2.555-.27 4.714-.422 4.798-.337.085.084.1 31.932.035 70.773-.066 38.841-.179 69.989-.25 69.216z" stroke="#000" stroke-width="1.769"/></svg>