<svg xmlns="http://www.w3.org/2000/svg" width="210mm" height="297mm" viewBox="0 0 210 297"><path d="M30.783 162.53c.015-18.747.114-33.518.215-32.826.102.693.312 1.496.466 1.784.155.29.281.803.281 1.142 0 .34.155.934.345 1.32.46.94.925 2.287 1.077 3.125.069.375.224.683.345.683.12 0 .22.178.22.396 0 .218.15.693.335 1.056.33.65.963 2.043 1.258 2.77.084.205.489.93.9 1.614.412.683.86 1.465.994 1.738.358.725 2.848 4.473 3.218 4.843.068.068.571.683 1.117 1.366 1.73 2.163 1.947 2.405 3.922 4.382 1.065 1.066 2.63 2.468 3.477 3.117.848.649 1.82 1.434 2.16 1.745.34.31.696.565.792.565.095 0 .878.477 1.74 1.06 1.323.893 2.965 1.818 5.11 2.877.237.118.784.398 1.215.622.431.225 1.018.408 1.304.408.286 0 .52.103.52.229 0 .125.364.306.808.401.444.095.923.266 1.065.38.257.205 1.51.555 3.532.986.583.124 1.274.34 1.536.48.263.141 1.015.258 1.673.26.658.002 1.643.164 2.19.361 1.46.526 11.2.532 12.455.008.49-.205 1.43-.372 2.087-.372.657 0 1.51-.126 1.894-.28.384-.154 1.09-.37 1.568-.48 2.264-.522 3.123-.777 3.34-.993.13-.129.472-.234.76-.234.288 0 .74-.164 1.006-.365.265-.2.64-.368.831-.372.526-.013 6.48-3.013 6.48-3.266 0-.12.16-.219.355-.219.195 0 .503-.146.683-.324.18-.179.496-.401.7-.495.434-.199 1.21-.688 1.658-1.043l.631-.503c.176-.14.99-.773 1.81-1.407 1.467-1.134 5.367-4.867 6.58-6.299 1.406-1.657 2.131-2.56 2.484-3.09.205-.307.484-.685.621-.839.467-.525 2.126-3.091 2.59-4.005.138-.273.589-1.055 1-1.738.412-.683.815-1.41.896-1.614.081-.205.306-.67.5-1.032.194-.363.353-.838.353-1.055 0-.218.11-.397.244-.397s.317-.307.406-.683c.09-.375.236-.794.326-.931.089-.137.364-.919.612-1.738.248-.82.607-1.787.797-2.15.19-.362.35-.977.356-1.365a3.26 3.26 0 0 1 .363-1.328c.196-.342.36-.991.364-1.444.005-.453.123-1.038.263-1.3.663-1.237 1.278-9.956.984-13.93-.35-4.714-.67-7.195-.968-7.492-.148-.15-.27-.65-.27-1.115 0-.464-.158-1.196-.352-1.627a7.253 7.253 0 0 1-.468-1.527c-.118-.753-.476-1.833-1.084-3.266-.182-.43-.331-.895-.331-1.033 0-.238-1.043-2.49-1.517-3.276a5.357 5.357 0 0 1-.363-.745c-.441-1.186-2.24-4.442-2.607-4.718-.09-.068-.243-.376-.34-.683-.095-.307-.278-.559-.405-.559-.128 0-.232-.167-.232-.372s-.094-.373-.21-.373c-.116 0-.311-.21-.435-.468-.226-.473-.696-1.103-2.397-3.211-.512-.635-.931-1.24-.931-1.345 0-.105 17.558-.191 39.02-.191h39.018l-.158 2.421c-.087 1.332-.25 4.154-.364 6.271-.112 2.117-.334 4.164-.492 4.548-.157.385-.287 1.181-.287 1.77 0 .59-.167 1.473-.372 1.963s-.376 1.426-.38 2.08c-.006.652-.172 1.404-.373 1.669-.2.265-.365.79-.365 1.165 0 .376-.105.748-.234.827-.128.08-.309.647-.4 1.26-.093.613-.267 1.176-.388 1.25-.12.075-.22.381-.22.68-.002.3-.17.865-.373 1.256-.204.391-.371.838-.371.993 0 .155-.353 1.009-.784 1.896a69.98 69.98 0 0 0-1.1 2.36c-1.104 2.605-2.187 4.673-2.773 5.294-.17.18-.31.488-.31.684 0 .195-.09.354-.2.354-.111 0-.397.444-.636.986-.24.543-.932 1.66-1.538 2.485-.607.824-1.103 1.609-1.103 1.745 0 .136-.09.248-.198.248-.11 0-.473.444-.808.987-.334.542-.692.99-.794.993-.103.003-.187.118-.187.255 0 .136-.195.45-.434.698-.24.247-1.33 1.602-2.422 3.01-1.092 1.407-2.322 2.921-2.732 3.364-.849.918-1.35 1.494-3.574 4.103-.873 1.024-1.657 1.919-1.742 1.987-.085.068-.86.962-1.722 1.987a148.648 148.648 0 0 1-2.356 2.738 59.434 59.434 0 0 0-1.777 2.111c-.544.68-1.075 1.272-1.18 1.318a.353.353 0 0 0-.19.3c0 .12-.287.53-.637.91-.35.382-1.635 2.09-2.854 3.798-1.219 1.707-2.329 3.24-2.467 3.404-.138.165-.25.356-.25.424 0 .067-.755 1.389-1.677 2.936-1.577 2.646-2.035 3.508-2.903 5.467-1.23 2.773-1.94 4.338-2.143 4.715-.127.237-.234.684-.239.993-.005.31-.172.78-.372 1.045-.2.265-.365.727-.365 1.027 0 .3-.167.865-.37 1.256-.205.391-.373.893-.373 1.116-.001.222-.17.805-.375 1.295-.204.49-.372 1.28-.372 1.755 0 .474-.112.931-.248 1.016-.137.084-.254.677-.26 1.318-.005.64-.171 1.612-.368 2.158-.197.547-.36 1.573-.362 2.281-.002.709-.114 1.578-.249 1.933-.135.354-.32 2.206-.41 4.114l-.166 3.469H30.752Z" stroke="#000" stroke-width=".939"/></svg>