<svg xmlns="http://www.w3.org/2000/svg" width="210mm" height="297mm" viewBox="0 0 210 297"><path d="M65.676 216.767c-.121-.317-.02-1.734.227-3.15.247-1.415.549-4.673.672-7.238.122-2.566.366-4.848.54-5.072.176-.224.488-1.613.695-3.087.676-4.821 1.918-10.21 2.682-11.637.245-.459.446-1.246.446-1.75s.255-1.254.567-1.666c.311-.412.572-1.212.579-1.779.008-.566.262-1.521.568-2.122 1.845-3.622 3.689-7.768 3.689-8.296 0-.337.26-.83.579-1.094.318-.264.579-.785.579-1.157 0-.373.26-.894.578-1.158.319-.264.58-.655.58-.867 0-.212.694-1.427 1.543-2.698.849-1.272 1.544-2.552 1.544-2.847 0-.294.156-.535.346-.535.191 0 .715-.704 1.163-1.565.45-.861.986-1.773 1.194-2.026.207-.253 1.445-1.937 2.75-3.74 2-2.77 6.237-8.222 6.895-8.877.106-.106.888-1.061 1.736-2.122 2.133-2.667 2.932-3.605 4.068-4.778.539-.556 1.842-2.054 2.896-3.329 1.8-2.178 3.877-4.56 5.193-5.96.539-.572 3.44-3.99 5.21-6.139a32.253 32.253 0 0 1 1.372-1.557c.33-.34 1.194-1.401 1.92-2.356.725-.956 1.415-1.824 1.532-1.93.704-.638 2.701-3.461 2.701-3.818 0-.235.16-.427.355-.427.195 0 .753-.651 1.24-1.447.486-.796 1.065-1.658 1.285-1.916 1.107-1.297 1.365-1.635 1.365-1.787 0-.09.677-1.183 1.505-2.428.828-1.244 1.882-2.957 2.342-3.806a58.082 58.082 0 0 1 1.567-2.702c.903-1.43 4.045-7.913 5.986-12.349 1.498-3.424 1.721-4.042 1.721-4.763 0-.433.154-.882.342-.998.187-.116.458-.99.6-1.943.144-.953.424-1.834.624-1.957.2-.124.37-.692.377-1.263.008-.572.262-1.473.566-2.004.303-.53.557-1.627.565-2.437.008-.81.219-1.852.47-2.315.25-.464.573-1.972.716-3.352.144-1.38.286 32.44.316 75.156l.055 77.664h-38.41c-33.697 0-38.437-.07-38.631-.576z" stroke="#000" stroke-width="1.459"/></svg>