<svg xmlns="http://www.w3.org/2000/svg" width="210mm" height="297mm" viewBox="0 0 210 297"><path d="M92.35 193.748c-12.532-3.643-22.014-10.092-28.56-19.424-18.721-26.688-7.03-58.184 26.383-71.08 6.484-2.503 16.332-3.42 23.33-2.174 3.942.702 8.017 1.719 9.058 2.26 1.04.54 2.878.983 4.084.983 1.206 0 2.193.49 2.193 1.089s.524 1.089 1.165 1.089c1.93 0 11.122 6.708 14.853 10.838 5.27 5.833 9.12 14.216 11.2 24.383 1.022 5 1.006 7.908-.074 13.614-.756 3.992-1.781 7.723-2.278 8.292-.497.57-.903 1.699-.903 2.51 0 2.602-8.519 14.123-13.323 18.018-13.024 10.563-31.132 14.252-47.127 9.602z" stroke="#000" stroke-width="4.117"/></svg>