<svg xmlns="http://www.w3.org/2000/svg" width="210mm" height="297mm" viewBox="0 0 210 297"><path d="M57.202 137.708V74.703l54.242.048c32.055.029 53.438.207 52.277.434-1.08.213-2.169.59-2.418.84-.25.248-1.074.453-1.833.453-.759 0-1.767.293-2.24.651-.474.358-1.195.658-1.602.666-.408.009-1.306.295-1.997.638-.69.343-1.755.816-2.365 1.05-1.171.447-4.644 2.092-5.768 2.73-.367.209-1.462.75-2.434 1.204-.972.454-1.985 1.025-2.251 1.269-.266.244-1.217.839-2.114 1.321-.898.483-1.632 1.032-1.632 1.22 0 .189-.21.343-.47.343-1.069 0-8.106 5.84-13.321 11.055-4.699 4.7-11.056 12.23-11.056 13.097 0 .135-.449.76-.998 1.39-1.038 1.192-2.656 3.867-4.412 7.291-.563 1.099-1.173 2.064-1.356 2.145-.183.081-.333.365-.333.63 0 .454-1.913 4.783-3.348 7.577-.355.691-.651 1.69-.66 2.219-.008.53-.306 1.35-.665 1.823-.358.474-.651 1.283-.651 1.797 0 .515-.198 1.134-.44 1.376-.42.42-.926 2.392-1.771 6.918-.214 1.143-.603 2.478-.864 2.966-.26.488-.477 1.949-.48 3.246-.002 1.297-.302 3.339-.665 4.537-.834 2.75-.96 22.536-.156 24.526.277.686.663 2.746.857 4.576.402 3.803 1.21 7.85 1.791 8.98.218.423.398 1.221.4 1.774.001.552.3 1.576.665 2.275.365.7.663 1.647.663 2.108 0 .808-.726.836-21.297.836H57.202Z" stroke="#000" stroke-width="1.677"/></svg>