<svg xmlns="http://www.w3.org/2000/svg" width="210mm" height="297mm" viewBox="0 0 210 297"><path d="M70.66 198.306c-.29-.539-.525-1.437-.525-1.997 0-.559-.202-1.14-.449-1.293-.246-.153-.607-1.34-.802-2.638-.194-1.298-.538-2.726-.764-3.172-.659-1.302-1.559-6.042-2.03-10.692-.24-2.368-.682-4.948-.983-5.733-.851-2.226-.691-18.756.215-22.132.411-1.532.75-4.07.754-5.637.002-1.569.348-3.67.766-4.67.418-1 .76-2.611.76-3.579s.201-1.884.448-2.037c.247-.152.61-1.362.807-2.69.198-1.326.535-2.64.75-2.919.216-.278.513-1.076.662-1.773 1.28-6.005 11.527-26.827 13.672-27.78.209-.093.38-.5.38-.903s.342-.865.76-1.025c.418-.16.76-.516.76-.79 0-1.056 5.746-7.75 11.372-13.248 5.583-5.457 11.945-10.64 14.846-12.096 1.184-.594 2.153-1.224 2.153-1.4 0-.177 2.223-1.447 4.94-2.824 2.717-1.377 5.016-2.674 5.108-2.883.093-.21.435-.381.76-.383.325-.001 1.203-.322 1.95-.712.748-.39 2.059-.863 2.914-1.05.854-.188 1.554-.552 1.554-.808s.513-.475 1.14-.484c.627-.011 1.71-.344 2.406-.742.697-.399 1.95-.74 2.787-.76.836-.022 2.09-.362 2.786-.76.697-.399 1.552-.732 1.9-.742.504-.016.633 14.445.633 70.657v70.675h-35.953c-35.027 0-35.966-.026-36.477-.98z" stroke="#000" stroke-width="1.915"/></svg>