<svg xmlns="http://www.w3.org/2000/svg" width="210mm" height="297mm" viewBox="0 0 210 297"><path d="M41.167 144.931V66.416l1.262-.257c9.248-1.883 23.959-2.194 33.514-.71 10.25 1.594 11.47 1.836 12.723 2.52.674.368 1.951.669 2.838.669s2.102.37 2.701.823c.599.453 1.783.832 2.631.842.849.012 1.543.25 1.543.534 0 .284.774.686 1.72.894.947.208 2.398.731 3.226 1.163.827.432 1.799.787 2.159.789.36.002.738.193.841.424.166.374 2.625 1.672 4.955 2.616.463.187 1.598.846 2.524 1.463.925.617 2.124 1.275 2.664 1.461.54.187.981.546.981.797 0 .252.569.635 1.262.852.695.216 1.389.549 1.543.739.154.19 1.542 1.215 3.085 2.28 1.542 1.063 2.946 2.137 3.12 2.385.173.25 1.14 1.06 2.147 1.804 7.413 5.47 20.867 21.11 24.885 28.932.238.463 1.196 2.103 2.13 3.646.933 1.542 1.964 3.499 2.29 4.347.327.848.822 1.542 1.1 1.542.278 0 .506.403.506.895 0 .493.34 1.565.757 2.384a85.436 85.436 0 0 1 1.622 3.452l1.767 4.011c.497 1.127.902 2.563.902 3.192 0 .63.253 1.3.561 1.491.31.19.561.736.561 1.21 0 .475.36 1.66.798 2.632.439.972.912 2.65 1.051 3.73.14 1.08.52 2.72.846 3.646 1 2.845 1.846 7.606 2.343 13.181.26 2.931.735 7.365 1.055 9.853.596 4.644.358 11.394-.43 12.19-.243.245-2.438.131-4.876-.253-9.134-1.44-36.412-.602-39.622 1.216-.535.304-1.671.554-2.524.555-.852.002-2.273.38-3.156.842-.884.46-2.272.846-3.085.856-.813.011-1.969.388-2.567.84-.6.454-1.525.824-2.058.824-.533 0-1.684.355-2.557.79a53.298 53.298 0 0 1-2.99 1.36c-4.994 2.029-13.72 6.672-16.65 8.858-.982.733-1.966 1.332-2.187 1.332-.22 0-1.731 1.073-3.357 2.384a317.964 317.964 0 0 1-4.687 3.711c-.952.73-4.016 3.57-6.81 6.31l-5.078 4.983H41.167z" stroke="#000" stroke-width="2.12"/></svg>