<svg xmlns="http://www.w3.org/2000/svg" width="210mm" height="297mm" viewBox="0 0 210 297"><path d="M32.917 170.73c.86-1.313 8.008-7.799 14.478-13.137 1.18-.974 2.918-2.432 3.862-3.24 6.97-5.972 34.576-21.597 38.156-21.597.781 0 2.17-.567 3.086-1.26.917-.693 2.438-1.284 3.382-1.314.944-.028 2.466-.622 3.383-1.315.916-.693 2.776-1.26 4.132-1.26 1.357 0 3.31-.46 4.342-1.024 1.03-.563 3.805-1.346 6.165-1.74 25.37-4.239 36.369-4.846 51.92-2.867 6.371.811 12.55 1.943 13.73 2.515 2.088 1.012 2.137 1.244 1.837 8.673-.17 4.198-.846 9.155-1.502 11.015-.657 1.86-1.207 4.588-1.224 6.063-.018 1.474-.582 3.646-1.256 4.826-.675 1.18-1.24 3.357-1.257 4.837-.019 1.48-.608 3.797-1.313 5.149-.704 1.352-1.284 3.056-1.287 3.788-.018 3.41.398 3.39-71.841 3.39-66.257 0-69.727-.073-68.793-1.502z" stroke="#000" stroke-width="3.243"/></svg>