<svg xmlns="http://www.w3.org/2000/svg" width="210mm" height="297mm" viewBox="0 0 210 297"><path d="M41.386 182.621c.003-.826.814-3.048 1.8-4.94.987-1.892 1.795-4.746 1.795-6.343 0-1.597.81-4.843 1.8-7.214.992-2.372 1.802-5.8 1.802-7.62 0-1.82.811-5.25 1.802-7.62.99-2.372 1.825-7.166 1.854-10.655.025-3.488.776-9.045 1.66-12.347 1.277-4.767 2.07-5.926 3.85-5.627 9.52 1.6 12.748 2.444 13.949 3.644.76.76 2.49 1.4 3.844 1.42 1.354.026 3.51.832 4.793 1.802 1.282.97 3.22 1.763 4.307 1.763 2.938 0 31.849 14.833 39.203 20.114 2.07 1.486 4.126 2.702 4.57 2.702 2.003 0 18.819 13.792 31.815 26.094l6.635 6.28-62.743.025c-49.411.026-62.742-.294-62.736-1.476z" stroke="#000" stroke-width="4.539"/></svg>