<svg xmlns="http://www.w3.org/2000/svg" width="210mm" height="297mm" viewBox="0 0 210 297"><path d="M33.533 144.09V71.15h86.354l10.941 3.663a2948.65 2948.65 0 0 1 12.642 4.252l1.7.59v29.285c0 28.833-.007 29.286-.455 29.286-.25 0-.514-.093-.584-.208-.071-.115-.473-.266-.894-.335-.42-.07-1.186-.235-1.702-.367a43.804 43.804 0 0 0-1.642-.387 7.668 7.668 0 0 1-1.173-.344c-.258-.11-.759-.26-1.114-.334l-1.29-.27a7.317 7.317 0 0 1-1.114-.334 7.67 7.67 0 0 0-1.172-.345 50.177 50.177 0 0 1-3.284-.828c-1.497-.424-2.755-.728-3.579-.864-.42-.07-.822-.22-.893-.335-.07-.114-.367-.208-.658-.208-.575 0-.595-.032-3.024-4.69-.773-1.484-2.462-4.703-3.754-7.154-1.291-2.45-2.926-5.564-3.633-6.919a747.508 747.508 0 0 0-2.472-4.69 272.534 272.534 0 0 1-2.138-4.105c-.522-1.032-1.006-1.929-1.074-1.993-.068-.065-.553-.962-1.077-1.994-1.678-3.305-3.024-5.86-3.15-5.98-.066-.065-.478-.83-.914-1.7-.436-.871-.87-1.584-.963-1.584-.296 0-.612.51-2.108 3.4l-3.458 6.685c-1.1 2.128-2.583 4.978-3.294 6.332-.712 1.355-2.136 4.099-3.164 6.098l-3.057 5.942c-1.311 2.549-1.107 2.438-3.324 1.802a55.225 55.225 0 0 0-1.759-.47c-.451-.11-1.665-.428-2.697-.707-2.29-.617-3.302-.872-4.221-1.062a7.668 7.668 0 0 1-1.173-.345 7.31 7.31 0 0 0-1.114-.334l-1.29-.27a7.304 7.304 0 0 1-1.114-.334 7.671 7.671 0 0 0-1.173-.345 37.692 37.692 0 0 1-1.524-.359 37.727 37.727 0 0 0-1.525-.359 7.666 7.666 0 0 1-1.172-.344c-.495-.21-1.373-.42-2.64-.63-.421-.069-.823-.22-.894-.334-.071-.115-.486-.209-.922-.209-.437 0-.852-.094-.922-.209-.071-.114-.473-.265-.894-.335-1.268-.21-2.146-.419-2.64-.629-.258-.11-.76-.26-1.114-.334l-1.29-.27a7.316 7.316 0 0 1-1.114-.334 7.67 7.67 0 0 0-1.173-.344 37.708 37.708 0 0 1-1.525-.36 37.74 37.74 0 0 0-1.524-.358 7.668 7.668 0 0 1-1.173-.345c-.494-.21-1.372-.42-2.64-.629-.42-.07-.823-.22-.894-.335-.07-.115-.387-.209-.703-.209h-.574l.06 17.766.06 17.766 7.822.117 7.82.117-2.543 3.877c-1.4 2.132-3.389 5.192-4.42 6.799a761.949 761.949 0 0 1-4.164 6.388c-1.257 1.907-2.286 3.57-2.286 3.697 0 .127-.106.23-.235.23a.242.242 0 0 0-.234.248c0 .136-.422.869-.938 1.628-.516.76-.939 1.493-.939 1.63 0 .168 2.783.247 8.795.247 4.838 0 8.795.063 8.795.14 0 .152-.944 1.547-1.176 1.736-.079.065-1.222 1.7-2.541 3.635a1699.98 1699.98 0 0 1-5.317 7.74 1986.254 1986.254 0 0 0-4.844 7.036c-1.058 1.548-2.01 2.85-2.114 2.892-.105.043-.19.22-.19.391 0 .172-.088.348-.196.391-.108.043-.97 1.24-1.915 2.658-.946 1.419-1.808 2.615-1.915 2.658-.108.043-.196.228-.196.41 0 .183-.088.333-.195.333-.107 0-.344.29-.527.645-.183.354-.393.697-.468.762-.559.485-2.103 3.133-1.928 3.308.125.125 7.177.188 17.086.153l16.873-.06.06-17.414.06-17.414h13.367c9.66 0 13.367-.073 13.367-.261 0-.3-3.143-5.321-7.654-12.226-.82-1.257-1.493-2.346-1.493-2.42 0-.075-.316-.596-.703-1.159-.387-.562-.704-1.135-.704-1.273 0-.177 7.12-.251 24.026-.251 14.66 0 24.078-.086 24.161-.22.075-.12-.09-.622-.368-1.114a152.806 152.806 0 0 1-1.66-3.114c-.635-1.222-1.268-2.356-1.405-2.522-.203-.244 3.874-.301 21.766-.304 13.168-.002 22.155-.092 22.361-.222.615-.39.545-.418-4.215-1.688-.967-.258-2.128-.558-2.58-.667-.451-.108-1.665-.425-2.697-.703-2.29-.618-3.301-.873-4.221-1.063a7.667 7.667 0 0 1-1.173-.344 7.67 7.67 0 0 0-1.173-.345 37.729 37.729 0 0 1-1.524-.359 37.726 37.726 0 0 0-1.524-.359 7.665 7.665 0 0 1-1.173-.345c-.258-.11-.76-.26-1.114-.334l-1.29-.27a7.302 7.302 0 0 1-1.114-.334c-.495-.21-1.373-.419-2.64-.629-.421-.07-.823-.22-.894-.335-.071-.115-.471-.208-.89-.208-.417 0-.86-.098-.982-.217-.123-.119-.54-.261-.926-.317-.387-.055 8.03-.116 18.703-.135l19.408-.035v39.05c0 27.858-.073 39.05-.254 39.05-.14 0-1.01-.329-1.935-.73a736.196 736.196 0 0 0-4.026-1.733l-1.7-.728c-.484-.207-1.302-.566-1.818-.797-.516-.23-1.308-.578-1.76-.771-.45-.194-1.348-.585-1.993-.87a293.36 293.36 0 0 0-1.993-.873c-2.438-1.051-2.676-.993 4.032-.998 3.942-.004 6.314-.093 6.406-.242.08-.13-.072-.542-.338-.916-.267-.373-.484-.75-.484-.835 0-.086-.317-.616-.704-1.179-.387-.562-.704-1.116-.704-1.23 0-.113-.184-.416-.41-.672-.385-.438-.562-.716-1.29-2.026-.161-.29-.346-.58-.41-.645-.232-.232-.97-1.533-1.097-1.935-.072-.226-.224-.41-.338-.41-.114 0-.207-.113-.207-.251s-.317-.712-.704-1.274c-.387-.562-.703-1.09-.703-1.173 0-.082-.304-.591-.676-1.131-.371-.54-.886-1.35-1.143-1.802-.258-.45-1.497-2.508-2.754-4.572a2209.14 2209.14 0 0 1-4.406-7.27c-1.166-1.935-2.42-3.96-2.786-4.499-.366-.539-.665-1.047-.665-1.13 0-.083-.317-.61-.704-1.173-.387-.562-.704-1.088-.704-1.169 0-.08-.422-.768-.938-1.528s-.938-1.441-.938-1.514c0-.265-1.53-2.465-1.717-2.469-.223-.005-.863.597-.863.81 0 .08-.527.927-1.172 1.883-.645.956-1.173 1.797-1.173 1.869 0 .072-.463.842-1.028 1.71-.566.87-1.9 3.006-2.966 4.747a419.2 419.2 0 0 1-2.462 3.987c-.556.87-2.377 3.8-3.934 6.333a340.96 340.96 0 0 1-1.903 3.049c-.531.838-1.102 1.788-1.268 2.11-.827 1.603-.762 1.59-3.033.65-3.05-1.264-11.059-4.753-12.583-5.483-.883-.423-1.23-.412-1.404.045-.079.204-.143 6.43-.143 13.837v13.466h-87.48Z" stroke="#000" stroke-width=".886"/></svg>