<svg xmlns="http://www.w3.org/2000/svg" width="210mm" height="297mm" viewBox="0 0 210 297"><path d="M121.467 151.671c-25.646-8.537-47.09-15.985-47.656-16.55-.565-.566-2.51-1.029-4.32-1.029-1.811 0-3.695-.65-4.188-1.447-.491-.797-2.446-1.448-4.343-1.448-1.897 0-3.851-.651-4.343-1.448-.492-.796-2.447-1.448-4.343-1.448-1.897 0-3.852-.65-4.344-1.448-.492-.796-2.354-1.447-4.139-1.447-1.784 0-3.863-.596-4.62-1.325-.756-.73-3.004-1.618-4.994-1.975-1.991-.358 28.14-.738 66.959-.846l70.578-.197v23.164c0 17.619-.434 23.14-1.81 23.066-.995-.055-22.792-7.084-48.437-15.622z" stroke="#000" stroke-width="5.472"/></svg>