<svg xmlns="http://www.w3.org/2000/svg" width="210mm" height="297mm" viewBox="0 0 210 297"><path d="M35.186 169.102c-.516-.516-.938-1.233-.938-1.594 0-.36-2.111-3.794-4.691-7.631-2.58-3.837-4.691-7.836-4.691-8.887 0-1.627 2.687-7.877 3.91-9.095.399-.396 6.523-12.243 15.156-29.318 2.61-5.16 4.932-9.557 5.163-9.772.23-.216 1.264-2.068 2.297-4.117 1.342-2.663 2.236-3.611 3.138-3.325.693.22 3.362.955 5.93 1.633 2.568.679 8.011 2.12 12.096 3.204 4.085 1.083 8.747 2.289 10.36 2.678 5.743 1.387 8.837 2.18 11.922 3.054 4.178 1.183 8.092 2.17 10.945 2.76 1.29.267 3.05.784 3.91 1.149.86.365 2.619.882 3.908 1.149 2.854.59 6.768 1.576 10.946 2.76 4.178 1.183 8.092 2.17 10.945 2.76 1.29.267 3.05.784 3.91 1.149.86.365 2.53.866 3.713 1.114l4.3.9c1.182.247 2.853.748 3.713 1.113.86.365 2.62.882 3.91 1.149s3.752.846 5.472 1.288c1.72.442 4.274.993 5.676 1.224 1.4.232 2.741.734 2.977 1.116.237.383 1.272.696 2.302.696 3.456 0 5.437 1.587 7.61 6.098 1.18 2.451 4.119 8.15 6.529 12.665 2.41 4.515 6.126 11.54 8.257 15.61 2.131 4.07 4.25 7.853 4.707 8.405 1.182 1.424-161.958 1.49-163.382.065z" stroke="#000" stroke-width="2.955"/></svg>