<svg xmlns="http://www.w3.org/2000/svg" width="210mm" height="297mm" viewBox="0 0 210 297"><path d="M35.417 151.794a2542.577 2542.577 0 0 1-5.958-11.375c-1.66-3.192-3.331-5.942-3.714-6.113-.383-.17-.697-1.075-.697-2.011 0-.937-.313-1.842-.696-2.012-.383-.17-3.124-5.057-6.09-10.859l-5.395-10.549 3.537.492c1.946.27 5.209.924 7.251 1.454 2.043.53 4.968 1.221 6.5 1.538 1.532.317 3.622.93 4.643 1.364 1.021.434 3.006 1.03 4.41 1.323l5.108 1.069c1.404.294 3.389.889 4.41 1.323 1.021.433 3.11 1.047 4.643 1.364 1.532.317 4.248.956 6.035 1.421 1.788.465 4.504 1.105 6.036 1.421 1.532.317 3.621.931 4.643 1.365 1.021.433 3.11 1.048 4.642 1.364 3.389.7 8.037 1.873 13 3.279 2.043.578 5.177 1.414 6.964 1.857a263.84 263.84 0 0 1 6.964 1.857c3.526.998 6.173 1.679 14.16 3.64 1.915.47 6.72 1.724 10.679 2.786 20.178 5.413 28.428 7.574 56.873 14.895 8.17 2.103 15.274 3.983 15.785 4.178.51.194-35.459.387-79.932.427l-80.86.074z" stroke="#000" stroke-width="3.509"/></svg>