<svg xmlns="http://www.w3.org/2000/svg" width="210mm" height="297mm" viewBox="0 0 210 297"><path d="M12.547 181.43c0-.201 3.978-6.48 8.84-13.952 4.863-7.471 9.69-14.896 10.728-16.5 1.038-1.603 6.243-9.587 11.567-17.74 5.324-8.155 9.68-15.183 9.68-15.619 0-.436.33-.792.732-.792.403 0 1.198-1.125 1.767-2.5.57-1.373 1.364-2.498 1.767-2.498.403 0 .732-.378.732-.841 0-.463 2.118-4.024 4.706-7.913l4.707-7.072h24.863c13.676 0 24.864.216 24.864.48 0 .265-2.624 5.562-5.83 11.772-3.207 6.21-5.831 11.804-5.831 12.43 0 .94 4.801 1.14 27.547 1.14 22.764 0 27.754.206 28.737 1.19.655.654 1.19 1.418 1.19 1.697 0 .28 2.25 3.853 4.998 7.94 2.749 4.089 4.998 7.823 4.998 8.299 0 .475.374.864.833.864.458 0 .833.387.833.861 0 .473 2.624 4.772 5.83 9.551 3.207 4.78 5.831 8.872 5.831 9.094 0 .22 2.811 4.714 6.247 9.983 3.436 5.27 6.248 9.787 6.248 10.038 0 .25-20.429.455-45.397.455h-45.396l-.013-22.698c-.006-12.484-.348-23.228-.757-23.874-.961-1.519-1.815-.683-6.727 6.59-2.011 2.978-4.146 5.91-4.743 6.515-.598.605-1.087 1.422-1.087 1.815 0 .392-.492 1.209-1.094 1.814-.601.606-3.476 4.662-6.388 9.014-2.912 4.352-5.606 8.038-5.987 8.191-.38.153-.692.809-.692 1.458 0 .649-.281 1.183-.625 1.187-.343.003-2.071 2.253-3.84 4.998l-3.215 4.99H42.86c-16.672 0-30.312-.165-30.312-.367z" stroke="#000" stroke-width="3.148"/></svg>