<svg xmlns="http://www.w3.org/2000/svg" width="210mm" height="297mm" viewBox="0 0 210 297"><path d="M54.93 193.845c.001-.305 1.001-1.723 2.222-3.15 1.221-1.427 2.221-2.983 2.222-3.459.001-.475.279-.976.617-1.112.34-.135 2.73-3.415 5.312-7.288 2.582-3.873 4.918-7.208 5.19-7.412.273-.204 2.513-3.372 4.978-7.041 5.4-8.039 27.285-39.722 28.159-40.767.34-.407 3.433-4.91 6.872-10.006 3.438-5.096 6.85-9.911 7.582-10.702.73-.79 1.33-1.846 1.33-2.347 0-.5.275-1.021.612-1.157.336-.136 2.394-2.916 4.572-6.177 2.179-3.261 4.321-6.179 4.762-6.483.44-.305 6.804-.472 14.142-.37l13.342.182.19 53.923.19 53.922h-51.148c-28.13 0-51.147-.25-51.146-.556z" stroke="#000" stroke-width="2.801"/></svg>