<svg xmlns="http://www.w3.org/2000/svg" width="210mm" height="297mm" viewBox="0 0 210 297"><path d="M122.305 199.778c-1.7-.776-4.405-1.997-6.011-2.714-1.606-.717-4.388-1.961-6.183-2.765-1.795-.803-3.882-1.691-4.637-1.974-.756-.282-2.843-1.17-4.637-1.973l-6.527-2.922c-1.794-.804-3.881-1.692-4.637-1.974-.755-.283-2.842-1.17-4.637-1.974-7.145-3.2-9.2-4.108-11.507-5.087a1078.56 1078.56 0 0 1-4.98-2.132c-1.417-.612-3.581-1.543-4.81-2.07-2.843-1.22-8.085-3.545-12.729-5.645-1.994-.903-3.963-1.64-4.373-1.64-.411 0-.587-.613-.392-1.36.363-1.386 17.594-29.495 29.797-48.608 1.263-1.978 2.296-3.91 2.296-4.294 0-.383.31-.697.687-.697.378 0 .687-.326.687-.725 0-.398 1.237-2.545 2.748-4.77 1.511-2.226 2.748-4.374 2.748-4.772 0-.398.309-.725.687-.725.378 0 .687-.33.687-.735 0-.404.927-2.083 2.06-3.73 1.134-1.648 2.062-3.326 2.062-3.73 0-.405.309-.735.687-.735.378 0 .687-.34.687-.753 0-.414.64-1.651 1.421-2.75 1.233-1.731 1.552-1.866 2.405-1.013.54.54.983 1.18.983 1.423 0 .242.927 1.789 2.06 3.436 1.134 1.648 2.061 3.3 2.061 3.673 0 .373.232.78.516.907.645.287 2.876 3.946 3.385 5.553.21.661.655 1.202.988 1.202.334 0 .607.339.607.753s.582 1.573 1.294 2.576c.711 1.003 1.91 2.906 2.664 4.228.754 1.322 3.922 6.578 7.04 11.679 3.116 5.1 6.507 10.665 7.533 12.365 9.02 14.943 19.652 32.28 20.707 33.768.712 1.003 1.294 2.03 1.294 2.28 0 .252.927 1.806 2.061 3.453 1.133 1.648 2.06 3.19 2.06 3.425 0 .236 1.237 2.25 2.749 4.476 1.511 2.225 2.748 4.347 2.748 4.714s.232.77.515.896c.645.287 2.876 3.946 3.386 5.553.21.661.654 1.202.988 1.202.333 0 .613.387.622.86.01.472.62 1.63 1.359 2.575.738.945 1.35 1.95 1.358 2.233.01.283-8.872.5-19.735.481-18.415-.03-19.96-.13-22.842-1.444z" stroke="#000" stroke-width="2.596"/></svg>