<svg xmlns="http://www.w3.org/2000/svg" width="210mm" height="297mm" viewBox="0 0 210 297"><path d="M25.372 159.423c.014-.485 1.061-2.205 2.326-3.822 1.265-1.618 2.312-3.375 2.327-3.905.014-.531 1.614-3.273 3.554-6.094 1.941-2.82 3.53-5.452 3.53-5.848 0-.396.534-1.36 1.188-2.14 1.453-1.739 10.931-16.633 16.41-25.79 2.212-3.697 4.613-6.95 5.334-7.226.72-.276 3.663.556 6.539 1.852a651.857 651.857 0 0 0 9.345 4.114c2.264.968 6.234 2.708 8.821 3.868 2.588 1.159 6.69 2.957 9.116 3.994l8.822 3.774c4.248 1.816 7.968 3.463 19.997 8.848 3.073 1.376 6.645 2.897 7.94 3.38 1.293.483 4.866 2.004 7.94 3.38 12.028 5.385 15.748 7.032 19.995 8.848l8.822 3.774c4.57 1.955 10.834 4.733 17.938 7.955 3.808 1.727-2.03 1.87-77.927 1.894-45.124.017-82.032-.37-82.017-.856z" stroke="#000" stroke-width="4.446"/></svg>