<svg xmlns="http://www.w3.org/2000/svg" width="210mm" height="297mm" viewBox="0 0 210 297"><path d="M23.022 136.74c0-20.607.224-37.59.498-37.74.416-.227 6.535 2.312 25.307 10.503 1.232.537 2.344.976 2.473.976.35 0 9.053 3.904 10.382 4.658.634.359 1.605.653 2.158.653.629 0 1.004.62 1.004 1.66 0 .913-.298 1.66-.663 1.66-.365 0-.664.314-.664.7 0 .385-1.195 2.46-2.656 4.61-1.46 2.15-2.655 4.097-2.655 4.325 0 .228-.896 1.717-1.992 3.31-1.095 1.591-1.991 3.213-1.991 3.604 0 .39-.248.71-.552.71-.303 0-.966.822-1.473 1.826-.507 1.004-1.752 3.074-2.768 4.6-1.015 1.527-1.845 3.095-1.845 3.486 0 .39-.251.71-.558.71-.78 0-2.196 3.287-1.735 4.033.227.367 20.496.614 50.468.614 49.572 0 50.12.015 53.234 1.405a411.99 411.99 0 0 0 5.137 2.253c1.096.466 3.336 1.442 4.98 2.168 1.642.726 5.227 2.284 7.965 3.462a716.99 716.99 0 0 1 6.97 3.035c1.096.491 6.772 2.988 12.614 5.549l10.621 4.655-87.13.02-87.129.02z" stroke="#000" stroke-width="2.509"/></svg>