<svg xmlns="http://www.w3.org/2000/svg" width="210mm" height="297mm" viewBox="0 0 210 297"><path d="M185.025 200.43c-1.476-.228-3.143-.856-3.704-1.397-.56-.54-2.102-.983-3.426-.983-1.323 0-2.704-.482-3.07-1.073-.364-.59-1.813-1.074-3.22-1.074-1.407 0-2.856-.483-3.22-1.074-.366-.59-1.609-1.073-2.763-1.073-2.027 0-3.072-.388-8.228-3.053-1.32-.683-3.345-1.242-4.5-1.242-1.154 0-2.396-.482-2.761-1.073-.365-.59-1.815-1.074-3.221-1.074-1.407 0-2.856-.483-3.221-1.073-.365-.591-1.814-1.074-3.221-1.074s-2.856-.483-3.22-1.074c-.366-.59-1.815-1.073-3.222-1.073-1.406 0-2.856-.483-3.22-1.074-.365-.59-1.815-1.074-3.221-1.074-1.407 0-2.856-.482-3.221-1.073-.365-.59-1.815-1.074-3.221-1.074-1.407 0-2.856-.483-3.221-1.073-.365-.591-1.814-1.074-3.221-1.074-1.406 0-2.856-.483-3.22-1.074-.366-.59-1.815-1.073-3.222-1.073-1.406 0-2.856-.483-3.22-1.074-.365-.59-1.763-1.074-3.106-1.074s-2.772-.33-3.175-.733c-.404-.403-13.382-4.939-28.84-10.079-16.115-5.357-29.056-10.258-30.331-11.485-1.223-1.177-2.94-3.526-3.816-5.22-.875-1.695-3.887-6.86-6.691-11.48-2.805-4.62-5.1-8.64-5.1-8.932 0-.294-1.45-2.64-3.22-5.215-1.772-2.575-3.233-5.077-3.246-5.561-.016-.484-.968-2.088-2.123-3.565-1.155-1.476-2.11-3.046-2.123-3.489-.016-.443 39.592-.805 88.013-.805h88.037v47.176c0 25.947-.363 47.35-.805 47.563-.443.213-2.013.2-3.49-.024z" stroke="#000" stroke-width="4.058"/></svg>