<svg xmlns="http://www.w3.org/2000/svg" width="210mm" height="297mm" viewBox="0 0 210 297"><path d="M63.416 209.981c-.492-.491-.588-155.681-.097-156.172.357-.357 12.116 3.441 12.814 4.139.236.236.905.429 1.487.429.583 0 1.465.787 1.96 1.75.497.961 1.046 1.891 1.221 2.066.176.176.677.963 1.115 1.75l1.59 2.862c.437.787.938 1.574 1.113 1.75.175.175.631.89 1.014 1.59 1.654 3.024 2.505 4.473 2.803 4.77.174.176.63.891 1.014 1.59 1.656 3.03 2.505 4.474 2.803 4.771.176.175.74 1.177 1.253 2.227.514 1.05 1.73 3.105 2.702 4.567.973 1.463 1.77 2.842 1.77 3.066 0 .224.858 1.655 1.908 3.18 1.05 1.526 1.908 2.957 1.908 3.181 0 .224.859 1.655 1.908 3.18 1.05 1.526 1.908 2.914 1.908 3.086 0 .17 1.53 2.839 3.401 5.928 1.87 3.09 5.495 9.195 8.054 13.568a4438.104 4438.104 0 0 0 11.64 19.72c3.844 6.472 7.553 12.77 8.242 13.994.69 1.224 1.793 2.986 2.451 3.914.66.93 1.198 1.88 1.198 2.112 0 .233.859 1.672 1.908 3.197 1.05 1.526 1.909 2.916 1.909 3.09 0 .173 1.43 2.647 3.18 5.498 1.75 2.85 3.18 5.331 3.18 5.514 0 .183.54 1.092 1.198 2.02.66.93 1.777 2.723 2.485 3.987 2.707 4.836 3.006 5.344 3.315 5.653.175.175.676.962 1.113 1.75l1.59 2.862c.438.787.939 1.574 1.113 1.75.175.174.676.961 1.114 1.749l1.59 2.862c.437.787.938 1.574 1.113 1.75.175.174.98 1.534 1.79 3.02l1.472 2.704h-52.413c-28.827 0-52.604-.19-52.837-.424z" stroke="#000" stroke-width="2.404"/></svg>