<svg xmlns="http://www.w3.org/2000/svg" width="210mm" height="297mm" viewBox="0 0 210 297"><path d="M149.266 248.13c-2.375-3.952-4.475-7.59-4.666-8.084-.192-.495-1.47-2.543-2.84-4.552-1.371-2.01-2.492-3.915-2.492-4.235 0-.32-.741-1.625-1.646-2.901-1.535-2.164-2.36-3.56-7.187-12.152-1.012-1.802-2.15-3.67-2.528-4.15-.378-.481-1.48-2.295-2.447-4.032-3.52-6.32-4.116-7.337-4.545-7.767-.24-.24-.928-1.321-1.53-2.403l-2.184-3.932c-.6-1.082-1.289-2.163-1.53-2.404-.24-.24-.928-1.322-1.529-2.403l-2.184-3.933c-.601-1.081-1.29-2.163-1.53-2.403-.864-.864-3.613-5.712-4.088-7.21-.267-.84-.833-1.53-1.257-1.53-.425 0-.772-.383-.772-.852 0-.47-2.417-4.894-5.372-9.832-2.954-4.938-6.043-10.158-6.864-11.6-2.269-3.985-17.584-29.793-21.704-36.575-2.001-3.294-3.639-6.183-3.639-6.42 0-.237-.74-1.475-1.645-2.75-.905-1.277-2.441-3.741-3.414-5.478-3.72-6.643-4.129-7.342-4.554-7.766-.429-.43-1.024-1.447-4.545-7.767-.967-1.736-2.068-3.55-2.446-4.031-.378-.48-1.516-2.349-2.529-4.151-4.826-8.593-5.652-9.988-7.186-12.152-.905-1.275-1.646-2.591-1.646-2.923 0-.333-.83-1.77-1.843-3.193-1.854-2.604-1.643-4.575.284-2.648.57.569 1.916 1.034 2.993 1.034s2.201.393 2.499.874c.296.48 1.476.874 2.621.874s2.325.393 2.622.874c.297.48 1.477.874 2.622.874 1.145 0 2.324.393 2.622.874.296.48 1.308.874 2.248.874.94 0 2.39.384 3.225.854s8.793 3.232 17.685 6.137c8.892 2.905 16.85 5.667 17.685 6.137.835.47 2.286.854 3.226.854s1.951.393 2.248.874c.297.48 1.477.874 2.622.874 1.145 0 2.325.393 2.622.874.297.48 1.476.874 2.621.874s2.325.393 2.622.874c.297.48 1.477.874 2.622.874 1.145 0 2.325.393 2.622.874.297.48 1.476.874 2.621.874s2.325.393 2.622.873c.297.481 1.477.874 2.622.874 1.145 0 2.325.393 2.622.874.297.481 1.476.874 2.621.874s2.325.393 2.622.874c.297.48 1.477.874 2.622.874 1.145 0 2.325.393 2.622.874.297.48 1.477.874 2.621.874 1.145 0 2.325.393 2.622.874.297.48 1.309.874 2.248.874.94 0 2.391.36 3.226.8.835.442 2.796 1.276 4.358 1.855l2.84 1.052v79.858c0 43.921-.122 79.857-.27 79.857-.149 0-2.213-3.233-4.588-7.185z" stroke="#000" stroke-width="3.303"/></svg>