<svg xmlns="http://www.w3.org/2000/svg" width="210mm" height="297mm" viewBox="0 0 210 297"><path d="M169.336 198.37c-.465-.465-2.666-1.102-9.944-2.879-1.63-.397-5.82-1.49-9.312-2.428-3.492-.938-10.73-2.845-16.084-4.238a7696 7696 0 0 1-17.778-4.65c-4.423-1.165-12.423-3.265-17.778-4.666-5.354-1.401-15.64-4.096-22.857-5.987-7.217-1.892-17.312-4.472-22.433-5.734-5.122-1.262-9.476-2.41-9.676-2.55-.2-.14.501-1.868 1.558-3.842 2.521-4.708 12.493-23.882 21.237-40.835 3.842-7.45 9.18-17.736 11.86-22.857 2.68-5.122 8.032-15.408 11.893-22.858a8147.29 8147.29 0 0 1 8.015-15.438c.934-1.778 1.203-1.494 4.4 4.656 1.872 3.602 5.31 10.169 7.638 14.592 10.134 19.248 13.34 25.375 16.61 31.746 1.912 3.725 3.678 6.963 3.924 7.196.247.232 1.996 3.47 3.888 7.195s5.65 10.963 8.353 16.085a6484.138 6484.138 0 0 1 10 19.047 8807.057 8807.057 0 0 0 12.587 23.958c4.125 7.822 7.5 14.393 7.5 14.603 0 .561-3.021.464-3.601-.117z" stroke="#000" stroke-width="3.2"/></svg>