<svg xmlns="http://www.w3.org/2000/svg" width="210mm" height="297mm" viewBox="0 0 210 297"><path d="M40.527 140V82.602l3.195.692c1.757.38 4.543 1.034 6.19 1.454 1.647.42 4.073.986 5.391 1.258 1.318.273 3.115.8 3.994 1.174.878.373 2.585.885 3.793 1.138l4.393.919c1.208.253 2.916.765 3.794 1.138.879.373 2.676.901 3.994 1.173 2.914.603 6.913 1.611 11.182 2.82 1.757.498 4.542 1.24 6.19 1.65l5.99 1.492c1.647.41 4.433 1.153 6.19 1.65 1.757.498 4.453 1.213 5.99 1.588 1.538.375 5.491 1.402 8.786 2.282 10.541 2.815 21.44 5.68 51.916 13.644 6.809 1.78 12.641 3.24 12.961 3.244.32.005-1.615 4.232-4.3 9.394-2.685 5.161-7.764 14.955-11.286 21.764-10.843 20.958-11.353 21.932-12.065 23.053-.645 1.016-2.732-1.859-12.383-17.062-11.9-18.747-11.302-17.962-12.921-16.95-.847.528-1.539 1.203-1.539 1.5 0 .296-2.875 4.89-6.39 10.21-3.514 5.318-6.39 10.02-6.39 10.45 0 .429-.298.78-.663.78-.365 0-1.174.988-1.797 2.196-.623 1.208-1.762 2.894-2.531 3.745-.769.852-1.398 2.02-1.398 2.596 0 .576-.36 1.047-.799 1.047a.803.803 0 0 0-.798.804c0 .441-3.471 6.012-7.713 12.38L93.79 197.4H40.528Z" stroke="#000" stroke-width="3.019"/></svg>