o 
v 80 1 100
v 66 1 100
v 66 0 100
v 80 0 100
v 66 1 78
v 66 0 78
v 87.097656 1 78
v 87.097656 0 78
vn 0 0 14
vn 0 0 14
vn 0 0 14
vn 0 0 14
vn -22 0 0
vn -22 0 0
vn -22 0 0
vn -22 0 0
vn 0 0 -21.097656
vn 0 0 -21.097656
vn 0 0 -21.097656
vn 0 0 -21.097656
vn 22 0 7.0976560000000006
vn 22 0 7.0976560000000006
vn 22 0 7.0976560000000006
vn 22 0 7.0976560000000006
vn 0 1 0
vn 0 1 0
vn 0 1 0
vn 0 1 0
vn 0 1 0
vn 0 1 0
vn 0 -1 0
vn 0 -1 0
vn 0 -1 0
vn 0 -1 0
vn 0 -1 0
vn 0 -1 0

g 
f 1//1 2//2 3//3 4//4
f 2//5 5//6 6//7 3//8
f 5//9 7//10 8//11 6//12
f 7//13 1//14 4//15 8//16
f 1//17 7//18 5//19
f 5//20 2//21 1//22
f 6//23 8//24 4//25
f 4//26 3//27 6//28