o 
v 22 1 30
v 6 1 30
v 6 0 30
v 22 0 30
v 16 1 18
v 16 0 18
v 22 1 18
v 22 0 18
vn 0 0 16
vn 0 0 16
vn 0 0 16
vn 0 0 16
vn -12 0 -10
vn -12 0 -10
vn -12 0 -10
vn -12 0 -10
vn 0 0 -6
vn 0 0 -6
vn 0 0 -6
vn 0 0 -6
vn 12 0 0
vn 12 0 0
vn 12 0 0
vn 12 0 0
vn 0 1 0
vn 0 1 0
vn 0 1 0
vn 0 1 0
vn 0 1 0
vn 0 1 0
vn 0 -1 0
vn 0 -1 0
vn 0 -1 0
vn 0 -1 0
vn 0 -1 0
vn 0 -1 0

g 
f 1//1 2//2 3//3 4//4
f 2//5 5//6 6//7 3//8
f 5//9 7//10 8//11 6//12
f 7//13 1//14 4//15 8//16
f 1//17 7//18 5//19
f 5//20 2//21 1//22
f 6//23 8//24 4//25
f 4//26 3//27 6//28