o 
v 18.686170375000003 1 46.194046875
v 19 1 53
v 19 0 53
v 18.686170375000003 0 46.194046875
v 18.685547 1 59.818359
v 18.685547 0 59.818359
v 17.249284671875 1 58.615805296874996
v 17.249284671875 0 58.615805296874996
v 15.728815625 1 57.731681625
v 15.728815625 0 57.731681625
v 14.140325515625001 1 57.186306890625
v 14.140325515625001 0 57.186306890625
v 12.5 1 57
v 12.5 0 57
v 10.5655417453125 1 57.257133515625
v 10.5655417453125 0 57.257133515625
v 8.7253003375 1 58.002095624999995
v 8.7253003375 0 58.002095624999995
v 7.0009243859375 1 59.195228671875
v 7.0009243859375 0 59.195228671875
v 5.4140625 1 60.796875
v 5.4140625 0 60.796875
v 5.1041924875 1 56.957398
v 5.1041924875 0 56.957398
v 5 1 53
v 5 0 53
v 5.1509284812499994 1 48.25112096875
v 5.1509284812499994 0 48.25112096875
v 5.5909819999999995 1 43.752647249999995
v 5.5909819999999995 0 43.752647249999995
v 6.30146249375 1 39.64445140625
v 6.30146249375 0 39.64445140625
v 7.2636719 1 36.066406
v 7.2636719 0 36.066406
v 9.5945862859374991 1 37.7064338125
v 9.5945862859374991 0 37.7064338125
v 12.1461188625 1 38.937833499999996
v 12.1461188625 0 38.937833499999996
v 14.8838694828125 1 39.716429687499996
v 14.8838694828125 0 39.716429687499996
v 17.773438 1 39.998047
v 17.773438 0 39.998047
vn 13.001953 0 -1.2265620000000013
vn 4.6413439999999966 0 -0.00021999999999877673
vn 4.6413439999999966 0 -0.00021999999999877673
vn 13.001953 0 -1.2265620000000013
vn 2.3117960000000011 0 -6.7999999998846761E-05
vn 2.2079450000000023 0 0.20851199999999892
vn 2.2079450000000023 0 0.20851199999999892
vn 2.3117960000000011 0 -6.7999999998846761E-05
vn -1.8066609999999983 0 1.8516849999999998
vn -2.0866773750000007 0 2.9567313750000004
vn -2.0866773750000007 0 2.9567313750000004
vn -1.8066609999999983 0 1.8516849999999998
vn -2.0866773750000007 0 2.9567313750000004
vn -1.4294984062499978 0 3.1089591562499983
vn -1.4294984062499978 0 3.1089591562499983
vn -2.0866773750000007 0 2.9567313750000004
vn -1.4294984062499978 0 3.1089591562499983
vn -0.73168162500000022 0 3.2288156249999993
vn -0.73168162500000022 0 3.2288156249999993
vn -1.4294984062499978 0 3.1089591562499983
vn -0.73168162500000022 0 3.2288156249999993
vn 0 0 2.2144639999999995
vn 0 0 2.2144639999999995
vn -0.73168162500000022 0 3.2288156249999993
vn 0 0 2.6324673
vn 1.0020956249999955 0 3.7746996624999998
vn 1.0020956249999955 0 3.7746996624999998
vn 0 0 2.6324673
vn 1.0020956249999955 0 3.7746996624999998
vn 1.9380951562500002 0 3.5646173593749992
vn 1.9380951562500002 0 3.5646173593749992
vn 1.0020956249999955 0 3.7746996624999998
vn 1.9380951562500002 0 3.5646173593749992
vn 2.7947793750000045 0 3.3112378375000002
vn 2.7947793750000045 0 3.3112378375000002
vn 1.9380951562500002 0 3.5646173593749992
vn 2.7947793750000045 0 3.3112378375000002
vn 2.390245 0 2.0145182000000004
vn 2.390245 0 2.0145182000000004
vn 2.7947793750000045 0 3.3112378375000002
vn -2.500819 0 0.2741023
vn -7.796875 0 0.4140625
vn -7.796875 0 0.4140625
vn -2.500819 0 0.2741023
vn -7.796875 0 0.4140625
vn -2.6580470000000034 0 -0.00013440000000031205
vn -2.6580470000000034 0 -0.00013440000000031205
vn -7.796875 0 0.4140625
vn -6.4366100000000017 0 -0.00017770000000005837
vn -9.2473527500000046 0 -0.59098199999999945
vn -9.2473527500000046 0 -0.59098199999999945
vn -6.4366100000000017 0 -0.00017770000000005837
vn -9.2473527500000046 0 -0.59098199999999945
vn -8.6066695625000023 0 -1.1505340125000005
vn -8.6066695625000023 0 -1.1505340125000005
vn -9.2473527500000046 0 -0.59098199999999945
vn -8.6066695625000023 0 -1.1505340125000005
vn -7.6862412499999948 0 -1.6726899000000008
vn -7.6862412499999948 0 -1.6726899000000008
vn -8.6066695625000023 0 -1.1505340125000005
vn -7.6862412499999948 0 -1.6726899000000008
vn -4.3551280000000006 0 -1.4424549000000004
vn -4.3551280000000006 0 -1.4424549000000004
vn -7.6862412499999948 0 -1.6726899000000008
vn 2.4394890000000018 0 -2.9455180999999993
vn 2.8714274999999958 0 -4.8824469624999995
vn 2.8714274999999958 0 -4.8824469624999995
vn 2.4394890000000018 0 -2.9455180999999993
vn 2.8714274999999958 0 -4.8824469624999995
vn 2.0099958749999942 0 -5.2892831968750009
vn 2.0099958749999942 0 -5.2892831968750009
vn 2.8714274999999958 0 -4.8824469624999995
vn 2.0099958749999942 0 -5.2892831968750009
vn 1.0602135000000033 0 -5.6273191374999989
vn 1.0602135000000033 0 -5.6273191374999989
vn 2.0099958749999942 0 -5.2892831968750009
vn 1.0602135000000033 0 -5.6273191374999989
vn 0.024537000000002251 0 -3.938680999999999
vn 0.024537000000002251 0 -3.938680999999999
vn 1.0602135000000033 0 -5.6273191374999989
vn 3.8280730000000034 0 -0.79875700000000194
vn 13.001953 0 -1.2265620000000013
vn 13.001953 0 -1.2265620000000013
vn 3.8280730000000034 0 -0.79875700000000194
vn 0 1 0
vn 0 1 0
vn 0 1 0
vn 0 1 0
vn 0 1 0
vn 0 1 0
vn 0 1 0
vn 0 1 0
vn 0 1 0
vn 0 1 0
vn 0 1 0
vn 0 1 0
vn 0 1 0
vn 0 1 0
vn 0 1 0
vn 0 1 0
vn 0 1 0
vn 0 1 0
vn 0 1 0
vn 0 1 0
vn 0 1 0
vn 0 1 0
vn 0 1 0
vn 0 1 0
vn 0 1 0
vn 0 1 0
vn 0 1 0
vn 0 1 0
vn 0 1 0
vn 0 1 0
vn 0 1 0
vn 0 1 0
vn 0 1 0
vn 0 1 0
vn 0 1 0
vn 0 1 0
vn 0 1 0
vn 0 1 0
vn 0 1 0
vn 0 1 0
vn 0 1 0
vn 0 1 0
vn 0 1 0
vn 0 1 0
vn 0 1 0
vn 0 1 0
vn 0 1 0
vn 0 1 0
vn 0 1 0
vn 0 1 0
vn 0 1 0
vn 0 1 0
vn 0 1 0
vn 0 1 0
vn 0 1 0
vn 0 1 0
vn 0 1 0
vn 0 -1 0
vn 0 -1 0
vn 0 -1 0
vn 0 -1 0
vn 0 -1 0
vn 0 -1 0
vn 0 -1 0
vn 0 -1 0
vn 0 -1 0
vn 0 -1 0
vn 0 -1 0
vn 0 -1 0
vn 0 -1 0
vn 0 -1 0
vn 0 -1 0
vn 0 -1 0
vn 0 -1 0
vn 0 -1 0
vn 0 -1 0
vn 0 -1 0
vn 0 -1 0
vn 0 -1 0
vn 0 -1 0
vn 0 -1 0
vn 0 -1 0
vn 0 -1 0
vn 0 -1 0
vn 0 -1 0
vn 0 -1 0
vn 0 -1 0
vn 0 -1 0
vn 0 -1 0
vn 0 -1 0
vn 0 -1 0
vn 0 -1 0
vn 0 -1 0
vn 0 -1 0
vn 0 -1 0
vn 0 -1 0
vn 0 -1 0
vn 0 -1 0
vn 0 -1 0
vn 0 -1 0
vn 0 -1 0
vn 0 -1 0
vn 0 -1 0
vn 0 -1 0
vn 0 -1 0
vn 0 -1 0
vn 0 -1 0
vn 0 -1 0
vn 0 -1 0
vn 0 -1 0
vn 0 -1 0
vn 0 -1 0
vn 0 -1 0
vn 0 -1 0

g 
f 1//1 2//2 3//3 4//4
f 2//5 5//6 6//7 3//8
f 5//9 7//10 8//11 6//12
f 7//13 9//14 10//15 8//16
f 9//17 11//18 12//19 10//20
f 11//21 13//22 14//23 12//24
f 13//25 15//26 16//27 14//28
f 15//29 17//30 18//31 16//32
f 17//33 19//34 20//35 18//36
f 19//37 21//38 22//39 20//40
f 21//41 23//42 24//43 22//44
f 23//45 25//46 26//47 24//48
f 25//49 27//50 28//51 26//52
f 27//53 29//54 30//55 28//56
f 29//57 31//58 32//59 30//60
f 31//61 33//62 34//63 32//64
f 33//65 35//66 36//67 34//68
f 35//69 37//70 38//71 36//72
f 37//73 39//74 40//75 38//76
f 39//77 41//78 42//79 40//80
f 41//81 1//82 4//83 42//84
f 1//85 41//86 39//87
f 1//88 39//89 37//90
f 1//91 37//92 35//93
f 1//94 35//95 33//96
f 1//97 33//98 31//99
f 1//100 31//101 29//102
f 1//103 29//104 27//105
f 1//106 27//107 25//108
f 1//109 25//110 23//111
f 1//112 23//113 21//114
f 1//115 21//116 19//117
f 1//118 19//119 17//120
f 1//121 17//122 15//123
f 1//124 15//125 13//126
f 1//127 13//128 11//129
f 1//130 11//131 9//132
f 1//133 9//134 7//135
f 1//136 7//137 5//138
f 5//139 2//140 1//141
f 40//142 42//143 4//144
f 38//145 40//146 4//147
f 36//148 38//149 4//150
f 34//151 36//152 4//153
f 32//154 34//155 4//156
f 30//157 32//158 4//159
f 28//160 30//161 4//162
f 26//163 28//164 4//165
f 24//166 26//167 4//168
f 22//169 24//170 4//171
f 20//172 22//173 4//174
f 18//175 20//176 4//177
f 16//178 18//179 4//180
f 14//181 16//182 4//183
f 12//184 14//185 4//186
f 10//187 12//188 4//189
f 8//190 10//191 4//192
f 6//193 8//194 4//195
f 4//196 3//197 6//198