o 
v 32 1 72
v 44 1 72
v 44 0 72
v 32 0 72
v 44 1 100
v 44 0 100
v 22 1 100
v 22 0 100
v 22 1 52
v 22 0 52
v 32 1 52
v 32 0 52
vn 0 0 -12
vn 0 0 -12
vn 0 0 -12
vn 0 0 -12
vn 28 0 0
vn 28 0 0
vn 28 0 0
vn 28 0 0
vn 0 0 22
vn 0 0 22
vn 0 0 22
vn 0 0 22
vn -48 0 0
vn -48 0 0
vn -48 0 0
vn -48 0 0
vn 0 0 -10
vn 0 0 -10
vn 0 0 -10
vn 0 0 -10
vn 20 0 0
vn 20 0 0
vn 20 0 0
vn 20 0 0
vn 0 1 0
vn 0 1 0
vn 0 1 0
vn 0 1 0
vn 0 1 0
vn 0 1 0
vn 0 1 0
vn 0 1 0
vn 0 1 0
vn 0 1 0
vn 0 1 0
vn 0 1 0
vn 0 -1 0
vn 0 -1 0
vn 0 -1 0
vn 0 -1 0
vn 0 -1 0
vn 0 -1 0
vn 0 -1 0
vn 0 -1 0
vn 0 -1 0
vn 0 -1 0
vn 0 -1 0
vn 0 -1 0

g 
f 1//1 2//2 3//3 4//4
f 2//5 5//6 6//7 3//8
f 5//9 7//10 8//11 6//12
f 7//13 9//14 10//15 8//16
f 9//17 11//18 12//19 10//20
f 11//21 1//22 4//23 12//24
f 1//25 11//26 9//27
f 1//28 9//29 7//30
f 1//31 7//32 5//33
f 5//34 2//35 1//36
f 10//37 12//38 4//39
f 8//40 10//41 4//42
f 6//43 8//44 4//45
f 4//46 3//47 6//48