o 
v 8.0615235 1 7.0117189999999994
v 5.4365723027343762 1 6.2916518144531253
v 5.4365723027343762 0 6.2916518144531253
v 8.0615235 0 7.0117189999999994
v 2.9393518593749981 1 5.2360953906250032
v 2.9393518593749981 0 5.2360953906250032
v 0.59307826757812521 1 3.8652425527343794
v 0.59307826757812521 0 3.8652425527343794
v -1.5790323749999971 1 2.1992861250000004
v -1.5790323749999971 0 2.1992861250000004
v -3.5537639707031268 1 0.25841893164061958
v -3.5537639707031268 0 0.25841893164061958
v -5.3079004218750008 1 -1.9371662031250025
v -5.3079004218750008 0 -1.9371662031250025
v -6.8182256308593754 1 -4.3672764550781267
v -6.8182256308593754 0 -4.3672764550781267
v -8.0615235 1 -7.0117189999999994
v -8.0615235 0 -7.0117189999999994
v 8.0615235 1 -7.0117189999999994
v 8.0615235 0 -7.0117189999999994
vn -1.4549109999999956 0 7.1495409999999993
vn -1.7756236093749962 0 5.1221716406250017
vn -1.7756236093749962 0 5.1221716406250017
vn -1.4549109999999956 0 7.1495409999999993
vn -1.7756236093749962 0 5.1221716406250017
vn -2.4264092617187458 0 4.843494035156251
vn -2.4264092617187458 0 4.843494035156251
vn -1.7756236093749962 0 5.1221716406250017
vn -2.4264092617187458 0 4.843494035156251
vn -3.0368092656250028 0 4.5183842343749951
vn -3.0368092656250028 0 4.5183842343749951
vn -2.4264092617187458 0 4.843494035156251
vn -3.0368092656250028 0 4.5183842343749951
vn -3.60682362109376 0 4.146842238281252
vn -3.60682362109376 0 4.146842238281252
vn -3.0368092656250028 0 4.5183842343749951
vn -3.60682362109376 0 4.146842238281252
vn -4.136452328125003 0 3.7288680468750037
vn -4.136452328125003 0 3.7288680468750037
vn -3.60682362109376 0 4.146842238281252
vn -4.136452328125003 0 3.7288680468750037
vn -4.6256953867187462 0 3.2644616601562486
vn -4.6256953867187462 0 3.2644616601562486
vn -4.136452328125003 0 3.7288680468750037
vn -4.6256953867187462 0 3.2644616601562486
vn -5.0745527968749968 0 2.7536230781249991
vn -5.0745527968749968 0 2.7536230781249991
vn -4.6256953867187462 0 3.2644616601562486
vn -5.0745527968749968 0 2.7536230781249991
vn -7.3196739999999991 0 2.9387879999999988
vn -7.3196739999999991 0 2.9387879999999988
vn -5.0745527968749968 0 2.7536230781249991
vn 0 0 -16.123047
vn 0 0 -16.123047
vn 0 0 -16.123047
vn 0 0 -16.123047
vn 14.023437999999999 0 0
vn 14.023437999999999 0 0
vn 14.023437999999999 0 0
vn 14.023437999999999 0 0
vn 0 1 0
vn 0 1 0
vn 0 1 0
vn 0 1 0
vn 0 1 0
vn 0 1 0
vn 0 1 0
vn 0 1 0
vn 0 1 0
vn 0 1 0
vn 0 1 0
vn 0 1 0
vn 0 1 0
vn 0 1 0
vn 0 1 0
vn 0 1 0
vn 0 1 0
vn 0 1 0
vn 0 1 0
vn 0 1 0
vn 0 1 0
vn 0 1 0
vn 0 1 0
vn 0 1 0
vn 0 -1 0
vn 0 -1 0
vn 0 -1 0
vn 0 -1 0
vn 0 -1 0
vn 0 -1 0
vn 0 -1 0
vn 0 -1 0
vn 0 -1 0
vn 0 -1 0
vn 0 -1 0
vn 0 -1 0
vn 0 -1 0
vn 0 -1 0
vn 0 -1 0
vn 0 -1 0
vn 0 -1 0
vn 0 -1 0
vn 0 -1 0
vn 0 -1 0
vn 0 -1 0
vn 0 -1 0
vn 0 -1 0
vn 0 -1 0

g 
f 1//1 2//2 3//3 4//4
f 2//5 5//6 6//7 3//8
f 5//9 7//10 8//11 6//12
f 7//13 9//14 10//15 8//16
f 9//17 11//18 12//19 10//20
f 11//21 13//22 14//23 12//24
f 13//25 15//26 16//27 14//28
f 15//29 17//30 18//31 16//32
f 17//33 19//34 20//35 18//36
f 19//37 1//38 4//39 20//40
f 1//41 19//42 17//43
f 1//44 17//45 15//46
f 1//47 15//48 13//49
f 1//50 13//51 11//52
f 1//53 11//54 9//55
f 1//56 9//57 7//58
f 1//59 7//60 5//61
f 5//62 2//63 1//64
f 18//65 20//66 4//67
f 16//68 18//69 4//70
f 14//71 16//72 4//73
f 12//74 14//75 4//76
f 10//77 12//78 4//79
f 8//80 10//81 4//82
f 6//83 8//84 4//85
f 4//86 3//87 6//88