o 
v 78 1 100
v 78.2470703125 1 95.70263671875
v 78.2470703125 0 95.70263671875
v 78 0 100
v 78.9453125 1 91.77734375
v 78.9453125 0 91.77734375
v 80.0302734375 1 88.17431640625
v 80.0302734375 0 88.17431640625
v 81.4375 1 84.84375
v 81.4375 0 84.84375
v 83.1025390625 1 81.73583984375
v 83.1025390625 0 81.73583984375
v 84.9609375 1 78.80078125
v 84.9609375 0 78.80078125
v 89 1 73.25
v 89 0 73.25
v 93.0390625 1 67.79296875
v 93.0390625 0 67.79296875
v 94.8974609375 1 64.97509765625
v 94.8974609375 0 64.97509765625
v 96.5625 1 62.03125
v 96.5625 0 62.03125
v 97.9697265625 1 58.91162109375
v 97.9697265625 0 58.91162109375
v 99.0546875 1 55.56640625
v 99.0546875 0 55.56640625
v 99.7529296875 1 51.94580078125
v 99.7529296875 0 51.94580078125
v 100 1 48
v 100 0 48
v 100 1 100
v 100 0 100
vn -24 0 0
vn -8.22265625 0 -0.9453125
vn -8.22265625 0 -0.9453125
vn -24 0 0
vn -8.22265625 0 -0.9453125
vn -7.5283203125 0 -1.783203125
vn -7.5283203125 0 -1.783203125
vn -8.22265625 0 -0.9453125
vn -7.5283203125 0 -1.783203125
vn -6.93359375 0 -2.4921875
vn -6.93359375 0 -2.4921875
vn -7.5283203125 0 -1.783203125
vn -6.93359375 0 -2.4921875
vn -6.4384765625 0 -3.072265625
vn -6.4384765625 0 -3.072265625
vn -6.93359375 0 -2.4921875
vn -6.4384765625 0 -3.072265625
vn -6.04296875 0 -3.5234375
vn -6.04296875 0 -3.5234375
vn -6.4384765625 0 -3.072265625
vn -6.04296875 0 -3.5234375
vn -8.48583984375 0 -5.8974609375
vn -8.48583984375 0 -5.8974609375
vn -6.04296875 0 -3.5234375
vn -8.48583984375 0 -5.8974609375
vn -11.0078125 0 -8.078125
vn -11.0078125 0 -8.078125
vn -8.48583984375 0 -5.8974609375
vn -11.0078125 0 -8.078125
vn -8.27490234375 0 -5.8974609375
vn -8.27490234375 0 -5.8974609375
vn -11.0078125 0 -8.078125
vn -8.27490234375 0 -5.8974609375
vn -5.76171875 0 -3.5234375
vn -5.76171875 0 -3.5234375
vn -8.27490234375 0 -5.8974609375
vn -5.76171875 0 -3.5234375
vn -6.0634765625 0 -3.072265625
vn -6.0634765625 0 -3.072265625
vn -5.76171875 0 -3.5234375
vn -6.0634765625 0 -3.072265625
vn -6.46484375 0 -2.4921875
vn -6.46484375 0 -2.4921875
vn -6.0634765625 0 -3.072265625
vn -6.46484375 0 -2.4921875
vn -6.9658203125 0 -1.783203125
vn -6.9658203125 0 -1.783203125
vn -6.46484375 0 -2.4921875
vn -6.9658203125 0 -1.783203125
vn -7.56640625 0 -0.9453125
vn -7.56640625 0 -0.9453125
vn -6.9658203125 0 -1.783203125
vn -7.56640625 0 -0.9453125
vn -22 0 0
vn -22 0 0
vn -7.56640625 0 -0.9453125
vn 52 0 0
vn 52 0 0
vn 52 0 0
vn 52 0 0
vn 0 0 22
vn 0 0 22
vn 0 0 22
vn 0 0 22
vn 0 1 0
vn 0 1 0
vn 0 1 0
vn 0 1 0
vn 0 1 0
vn 0 1 0
vn 0 1 0
vn 0 1 0
vn 0 1 0
vn 0 1 0
vn 0 1 0
vn 0 1 0
vn 0 1 0
vn 0 1 0
vn 0 1 0
vn 0 1 0
vn 0 1 0
vn 0 1 0
vn 0 1 0
vn 0 1 0
vn 0 1 0
vn 0 1 0
vn 0 1 0
vn 0 1 0
vn 0 1 0
vn 0 1 0
vn 0 1 0
vn 0 1 0
vn 0 1 0
vn 0 1 0
vn 0 1 0
vn 0 1 0
vn 0 1 0
vn 0 1 0
vn 0 1 0
vn 0 1 0
vn 0 1 0
vn 0 1 0
vn 0 1 0
vn 0 1 0
vn 0 1 0
vn 0 1 0
vn 0 -1 0
vn 0 -1 0
vn 0 -1 0
vn 0 -1 0
vn 0 -1 0
vn 0 -1 0
vn 0 -1 0
vn 0 -1 0
vn 0 -1 0
vn 0 -1 0
vn 0 -1 0
vn 0 -1 0
vn 0 -1 0
vn 0 -1 0
vn 0 -1 0
vn 0 -1 0
vn 0 -1 0
vn 0 -1 0
vn 0 -1 0
vn 0 -1 0
vn 0 -1 0
vn 0 -1 0
vn 0 -1 0
vn 0 -1 0
vn 0 -1 0
vn 0 -1 0
vn 0 -1 0
vn 0 -1 0
vn 0 -1 0
vn 0 -1 0
vn 0 -1 0
vn 0 -1 0
vn 0 -1 0
vn 0 -1 0
vn 0 -1 0
vn 0 -1 0
vn 0 -1 0
vn 0 -1 0
vn 0 -1 0
vn 0 -1 0
vn 0 -1 0
vn 0 -1 0

g 
f 1//1 2//2 3//3 4//4
f 2//5 5//6 6//7 3//8
f 5//9 7//10 8//11 6//12
f 7//13 9//14 10//15 8//16
f 9//17 11//18 12//19 10//20
f 11//21 13//22 14//23 12//24
f 13//25 15//26 16//27 14//28
f 15//29 17//30 18//31 16//32
f 17//33 19//34 20//35 18//36
f 19//37 21//38 22//39 20//40
f 21//41 23//42 24//43 22//44
f 23//45 25//46 26//47 24//48
f 25//49 27//50 28//51 26//52
f 27//53 29//54 30//55 28//56
f 29//57 31//58 32//59 30//60
f 31//61 1//62 4//63 32//64
f 31//65 29//66 27//67
f 31//68 27//69 25//70
f 31//71 25//72 23//73
f 31//74 23//75 21//76
f 1//77 31//78 21//79
f 1//80 21//81 19//82
f 1//83 19//84 17//85
f 1//86 17//87 15//88
f 1//89 15//90 13//91
f 1//92 13//93 11//94
f 1//95 11//96 9//97
f 1//98 9//99 7//100
f 1//101 7//102 5//103
f 5//104 2//105 1//106
f 28//107 30//108 32//109
f 26//110 28//111 32//112
f 24//113 26//114 32//115
f 22//116 24//117 32//118
f 22//119 32//120 4//121
f 20//122 22//123 4//124
f 18//125 20//126 4//127
f 16//128 18//129 4//130
f 14//131 16//132 4//133
f 12//134 14//135 4//136
f 10//137 12//138 4//139
f 8//140 10//141 4//142
f 6//143 8//144 4//145
f 4//146 3//147 6//148