o 
v 12 1 30
v 12.857342662109376 1 30.173210275390623
v 12.857342662109376 0 30.173210275390623
v 12 0 30
v 13.692480671875 1 30.682675890625003
v 13.692480671875 0 30.682675890625003
v 14.497135939453125 1 31.514061404296875
v 14.497135939453125 0 31.514061404296875
v 15.263030375 1 32.653031375
v 15.263030375 0 32.653031375
v 16.645424390625 1 35.796382921874994
v 16.645424390625 0 35.796382921874994
v 17.773438 1 39.998047
v 17.773438 0 39.998047
v 14.883869482812498 1 39.716429687499996
v 14.883869482812498 0 39.716429687499996
v 12.146118862500002 1 38.937833499999996
v 12.146118862500002 0 38.937833499999996
v 9.5945862859374991 1 37.706433812499995
v 9.5945862859374991 0 37.706433812499995
v 7.2636719 1 36.066406
v 7.2636719 0 36.066406
v 8.3015048859375 1 33.47381353125
v 8.3015048859375 0 33.47381353125
v 9.4574048124999983 1 31.571777
v 9.4574048124999983 0 31.571777
v 10.7000320578125 1 30.40045346875
v 10.7000320578125 0 30.40045346875
v 11.998047 1 30
v 11.998047 0 30
v 11.998 1 30
v 11.998 0 30
vn 0.00081099999999878492 0 -2.3084950000000006
vn 0.68267589062500278 0 -1.6924806718749998
vn 0.68267589062500278 0 -1.6924806718749998
vn 0.00081099999999878492 0 -2.3084950000000006
vn 0.68267589062500278 0 -1.6924806718749998
vn 1.3408511289062517 0 -1.6397932773437489
vn 1.3408511289062517 0 -1.6397932773437489
vn 0.68267589062500278 0 -1.6924806718749998
vn 1.3408511289062517 0 -1.6397932773437489
vn 1.9703554843749949 0 -1.5705497031249998
vn 1.9703554843749949 0 -1.5705497031249998
vn 1.3408511289062517 0 -1.6397932773437489
vn 1.9703554843749949 0 -1.5705497031249998
vn 4.2823215175781186 0 -2.1482884511718741
vn 4.2823215175781186 0 -2.1482884511718741
vn 1.9703554843749949 0 -1.5705497031249998
vn 4.2823215175781186 0 -2.1482884511718741
vn 7.345015625000002 0 -2.5104076249999991
vn 7.345015625000002 0 -2.5104076249999991
vn 4.2823215175781186 0 -2.1482884511718741
vn 7.345015625000002 0 -2.5104076249999991
vn 6.2567900000000023 0 -1.3049979999999977
vn 6.2567900000000023 0 -1.3049979999999977
vn 7.345015625000002 0 -2.5104076249999991
vn -0.024537000000002251 0 3.938680999999999
vn -1.0602135000000033 0 5.6273191374999971
vn -1.0602135000000033 0 5.6273191374999971
vn -0.024537000000002251 0 3.938680999999999
vn -1.0602135000000033 0 5.6273191374999971
vn -2.0099958750000013 0 5.2892831968749991
vn -2.0099958750000013 0 5.2892831968749991
vn -1.0602135000000033 0 5.6273191374999971
vn -2.0099958750000013 0 5.2892831968749991
vn -2.8714274999999958 0 4.8824469625000013
vn -2.8714274999999958 0 4.8824469625000013
vn -2.0099958750000013 0 5.2892831968749991
vn -2.8714274999999958 0 4.8824469625000013
vn -2.4394890000000018 0 2.9455180999999993
vn -2.4394890000000018 0 2.9455180999999993
vn -2.8714274999999958 0 4.8824469625000013
vn -3.8993129999999994 0 -1.291137299999999
vn -4.494629 0 -2.193732912499998
vn -4.494629 0 -2.193732912499998
vn -3.8993129999999994 0 -1.291137299999999
vn -4.494629 0 -2.193732912499998
vn -3.0733600625000008 0 -2.3985271718749992
vn -3.0733600625000008 0 -2.3985271718749992
vn -4.494629 0 -2.193732912499998
vn -3.0733600625000008 0 -2.3985271718749992
vn -1.5717770000000009 0 -2.5406421875000014
vn -1.5717770000000009 0 -2.5406421875000014
vn -3.0733600625000008 0 -2.3985271718749992
vn -1.5717770000000009 0 -2.5406421875000014
vn -0.0021769999999996514 0 -1.7536830000000006
vn -0.0021769999999996514 0 -1.7536830000000006
vn -1.5717770000000009 0 -2.5406421875000014
vn 0 0 4.7000000000352316E-05
vn 0 0 4.7000000000352316E-05
vn 0 0 4.7000000000352316E-05
vn 0 0 4.7000000000352316E-05
vn 0 0 -0.0020000000000006679
vn 0 0 -0.0020000000000006679
vn 0 0 -0.0020000000000006679
vn 0 0 -0.0020000000000006679
vn 0 1 0
vn 0 1 0
vn 0 1 0
vn 0 1 0
vn 0 1 0
vn 0 1 0
vn 0 1 0
vn 0 1 0
vn 0 1 0
vn 0 1 0
vn 0 1 0
vn 0 1 0
vn 0 1 0
vn 0 1 0
vn 0 1 0
vn 0 1 0
vn 0 1 0
vn 0 1 0
vn 0 1 0
vn 0 1 0
vn 0 1 0
vn 0 1 0
vn 0 1 0
vn 0 1 0
vn 0 1 0
vn 0 1 0
vn 0 1 0
vn 0 1 0
vn 0 1 0
vn 0 1 0
vn 0 1 0
vn 0 1 0
vn 0 1 0
vn 0 1 0
vn 0 1 0
vn 0 1 0
vn 0 1 0
vn 0 1 0
vn 0 1 0
vn 0 1 0
vn 0 1 0
vn 0 1 0
vn 0 -1 0
vn 0 -1 0
vn 0 -1 0
vn 0 -1 0
vn 0 -1 0
vn 0 -1 0
vn 0 -1 0
vn 0 -1 0
vn 0 -1 0
vn 0 -1 0
vn 0 -1 0
vn 0 -1 0
vn 0 -1 0
vn 0 -1 0
vn 0 -1 0
vn 0 -1 0
vn 0 -1 0
vn 0 -1 0
vn 0 -1 0
vn 0 -1 0
vn 0 -1 0
vn 0 -1 0
vn 0 -1 0
vn 0 -1 0
vn 0 -1 0
vn 0 -1 0
vn 0 -1 0
vn 0 -1 0
vn 0 -1 0
vn 0 -1 0
vn 0 -1 0
vn 0 -1 0
vn 0 -1 0
vn 0 -1 0
vn 0 -1 0
vn 0 -1 0
vn 0 -1 0
vn 0 -1 0
vn 0 -1 0
vn 0 -1 0
vn 0 -1 0
vn 0 -1 0

g 
f 1//1 2//2 3//3 4//4
f 2//5 5//6 6//7 3//8
f 5//9 7//10 8//11 6//12
f 7//13 9//14 10//15 8//16
f 9//17 11//18 12//19 10//20
f 11//21 13//22 14//23 12//24
f 13//25 15//26 16//27 14//28
f 15//29 17//30 18//31 16//32
f 17//33 19//34 20//35 18//36
f 19//37 21//38 22//39 20//40
f 21//41 23//42 24//43 22//44
f 23//45 25//46 26//47 24//48
f 25//49 27//50 28//51 26//52
f 27//53 29//54 30//55 28//56
f 29//57 31//58 32//59 30//60
f 31//61 1//62 4//63 32//64
f 29//65 27//66 25//67
f 29//68 25//69 23//70
f 29//71 23//72 21//73
f 29//74 21//75 19//76
f 29//77 19//78 17//79
f 29//80 17//81 15//82
f 29//83 15//84 13//85
f 29//86 13//87 11//88
f 29//89 11//90 9//91
f 29//92 9//93 7//94
f 29//95 7//96 5//97
f 29//98 5//99 2//100
f 29//101 2//102 1//103
f 31//104 29//105 1//106
f 26//107 28//108 30//109
f 24//110 26//111 30//112
f 22//113 24//114 30//115
f 20//116 22//117 30//118
f 18//119 20//120 30//121
f 16//122 18//123 30//124
f 14//125 16//126 30//127
f 12//128 14//129 30//130
f 10//131 12//132 30//133
f 8//134 10//135 30//136
f 6//137 8//138 30//139
f 3//140 6//141 30//142
f 4//143 3//144 30//145
f 4//146 30//147 32//148