o 
v 28 1 9
v 16 1 9
v 16 0 9
v 28 0 9
v 14 1 -1
v 14 0 -1
v -10 1 -1
v -10 0 -1
v -8 1 9
v -8 0 9
v -28 1 9
v -28 0 9
v -28 1 -9
v -28 0 -9
v 28 1 -9
v 28 0 -9
vn 0 0 12
vn 0 0 12
vn 0 0 12
vn 0 0 12
vn -10 0 2
vn -10 0 2
vn -10 0 2
vn -10 0 2
vn 0 0 24
vn 0 0 24
vn 0 0 24
vn 0 0 24
vn 10 0 -2
vn 10 0 -2
vn 10 0 -2
vn 10 0 -2
vn 0 0 20
vn 0 0 20
vn 0 0 20
vn 0 0 20
vn -18 0 0
vn -18 0 0
vn -18 0 0
vn -18 0 0
vn 0 0 -56
vn 0 0 -56
vn 0 0 -56
vn 0 0 -56
vn 18 0 0
vn 18 0 0
vn 18 0 0
vn 18 0 0
vn 0 1 0
vn 0 1 0
vn 0 1 0
vn 0 1 0
vn 0 1 0
vn 0 1 0
vn 0 1 0
vn 0 1 0
vn 0 1 0
vn 0 1 0
vn 0 1 0
vn 0 1 0
vn 0 1 0
vn 0 1 0
vn 0 1 0
vn 0 1 0
vn 0 1 0
vn 0 1 0
vn 0 -1 0
vn 0 -1 0
vn 0 -1 0
vn 0 -1 0
vn 0 -1 0
vn 0 -1 0
vn 0 -1 0
vn 0 -1 0
vn 0 -1 0
vn 0 -1 0
vn 0 -1 0
vn 0 -1 0
vn 0 -1 0
vn 0 -1 0
vn 0 -1 0
vn 0 -1 0
vn 0 -1 0
vn 0 -1 0

g 
f 1//1 2//2 3//3 4//4
f 2//5 5//6 6//7 3//8
f 5//9 7//10 8//11 6//12
f 7//13 9//14 10//15 8//16
f 9//17 11//18 12//19 10//20
f 11//21 13//22 14//23 12//24
f 13//25 15//26 16//27 14//28
f 15//29 1//30 4//31 16//32
f 13//33 11//34 9//35
f 13//36 9//37 7//38
f 15//39 13//40 7//41
f 15//42 7//43 5//44
f 1//45 15//46 5//47
f 5//48 2//49 1//50
f 10//51 12//52 14//53
f 8//54 10//55 14//56
f 8//57 14//58 16//59
f 6//60 8//61 16//62
f 6//63 16//64 4//65
f 4//66 3//67 6//68