o 
v 67.7530549375 1 51.202214421875
v 68.988883 1 54.646080624999996
v 68.988883 0 54.646080624999996
v 67.7530549375 0 51.202214421875
v 69.7439415625 1 58.266906515625
v 69.7439415625 0 58.266906515625
v 70 1 62
v 70 0 62
v 69.891579370117185 1 64.4538605834961
v 69.891579370117185 0 64.4538605834961
v 69.5733546484375 1 66.836837105468746
v 69.5733546484375 0 66.836837105468746
v 69.055881586914069 1 69.136865848144538
v 69.055881586914069 0 69.136865848144538
v 68.3497159375 1 71.34188309375
v 68.3497159375 0 71.34188309375
v 67.465413452148439 1 73.439825124511714
v 67.465413452148439 0 73.439825124511714
v 66.4135298828125 1 75.418628222656253
v 66.4135298828125 0 75.418628222656253
v 65.204620981445316 1 77.266228670410158
v 65.204620981445316 0 77.266228670410158
v 63.8492425 1 78.97056275
v 63.8492425 0 78.97056275
v 62.35795019042969 1 80.519566743652348
v 62.35795019042969 0 80.519566743652348
v 60.7412998046875 1 81.901176933593746
v 60.7412998046875 0 81.901176933593746
v 59.009847094726567 1 83.103329602050778
v 59.009847094726567 0 83.103329602050778
v 57.174147812499996 1 84.11396103125
v 57.174147812499996 0 84.11396103125
v 55.244757709960936 1 84.921007503417968
v 55.244757709960936 0 84.921007503417968
v 53.2322325390625 1 85.512405300781253
v 53.2322325390625 0 85.512405300781253
v 51.147128051757811 1 85.876090705566412
v 51.147128051757811 0 85.876090705566412
v 49 1 86
v 49 0 86
v 46.854315485839841 1 85.876254345214846
v 46.854315485839841 0 85.876254345214846
v 44.770530027343753 1 85.513038667968743
v 44.770530027343753 0 85.513038667968743
v 42.759184812988281 1 84.922388273925776
v 42.759184812988281 0 84.922388273925776
v 40.83082103125 1 84.11633846875
v 40.83082103125 0 84.11633846875
v 38.995979870605474 1 83.106924558105476
v 38.995979870605474 0 83.106924558105476
v 37.26520251953125 1 81.906181847656256
v 37.26520251953125 0 81.906181847656256
v 35.649030166503906 1 80.526145643066414
v 35.649030166503906 0 80.526145643066414
v 34.158004 1 78.978851249999991
v 34.158004 0 78.978851249999991
v 32.802665208496094 1 77.276333974121087
v 32.802665208496094 0 77.276333974121087
v 31.593554980468749 1 75.430629121093759
v 31.593554980468749 0 75.430629121093759
v 30.541214504394532 1 73.453771996582034
v 30.541214504394532 0 73.453771996582034
v 29.65618496875 1 71.35779790625
v 29.65618496875 0 71.35779790625
v 28.949007562011719 1 69.154742155761724
v 28.949007562011719 0 69.154742155761724
v 28.430223472656252 1 66.856640050781252
v 28.430223472656252 0 66.856640050781252
v 28.110373889160158 1 64.475526896972653
v 28.110373889160158 0 64.475526896972653
v 28 1 62.023438
v 28 0 62.023438
v 29.991598875 1 62.326276125
v 29.991598875 0 62.326276125
v 32 1 62.427734
v 32 0 62.427734
v 35.221366873046875 1 62.16749904882812
v 35.221366873046875 0 62.16749904882812
v 38.324215921875 1 61.406693765625008
v 38.324215921875 0 61.406693765625008
v 41.266950916015624 1 60.175141630859379
v 41.266950916015624 0 60.175141630859379
v 44.007975624999993 1 58.502666125000005
v 44.007975624999993 0 58.502666125000005
v 46.505693818359369 1 56.419090728515627
v 46.505693818359369 0 56.419090728515627
v 48.718509265625 1 53.954238921875
v 48.718509265625 0 53.954238921875
v 50.604825736328124 1 51.137934185546875
v 50.604825736328124 0 51.137934185546875
v 52.123047 1 48
v 52.123047 0 48
v 66.054688 1 48
v 66.054688 0 48
vn 6.6460806249999962 0 -2.9341950000000026
vn 7.0646920937500042 0 -1.9908866250000017
vn 7.0646920937500042 0 -1.9908866250000017
vn 6.6460806249999962 0 -2.9341950000000026
vn 7.0646920937500042 0 -1.9908866250000017
vn 7.3539193750000038 0 -1.0111169999999987
vn 7.3539193750000038 0 -1.0111169999999987
vn 7.0646920937500042 0 -1.9908866250000017
vn 7.3539193750000038 0 -1.0111169999999987
vn 5.0235509999999977 0 -0.00064199999999914326
vn 5.0235509999999977 0 -0.00064199999999914326
vn 7.3539193750000038 0 -1.0111169999999987
vn 13.254834000000002 0 0
vn 4.8368371054687458 0 0.42664535156249883
vn 4.8368371054687458 0 0.42664535156249883
vn 13.254834000000002 0 0
vn 4.8368371054687458 0 0.42664535156249883
vn 4.6830052646484432 0 0.83569778320311627
vn 4.6830052646484432 0 0.83569778320311627
vn 4.8368371054687458 0 0.42664535156249883
vn 4.6830052646484432 0 0.83569778320311627
vn 4.5050459882812532 0 1.2236387109375073
vn 4.5050459882812532 0 1.2236387109375073
vn 4.6830052646484432 0 0.83569778320311627
vn 4.5050459882812532 0 1.2236387109375073
vn 4.3029592763671758 0 1.5904681347656293
vn 4.3029592763671758 0 1.5904681347656293
vn 4.5050459882812532 0 1.2236387109375073
vn 4.3029592763671758 0 1.5904681347656293
vn 4.0767451289062535 0 1.9361860546874965
vn 4.0767451289062535 0 1.9361860546874965
vn 4.3029592763671758 0 1.5904681347656293
vn 4.0767451289062535 0 1.9361860546874965
vn 3.8264035458984438 0 2.2607924707031231
vn 3.8264035458984438 0 2.2607924707031231
vn 4.0767451289062535 0 1.9361860546874965
vn 3.8264035458984438 0 2.2607924707031231
vn 3.5519345273437466 0 2.5642873828124948
vn 3.5519345273437466 0 2.5642873828124948
vn 3.8264035458984438 0 2.2607924707031231
vn 3.5519345273437466 0 2.5642873828124948
vn 3.2533380732421904 0 2.8466707910156259
vn 3.2533380732421904 0 2.8466707910156259
vn 3.5519345273437466 0 2.5642873828124948
vn 3.2533380732421904 0 2.8466707910156259
vn 2.9306141835937467 0 3.1079426953125022
vn 2.9306141835937467 0 3.1079426953125022
vn 3.2533380732421904 0 2.8466707910156259
vn 2.9306141835937467 0 3.1079426953125022
vn 2.58376285839843 0 3.3481030957031237
vn 2.58376285839843 0 3.3481030957031237
vn 2.9306141835937467 0 3.1079426953125022
vn 2.58376285839843 0 3.3481030957031237
vn 2.2127840976562538 0 3.5671519921875046
vn 2.2127840976562538 0 3.5671519921875046
vn 2.58376285839843 0 3.3481030957031237
vn 2.2127840976562538 0 3.5671519921875046
vn 1.8176779013671904 0 3.7650893847656306
vn 1.8176779013671904 0 3.7650893847656306
vn 2.2127840976562538 0 3.5671519921875046
vn 1.8176779013671904 0 3.7650893847656306
vn 1.3984442695312538 0 3.9419152734374947
vn 1.3984442695312538 0 3.9419152734374947
vn 1.8176779013671904 0 3.7650893847656306
vn 1.3984442695312538 0 3.9419152734374947
vn 0.95508320214844389 0 4.0976296582031253
vn 0.95508320214844389 0 4.0976296582031253
vn 1.3984442695312538 0 3.9419152734374947
vn 0.95508320214844389 0 4.0976296582031253
vn 0.48759469921874654 0 4.2322325390625011
vn 0.48759469921874654 0 4.2322325390625011
vn 0.95508320214844389 0 4.0976296582031253
vn 0.48759469921874654 0 4.2322325390625011
vn 0 0 11.59798
vn 0 0 11.59798
vn 0.48759469921874654 0 4.2322325390625011
vn 5.999999999062311E-06 0 11.589975000000003
vn -0.48696133203125669 0 4.229469972656247
vn -0.48696133203125669 0 4.229469972656247
vn 5.999999999062311E-06 0 11.589975000000003
vn -0.48696133203125669 0 4.229469972656247
vn -0.95386607128907031 0 4.09513067285156
vn -0.95386607128907031 0 4.09513067285156
vn -0.48696133203125669 0 4.229469972656247
vn -0.95386607128907031 0 4.09513067285156
vn -1.396700199218742 0 3.9397089960937564
vn -1.396700199218742 0 3.9397089960937564
vn -0.95386607128907031 0 4.09513067285156
vn -1.396700199218742 0 3.9397089960937564
vn -1.8154637158203002 0 3.7632049423828065
vn -1.8154637158203002 0 3.7632049423828065
vn -1.396700199218742 0 3.9397089960937564
vn -1.8154637158203002 0 3.7632049423828065
vn -2.2101566210937449 0 3.5656185117187462
vn -2.2101566210937449 0 3.5656185117187462
vn -1.8154637158203002 0 3.7632049423828065
vn -2.2101566210937449 0 3.5656185117187462
vn -2.5807789150390619 0 3.3469497041015686
vn -2.5807789150390619 0 3.3469497041015686
vn -2.2101566210937449 0 3.5656185117187462
vn -2.5807789150390619 0 3.3469497041015686
vn -2.9273305976562654 0 3.1071985195312521
vn -2.9273305976562654 0 3.1071985195312521
vn -2.5807789150390619 0 3.3469497041015686
vn -2.9273305976562654 0 3.1071985195312521
vn -3.2498116689453269 0 2.8463649580078112
vn -3.2498116689453269 0 2.8463649580078112
vn -2.9273305976562654 0 3.1071985195312521
vn -3.2498116689453269 0 2.8463649580078112
vn -3.5482221289062323 0 2.5644490195312493
vn -3.5482221289062323 0 2.5644490195312493
vn -3.2498116689453269 0 2.8463649580078112
vn -3.5482221289062323 0 2.5644490195312493
vn -3.8225619775390527 0 2.2614507041015628
vn -3.8225619775390527 0 2.2614507041015628
vn -3.5482221289062323 0 2.5644490195312493
vn -3.8225619775390527 0 2.2614507041015628
vn -4.0728312148437595 0 1.9373700117187482
vn -4.0728312148437595 0 1.9373700117187482
vn -3.8225619775390527 0 2.2614507041015628
vn -4.0728312148437595 0 1.9373700117187482
vn -4.29902984082031 0 1.5922069423828127
vn -4.29902984082031 0 1.5922069423828127
vn -4.0728312148437595 0 1.9373700117187482
vn -4.29902984082031 0 1.5922069423828127
vn -4.5011578554687475 0 1.2259614960937491
vn -4.5011578554687475 0 1.2259614960937491
vn -4.29902984082031 0 1.5922069423828127
vn -4.5011578554687475 0 1.2259614960937491
vn -4.6792152587890712 0 0.83863367285156087
vn -4.6792152587890712 0 0.83863367285156087
vn -4.5011578554687475 0 1.2259614960937491
vn -4.6792152587890712 0 0.83863367285156087
vn -4.833202050781253 0 0.43022347265625172
vn -4.833202050781253 0 0.43022347265625172
vn -4.6792152587890712 0 0.83863367285156087
vn -4.833202050781253 0 0.43022347265625172
vn -13.245680000000007 0 0.011319000000000301
vn -13.245680000000007 0 0.011319000000000301
vn -4.833202050781253 0 0.43022347265625172
vn 0.26873700000000156 0 -1.3193419999999989
vn 0.40429600000000221 0 -4
vn 0.40429600000000221 0 -4
vn 0.26873700000000156 0 -1.3193419999999989
vn 0.40429600000000221 0 -4
vn 0.00023000000000195087 0 -1.3417449999999995
vn 0.00023000000000195087 0 -1.3417449999999995
vn 0.40429600000000221 0 -4
vn -2.2999999998774E-05 0 -8.7113609999999966
vn -1.0210402343749934 0 -6.3242159218750018
vn -1.0210402343749934 0 -6.3242159218750018
vn -2.2999999998774E-05 0 -8.7113609999999966
vn -1.0210402343749934 0 -6.3242159218750018
vn -1.9923574179687407 0 -6.0455840429687484
vn -1.9923574179687407 0 -6.0455840429687484
vn -1.0210402343749934 0 -6.3242159218750018
vn -1.9923574179687407 0 -6.0455840429687484
vn -2.904027640625003 0 -5.6837597031249913
vn -2.904027640625003 0 -5.6837597031249913
vn -1.9923574179687407 0 -6.0455840429687484
vn -2.904027640625003 0 -5.6837597031249913
vn -3.7560509023437518 0 -5.2387429023437448
vn -3.7560509023437518 0 -5.2387429023437448
vn -2.904027640625003 0 -5.6837597031249913
vn -3.7560509023437518 0 -5.2387429023437448
vn -4.5484272031250015 0 -4.7105336406250089
vn -4.5484272031250015 0 -4.7105336406250089
vn -3.7560509023437518 0 -5.2387429023437448
vn -4.5484272031250015 0 -4.7105336406250089
vn -5.2811565429687519 0 -4.0991319179687551
vn -5.2811565429687519 0 -4.0991319179687551
vn -4.5484272031250015 0 -4.7105336406250089
vn -5.2811565429687519 0 -4.0991319179687551
vn -5.9542389218750031 0 -3.4045377343749976
vn -5.9542389218750031 0 -3.4045377343749976
vn -5.2811565429687519 0 -4.0991319179687551
vn -5.9542389218750031 0 -3.4045377343749976
vn -8.770153999999998 0 -3.5208220000000026
vn -8.770153999999998 0 -3.5208220000000026
vn -5.9542389218750031 0 -3.4045377343749976
vn 0 0 -13.931640999999999
vn 0 0 -13.931640999999999
vn 0 0 -13.931640999999999
vn 0 0 -13.931640999999999
vn 4.0797659999999993 0 -2.5647459999999995
vn 6.6460806249999962 0 -2.9341950000000026
vn 6.6460806249999962 0 -2.9341950000000026
vn 4.0797659999999993 0 -2.5647459999999995
vn 0 1 0
vn 0 1 0
vn 0 1 0
vn 0 1 0
vn 0 1 0
vn 0 1 0
vn 0 1 0
vn 0 1 0
vn 0 1 0
vn 0 1 0
vn 0 1 0
vn 0 1 0
vn 0 1 0
vn 0 1 0
vn 0 1 0
vn 0 1 0
vn 0 1 0
vn 0 1 0
vn 0 1 0
vn 0 1 0
vn 0 1 0
vn 0 1 0
vn 0 1 0
vn 0 1 0
vn 0 1 0
vn 0 1 0
vn 0 1 0
vn 0 1 0
vn 0 1 0
vn 0 1 0
vn 0 1 0
vn 0 1 0
vn 0 1 0
vn 0 1 0
vn 0 1 0
vn 0 1 0
vn 0 1 0
vn 0 1 0
vn 0 1 0
vn 0 1 0
vn 0 1 0
vn 0 1 0
vn 0 1 0
vn 0 1 0
vn 0 1 0
vn 0 1 0
vn 0 1 0
vn 0 1 0
vn 0 1 0
vn 0 1 0
vn 0 1 0
vn 0 1 0
vn 0 1 0
vn 0 1 0
vn 0 1 0
vn 0 1 0
vn 0 1 0
vn 0 1 0
vn 0 1 0
vn 0 1 0
vn 0 1 0
vn 0 1 0
vn 0 1 0
vn 0 1 0
vn 0 1 0
vn 0 1 0
vn 0 1 0
vn 0 1 0
vn 0 1 0
vn 0 1 0
vn 0 1 0
vn 0 1 0
vn 0 1 0
vn 0 1 0
vn 0 1 0
vn 0 1 0
vn 0 1 0
vn 0 1 0
vn 0 1 0
vn 0 1 0
vn 0 1 0
vn 0 1 0
vn 0 1 0
vn 0 1 0
vn 0 1 0
vn 0 1 0
vn 0 1 0
vn 0 1 0
vn 0 1 0
vn 0 1 0
vn 0 1 0
vn 0 1 0
vn 0 1 0
vn 0 1 0
vn 0 1 0
vn 0 1 0
vn 0 1 0
vn 0 1 0
vn 0 1 0
vn 0 1 0
vn 0 1 0
vn 0 1 0
vn 0 1 0
vn 0 1 0
vn 0 1 0
vn 0 1 0
vn 0 1 0
vn 0 1 0
vn 0 1 0
vn 0 1 0
vn 0 1 0
vn 0 1 0
vn 0 1 0
vn 0 1 0
vn 0 1 0
vn 0 1 0
vn 0 1 0
vn 0 1 0
vn 0 1 0
vn 0 1 0
vn 0 1 0
vn 0 1 0
vn 0 1 0
vn 0 1 0
vn 0 1 0
vn 0 1 0
vn 0 1 0
vn 0 1 0
vn 0 1 0
vn 0 1 0
vn 0 1 0
vn 0 1 0
vn 0 1 0
vn 0 1 0
vn 0 1 0
vn 0 -1 0
vn 0 -1 0
vn 0 -1 0
vn 0 -1 0
vn 0 -1 0
vn 0 -1 0
vn 0 -1 0
vn 0 -1 0
vn 0 -1 0
vn 0 -1 0
vn 0 -1 0
vn 0 -1 0
vn 0 -1 0
vn 0 -1 0
vn 0 -1 0
vn 0 -1 0
vn 0 -1 0
vn 0 -1 0
vn 0 -1 0
vn 0 -1 0
vn 0 -1 0
vn 0 -1 0
vn 0 -1 0
vn 0 -1 0
vn 0 -1 0
vn 0 -1 0
vn 0 -1 0
vn 0 -1 0
vn 0 -1 0
vn 0 -1 0
vn 0 -1 0
vn 0 -1 0
vn 0 -1 0
vn 0 -1 0
vn 0 -1 0
vn 0 -1 0
vn 0 -1 0
vn 0 -1 0
vn 0 -1 0
vn 0 -1 0
vn 0 -1 0
vn 0 -1 0
vn 0 -1 0
vn 0 -1 0
vn 0 -1 0
vn 0 -1 0
vn 0 -1 0
vn 0 -1 0
vn 0 -1 0
vn 0 -1 0
vn 0 -1 0
vn 0 -1 0
vn 0 -1 0
vn 0 -1 0
vn 0 -1 0
vn 0 -1 0
vn 0 -1 0
vn 0 -1 0
vn 0 -1 0
vn 0 -1 0
vn 0 -1 0
vn 0 -1 0
vn 0 -1 0
vn 0 -1 0
vn 0 -1 0
vn 0 -1 0
vn 0 -1 0
vn 0 -1 0
vn 0 -1 0
vn 0 -1 0
vn 0 -1 0
vn 0 -1 0
vn 0 -1 0
vn 0 -1 0
vn 0 -1 0
vn 0 -1 0
vn 0 -1 0
vn 0 -1 0
vn 0 -1 0
vn 0 -1 0
vn 0 -1 0
vn 0 -1 0
vn 0 -1 0
vn 0 -1 0
vn 0 -1 0
vn 0 -1 0
vn 0 -1 0
vn 0 -1 0
vn 0 -1 0
vn 0 -1 0
vn 0 -1 0
vn 0 -1 0
vn 0 -1 0
vn 0 -1 0
vn 0 -1 0
vn 0 -1 0
vn 0 -1 0
vn 0 -1 0
vn 0 -1 0
vn 0 -1 0
vn 0 -1 0
vn 0 -1 0
vn 0 -1 0
vn 0 -1 0
vn 0 -1 0
vn 0 -1 0
vn 0 -1 0
vn 0 -1 0
vn 0 -1 0
vn 0 -1 0
vn 0 -1 0
vn 0 -1 0
vn 0 -1 0
vn 0 -1 0
vn 0 -1 0
vn 0 -1 0
vn 0 -1 0
vn 0 -1 0
vn 0 -1 0
vn 0 -1 0
vn 0 -1 0
vn 0 -1 0
vn 0 -1 0
vn 0 -1 0
vn 0 -1 0
vn 0 -1 0
vn 0 -1 0
vn 0 -1 0
vn 0 -1 0
vn 0 -1 0
vn 0 -1 0
vn 0 -1 0
vn 0 -1 0
vn 0 -1 0
vn 0 -1 0

g 
f 1//1 2//2 3//3 4//4
f 2//5 5//6 6//7 3//8
f 5//9 7//10 8//11 6//12
f 7//13 9//14 10//15 8//16
f 9//17 11//18 12//19 10//20
f 11//21 13//22 14//23 12//24
f 13//25 15//26 16//27 14//28
f 15//29 17//30 18//31 16//32
f 17//33 19//34 20//35 18//36
f 19//37 21//38 22//39 20//40
f 21//41 23//42 24//43 22//44
f 23//45 25//46 26//47 24//48
f 25//49 27//50 28//51 26//52
f 27//53 29//54 30//55 28//56
f 29//57 31//58 32//59 30//60
f 31//61 33//62 34//63 32//64
f 33//65 35//66 36//67 34//68
f 35//69 37//70 38//71 36//72
f 37//73 39//74 40//75 38//76
f 39//77 41//78 42//79 40//80
f 41//81 43//82 44//83 42//84
f 43//85 45//86 46//87 44//88
f 45//89 47//90 48//91 46//92
f 47//93 49//94 50//95 48//96
f 49//97 51//98 52//99 50//100
f 51//101 53//102 54//103 52//104
f 53//105 55//106 56//107 54//108
f 55//109 57//110 58//111 56//112
f 57//113 59//114 60//115 58//116
f 59//117 61//118 62//119 60//120
f 61//121 63//122 64//123 62//124
f 63//125 65//126 66//127 64//128
f 65//129 67//130 68//131 66//132
f 67//133 69//134 70//135 68//136
f 69//137 71//138 72//139 70//140
f 71//141 73//142 74//143 72//144
f 73//145 75//146 76//147 74//148
f 75//149 77//150 78//151 76//152
f 77//153 79//154 80//155 78//156
f 79//157 81//158 82//159 80//160
f 81//161 83//162 84//163 82//164
f 83//165 85//166 86//167 84//168
f 85//169 87//170 88//171 86//172
f 87//173 89//174 90//175 88//176
f 89//177 91//178 92//179 90//180
f 91//181 93//182 94//183 92//184
f 93//185 1//186 4//187 94//188
f 1//189 93//190 91//191
f 1//192 91//193 89//194
f 1//195 89//196 87//197
f 1//198 87//199 85//200
f 1//201 85//202 83//203
f 1//204 83//205 81//206
f 1//207 81//208 79//209
f 73//210 71//211 69//212
f 75//213 73//214 69//215
f 77//216 75//217 69//218
f 79//219 77//220 69//221
f 79//222 69//223 67//224
f 1//225 79//226 67//227
f 1//228 67//229 65//230
f 1//231 65//232 63//233
f 1//234 63//235 61//236
f 1//237 61//238 59//239
f 1//240 59//241 57//242
f 1//243 57//244 55//245
f 1//246 55//247 53//248
f 1//249 53//250 51//251
f 1//252 51//253 49//254
f 1//255 49//256 47//257
f 1//258 47//259 45//260
f 1//261 45//262 43//263
f 1//264 43//265 41//266
f 1//267 41//268 39//269
f 1//270 39//271 37//272
f 1//273 37//274 35//275
f 1//276 35//277 33//278
f 1//279 33//280 31//281
f 1//282 31//283 29//284
f 1//285 29//286 27//287
f 1//288 27//289 25//290
f 1//291 25//292 23//293
f 1//294 23//295 21//296
f 1//297 21//298 19//299
f 1//300 19//301 17//302
f 1//303 17//304 15//305
f 1//306 15//307 13//308
f 1//309 13//310 11//311
f 1//312 11//313 9//314
f 1//315 9//316 7//317
f 1//318 7//319 5//320
f 5//321 2//322 1//323
f 92//324 94//325 4//326
f 90//327 92//328 4//329
f 88//330 90//331 4//332
f 86//333 88//334 4//335
f 84//336 86//337 4//338
f 82//339 84//340 4//341
f 80//342 82//343 4//344
f 70//345 72//346 74//347
f 70//348 74//349 76//350
f 70//351 76//352 78//353
f 70//354 78//355 80//356
f 68//357 70//358 80//359
f 68//360 80//361 4//362
f 66//363 68//364 4//365
f 64//366 66//367 4//368
f 62//369 64//370 4//371
f 60//372 62//373 4//374
f 58//375 60//376 4//377
f 56//378 58//379 4//380
f 54//381 56//382 4//383
f 52//384 54//385 4//386
f 50//387 52//388 4//389
f 48//390 50//391 4//392
f 46//393 48//394 4//395
f 44//396 46//397 4//398
f 42//399 44//400 4//401
f 40//402 42//403 4//404
f 38//405 40//406 4//407
f 36//408 38//409 4//410
f 34//411 36//412 4//413
f 32//414 34//415 4//416
f 30//417 32//418 4//419
f 28//420 30//421 4//422
f 26//423 28//424 4//425
f 24//426 26//427 4//428
f 22//429 24//430 4//431
f 20//432 22//433 4//434
f 18//435 20//436 4//437
f 16//438 18//439 4//440
f 14//441 16//442 4//443
f 12//444 14//445 4//446
f 10//447 12//448 4//449
f 8//450 10//451 4//452
f 6//453 8//454 4//455
f 4//456 3//457 6//458