o 
v 10.994140999999999 1 -19.144531
v 9.4281947871093763 1 -17.310779874999994
v 9.4281947871093763 0 -17.310779874999994
v 10.994140999999999 0 -19.144531
v 8.0502747343750016 1 -15.336824125
v 8.0502747343750016 0 -15.336824125
v 6.8667833457031193 1 -13.239056687499996
v 6.8667833457031193 0 -13.239056687499996
v 5.884123124999995 1 -11.033870499999999
v 5.884123124999995 0 -11.033870499999999
v 5.108696576171873 1 -8.737658500000002
v 5.108696576171873 0 -8.737658500000002
v 4.5469062031250047 1 -6.3668136249999989
v 4.5469062031250047 0 -6.3668136249999989
v 4.20515450976562 1 -3.9377288124999978
v 4.20515450976562 0 -3.9377288124999978
v 4.0898439999999994 1 -1.4667969999999997
v 4.0898439999999994 0 -1.4667969999999997
v 4.2053577421875019 1 1.004233988281257
v 4.2053577421875019 0 1.004233988281257
v 4.5473290624999976 1 3.43339259375
v 4.5473290624999976 0 3.43339259375
v 5.1093531015624976 1 5.8042844023437539
v 5.1093531015624976 0 5.8042844023437539
v 5.8850249999999917 1 8.1005150000000015
v 5.8850249999999917 0 8.1005150000000015
v 6.8679398984374984 1 10.305689972656253
v 6.8679398984374984 0 10.305689972656253
v 8.0516929374999933 1 12.403414906250006
v 8.0516929374999933 0 12.403414906250006
v 9.4298792578124946 1 14.377295386718757
v 9.4298792578124946 0 14.377295386718757
v 10.996094 1 16.210937
v 10.996094 0 16.210937
v 0.32617199999999968 1 27.525391
v 0.32617199999999968 0 27.525391
v -2.2419266757812508 1 24.517925572265625
v -2.2419266757812508 0 24.517925572265625
v -4.5016487187499976 1 21.280529328124985
v -4.5016487187499976 0 21.280529328124985
v -6.4424945273437508 1 17.840087951171867
v -6.4424945273437508 0 17.840087951171867
v -8.0539645 1 14.223487125000005
v -8.0539645 0 14.223487125000005
v -9.32555903515625 1 10.457612533203118
v -9.32555903515625 0 10.457612533203118
v -10.246778531250001 1 6.569349859374995
v -10.246778531250001 0 6.569349859374995
v -10.80712338671875 1 2.5855847871093758
v -10.80712338671875 0 2.5855847871093758
v -10.996094 1 -1.4667969999999997
v -10.996094 0 -1.4667969999999997
v -10.850972970703126 1 -5.0150835917968735
v -10.850972970703126 0 -5.0150835917968735
v -10.420016265625002 1 -8.5171832968750039
v -10.420016265625002 0 -8.5171832968750039
v -9.7094723339843725 1 -11.954623509765625
v -9.7094723339843725 0 -11.954623509765625
v -8.7255896249999978 1 -15.308931625
v -8.7255896249999978 0 -15.308931625
v -7.47461658789063 1 -18.561635037109369
v -7.47461658789063 0 -18.561635037109369
v -5.962801671874999 1 -21.694261140625002
v -5.962801671874999 0 -21.694261140625002
v -4.1963933261718758 1 -24.688337330078127
v -4.1963933261718758 0 -24.688337330078127
v -2.1816400000000016 1 -27.525391
v -2.1816400000000016 0 -27.525391
v -2.1679689999999994 1 -27.476563
v -2.1679689999999994 0 -27.476563
vn 4.6884920000000037 0 4.4208670000000012
vn 3.8077068750000009 0 2.9438662656249974
vn 3.8077068750000009 0 2.9438662656249974
vn 4.6884920000000037 0 4.4208670000000012
vn 3.8077068750000009 0 2.9438662656249974
vn 4.0717231874999982 0 2.561411441406257
vn 4.0717231874999982 0 2.561411441406257
vn 3.8077068750000009 0 2.9438662656249974
vn 4.0717231874999982 0 2.561411441406257
vn 4.3029536250000007 0 2.1661516093750066
vn 4.3029536250000007 0 2.1661516093750066
vn 4.0717231874999982 0 2.561411441406257
vn 4.3029536250000007 0 2.1661516093750066
vn 4.5013981874999942 0 1.7580867695312463
vn 4.5013981874999942 0 1.7580867695312463
vn 4.3029536250000007 0 2.1661516093750066
vn 4.5013981874999942 0 1.7580867695312463
vn 4.667056875 0 1.3372169218749903
vn 4.667056875 0 1.3372169218749903
vn 4.5013981874999942 0 1.7580867695312463
vn 4.667056875 0 1.3372169218749903
vn 4.7999296875000041 0 0.90354206640625279
vn 4.7999296875000041 0 0.90354206640625279
vn 4.667056875 0 1.3372169218749903
vn 4.7999296875000041 0 0.90354206640625279
vn 4.9000166249999992 0 0.45706220312500534
vn 4.9000166249999992 0 0.45706220312500534
vn 4.7999296875000041 0 0.90354206640625279
vn 4.9000166249999992 0 0.45706220312500534
vn 6.6303759999999983 0 -0.00011800000000050659
vn 6.6303759999999983 0 -0.00011800000000050659
vn 4.9000166249999992 0 0.45706220312500534
vn 6.6306730000000016 0 -0.00039999999999906777
vn 4.9001895937499995 0 -0.45748506249999821
vn 4.9001895937499995 0 -0.45748506249999821
vn 6.6306730000000016 0 -0.00039999999999906777
vn 4.9001895937499995 0 -0.45748506249999821
vn 4.8000504140624969 0 -0.90399535937499564
vn 4.8000504140624969 0 -0.90399535937499564
vn 4.9001895937499995 0 -0.45748506249999821
vn 4.8000504140624969 0 -0.90399535937499564
vn 4.6671224062500016 0 -1.3376959374999942
vn 4.6671224062500016 0 -1.3376959374999942
vn 4.8000504140624969 0 -0.90399535937499564
vn 4.6671224062500016 0 -1.3376959374999942
vn 4.5014055703124995 0 -1.7585867968750009
vn 4.5014055703124995 0 -1.7585867968750009
vn 4.6671224062500016 0 -1.3376959374999942
vn 4.5014055703124995 0 -1.7585867968750009
vn 4.3028999062500048 0 -2.1666679375000015
vn 4.3028999062500048 0 -2.1666679375000015
vn 4.5014055703124995 0 -1.7585867968750009
vn 4.3028999062500048 0 -2.1666679375000015
vn 4.0716054140625033 0 -2.5619393593749962
vn 4.0716054140625033 0 -2.5619393593749962
vn 4.3028999062500048 0 -2.1666679375000015
vn 4.0716054140625033 0 -2.5619393593749962
vn 3.807522093749995 0 -2.9444010625000061
vn 3.807522093749995 0 -2.9444010625000061
vn 4.0716054140625033 0 -2.5619393593749962
vn 3.807522093749995 0 -2.9444010625000061
vn 4.688153 0 -4.4215840000000028
vn 4.688153 0 -4.4215840000000028
vn 3.807522093749995 0 -2.9444010625000061
vn 11.314453999999998 0 10.669922
vn 11.314453999999998 0 10.669922
vn 11.314453999999998 0 10.669922
vn 11.314453999999998 0 10.669922
vn -7.6894350000000031 0 7.2500989999999987
vn -6.2448616718750145 0 4.8278207187499973
vn -6.2448616718750145 0 4.8278207187499973
vn -7.6894350000000031 0 7.2500989999999987
vn -6.2448616718750145 0 4.8278207187499973
vn -6.677837621093758 0 4.2005678515625
vn -6.677837621093758 0 4.2005678515625
vn -6.2448616718750145 0 4.8278207187499973
vn -6.677837621093758 0 4.2005678515625
vn -7.0570422031249791 0 3.5523157812500017
vn -7.0570422031249791 0 3.5523157812500017
vn -6.677837621093758 0 4.2005678515625
vn -7.0570422031249791 0 3.5523157812500017
vn -7.3824754179687488 0 2.8830645078124988
vn -7.3824754179687488 0 2.8830645078124988
vn -7.0570422031249791 0 3.5523157812500017
vn -7.3824754179687488 0 2.8830645078124988
vn -7.65413726562501 0 2.192814031250002
vn -7.65413726562501 0 2.192814031250002
vn -7.3824754179687488 0 2.8830645078124988
vn -7.65413726562501 0 2.192814031250002
vn -7.8720277460937425 0 1.4815643515625006
vn -7.8720277460937425 0 1.4815643515625006
vn -7.65413726562501 0 2.192814031250002
vn -7.8720277460937425 0 1.4815643515625006
vn -8.0361468593749947 0 0.7493154687499981
vn -8.0361468593749947 0 0.7493154687499981
vn -7.8720277460937425 0 1.4815643515625006
vn -8.0361468593749947 0 0.7493154687499981
vn -10.873942 0 -0.00057699999999982765
vn -10.873942 0 -0.00057699999999982765
vn -8.0361468593749947 0 0.7493154687499981
vn -9.5072600000000023 0 -0.00032099999999957163
vn -7.0503862968750042 0 -0.57607773437499787
vn -7.0503862968750042 0 -0.57607773437499787
vn -9.5072600000000023 0 -0.00032099999999957163
vn -7.0503862968750042 0 -0.57607773437499787
vn -6.9395399179687516 0 -1.141500636718753
vn -6.9395399179687516 0 -1.141500636718753
vn -7.0503862968750042 0 -0.57607773437499787
vn -6.9395399179687516 0 -1.141500636718753
vn -6.7917483281249957 0 -1.6944266406250037
vn -6.7917483281249957 0 -1.6944266406250037
vn -6.9395399179687516 0 -1.141500636718753
vn -6.7917483281249957 0 -1.6944266406250037
vn -6.6070115273437438 0 -2.2348557460937428
vn -6.6070115273437438 0 -2.2348557460937428
vn -6.7917483281249957 0 -1.6944266406250037
vn -6.6070115273437438 0 -2.2348557460937428
vn -6.3853295156250027 0 -2.7627879531249988
vn -6.3853295156250027 0 -2.7627879531249988
vn -6.6070115273437438 0 -2.2348557460937428
vn -6.3853295156250027 0 -2.7627879531249988
vn -6.1267022929687585 0 -3.2782232617187539
vn -6.1267022929687585 0 -3.2782232617187539
vn -6.3853295156250027 0 -2.7627879531249988
vn -6.1267022929687585 0 -3.2782232617187539
vn -5.8311298593749967 0 -3.7811616718749974
vn -5.8311298593749967 0 -3.7811616718749974
vn -6.1267022929687585 0 -3.2782232617187539
vn -5.8311298593749967 0 -3.7811616718749974
vn -7.3396929999999969 0 -5.6982479999999995
vn -7.3396929999999969 0 -5.6982479999999995
vn -5.8311298593749967 0 -3.7811616718749974
vn 0.048828000000000316 0 -0.013671000000002209
vn 0.048828000000000316 0 -0.013671000000002209
vn 0.048828000000000316 0 -0.013671000000002209
vn 0.048828000000000316 0 -0.013671000000002209
vn 8.3320319999999981 0 -13.162109999999998
vn 8.3320319999999981 0 -13.162109999999998
vn 8.3320319999999981 0 -13.162109999999998
vn 8.3320319999999981 0 -13.162109999999998
vn 0 1 0
vn 0 1 0
vn 0 1 0
vn 0 1 0
vn 0 1 0
vn 0 1 0
vn 0 1 0
vn 0 1 0
vn 0 1 0
vn 0 1 0
vn 0 1 0
vn 0 1 0
vn 0 1 0
vn 0 1 0
vn 0 1 0
vn 0 1 0
vn 0 1 0
vn 0 1 0
vn 0 1 0
vn 0 1 0
vn 0 1 0
vn 0 1 0
vn 0 1 0
vn 0 1 0
vn 0 1 0
vn 0 1 0
vn 0 1 0
vn 0 1 0
vn 0 1 0
vn 0 1 0
vn 0 1 0
vn 0 1 0
vn 0 1 0
vn 0 1 0
vn 0 1 0
vn 0 1 0
vn 0 1 0
vn 0 1 0
vn 0 1 0
vn 0 1 0
vn 0 1 0
vn 0 1 0
vn 0 1 0
vn 0 1 0
vn 0 1 0
vn 0 1 0
vn 0 1 0
vn 0 1 0
vn 0 1 0
vn 0 1 0
vn 0 1 0
vn 0 1 0
vn 0 1 0
vn 0 1 0
vn 0 1 0
vn 0 1 0
vn 0 1 0
vn 0 1 0
vn 0 1 0
vn 0 1 0
vn 0 1 0
vn 0 1 0
vn 0 1 0
vn 0 1 0
vn 0 1 0
vn 0 1 0
vn 0 1 0
vn 0 1 0
vn 0 1 0
vn 0 1 0
vn 0 1 0
vn 0 1 0
vn 0 1 0
vn 0 1 0
vn 0 1 0
vn 0 1 0
vn 0 1 0
vn 0 1 0
vn 0 1 0
vn 0 1 0
vn 0 1 0
vn 0 1 0
vn 0 1 0
vn 0 1 0
vn 0 1 0
vn 0 1 0
vn 0 1 0
vn 0 1 0
vn 0 1 0
vn 0 1 0
vn 0 1 0
vn 0 1 0
vn 0 1 0
vn 0 1 0
vn 0 1 0
vn 0 1 0
vn 0 1 0
vn 0 1 0
vn 0 1 0
vn 0 -1 0
vn 0 -1 0
vn 0 -1 0
vn 0 -1 0
vn 0 -1 0
vn 0 -1 0
vn 0 -1 0
vn 0 -1 0
vn 0 -1 0
vn 0 -1 0
vn 0 -1 0
vn 0 -1 0
vn 0 -1 0
vn 0 -1 0
vn 0 -1 0
vn 0 -1 0
vn 0 -1 0
vn 0 -1 0
vn 0 -1 0
vn 0 -1 0
vn 0 -1 0
vn 0 -1 0
vn 0 -1 0
vn 0 -1 0
vn 0 -1 0
vn 0 -1 0
vn 0 -1 0
vn 0 -1 0
vn 0 -1 0
vn 0 -1 0
vn 0 -1 0
vn 0 -1 0
vn 0 -1 0
vn 0 -1 0
vn 0 -1 0
vn 0 -1 0
vn 0 -1 0
vn 0 -1 0
vn 0 -1 0
vn 0 -1 0
vn 0 -1 0
vn 0 -1 0
vn 0 -1 0
vn 0 -1 0
vn 0 -1 0
vn 0 -1 0
vn 0 -1 0
vn 0 -1 0
vn 0 -1 0
vn 0 -1 0
vn 0 -1 0
vn 0 -1 0
vn 0 -1 0
vn 0 -1 0
vn 0 -1 0
vn 0 -1 0
vn 0 -1 0
vn 0 -1 0
vn 0 -1 0
vn 0 -1 0
vn 0 -1 0
vn 0 -1 0
vn 0 -1 0
vn 0 -1 0
vn 0 -1 0
vn 0 -1 0
vn 0 -1 0
vn 0 -1 0
vn 0 -1 0
vn 0 -1 0
vn 0 -1 0
vn 0 -1 0
vn 0 -1 0
vn 0 -1 0
vn 0 -1 0
vn 0 -1 0
vn 0 -1 0
vn 0 -1 0
vn 0 -1 0
vn 0 -1 0
vn 0 -1 0
vn 0 -1 0
vn 0 -1 0
vn 0 -1 0
vn 0 -1 0
vn 0 -1 0
vn 0 -1 0
vn 0 -1 0
vn 0 -1 0
vn 0 -1 0
vn 0 -1 0
vn 0 -1 0
vn 0 -1 0
vn 0 -1 0
vn 0 -1 0
vn 0 -1 0
vn 0 -1 0
vn 0 -1 0
vn 0 -1 0

g 
f 1//1 2//2 3//3 4//4
f 2//5 5//6 6//7 3//8
f 5//9 7//10 8//11 6//12
f 7//13 9//14 10//15 8//16
f 9//17 11//18 12//19 10//20
f 11//21 13//22 14//23 12//24
f 13//25 15//26 16//27 14//28
f 15//29 17//30 18//31 16//32
f 17//33 19//34 20//35 18//36
f 19//37 21//38 22//39 20//40
f 21//41 23//42 24//43 22//44
f 23//45 25//46 26//47 24//48
f 25//49 27//50 28//51 26//52
f 27//53 29//54 30//55 28//56
f 29//57 31//58 32//59 30//60
f 31//61 33//62 34//63 32//64
f 33//65 35//66 36//67 34//68
f 35//69 37//70 38//71 36//72
f 37//73 39//74 40//75 38//76
f 39//77 41//78 42//79 40//80
f 41//81 43//82 44//83 42//84
f 43//85 45//86 46//87 44//88
f 45//89 47//90 48//91 46//92
f 47//93 49//94 50//95 48//96
f 49//97 51//98 52//99 50//100
f 51//101 53//102 54//103 52//104
f 53//105 55//106 56//107 54//108
f 55//109 57//110 58//111 56//112
f 57//113 59//114 60//115 58//116
f 59//117 61//118 62//119 60//120
f 61//121 63//122 64//123 62//124
f 63//125 65//126 66//127 64//128
f 65//129 67//130 68//131 66//132
f 67//133 69//134 70//135 68//136
f 69//137 1//138 4//139 70//140
f 69//141 67//142 65//143
f 1//144 69//145 65//146
f 1//147 65//148 63//149
f 1//150 63//151 61//152
f 1//153 61//154 59//155
f 1//156 59//157 57//158
f 1//159 57//160 55//161
f 1//162 55//163 53//164
f 1//165 53//166 51//167
f 1//168 51//169 49//170
f 49//171 47//172 45//173
f 49//174 45//175 43//176
f 49//177 43//178 41//179
f 49//180 41//181 39//182
f 49//183 39//184 37//185
f 49//186 37//187 35//188
f 49//189 35//190 33//191
f 49//192 33//193 31//194
f 49//195 31//196 29//197
f 49//198 29//199 27//200
f 49//201 27//202 25//203
f 49//204 25//205 23//206
f 49//207 23//208 21//209
f 49//210 21//211 19//212
f 49//213 19//214 17//215
f 49//216 17//217 15//218
f 49//219 15//220 13//221
f 49//222 13//223 11//224
f 49//225 11//226 9//227
f 49//228 9//229 7//230
f 49//231 7//232 5//233
f 49//234 5//235 2//236
f 49//237 2//238 1//239
f 66//240 68//241 70//242
f 66//243 70//244 4//245
f 64//246 66//247 4//248
f 62//249 64//250 4//251
f 60//252 62//253 4//254
f 58//255 60//256 4//257
f 56//258 58//259 4//260
f 54//261 56//262 4//263
f 52//264 54//265 4//266
f 50//267 52//268 4//269
f 46//270 48//271 50//272
f 44//273 46//274 50//275
f 42//276 44//277 50//278
f 40//279 42//280 50//281
f 38//282 40//283 50//284
f 36//285 38//286 50//287
f 34//288 36//289 50//290
f 32//291 34//292 50//293
f 30//294 32//295 50//296
f 28//297 30//298 50//299
f 26//300 28//301 50//302
f 24//303 26//304 50//305
f 22//306 24//307 50//308
f 20//309 22//310 50//311
f 18//312 20//313 50//314
f 16//315 18//316 50//317
f 14//318 16//319 50//320
f 12//321 14//322 50//323
f 10//324 12//325 50//326
f 8//327 10//328 50//329
f 6//330 8//331 50//332
f 3//333 6//334 50//335
f 4//336 3//337 50//338