o 
v 65.800781 1 52
v 60.228516 1 41.869141
v 60.228516 0 41.869141
v 65.800781 0 52
v 94 1 52
v 94 0 52
vn -10.130859000000001 0 5.5722650000000016
vn -10.130859000000001 0 5.5722650000000016
vn -10.130859000000001 0 5.5722650000000016
vn -10.130859000000001 0 5.5722650000000016
vn 10.130859000000001 0 -33.771484
vn 10.130859000000001 0 -33.771484
vn 10.130859000000001 0 -33.771484
vn 10.130859000000001 0 -33.771484
vn 0 0 28.199219
vn 0 0 28.199219
vn 0 0 28.199219
vn 0 0 28.199219
vn 0 1 0
vn 0 1 0
vn 0 1 0
vn 0 -1 0
vn 0 -1 0
vn 0 -1 0

g 
f 1//1 2//2 3//3 4//4
f 2//5 5//6 6//7 3//8
f 5//9 1//10 4//11 6//12
f 5//13 2//14 1//15
f 4//16 3//17 6//18