o 
v -11 1 26
v -10.7529296875 1 21.70263671875
v -10.7529296875 0 21.70263671875
v -11 0 26
v -10.0546875 1 17.77734375
v -10.0546875 0 17.77734375
v -8.9697265625 1 14.17431640625
v -8.9697265625 0 14.17431640625
v -7.5625 1 10.84375
v -7.5625 0 10.84375
v -5.8974609375 1 7.73583984375
v -5.8974609375 0 7.73583984375
v -4.0390625 1 4.80078125
v -4.0390625 0 4.80078125
v 0 1 -0.75
v 0 0 -0.75
v 4.0390625 1 -6.20703125
v 4.0390625 0 -6.20703125
v 5.8974609375 1 -9.02490234375
v 5.8974609375 0 -9.02490234375
v 7.5625 1 -11.96875
v 7.5625 0 -11.96875
v 8.9697265625 1 -15.08837890625
v 8.9697265625 0 -15.08837890625
v 10.0546875 1 -18.43359375
v 10.0546875 0 -18.43359375
v 10.7529296875 1 -22.05419921875
v 10.7529296875 0 -22.05419921875
v 11 1 -26
v 11 0 -26
v 11 1 26
v 11 0 26
vn -24 0 0
vn -8.22265625 0 -0.9453125
vn -8.22265625 0 -0.9453125
vn -24 0 0
vn -8.22265625 0 -0.9453125
vn -7.5283203125 0 -1.783203125
vn -7.5283203125 0 -1.783203125
vn -8.22265625 0 -0.9453125
vn -7.5283203125 0 -1.783203125
vn -6.93359375 0 -2.4921875
vn -6.93359375 0 -2.4921875
vn -7.5283203125 0 -1.783203125
vn -6.93359375 0 -2.4921875
vn -6.4384765625 0 -3.072265625
vn -6.4384765625 0 -3.072265625
vn -6.93359375 0 -2.4921875
vn -6.4384765625 0 -3.072265625
vn -6.04296875 0 -3.5234375
vn -6.04296875 0 -3.5234375
vn -6.4384765625 0 -3.072265625
vn -6.04296875 0 -3.5234375
vn -8.48583984375 0 -5.8974609375
vn -8.48583984375 0 -5.8974609375
vn -6.04296875 0 -3.5234375
vn -8.48583984375 0 -5.8974609375
vn -11.0078125 0 -8.078125
vn -11.0078125 0 -8.078125
vn -8.48583984375 0 -5.8974609375
vn -11.0078125 0 -8.078125
vn -8.27490234375 0 -5.8974609375
vn -8.27490234375 0 -5.8974609375
vn -11.0078125 0 -8.078125
vn -8.27490234375 0 -5.8974609375
vn -5.76171875 0 -3.5234375
vn -5.76171875 0 -3.5234375
vn -8.27490234375 0 -5.8974609375
vn -5.76171875 0 -3.5234375
vn -6.0634765625 0 -3.072265625
vn -6.0634765625 0 -3.072265625
vn -5.76171875 0 -3.5234375
vn -6.0634765625 0 -3.072265625
vn -6.46484375 0 -2.4921875
vn -6.46484375 0 -2.4921875
vn -6.0634765625 0 -3.072265625
vn -6.46484375 0 -2.4921875
vn -6.9658203125 0 -1.783203125
vn -6.9658203125 0 -1.783203125
vn -6.46484375 0 -2.4921875
vn -6.9658203125 0 -1.783203125
vn -7.56640625 0 -0.9453125
vn -7.56640625 0 -0.9453125
vn -6.9658203125 0 -1.783203125
vn -7.56640625 0 -0.9453125
vn -22 0 0
vn -22 0 0
vn -7.56640625 0 -0.9453125
vn 52 0 0
vn 52 0 0
vn 52 0 0
vn 52 0 0
vn 0 0 22
vn 0 0 22
vn 0 0 22
vn 0 0 22
vn 0 1 0
vn 0 1 0
vn 0 1 0
vn 0 1 0
vn 0 1 0
vn 0 1 0
vn 0 1 0
vn 0 1 0
vn 0 1 0
vn 0 1 0
vn 0 1 0
vn 0 1 0
vn 0 1 0
vn 0 1 0
vn 0 1 0
vn 0 1 0
vn 0 1 0
vn 0 1 0
vn 0 1 0
vn 0 1 0
vn 0 1 0
vn 0 1 0
vn 0 1 0
vn 0 1 0
vn 0 1 0
vn 0 1 0
vn 0 1 0
vn 0 1 0
vn 0 1 0
vn 0 1 0
vn 0 1 0
vn 0 1 0
vn 0 1 0
vn 0 1 0
vn 0 1 0
vn 0 1 0
vn 0 1 0
vn 0 1 0
vn 0 1 0
vn 0 1 0
vn 0 1 0
vn 0 1 0
vn 0 -1 0
vn 0 -1 0
vn 0 -1 0
vn 0 -1 0
vn 0 -1 0
vn 0 -1 0
vn 0 -1 0
vn 0 -1 0
vn 0 -1 0
vn 0 -1 0
vn 0 -1 0
vn 0 -1 0
vn 0 -1 0
vn 0 -1 0
vn 0 -1 0
vn 0 -1 0
vn 0 -1 0
vn 0 -1 0
vn 0 -1 0
vn 0 -1 0
vn 0 -1 0
vn 0 -1 0
vn 0 -1 0
vn 0 -1 0
vn 0 -1 0
vn 0 -1 0
vn 0 -1 0
vn 0 -1 0
vn 0 -1 0
vn 0 -1 0
vn 0 -1 0
vn 0 -1 0
vn 0 -1 0
vn 0 -1 0
vn 0 -1 0
vn 0 -1 0
vn 0 -1 0
vn 0 -1 0
vn 0 -1 0
vn 0 -1 0
vn 0 -1 0
vn 0 -1 0

g 
f 1//1 2//2 3//3 4//4
f 2//5 5//6 6//7 3//8
f 5//9 7//10 8//11 6//12
f 7//13 9//14 10//15 8//16
f 9//17 11//18 12//19 10//20
f 11//21 13//22 14//23 12//24
f 13//25 15//26 16//27 14//28
f 15//29 17//30 18//31 16//32
f 17//33 19//34 20//35 18//36
f 19//37 21//38 22//39 20//40
f 21//41 23//42 24//43 22//44
f 23//45 25//46 26//47 24//48
f 25//49 27//50 28//51 26//52
f 27//53 29//54 30//55 28//56
f 29//57 31//58 32//59 30//60
f 31//61 1//62 4//63 32//64
f 31//65 29//66 27//67
f 31//68 27//69 25//70
f 31//71 25//72 23//73
f 31//74 23//75 21//76
f 1//77 31//78 21//79
f 1//80 21//81 19//82
f 1//83 19//84 17//85
f 1//86 17//87 15//88
f 1//89 15//90 13//91
f 1//92 13//93 11//94
f 1//95 11//96 9//97
f 1//98 9//99 7//100
f 1//101 7//102 5//103
f 5//104 2//105 1//106
f 28//107 30//108 32//109
f 26//110 28//111 32//112
f 24//113 26//114 32//115
f 22//116 24//117 32//118
f 22//119 32//120 4//121
f 20//122 22//123 4//124
f 18//125 20//126 4//127
f 16//128 18//129 4//130
f 14//131 16//132 4//133
f 12//134 14//135 4//136
f 10//137 12//138 4//139
f 8//140 10//141 4//142
f 6//143 8//144 4//145
f 4//146 3//147 6//148