o 
v 17.511843535156252 1 -5.969302412109375
v 16.47029390625 1 -2.2150974218750008
v 16.47029390625 0 -2.2150974218750008
v 17.511843535156252 0 -5.969302412109375
v 14.82223076171875 1 1.1821901855468759
v 14.82223076171875 0 1.1821901855468759
v 12.639533749999998 1 4.1421356250000017
v 12.639533749999998 0 4.1421356250000017
v 9.99408251953125 1 6.5843141113281263
v 9.99408251953125 0 6.5843141113281263
v 6.957756718749998 1 8.428300859375
v 6.957756718749998 0 8.428300859375
v 3.6024359960937495 1 9.5936710839843755
v 3.6024359960937495 0 9.5936710839843755
v 1.8276149291992176 1 9.8967422546386743
v 1.8276149291992176 0 9.8967422546386743
v 0 1 10
v 0 0 10
v -0.10156200000000126 1 10
v -0.10156200000000126 0 10
v -1.22950346875 1 5.7977798906250015
v -1.22950346875 0 5.7977798906250015
v -2.6118777500000014 1 2.6538953750000047
v -2.6118777500000014 0 2.6538953750000047
v -3.37777994921875 1 1.5146779394531222
v -3.37777994921875 0 1.5146779394531222
v -4.1824536562500008 1 0.68306317187499843
v -4.1824536562500008 0 0.68306317187499843
v -5.0176199726562505 1 0.17339066210937304
v -5.0176199726562505 0 0.17339066210937304
v -5.875 1 0
v -5.875 0 0
v -7.1761249984375013 1 0.400732640624998
v -7.1761249984375013 0 0.400732640624998
v -8.4215612125 1 1.5759551250000001
v -8.4215612125 0 1.5759551250000001
v -9.5797519703125 1 3.4851727968750055
v -9.5797519703125 0 3.4851727968750055
v -10.6191406 1 6.0878909999999991
v -10.6191406 0 6.0878909999999991
v -12.241031095441182 1 4.574357998046878
v -12.241031095441182 0 4.574357998046878
v -13.677930046869765 1 2.8759741718750007
v -13.677930046869765 0 2.8759741718750007
v -14.920203501943311 1 1.014100166015627
v -14.920203501943311 0 1.014100166015627
v -15.958217508319375 1 -0.98990337499999725
v -15.958217508319375 0 -0.98990337499999725
v -16.782338113655516 1 -3.1146758066406264
v -16.782338113655516 0 -3.1146758066406264
v -17.3829313656093 1 -5.338856484375
v -17.3829313656093 0 -5.338856484375
v -17.750363311838271 1 -7.6410847636718771
v -17.750363311838271 0 -7.6410847636718771
v -17.875 1 -10
v -17.875 0 -10
v 17.875 1 -10
v 17.875 0 -10
vn 7.7849025781249992 0 1.4047060937500007
vn 7.1514925976562509 0 2.6896127734375028
vn 7.1514925976562509 0 2.6896127734375028
vn 7.7849025781249992 0 1.4047060937500007
vn 7.1514925976562509 0 2.6896127734375028
vn 6.3572330468750025 0 3.8307601562500011
vn 6.3572330468750025 0 3.8307601562500011
vn 7.1514925976562509 0 2.6896127734375028
vn 6.3572330468750025 0 3.8307601562500011
vn 5.40212392578125 0 4.8281482421874991
vn 5.40212392578125 0 4.8281482421874991
vn 6.3572330468750025 0 3.8307601562500011
vn 5.40212392578125 0 4.8281482421874991
vn 4.2861652343749981 0 5.68177703125
vn 4.2861652343749981 0 5.68177703125
vn 5.40212392578125 0 4.8281482421874991
vn 4.2861652343749981 0 5.68177703125
vn 3.0093569726562492 0 6.3916465234375011
vn 3.0093569726562492 0 6.3916465234375011
vn 4.2861652343749981 0 5.68177703125
vn 3.0093569726562492 0 6.3916465234375011
vn 1.4684413952636746 0 5.13014178955078
vn 1.4684413952636746 0 5.13014178955078
vn 3.0093569726562492 0 6.3916465234375011
vn 1.4684413952636746 0 5.13014178955078
vn 0.40632891601562449 0 3.6024359960937495
vn 0.40632891601562449 0 3.6024359960937495
vn 1.4684413952636746 0 5.13014178955078
vn 0.40632891601562449 0 3.6024359960937495
vn 0 0 9.87209
vn 0 0 9.87209
vn 0.40632891601562449 0 3.6024359960937495
vn 0.00010799999999733245 0 0.033850000000001046
vn -0.00010799999999733245 0 0.033851999999999549
vn -0.00010799999999733245 0 0.033851999999999549
vn 0.00010799999999733245 0 0.033850000000001046
vn -6.2575319999999977 0 1.3048639999999985
vn -7.3461046249999953 0 2.51031575
vn -7.3461046249999953 0 2.51031575
vn -6.2575319999999977 0 1.3048639999999985
vn -7.3461046249999953 0 2.51031575
vn -4.2831019511718793 0 2.14827648046875
vn -4.2831019511718793 0 2.14827648046875
vn -7.3461046249999953 0 2.51031575
vn -4.2831019511718793 0 2.14827648046875
vn -1.9708322031250063 0 1.5705759062499993
vn -1.9708322031250063 0 1.5705759062499993
vn -4.2831019511718793 0 2.14827648046875
vn -1.9708322031250063 0 1.5705759062499993
vn -1.3412872773437492 0 1.6398400234375004
vn -1.3412872773437492 0 1.6398400234375004
vn -1.9708322031250063 0 1.5705759062499993
vn -1.3412872773437492 0 1.6398400234375004
vn -0.68306317187499843 0 1.6925463437499992
vn -0.68306317187499843 0 1.6925463437499992
vn -1.3412872773437492 0 1.6398400234375004
vn -0.68306317187499843 0 1.6925463437499992
vn -0.0012529999999983943 0 2.3086059999999993
vn -0.0012529999999983943 0 2.3086059999999993
vn -0.68306317187499843 0 1.6925463437499992
vn -1.4000000000180535E-05 0 1.7579340000000006
vn 1.5759551250000001 0 2.5465612125000003
vn 1.5759551250000001 0 2.5465612125000003
vn -1.4000000000180535E-05 0 1.7579340000000006
vn 1.5759551250000001 0 2.5465612125000003
vn 3.0844401562500074 0 2.4036269718749992
vn 3.0844401562500074 0 2.4036269718749992
vn 1.5759551250000001 0 2.5465612125000003
vn 3.0844401562500074 0 2.4036269718749992
vn 4.5119358749999989 0 2.1975793874999994
vn 4.5119358749999989 0 2.1975793874999994
vn 3.0844401562500074 0 2.4036269718749992
vn 4.5119358749999989 0 2.1975793874999994
vn 3.9146269999999959 0 1.2926248999999999
vn 3.9146269999999959 0 1.2926248999999999
vn 4.5119358749999989 0 2.1975793874999994
vn -3.7706329999999966 0 4.5631332
vn -3.2119168281249983 0 3.0587894468697661
vn -3.2119168281249983 0 3.0587894468697661
vn -3.7706329999999966 0 4.5631332
vn -3.2119168281249983 0 3.0587894468697661
vn -3.560257832031251 0 2.6791724065021287
vn -3.560257832031251 0 2.6791724065021287
vn -3.2119168281249983 0 3.0587894468697661
vn -3.560257832031251 0 2.6791724065021287
vn -3.865877546874998 0 2.2802874614496091
vn -3.865877546874998 0 2.2802874614496091
vn -3.560257832031251 0 2.6791724065021287
vn -3.865877546874998 0 2.2802874614496091
vn -4.1287759726562534 0 1.8621346117122073
vn -4.1287759726562534 0 1.8621346117122073
vn -3.865877546874998 0 2.2802874614496091
vn -4.1287759726562534 0 1.8621346117122073
vn -4.3489531093750031 0 1.4247138572899218
vn -4.3489531093750031 0 1.4247138572899218
vn -4.1287759726562534 0 1.8621346117122073
vn -4.3489531093750031 0 1.4247138572899218
vn -4.5264089570312507 0 0.9680251981827539
vn -4.5264089570312507 0 0.9680251981827539
vn -4.3489531093750031 0 1.4247138572899218
vn -4.5264089570312507 0 0.9680251981827539
vn -4.661143515625 0 0.49206863439070314
vn -4.661143515625 0 0.49206863439070314
vn -4.5264089570312507 0 0.9680251981827539
vn -4.661143515625 0 0.49206863439070314
vn -6.3470359999999992 0 7.3977815E-05
vn -6.3470359999999992 0 7.3977815E-05
vn -4.661143515625 0 0.49206863439070314
vn 0 0 -35.75
vn 0 0 -35.75
vn 0 0 -35.75
vn 0 0 -35.75
vn 11.045695000000002 0 0
vn 7.7849025781249992 0 1.4047060937500007
vn 7.7849025781249992 0 1.4047060937500007
vn 11.045695000000002 0 0
vn 0 1 0
vn 0 1 0
vn 0 1 0
vn 0 1 0
vn 0 1 0
vn 0 1 0
vn 0 1 0
vn 0 1 0
vn 0 1 0
vn 0 1 0
vn 0 1 0
vn 0 1 0
vn 0 1 0
vn 0 1 0
vn 0 1 0
vn 0 1 0
vn 0 1 0
vn 0 1 0
vn 0 1 0
vn 0 1 0
vn 0 1 0
vn 0 1 0
vn 0 1 0
vn 0 1 0
vn 0 1 0
vn 0 1 0
vn 0 1 0
vn 0 1 0
vn 0 1 0
vn 0 1 0
vn 0 1 0
vn 0 1 0
vn 0 1 0
vn 0 1 0
vn 0 1 0
vn 0 1 0
vn 0 1 0
vn 0 1 0
vn 0 1 0
vn 0 1 0
vn 0 1 0
vn 0 1 0
vn 0 1 0
vn 0 1 0
vn 0 1 0
vn 0 1 0
vn 0 1 0
vn 0 1 0
vn 0 1 0
vn 0 1 0
vn 0 1 0
vn 0 1 0
vn 0 1 0
vn 0 1 0
vn 0 1 0
vn 0 1 0
vn 0 1 0
vn 0 1 0
vn 0 1 0
vn 0 1 0
vn 0 1 0
vn 0 1 0
vn 0 1 0
vn 0 1 0
vn 0 1 0
vn 0 1 0
vn 0 1 0
vn 0 1 0
vn 0 1 0
vn 0 1 0
vn 0 1 0
vn 0 1 0
vn 0 1 0
vn 0 1 0
vn 0 1 0
vn 0 1 0
vn 0 1 0
vn 0 1 0
vn 0 1 0
vn 0 1 0
vn 0 1 0
vn 0 -1 0
vn 0 -1 0
vn 0 -1 0
vn 0 -1 0
vn 0 -1 0
vn 0 -1 0
vn 0 -1 0
vn 0 -1 0
vn 0 -1 0
vn 0 -1 0
vn 0 -1 0
vn 0 -1 0
vn 0 -1 0
vn 0 -1 0
vn 0 -1 0
vn 0 -1 0
vn 0 -1 0
vn 0 -1 0
vn 0 -1 0
vn 0 -1 0
vn 0 -1 0
vn 0 -1 0
vn 0 -1 0
vn 0 -1 0
vn 0 -1 0
vn 0 -1 0
vn 0 -1 0
vn 0 -1 0
vn 0 -1 0
vn 0 -1 0
vn 0 -1 0
vn 0 -1 0
vn 0 -1 0
vn 0 -1 0
vn 0 -1 0
vn 0 -1 0
vn 0 -1 0
vn 0 -1 0
vn 0 -1 0
vn 0 -1 0
vn 0 -1 0
vn 0 -1 0
vn 0 -1 0
vn 0 -1 0
vn 0 -1 0
vn 0 -1 0
vn 0 -1 0
vn 0 -1 0
vn 0 -1 0
vn 0 -1 0
vn 0 -1 0
vn 0 -1 0
vn 0 -1 0
vn 0 -1 0
vn 0 -1 0
vn 0 -1 0
vn 0 -1 0
vn 0 -1 0
vn 0 -1 0
vn 0 -1 0
vn 0 -1 0
vn 0 -1 0
vn 0 -1 0
vn 0 -1 0
vn 0 -1 0
vn 0 -1 0
vn 0 -1 0
vn 0 -1 0
vn 0 -1 0
vn 0 -1 0
vn 0 -1 0
vn 0 -1 0
vn 0 -1 0
vn 0 -1 0
vn 0 -1 0
vn 0 -1 0
vn 0 -1 0
vn 0 -1 0
vn 0 -1 0
vn 0 -1 0
vn 0 -1 0

g 
f 1//1 2//2 3//3 4//4
f 2//5 5//6 6//7 3//8
f 5//9 7//10 8//11 6//12
f 7//13 9//14 10//15 8//16
f 9//17 11//18 12//19 10//20
f 11//21 13//22 14//23 12//24
f 13//25 15//26 16//27 14//28
f 15//29 17//30 18//31 16//32
f 17//33 19//34 20//35 18//36
f 19//37 21//38 22//39 20//40
f 21//41 23//42 24//43 22//44
f 23//45 25//46 26//47 24//48
f 25//49 27//50 28//51 26//52
f 27//53 29//54 30//55 28//56
f 29//57 31//58 32//59 30//60
f 31//61 33//62 34//63 32//64
f 33//65 35//66 36//67 34//68
f 35//69 37//70 38//71 36//72
f 37//73 39//74 40//75 38//76
f 39//77 41//78 42//79 40//80
f 41//81 43//82 44//83 42//84
f 43//85 45//86 46//87 44//88
f 45//89 47//90 48//91 46//92
f 47//93 49//94 50//95 48//96
f 49//97 51//98 52//99 50//100
f 51//101 53//102 54//103 52//104
f 53//105 55//106 56//107 54//108
f 55//109 57//110 58//111 56//112
f 57//113 1//114 4//115 58//116
f 1//117 57//118 55//119
f 1//120 55//121 53//122
f 1//123 53//124 51//125
f 1//126 51//127 49//128
f 1//129 49//130 47//131
f 1//132 47//133 45//134
f 45//135 43//136 41//137
f 45//138 41//139 39//140
f 45//141 39//142 37//143
f 45//144 37//145 35//146
f 45//147 35//148 33//149
f 45//150 33//151 31//152
f 1//153 45//154 31//155
f 1//156 31//157 29//158
f 1//159 29//160 27//161
f 1//162 27//163 25//164
f 1//165 25//166 23//167
f 1//168 23//169 21//170
f 1//171 21//172 19//173
f 1//174 19//175 17//176
f 1//177 17//178 15//179
f 1//180 15//181 13//182
f 1//183 13//184 11//185
f 1//186 11//187 9//188
f 1//189 9//190 7//191
f 1//192 7//193 5//194
f 5//195 2//196 1//197
f 56//198 58//199 4//200
f 54//201 56//202 4//203
f 52//204 54//205 4//206
f 50//207 52//208 4//209
f 48//210 50//211 4//212
f 46//213 48//214 4//215
f 42//216 44//217 46//218
f 40//219 42//220 46//221
f 38//222 40//223 46//224
f 36//225 38//226 46//227
f 34//228 36//229 46//230
f 32//231 34//232 46//233
f 32//234 46//235 4//236
f 30//237 32//238 4//239
f 28//240 30//241 4//242
f 26//243 28//244 4//245
f 24//246 26//247 4//248
f 22//249 24//250 4//251
f 20//252 22//253 4//254
f 18//255 20//256 4//257
f 16//258 18//259 4//260
f 14//261 16//262 4//263
f 12//264 14//265 4//266
f 10//267 12//268 4//269
f 8//270 10//271 4//272
f 6//273 8//274 4//275
f 4//276 3//277 6//278