o 
v 74 1 6.5449219
v 74 1 0
v 74 0 0
v 74 0 6.5449219
v 78.65625 1 8.2382812
v 78.65625 0 8.2382812
vn -6.5449219 0 0
vn -6.5449219 0 0
vn -6.5449219 0 0
vn -6.5449219 0 0
vn 8.2382812 0 -4.65625
vn 8.2382812 0 -4.65625
vn 8.2382812 0 -4.65625
vn 8.2382812 0 -4.65625
vn -1.6933592999999991 0 4.65625
vn -1.6933592999999991 0 4.65625
vn -1.6933592999999991 0 4.65625
vn -1.6933592999999991 0 4.65625
vn 0 1 0
vn 0 1 0
vn 0 1 0
vn 0 -1 0
vn 0 -1 0
vn 0 -1 0

g 
f 1//1 2//2 3//3 4//4
f 2//5 5//6 6//7 3//8
f 5//9 1//10 4//11 6//12
f 5//13 2//14 1//15
f 4//16 3//17 6//18