o 
v 66 1 12.160156
v 66 1 0
v 66 0 0
v 66 0 12.160156
v 73.925781 1 18.183594
v 73.925781 0 18.183594
vn -12.160156 0 0
vn -12.160156 0 0
vn -12.160156 0 0
vn -12.160156 0 0
vn 18.183594 0 -7.9257810000000006
vn 18.183594 0 -7.9257810000000006
vn 18.183594 0 -7.9257810000000006
vn 18.183594 0 -7.9257810000000006
vn -6.0234379999999987 0 7.9257810000000006
vn -6.0234379999999987 0 7.9257810000000006
vn -6.0234379999999987 0 7.9257810000000006
vn -6.0234379999999987 0 7.9257810000000006
vn 0 1 0
vn 0 1 0
vn 0 1 0
vn 0 -1 0
vn 0 -1 0
vn 0 -1 0

g 
f 1//1 2//2 3//3 4//4
f 2//5 5//6 6//7 3//8
f 5//9 1//10 4//11 6//12
f 5//13 2//14 1//15
f 4//16 3//17 6//18