o 
v 61.337891 1 100
v 65.290849719238281 1 99.788387213134769
v 65.290849719238281 0 99.788387213134769
v 61.337891 0 100
v 69.129624269531249 1 99.167145908203125
v 69.129624269531249 0 99.167145908203125
v 72.8347804897461 1 98.156885418701165
v 72.8347804897461 0 98.156885418701165
v 76.38688421875 1 96.778215078125
v 76.38688421875 0 96.778215078125
v 79.766501295410166 1 95.0517442199707
v 79.766501295410166 0 95.0517442199707
v 82.954197558593762 1 92.998082177734375
v 82.954197558593762 0 92.998082177734375
v 85.930538847167966 1 90.6378382849121
v 85.930538847167966 0 90.6378382849121
v 88.676091 1 87.991621875
v 88.676091 0 87.991621875
v 91.171419855957026 1 85.080042281494144
v 91.171419855957026 0 85.080042281494144
v 93.397091253906254 1 81.923708837890629
v 93.397091253906254 0 81.923708837890629
v 95.333671032714847 1 78.543230877685545
v 95.333671032714847 0 78.543230877685545
v 96.96172503125 1 74.959217734375
v 96.96172503125 0 74.959217734375
v 98.2618190883789 1 71.192278741455084
v 98.2618190883789 0 71.192278741455084
v 99.21451904296876 1 67.263023232421872
v 99.21451904296876 0 67.263023232421872
v 99.800390733886715 1 63.192060540771486
v 99.800390733886715 0 63.192060540771486
v 100 1 59
v 100 0 59
v 100 1 100
v 100 0 100
vn 0.00038000000000693035 0 -21.352388000000005
vn -0.8328540917968752 0 -7.79173326953125
vn -0.8328540917968752 0 -7.79173326953125
vn 0.00038000000000693035 0 -21.352388000000005
vn -0.8328540917968752 0 -7.79173326953125
vn -1.6315017944336034 0 -7.5439307705078136
vn -1.6315017944336034 0 -7.5439307705078136
vn -0.8328540917968752 0 -7.79173326953125
vn -1.6315017944336034 0 -7.5439307705078136
vn -2.3889308300781238 0 -7.2572599492187493
vn -2.3889308300781238 0 -7.2572599492187493
vn -1.6315017944336034 0 -7.5439307705078136
vn -2.3889308300781238 0 -7.2572599492187493
vn -3.1051411987304647 0 -6.9317208056640709
vn -3.1051411987304647 0 -6.9317208056640709
vn -2.3889308300781238 0 -7.2572599492187493
vn -3.1051411987304647 0 -6.9317208056640709
vn -3.7801329003906261 0 -6.5673133398437642
vn -3.7801329003906261 0 -6.5673133398437642
vn -3.1051411987304647 0 -6.9317208056640709
vn -3.7801329003906261 0 -6.5673133398437642
vn -4.4139059350585939 0 -6.1640375517578008
vn -4.4139059350585939 0 -6.1640375517578008
vn -3.7801329003906261 0 -6.5673133398437642
vn -4.4139059350585939 0 -6.1640375517578008
vn -5.0064603027343679 0 -5.7218934414062375
vn -5.0064603027343679 0 -5.7218934414062375
vn -4.4139059350585939 0 -6.1640375517578008
vn -5.0064603027343679 0 -5.7218934414062375
vn -5.5577960034179625 0 -5.24088100878906
vn -5.5577960034179625 0 -5.24088100878906
vn -5.0064603027343679 0 -5.7218934414062375
vn -5.5577960034179625 0 -5.24088100878906
vn -6.0679130371093777 0 -4.7210002539062543
vn -6.0679130371093777 0 -4.7210002539062543
vn -5.5577960034179625 0 -5.24088100878906
vn -6.0679130371093777 0 -4.7210002539062543
vn -6.5368114038085992 0 -4.16225117675782
vn -6.5368114038085992 0 -4.16225117675782
vn -6.0679130371093777 0 -4.7210002539062543
vn -6.5368114038085992 0 -4.16225117675782
vn -6.9644911035156269 0 -3.5646337773437438
vn -6.9644911035156269 0 -3.5646337773437438
vn -6.5368114038085992 0 -4.16225117675782
vn -6.9644911035156269 0 -3.5646337773437438
vn -7.3509521362304611 0 -2.9281480556640531
vn -7.3509521362304611 0 -2.9281480556640531
vn -6.9644911035156269 0 -3.5646337773437438
vn -7.3509521362304611 0 -2.9281480556640531
vn -7.69619450195313 0 -2.2527940117187626
vn -7.69619450195313 0 -2.2527940117187626
vn -7.3509521362304611 0 -2.9281480556640531
vn -7.69619450195313 0 -2.2527940117187626
vn -8.000218200683598 0 -1.5385716455078153
vn -8.000218200683598 0 -1.5385716455078153
vn -7.69619450195313 0 -2.2527940117187626
vn -8.000218200683598 0 -1.5385716455078153
vn -8.2630232324218724 0 -0.78548095703123977
vn -8.2630232324218724 0 -0.78548095703123977
vn -8.000218200683598 0 -1.5385716455078153
vn -8.2630232324218724 0 -0.78548095703123977
vn -22.643945000000002 0 0
vn -22.643945000000002 0 0
vn -8.2630232324218724 0 -0.78548095703123977
vn 41 0 0
vn 41 0 0
vn 41 0 0
vn 41 0 0
vn 0 0 38.662109
vn 0 0 38.662109
vn 0 0 38.662109
vn 0 0 38.662109
vn 0 1 0
vn 0 1 0
vn 0 1 0
vn 0 1 0
vn 0 1 0
vn 0 1 0
vn 0 1 0
vn 0 1 0
vn 0 1 0
vn 0 1 0
vn 0 1 0
vn 0 1 0
vn 0 1 0
vn 0 1 0
vn 0 1 0
vn 0 1 0
vn 0 1 0
vn 0 1 0
vn 0 1 0
vn 0 1 0
vn 0 1 0
vn 0 1 0
vn 0 1 0
vn 0 1 0
vn 0 1 0
vn 0 1 0
vn 0 1 0
vn 0 1 0
vn 0 1 0
vn 0 1 0
vn 0 1 0
vn 0 1 0
vn 0 1 0
vn 0 1 0
vn 0 1 0
vn 0 1 0
vn 0 1 0
vn 0 1 0
vn 0 1 0
vn 0 1 0
vn 0 1 0
vn 0 1 0
vn 0 1 0
vn 0 1 0
vn 0 1 0
vn 0 1 0
vn 0 1 0
vn 0 1 0
vn 0 -1 0
vn 0 -1 0
vn 0 -1 0
vn 0 -1 0
vn 0 -1 0
vn 0 -1 0
vn 0 -1 0
vn 0 -1 0
vn 0 -1 0
vn 0 -1 0
vn 0 -1 0
vn 0 -1 0
vn 0 -1 0
vn 0 -1 0
vn 0 -1 0
vn 0 -1 0
vn 0 -1 0
vn 0 -1 0
vn 0 -1 0
vn 0 -1 0
vn 0 -1 0
vn 0 -1 0
vn 0 -1 0
vn 0 -1 0
vn 0 -1 0
vn 0 -1 0
vn 0 -1 0
vn 0 -1 0
vn 0 -1 0
vn 0 -1 0
vn 0 -1 0
vn 0 -1 0
vn 0 -1 0
vn 0 -1 0
vn 0 -1 0
vn 0 -1 0
vn 0 -1 0
vn 0 -1 0
vn 0 -1 0
vn 0 -1 0
vn 0 -1 0
vn 0 -1 0
vn 0 -1 0
vn 0 -1 0
vn 0 -1 0
vn 0 -1 0
vn 0 -1 0
vn 0 -1 0

g 
f 1//1 2//2 3//3 4//4
f 2//5 5//6 6//7 3//8
f 5//9 7//10 8//11 6//12
f 7//13 9//14 10//15 8//16
f 9//17 11//18 12//19 10//20
f 11//21 13//22 14//23 12//24
f 13//25 15//26 16//27 14//28
f 15//29 17//30 18//31 16//32
f 17//33 19//34 20//35 18//36
f 19//37 21//38 22//39 20//40
f 21//41 23//42 24//43 22//44
f 23//45 25//46 26//47 24//48
f 25//49 27//50 28//51 26//52
f 27//53 29//54 30//55 28//56
f 29//57 31//58 32//59 30//60
f 31//61 33//62 34//63 32//64
f 33//65 35//66 36//67 34//68
f 35//69 1//70 4//71 36//72
f 35//73 33//74 31//75
f 35//76 31//77 29//78
f 35//79 29//80 27//81
f 35//82 27//83 25//84
f 35//85 25//86 23//87
f 35//88 23//89 21//90
f 35//91 21//92 19//93
f 35//94 19//95 17//96
f 35//97 17//98 15//99
f 35//100 15//101 13//102
f 35//103 13//104 11//105
f 35//106 11//107 9//108
f 35//109 9//110 7//111
f 35//112 7//113 5//114
f 35//115 5//116 2//117
f 35//118 2//119 1//120
f 32//121 34//122 36//123
f 30//124 32//125 36//126
f 28//127 30//128 36//129
f 26//130 28//131 36//132
f 24//133 26//134 36//135
f 22//136 24//137 36//138
f 20//139 22//140 36//141
f 18//142 20//143 36//144
f 16//145 18//146 36//147
f 14//148 16//149 36//150
f 12//151 14//152 36//153
f 10//154 12//155 36//156
f 8//157 10//158 36//159
f 6//160 8//161 36//162
f 3//163 6//164 36//165
f 4//166 3//167 36//168