o 
v 12.246044412109374 1 2.9247968710937471
v 11.517687984375002 1 6.9605672187500005
v 11.517687984375002 0 6.9605672187500005
v 12.246044412109374 0 2.9247968710937471
v 10.365196220703126 1 10.612651394531255
v 10.365196220703126 0 10.612651394531255
v 8.838834625 1 13.794592750000007
v 8.838834625 0 13.794592750000007
v 6.9888687011718744 1 16.41993463671875
v 6.9888687011718744 0 16.41993463671875
v 4.865563953125001 1 18.402220406249995
v 4.865563953125001 0 18.402220406249995
v 2.5191858847656263 1 19.654993410156251
v 2.5191858847656263 0 19.654993410156251
v 1.2780523254394538 1 19.980794922363273
v 1.2780523254394538 0 19.980794922363273
v 0 1 20.091797
v 0 0 20.091797
v -1.2780523913574218 1 19.980794922363287
v -1.2780523913574218 0 19.980794922363287
v -2.5191859996093751 1 19.654993410156251
v -2.5191859996093751 0 19.654993410156251
v -4.865564121875 1 18.402220406249995
v -4.865564121875 0 18.402220406249995
v -6.9888688769531253 1 16.41993463671875
v -6.9888688769531253 0 16.41993463671875
v -8.838834775 1 13.794592750000007
v -8.838834775 0 13.794592750000007
v -10.365196326171875 1 10.612651394531255
v -10.365196326171875 0 10.612651394531255
v -11.517688040625 1 6.9605672187500005
v -11.517688040625 0 6.9605672187500005
v -12.246044428515624 1 2.9247968710937471
v -12.246044428515624 0 2.9247968710937471
v -12.5 1 -1.4082030000000003
v -12.5 0 -1.4082030000000003
v -12.130397162396562 1 -6.5962389218749991
v -12.130397162396562 0 -6.5962389218749991
v -11.0636221193525 1 -11.411942875000008
v -11.0636221193525 0 -11.411942875000008
v -10.288121746029102 1 -13.616954123046881
v -10.288121746029102 0 -13.616954123046881
v -9.3615203916321867 1 -15.65302289062501
v -9.3615203916321867 0 -15.65302289062501
v -8.2915487462573054 1 -17.494862681640626
v -8.2915487462573054 0 -17.494862681640626
v -7.0859375 1 -19.117187
v -7.0859375 0 -19.117187
v -6.0501524140625005 1 -12.891240953125006
v -6.0501524140625005 0 -12.891240953125006
v -5.3409903505859369 1 -10.295065724609373
v -5.3409903505859369 0 -10.295065724609373
v -4.5248991125 1 -8.0909568750000034
v -4.5248991125 0 -8.0909568750000034
v -3.617316579101562 1 -6.3145652910156258
v -3.617316579101562 0 -6.3145652910156258
v -2.6336806296875004 1 -5.0015418593749956
v -2.6336806296875004 0 -5.0015418593749956
v -1.5894291435546872 1 -4.1875374667968828
v -1.5894291435546872 0 -4.1875374667968828
v -0.5 1 -3.9082030000000003
v -0.5 0 -3.9082030000000003
v 0.63051815820312562 1 -4.20884040820313
v 0.63051815820312562 0 -4.20884040820313
v 1.7106380156250012 1 -5.0834764531250016
v 1.7106380156250012 0 -5.0834764531250016
v 2.7234408964843766 1 -6.4911563652343744
v 2.7234408964843766 0 -6.4911563652343744
v 3.6520081250000018 1 -8.3909253749999948
v 3.6520081250000018 0 -8.3909253749999948
v 4.4794210253906215 1 -10.741828712890623
v 4.4794210253906215 0 -10.741828712890623
v 5.1887609218750015 1 -13.502911609375005
v 5.1887609218750015 0 -13.502911609375005
v 6.185547 1 -20.091797
v 6.185547 0 -20.091797
v 7.5777155546874972 1 -18.508100541015629
v 7.5777155546874972 0 -18.508100541015629
v 8.8191434375 1 -16.645985578125007
v 8.8191434375 0 -16.645985578125007
v 9.8990778515625024 1 -14.53726810742188
v 9.8990778515625024 0 -14.53726810742188
v 10.806766 1 -12.213764124999997
v 10.806766 0 -12.213764124999997
v 11.531455085937502 1 -9.707289626953127
v 11.531455085937502 0 -9.707289626953127
v 12.062392312500002 1 -7.04966060937501
v 12.062392312500002 0 -7.04966060937501
v 12.3888248828125 1 -4.2726930683593736
v 12.3888248828125 0 -4.2726930683593736
v 12.5 1 -1.4082030000000003
v 12.5 0 -1.4082030000000003
vn 8.36877021875 0 0.98231201562499848
vn 7.6878545234375082 0 1.8808481914062476
vn 7.6878545234375082 0 1.8808481914062476
vn 8.36877021875 0 0.98231201562499848
vn 7.6878545234375082 0 1.8808481914062476
vn 6.8340255312500062 0 2.678853359375001
vn 6.8340255312500062 0 2.678853359375001
vn 7.6878545234375082 0 1.8808481914062476
vn 6.8340255312500062 0 2.678853359375001
vn 5.8072832421874949 0 3.3763275195312517
vn 5.8072832421874949 0 3.3763275195312517
vn 6.8340255312500062 0 2.678853359375001
vn 5.8072832421874949 0 3.3763275195312517
vn 4.6076276562499885 0 3.9732706718749995
vn 4.6076276562499885 0 3.9732706718749995
vn 5.8072832421874949 0 3.3763275195312517
vn 4.6076276562499885 0 3.9732706718749995
vn 3.2350587734375011 0 4.4696828164062481
vn 3.2350587734375011 0 4.4696828164062481
vn 4.6076276562499885 0 3.9732706718749995
vn 3.2350587734375011 0 4.4696828164062481
vn 1.578574516113278 0 3.5875116276855472
vn 1.578574516113278 0 3.5875116276855472
vn 3.2350587734375011 0 4.4696828164062481
vn 1.578574516113278 0 3.5875116276855472
vn 0.43680358984374834 0 2.5191858847656263
vn 0.43680358984374834 0 2.5191858847656263
vn 1.578574516113278 0 3.5875116276855472
vn 0.43680358984374834 0 2.5191858847656263
vn 0 0 6.9035590000000013
vn 0 0 6.9035590000000013
vn 0.43680358984374834 0 2.5191858847656263
vn 0 0 6.9035594
vn -0.43680358984374834 0 2.5191859996093751
vn -0.43680358984374834 0 2.5191859996093751
vn 0 0 6.9035594
vn -0.43680358984374834 0 2.5191859996093751
vn -1.5785745161132923 0 3.5875117305175781
vn -1.5785745161132923 0 3.5875117305175781
vn -0.43680358984374834 0 2.5191859996093751
vn -1.5785745161132923 0 3.5875117305175781
vn -3.2350587734375011 0 4.46968287734375
vn -3.2350587734375011 0 4.46968287734375
vn -1.5785745161132923 0 3.5875117305175781
vn -3.2350587734375011 0 4.46968287734375
vn -4.6076276562499885 0 3.973270653125
vn -4.6076276562499885 0 3.973270653125
vn -3.2350587734375011 0 4.46968287734375
vn -4.6076276562499885 0 3.973270653125
vn -5.8072832421874949 0 3.3763274492187496
vn -5.8072832421874949 0 3.3763274492187496
vn -4.6076276562499885 0 3.973270653125
vn -5.8072832421874949 0 3.3763274492187496
vn -6.8340255312500062 0 2.678853265625
vn -6.8340255312500062 0 2.678853265625
vn -5.8072832421874949 0 3.3763274492187496
vn -6.8340255312500062 0 2.678853265625
vn -7.6878545234375082 0 1.8808481023437502
vn -7.6878545234375082 0 1.8808481023437502
vn -6.8340255312500062 0 2.678853265625
vn -7.6878545234375082 0 1.8808481023437502
vn -8.36877021875 0 0.982311959375
vn -8.36877021875 0 0.982311959375
vn -7.6878545234375082 0 1.8808481023437502
vn -8.36877021875 0 0.982311959375
vn -11.874122 0 0
vn -11.874122 0 0
vn -8.36877021875 0 0.982311959375
vn -7.0756949999999961 0 -0.00053541506
vn -10.003739875000008 0 -1.4363778806474998
vn -10.003739875000008 0 -1.4363778806474998
vn -7.0756949999999961 0 -0.00053541506
vn -10.003739875000008 0 -1.4363778806474998
vn -7.0207152011718819 0 -1.8422754163674606
vn -7.0207152011718819 0 -1.8422754163674606
vn -10.003739875000008 0 -1.4363778806474998
vn -7.0207152011718819 0 -1.8422754163674606
vn -4.2410800156250019 0 -1.7021017277203125
vn -4.2410800156250019 0 -1.7021017277203125
vn -7.0207152011718819 0 -1.8422754163674606
vn -4.2410800156250019 0 -1.7021017277203125
vn -3.8779085585937452 0 -1.9965729997717974
vn -3.8779085585937452 0 -1.9965729997717974
vn -4.2410800156250019 0 -1.7021017277203125
vn -3.8779085585937452 0 -1.9965729997717974
vn -3.4641641093749911 0 -2.2755828916321876
vn -3.4641641093749911 0 -2.2755828916321876
vn -3.8779085585937452 0 -1.9965729997717974
vn -3.4641641093749911 0 -2.2755828916321876
vn -4.0110339999999951 0 -3.3889444
vn -4.0110339999999951 0 -3.3889444
vn -3.4641641093749911 0 -2.2755828916321876
vn 9.124944 0 -0.99984439999999974
vn 8.8221212753906286 0 -1.7449471494140632
vn 8.8221212753906286 0 -1.7449471494140632
vn 9.124944 0 -0.99984439999999974
vn 8.8221212753906286 0 -1.7449471494140632
vn 4.8002840781250029 0 -1.5252533015625005
vn 4.8002840781250029 0 -1.5252533015625005
vn 8.8221212753906286 0 -1.7449471494140632
vn 4.8002840781250029 0 -1.5252533015625005
vn 3.9805004335937468 0 -1.7236737714843748
vn 3.9805004335937468 0 -1.7236737714843748
vn 4.8002840781250029 0 -1.5252533015625005
vn 3.9805004335937468 0 -1.7236737714843748
vn 3.0894150156250078 0 -1.8912184828124996
vn 3.0894150156250078 0 -1.8912184828124996
vn 3.9805004335937468 0 -1.7236737714843748
vn 3.0894150156250078 0 -1.8912184828124996
vn 2.127027824218743 0 -2.0278874355468748
vn 2.127027824218743 0 -2.0278874355468748
vn 3.0894150156250078 0 -1.8912184828124996
vn 2.127027824218743 0 -2.0278874355468748
vn 1.0933388593749953 0 -2.1336806296875004
vn 1.0933388593749953 0 -2.1336806296875004
vn 2.127027824218743 0 -2.0278874355468748
vn 1.0933388593749953 0 -2.1336806296875004
vn 0.000309000000001447 0 -2.9516586999999994
vn 0.000309000000001447 0 -2.9516586999999994
vn 1.0933388593749953 0 -2.1336806296875004
vn 3.5999999994373866E-05 0 -3.0668740000000003
vn -1.1752734531250013 0 -2.2106380156250012
vn -1.1752734531250013 0 -2.2106380156250012
vn 3.5999999994373866E-05 0 -3.0668740000000003
vn -1.1752734531250013 0 -2.2106380156250012
vn -2.2823159570312441 0 -2.092922738281251
vn -2.2823159570312441 0 -2.092922738281251
vn -1.1752734531250013 0 -2.2106380156250012
vn -2.2823159570312441 0 -2.092922738281251
vn -3.3074489218749932 0 -1.9413701093750007
vn -3.3074489218749932 0 -1.9413701093750007
vn -2.2823159570312441 0 -2.092922738281251
vn -3.3074489218749932 0 -1.9413701093750007
vn -4.2506723476562485 0 -1.7559801289062449
vn -4.2506723476562485 0 -1.7559801289062449
vn -3.3074489218749932 0 -1.9413701093750007
vn -4.2506723476562485 0 -1.7559801289062449
vn -5.11198623437501 0 -1.5367527968749997
vn -5.11198623437501 0 -1.5367527968749997
vn -4.2506723476562485 0 -1.7559801289062449
vn -5.11198623437501 0 -1.5367527968749997
vn -9.3499682871093768 0 -1.7061259746093782
vn -9.3499682871093768 0 -1.7061259746093782
vn -5.11198623437501 0 -1.5367527968749997
vn -9.3499682871093768 0 -1.7061259746093782
vn -9.6241629999999958 0 -0.90891500000000036
vn -9.6241629999999958 0 -0.90891500000000036
vn -9.3499682871093768 0 -1.7061259746093782
vn 3.8236849999999976 0 -3.903879
vn 3.4458114218749927 0 -2.6335964374999996
vn 3.4458114218749927 0 -2.6335964374999996
vn 3.8236849999999976 0 -3.903879
vn 3.4458114218749927 0 -2.6335964374999996
vn 3.970832433593749 0 -2.3213622968750052
vn 3.970832433593749 0 -2.3213622968750052
vn 3.4458114218749927 0 -2.6335964374999996
vn 3.970832433593749 0 -2.3213622968750052
vn 4.43222145312501 0 -1.9876225625000004
vn 4.43222145312501 0 -1.9876225625000004
vn 3.970832433593749 0 -2.3213622968750052
vn 4.43222145312501 0 -1.9876225625000004
vn 4.8299784804687533 0 -1.6323772343749994
vn 4.8299784804687533 0 -1.6323772343749994
vn 4.43222145312501 0 -1.9876225625000004
vn 4.8299784804687533 0 -1.6323772343749994
vn 5.164103515624987 0 -1.2556263125000022
vn 5.164103515624987 0 -1.2556263125000022
vn 4.8299784804687533 0 -1.6323772343749994
vn 5.164103515624987 0 -1.2556263125000022
vn 5.4345965585937535 0 -0.85736979687499826
vn 5.4345965585937535 0 -0.85736979687499826
vn 5.164103515624987 0 -1.2556263125000022
vn 5.4345965585937535 0 -0.85736979687499826
vn 5.64145760937501 0 -0.43760768749999812
vn 5.64145760937501 0 -0.43760768749999812
vn 5.4345965585937535 0 -0.85736979687499826
vn 5.64145760937501 0 -0.43760768749999812
vn 7.7270560000000046 0 0.0001010000000007949
vn 7.7270560000000046 0 0.0001010000000007949
vn 5.64145760937501 0 -0.43760768749999812
vn 11.874122 0 0
vn 8.36877021875 0 0.98231201562499848
vn 8.36877021875 0 0.98231201562499848
vn 11.874122 0 0
vn 0 1 0
vn 0 1 0
vn 0 1 0
vn 0 1 0
vn 0 1 0
vn 0 1 0
vn 0 1 0
vn 0 1 0
vn 0 1 0
vn 0 1 0
vn 0 1 0
vn 0 1 0
vn 0 1 0
vn 0 1 0
vn 0 1 0
vn 0 1 0
vn 0 1 0
vn 0 1 0
vn 0 1 0
vn 0 1 0
vn 0 1 0
vn 0 1 0
vn 0 1 0
vn 0 1 0
vn 0 1 0
vn 0 1 0
vn 0 1 0
vn 0 1 0
vn 0 1 0
vn 0 1 0
vn 0 1 0
vn 0 1 0
vn 0 1 0
vn 0 1 0
vn 0 1 0
vn 0 1 0
vn 0 1 0
vn 0 1 0
vn 0 1 0
vn 0 1 0
vn 0 1 0
vn 0 1 0
vn 0 1 0
vn 0 1 0
vn 0 1 0
vn 0 1 0
vn 0 1 0
vn 0 1 0
vn 0 1 0
vn 0 1 0
vn 0 1 0
vn 0 1 0
vn 0 1 0
vn 0 1 0
vn 0 1 0
vn 0 1 0
vn 0 1 0
vn 0 1 0
vn 0 1 0
vn 0 1 0
vn 0 1 0
vn 0 1 0
vn 0 1 0
vn 0 1 0
vn 0 1 0
vn 0 1 0
vn 0 1 0
vn 0 1 0
vn 0 1 0
vn 0 1 0
vn 0 1 0
vn 0 1 0
vn 0 1 0
vn 0 1 0
vn 0 1 0
vn 0 1 0
vn 0 1 0
vn 0 1 0
vn 0 1 0
vn 0 1 0
vn 0 1 0
vn 0 1 0
vn 0 1 0
vn 0 1 0
vn 0 1 0
vn 0 1 0
vn 0 1 0
vn 0 1 0
vn 0 1 0
vn 0 1 0
vn 0 1 0
vn 0 1 0
vn 0 1 0
vn 0 1 0
vn 0 1 0
vn 0 1 0
vn 0 1 0
vn 0 1 0
vn 0 1 0
vn 0 1 0
vn 0 1 0
vn 0 1 0
vn 0 1 0
vn 0 1 0
vn 0 1 0
vn 0 1 0
vn 0 1 0
vn 0 1 0
vn 0 1 0
vn 0 1 0
vn 0 1 0
vn 0 1 0
vn 0 1 0
vn 0 1 0
vn 0 1 0
vn 0 1 0
vn 0 1 0
vn 0 1 0
vn 0 1 0
vn 0 1 0
vn 0 1 0
vn 0 1 0
vn 0 1 0
vn 0 1 0
vn 0 1 0
vn 0 1 0
vn 0 1 0
vn 0 1 0
vn 0 1 0
vn 0 1 0
vn 0 1 0
vn 0 1 0
vn 0 -1 0
vn 0 -1 0
vn 0 -1 0
vn 0 -1 0
vn 0 -1 0
vn 0 -1 0
vn 0 -1 0
vn 0 -1 0
vn 0 -1 0
vn 0 -1 0
vn 0 -1 0
vn 0 -1 0
vn 0 -1 0
vn 0 -1 0
vn 0 -1 0
vn 0 -1 0
vn 0 -1 0
vn 0 -1 0
vn 0 -1 0
vn 0 -1 0
vn 0 -1 0
vn 0 -1 0
vn 0 -1 0
vn 0 -1 0
vn 0 -1 0
vn 0 -1 0
vn 0 -1 0
vn 0 -1 0
vn 0 -1 0
vn 0 -1 0
vn 0 -1 0
vn 0 -1 0
vn 0 -1 0
vn 0 -1 0
vn 0 -1 0
vn 0 -1 0
vn 0 -1 0
vn 0 -1 0
vn 0 -1 0
vn 0 -1 0
vn 0 -1 0
vn 0 -1 0
vn 0 -1 0
vn 0 -1 0
vn 0 -1 0
vn 0 -1 0
vn 0 -1 0
vn 0 -1 0
vn 0 -1 0
vn 0 -1 0
vn 0 -1 0
vn 0 -1 0
vn 0 -1 0
vn 0 -1 0
vn 0 -1 0
vn 0 -1 0
vn 0 -1 0
vn 0 -1 0
vn 0 -1 0
vn 0 -1 0
vn 0 -1 0
vn 0 -1 0
vn 0 -1 0
vn 0 -1 0
vn 0 -1 0
vn 0 -1 0
vn 0 -1 0
vn 0 -1 0
vn 0 -1 0
vn 0 -1 0
vn 0 -1 0
vn 0 -1 0
vn 0 -1 0
vn 0 -1 0
vn 0 -1 0
vn 0 -1 0
vn 0 -1 0
vn 0 -1 0
vn 0 -1 0
vn 0 -1 0
vn 0 -1 0
vn 0 -1 0
vn 0 -1 0
vn 0 -1 0
vn 0 -1 0
vn 0 -1 0
vn 0 -1 0
vn 0 -1 0
vn 0 -1 0
vn 0 -1 0
vn 0 -1 0
vn 0 -1 0
vn 0 -1 0
vn 0 -1 0
vn 0 -1 0
vn 0 -1 0
vn 0 -1 0
vn 0 -1 0
vn 0 -1 0
vn 0 -1 0
vn 0 -1 0
vn 0 -1 0
vn 0 -1 0
vn 0 -1 0
vn 0 -1 0
vn 0 -1 0
vn 0 -1 0
vn 0 -1 0
vn 0 -1 0
vn 0 -1 0
vn 0 -1 0
vn 0 -1 0
vn 0 -1 0
vn 0 -1 0
vn 0 -1 0
vn 0 -1 0
vn 0 -1 0
vn 0 -1 0
vn 0 -1 0
vn 0 -1 0
vn 0 -1 0
vn 0 -1 0
vn 0 -1 0
vn 0 -1 0
vn 0 -1 0
vn 0 -1 0
vn 0 -1 0
vn 0 -1 0
vn 0 -1 0
vn 0 -1 0
vn 0 -1 0
vn 0 -1 0

g 
f 1//1 2//2 3//3 4//4
f 2//5 5//6 6//7 3//8
f 5//9 7//10 8//11 6//12
f 7//13 9//14 10//15 8//16
f 9//17 11//18 12//19 10//20
f 11//21 13//22 14//23 12//24
f 13//25 15//26 16//27 14//28
f 15//29 17//30 18//31 16//32
f 17//33 19//34 20//35 18//36
f 19//37 21//38 22//39 20//40
f 21//41 23//42 24//43 22//44
f 23//45 25//46 26//47 24//48
f 25//49 27//50 28//51 26//52
f 27//53 29//54 30//55 28//56
f 29//57 31//58 32//59 30//60
f 31//61 33//62 34//63 32//64
f 33//65 35//66 36//67 34//68
f 35//69 37//70 38//71 36//72
f 37//73 39//74 40//75 38//76
f 39//77 41//78 42//79 40//80
f 41//81 43//82 44//83 42//84
f 43//85 45//86 46//87 44//88
f 45//89 47//90 48//91 46//92
f 47//93 49//94 50//95 48//96
f 49//97 51//98 52//99 50//100
f 51//101 53//102 54//103 52//104
f 53//105 55//106 56//107 54//108
f 55//109 57//110 58//111 56//112
f 57//113 59//114 60//115 58//116
f 59//117 61//118 62//119 60//120
f 61//121 63//122 64//123 62//124
f 63//125 65//126 66//127 64//128
f 65//129 67//130 68//131 66//132
f 67//133 69//134 70//135 68//136
f 69//137 71//138 72//139 70//140
f 71//141 73//142 74//143 72//144
f 73//145 75//146 76//147 74//148
f 75//149 77//150 78//151 76//152
f 77//153 79//154 80//155 78//156
f 79//157 81//158 82//159 80//160
f 81//161 83//162 84//163 82//164
f 83//165 85//166 86//167 84//168
f 85//169 87//170 88//171 86//172
f 87//173 89//174 90//175 88//176
f 89//177 91//178 92//179 90//180
f 91//181 1//182 4//183 92//184
f 1//185 91//186 89//187
f 1//188 89//189 87//190
f 1//191 87//192 85//193
f 1//194 85//195 83//196
f 1//197 83//198 81//199
f 1//200 81//201 79//202
f 1//203 79//204 77//205
f 1//206 77//207 75//208
f 1//209 75//210 73//211
f 1//212 73//213 71//214
f 1//215 71//216 69//217
f 1//218 69//219 67//220
f 1//221 67//222 65//223
f 1//224 65//225 63//226
f 1//227 63//228 61//229
f 1//230 61//231 59//232
f 49//233 47//234 45//235
f 51//236 49//237 45//238
f 53//239 51//240 45//241
f 53//242 45//243 43//244
f 55//245 53//246 43//247
f 55//248 43//249 41//250
f 57//251 55//252 41//253
f 57//254 41//255 39//256
f 59//257 57//258 39//259
f 59//260 39//261 37//262
f 1//263 59//264 37//265
f 1//266 37//267 35//268
f 1//269 35//270 33//271
f 1//272 33//273 31//274
f 1//275 31//276 29//277
f 1//278 29//279 27//280
f 1//281 27//282 25//283
f 1//284 25//285 23//286
f 1//287 23//288 21//289
f 1//290 21//291 19//292
f 1//293 19//294 17//295
f 1//296 17//297 15//298
f 1//299 15//300 13//301
f 1//302 13//303 11//304
f 1//305 11//306 9//307
f 1//308 9//309 7//310
f 1//311 7//312 5//313
f 5//314 2//315 1//316
f 90//317 92//318 4//319
f 88//320 90//321 4//322
f 86//323 88//324 4//325
f 84//326 86//327 4//328
f 82//329 84//330 4//331
f 80//332 82//333 4//334
f 78//335 80//336 4//337
f 76//338 78//339 4//340
f 74//341 76//342 4//343
f 72//344 74//345 4//346
f 70//347 72//348 4//349
f 68//350 70//351 4//352
f 66//353 68//354 4//355
f 64//356 66//357 4//358
f 62//359 64//360 4//361
f 60//362 62//363 4//364
f 46//365 48//366 50//367
f 46//368 50//369 52//370
f 46//371 52//372 54//373
f 44//374 46//375 54//376
f 44//377 54//378 56//379
f 42//380 44//381 56//382
f 42//383 56//384 58//385
f 40//386 42//387 58//388
f 40//389 58//390 60//391
f 38//392 40//393 60//394
f 38//395 60//396 4//397
f 36//398 38//399 4//400
f 34//401 36//402 4//403
f 32//404 34//405 4//406
f 30//407 32//408 4//409
f 28//410 30//411 4//412
f 26//413 28//414 4//415
f 24//416 26//417 4//418
f 22//419 24//420 4//421
f 20//422 22//423 4//424
f 18//425 20//426 4//427
f 16//428 18//429 4//430
f 14//431 16//432 4//433
f 12//434 14//435 4//436
f 10//437 12//438 4//439
f 8//440 10//441 4//442
f 6//443 8//444 4//445
f 4//446 3//447 6//448