o 
v 19.702614929199218 1 0.10325774536132812
v 21.47743599609375 1 0.406328916015625
v 21.47743599609375 0 0.406328916015625
v 19.702614929199218 0 0.10325774536132812
v 24.832756718749998 1 1.571699140625
v 24.832756718749998 0 1.571699140625
v 27.869082519531251 1 3.4156858886718751
v 27.869082519531251 0 3.4156858886718751
v 30.51453375 1 5.857864375
v 30.51453375 0 5.857864375
v 32.69723076171875 1 8.8178098144531241
v 32.69723076171875 0 8.8178098144531241
v 34.34529390625 1 12.215097421875
v 34.34529390625 0 12.215097421875
v 35.386843535156252 1 15.969302412109375
v 35.386843535156252 0 15.969302412109375
v 35.75 1 20
v 35.75 0 20
v 0 1 20
v 0 0 20
v 0.35977476515318363 1 15.987778589863282
v 0.35977476515318363 0 15.987778589863282
v 1.3921439930567188 1 12.248326492031252
v 1.3921439930567188 0 12.248326492031252
v 3.0264132180278325 1 8.8612906803710949
v 3.0264132180278325 0 8.8612906803710949
v 5.19188797438375 1 5.90631812875
v 5.19188797438375 0 5.90631812875
v 7.8178737964417 1 3.4630558110351566
v 7.8178737964417 0 3.4630558110351566
v 10.833676218518907 1 1.6111507010937503
v 10.833676218518907 0 1.6111507010937503
v 14.168600774932598 1 0.43024977279296878
v 14.168600774932598 0 0.43024977279296878
v 15.933641832989759 1 0.1163155560913086
v 15.933641832989759 0 0.1163155560913086
v 17.751953 1 0
v 17.751953 0 0
v 17.875 1 0
v 17.875 0 0
vn 0.40632891601562504 0 -3.6024359960937495
vn 1.4684413952636719 0 -5.13014178955078
vn 1.4684413952636719 0 -5.13014178955078
vn 0.40632891601562504 0 -3.6024359960937495
vn 1.4684413952636719 0 -5.13014178955078
vn 3.00935697265625 0 -6.3916465234375011
vn 3.00935697265625 0 -6.3916465234375011
vn 1.4684413952636719 0 -5.13014178955078
vn 3.00935697265625 0 -6.3916465234375011
vn 4.286165234375 0 -5.68177703125
vn 4.286165234375 0 -5.68177703125
vn 3.00935697265625 0 -6.3916465234375011
vn 4.286165234375 0 -5.68177703125
vn 5.4021239257812486 0 -4.8281482421874991
vn 5.4021239257812486 0 -4.8281482421874991
vn 4.286165234375 0 -5.68177703125
vn 5.4021239257812486 0 -4.8281482421874991
vn 6.3572330468750007 0 -3.8307601562500011
vn 6.3572330468750007 0 -3.8307601562500011
vn 5.4021239257812486 0 -4.8281482421874991
vn 6.3572330468750007 0 -3.8307601562500011
vn 7.1514925976562509 0 -2.6896127734375028
vn 7.1514925976562509 0 -2.6896127734375028
vn 6.3572330468750007 0 -3.8307601562500011
vn 7.1514925976562509 0 -2.6896127734375028
vn 7.7849025781249992 0 -1.4047060937500007
vn 7.7849025781249992 0 -1.4047060937500007
vn 7.1514925976562509 0 -2.6896127734375028
vn 7.7849025781249992 0 -1.4047060937500007
vn 11.045695 0 0
vn 11.045695 0 0
vn 7.7849025781249992 0 -1.4047060937500007
vn 0 0 35.75
vn 0 0 35.75
vn 0 0 35.75
vn 0 0 35.75
vn -10.9921522 0 0.00023276831
vn -7.7516735079687482 0 -1.392143993056719
vn -7.7516735079687482 0 -1.392143993056719
vn -10.9921522 0 0.00023276831
vn -7.7516735079687482 0 -1.392143993056719
vn -7.1264879094921874 0 -2.6666384528746487
vn -7.1264879094921874 0 -2.6666384528746487
vn -7.7516735079687482 0 -1.392143993056719
vn -7.1264879094921874 0 -2.6666384528746487
vn -6.3420083632812521 0 -3.7997439813270315
vn -6.3420083632812521 0 -3.7997439813270315
vn -7.1264879094921874 0 -2.6666384528746487
vn -6.3420083632812521 0 -3.7997439813270315
vn -5.3982348693359388 0 -4.7914605784138669
vn -5.3982348693359388 0 -4.7914605784138669
vn -6.3420083632812521 0 -3.7997439813270315
vn -5.3982348693359388 0 -4.7914605784138669
vn -4.2951674276562493 0 -5.6417882441351566
vn -4.2951674276562493 0 -5.6417882441351566
vn -5.3982348693359388 0 -4.7914605784138669
vn -4.2951674276562493 0 -5.6417882441351566
vn -3.032806038242188 0 -6.350726978490898
vn -3.032806038242188 0 -6.350726978490898
vn -4.2951674276562493 0 -5.6417882441351566
vn -3.032806038242188 0 -6.350726978490898
vn -1.4948351450024415 0 -5.0999656144708521
vn -1.4948351450024415 0 -5.0999656144708521
vn -3.032806038242188 0 -6.350726978490898
vn -1.4948351450024415 0 -5.0999656144708521
vn -0.43024977279296878 0 -3.5833522250674026
vn -0.43024977279296878 0 -3.5833522250674026
vn -1.4948351450024415 0 -5.0999656144708521
vn -0.43024977279296878 0 -3.5833522250674026
vn -0.07566721 0 -9.8240033000000011
vn -0.07566721 0 -9.8240033000000011
vn -0.43024977279296878 0 -3.5833522250674026
vn -0.00015795377 0 -0.041019999999999612
vn 0.00015795377 0 -0.041017000000000081
vn 0.00015795377 0 -0.041017000000000081
vn -0.00015795377 0 -0.041019999999999612
vn 0 0 -9.87209
vn 0.40632891601562504 0 -3.6024359960937495
vn 0.40632891601562504 0 -3.6024359960937495
vn 0 0 -9.87209
vn 0 1 0
vn 0 1 0
vn 0 1 0
vn 0 1 0
vn 0 1 0
vn 0 1 0
vn 0 1 0
vn 0 1 0
vn 0 1 0
vn 0 1 0
vn 0 1 0
vn 0 1 0
vn 0 1 0
vn 0 1 0
vn 0 1 0
vn 0 1 0
vn 0 1 0
vn 0 1 0
vn 0 1 0
vn 0 1 0
vn 0 1 0
vn 0 1 0
vn 0 1 0
vn 0 1 0
vn 0 1 0
vn 0 1 0
vn 0 1 0
vn 0 1 0
vn 0 1 0
vn 0 1 0
vn 0 1 0
vn 0 1 0
vn 0 1 0
vn 0 1 0
vn 0 1 0
vn 0 1 0
vn 0 1 0
vn 0 1 0
vn 0 1 0
vn 0 1 0
vn 0 1 0
vn 0 1 0
vn 0 1 0
vn 0 1 0
vn 0 1 0
vn 0 1 0
vn 0 1 0
vn 0 1 0
vn 0 1 0
vn 0 1 0
vn 0 1 0
vn 0 1 0
vn 0 1 0
vn 0 1 0
vn 0 -1 0
vn 0 -1 0
vn 0 -1 0
vn 0 -1 0
vn 0 -1 0
vn 0 -1 0
vn 0 -1 0
vn 0 -1 0
vn 0 -1 0
vn 0 -1 0
vn 0 -1 0
vn 0 -1 0
vn 0 -1 0
vn 0 -1 0
vn 0 -1 0
vn 0 -1 0
vn 0 -1 0
vn 0 -1 0
vn 0 -1 0
vn 0 -1 0
vn 0 -1 0
vn 0 -1 0
vn 0 -1 0
vn 0 -1 0
vn 0 -1 0
vn 0 -1 0
vn 0 -1 0
vn 0 -1 0
vn 0 -1 0
vn 0 -1 0
vn 0 -1 0
vn 0 -1 0
vn 0 -1 0
vn 0 -1 0
vn 0 -1 0
vn 0 -1 0
vn 0 -1 0
vn 0 -1 0
vn 0 -1 0
vn 0 -1 0
vn 0 -1 0
vn 0 -1 0
vn 0 -1 0
vn 0 -1 0
vn 0 -1 0
vn 0 -1 0
vn 0 -1 0
vn 0 -1 0
vn 0 -1 0
vn 0 -1 0
vn 0 -1 0
vn 0 -1 0
vn 0 -1 0
vn 0 -1 0

g 
f 1//1 2//2 3//3 4//4
f 2//5 5//6 6//7 3//8
f 5//9 7//10 8//11 6//12
f 7//13 9//14 10//15 8//16
f 9//17 11//18 12//19 10//20
f 11//21 13//22 14//23 12//24
f 13//25 15//26 16//27 14//28
f 15//29 17//30 18//31 16//32
f 17//33 19//34 20//35 18//36
f 19//37 21//38 22//39 20//40
f 21//41 23//42 24//43 22//44
f 23//45 25//46 26//47 24//48
f 25//49 27//50 28//51 26//52
f 27//53 29//54 30//55 28//56
f 29//57 31//58 32//59 30//60
f 31//61 33//62 34//63 32//64
f 33//65 35//66 36//67 34//68
f 35//69 37//70 38//71 36//72
f 37//73 39//74 40//75 38//76
f 39//77 1//78 4//79 40//80
f 1//81 39//82 37//83
f 1//84 37//85 35//86
f 1//87 35//88 33//89
f 1//90 33//91 31//92
f 1//93 31//94 29//95
f 1//96 29//97 27//98
f 1//99 27//100 25//101
f 1//102 25//103 23//104
f 1//105 23//106 21//107
f 1//108 21//109 19//110
f 1//111 19//112 17//113
f 1//114 17//115 15//116
f 1//117 15//118 13//119
f 1//120 13//121 11//122
f 1//123 11//124 9//125
f 1//126 9//127 7//128
f 1//129 7//130 5//131
f 5//132 2//133 1//134
f 38//135 40//136 4//137
f 36//138 38//139 4//140
f 34//141 36//142 4//143
f 32//144 34//145 4//146
f 30//147 32//148 4//149
f 28//150 30//151 4//152
f 26//153 28//154 4//155
f 24//156 26//157 4//158
f 22//159 24//160 4//161
f 20//162 22//163 4//164
f 18//165 20//166 4//167
f 16//168 18//169 4//170
f 14//171 16//172 4//173
f 12//174 14//175 4//176
f 10//177 12//178 4//179
f 8//180 10//181 4//182
f 6//183 8//184 4//185
f 4//186 3//187 6//188