o 
v 34 1 17
v 0.054687999999998738 1 17
v 0.054687999999998738 0 17
v 34 0 17
v -2.3780488124999977 1 13.776065249999995
v -2.3780488124999977 0 13.776065249999995
v -5.2472507499999992 1 11.112454000000007
v -5.2472507499999992 0 11.112454000000007
v -8.4806200624999946 1 9.0649789999999939
v -8.4806200624999946 0 9.0649789999999939
v -12.005859000000001 1 7.689453
v -12.005859000000001 0 7.689453
v -12 1 7.2148439999999994
v -12 0 7.2148439999999994
v -12.113535372314452 1 4.7390317077636723
v -12.113535372314452 0 4.7390317077636723
v -12.44687360351562 1 2.3347341933593739
v -12.44687360351562 0 2.3347341933593739
v -12.988955927490238 1 0.014123562744142504
v -12.988955927490238 0 0.014123562744142504
v -13.728723578124999 1 -2.2106280781249978
v -13.728723578124999 0 -2.2106280781249978
v -14.655117789306637 1 -4.3273486232910159
v -14.655117789306637 0 -4.3273486232910159
v -15.757079794921879 1 -6.3238659667968733
v -15.757079794921879 0 -6.3238659667968733
v -17.023550828857424 1 -8.18800800268555
v -17.023550828857424 0 -8.18800800268555
v -18.443472125 1 -9.9076026249999991
v -18.443472125 0 -9.9076026249999991
v -20.005784917236326 1 -11.470477727783205
v -20.005784917236326 0 -11.470477727783205
v -21.699430439453124 1 -12.864461205078126
v -21.699430439453124 0 -12.864461205078126
v -23.513349925537113 1 -14.077380950927733
v -23.513349925537113 0 -14.077380950927733
v -25.436484609375 1 -15.097064859375
v -25.436484609375 0 -15.097064859375
v -27.457775724853519 1 -15.91134082446289
v -27.457775724853519 0 -15.91134082446289
v -29.566164505859376 1 -16.508036740234374
v -29.566164505859376 0 -16.508036740234374
v -31.7505921862793 1 -16.87498050073242
v -31.7505921862793 0 -16.87498050073242
v -34 1 -17
v -34 0 -17
v 34 1 -17
v 34 0 -17
vn 0 0 33.945312
vn 0 0 33.945312
vn 0 0 33.945312
vn 0 0 33.945312
vn -4.647323 0 2.9205399999999955
vn -5.8875459999999933 0 5.3019387499999979
vn -5.8875459999999933 0 5.3019387499999979
vn -4.647323 0 2.9205399999999955
vn -5.8875459999999933 0 5.3019387499999979
vn -4.711086250000001 0 6.1025712499999969
vn -4.711086250000001 0 6.1025712499999969
vn -5.8875459999999933 0 5.3019387499999979
vn -4.711086250000001 0 6.1025712499999969
vn -3.4230010000000064 0 6.7586082500000018
vn -3.4230010000000064 0 6.7586082500000018
vn -4.711086250000001 0 6.1025712499999969
vn -3.4230010000000064 0 6.7586082500000018
vn -1.361263000000001 0 4.8627660000000006
vn -1.361263000000001 0 4.8627660000000006
vn -3.4230010000000064 0 6.7586082500000018
vn -0.15817799999999949 0 -0.0033620000000027517
vn -0.15822000000000003 0 -0.00054399999999787951
vn -0.15822000000000003 0 -0.00054399999999787951
vn -0.15817799999999949 0 -0.0033620000000027517
vn -13.373399 0 -0.00027899999999903
vn -4.8801098066406254 0 0.44687360351561978
vn -4.8801098066406254 0 0.44687360351561978
vn -13.373399 0 -0.00027899999999903
vn -4.8801098066406254 0 0.44687360351561978
vn -4.72490814501953 0 0.87542055517578632
vn -4.72490814501953 0 0.87542055517578632
vn -4.8801098066406254 0 0.44687360351561978
vn -4.72490814501953 0 0.87542055517578632
vn -4.5453622714843718 0 1.2818499746093792
vn -4.5453622714843718 0 1.2818499746093792
vn -4.72490814501953 0 0.87542055517578632
vn -4.5453622714843718 0 1.2818499746093792
vn -4.3414721860351584 0 1.6661618618163985
vn -4.3414721860351584 0 1.6661618618163985
vn -4.5453622714843718 0 1.2818499746093792
vn -4.3414721860351584 0 1.6661618618163985
vn -4.1132378886718755 0 2.0283562167968796
vn -4.1132378886718755 0 2.0283562167968796
vn -4.3414721860351584 0 1.6661618618163985
vn -4.1132378886718755 0 2.0283562167968796
vn -3.8606593793945336 0 2.3684330395507871
vn -3.8606593793945336 0 2.3684330395507871
vn -4.1132378886718755 0 2.0283562167968796
vn -3.8606593793945336 0 2.3684330395507871
vn -3.5837366582031258 0 2.6863923300781209
vn -3.5837366582031258 0 2.6863923300781209
vn -3.8606593793945336 0 2.3684330395507871
vn -3.5837366582031258 0 2.6863923300781209
vn -3.2824697250976556 0 2.9822340883789025
vn -3.2824697250976556 0 2.9822340883789025
vn -3.5837366582031258 0 2.6863923300781209
vn -3.2824697250976556 0 2.9822340883789025
vn -2.9568585800781264 0 3.2559583144531246
vn -2.9568585800781264 0 3.2559583144531246
vn -3.2824697250976556 0 2.9822340883789025
vn -2.9568585800781264 0 3.2559583144531246
vn -2.6069032231445277 0 3.5075650083007872
vn -2.6069032231445277 0 3.5075650083007872
vn -2.9568585800781264 0 3.2559583144531246
vn -2.6069032231445277 0 3.5075650083007872
vn -2.2326036542968737 0 3.7370541699218762
vn -2.2326036542968737 0 3.7370541699218762
vn -2.6069032231445277 0 3.5075650083007872
vn -2.2326036542968737 0 3.7370541699218762
vn -1.8339598735351572 0 3.9444257993164058
vn -1.8339598735351572 0 3.9444257993164058
vn -2.2326036542968737 0 3.7370541699218762
vn -1.8339598735351572 0 3.9444257993164058
vn -1.4109718808593748 0 4.1296798964843759
vn -1.4109718808593748 0 4.1296798964843759
vn -1.8339598735351572 0 3.9444257993164058
vn -1.4109718808593748 0 4.1296798964843759
vn -0.96363967626953162 0 4.2928164614257796
vn -0.96363967626953162 0 4.2928164614257796
vn -1.4109718808593748 0 4.1296798964843759
vn -0.96363967626953162 0 4.2928164614257796
vn -0.49196325976562605 0 4.4338354941406237
vn -0.49196325976562605 0 4.4338354941406237
vn -0.96363967626953162 0 4.2928164614257796
vn -0.49196325976562605 0 4.4338354941406237
vn 0 0 12.150461999999997
vn 0 0 12.150461999999997
vn -0.49196325976562605 0 4.4338354941406237
vn 0 0 -68
vn 0 0 -68
vn 0 0 -68
vn 0 0 -68
vn 34 0 0
vn 34 0 0
vn 34 0 0
vn 34 0 0
vn 0 1 0
vn 0 1 0
vn 0 1 0
vn 0 1 0
vn 0 1 0
vn 0 1 0
vn 0 1 0
vn 0 1 0
vn 0 1 0
vn 0 1 0
vn 0 1 0
vn 0 1 0
vn 0 1 0
vn 0 1 0
vn 0 1 0
vn 0 1 0
vn 0 1 0
vn 0 1 0
vn 0 1 0
vn 0 1 0
vn 0 1 0
vn 0 1 0
vn 0 1 0
vn 0 1 0
vn 0 1 0
vn 0 1 0
vn 0 1 0
vn 0 1 0
vn 0 1 0
vn 0 1 0
vn 0 1 0
vn 0 1 0
vn 0 1 0
vn 0 1 0
vn 0 1 0
vn 0 1 0
vn 0 1 0
vn 0 1 0
vn 0 1 0
vn 0 1 0
vn 0 1 0
vn 0 1 0
vn 0 1 0
vn 0 1 0
vn 0 1 0
vn 0 1 0
vn 0 1 0
vn 0 1 0
vn 0 1 0
vn 0 1 0
vn 0 1 0
vn 0 1 0
vn 0 1 0
vn 0 1 0
vn 0 1 0
vn 0 1 0
vn 0 1 0
vn 0 1 0
vn 0 1 0
vn 0 1 0
vn 0 1 0
vn 0 1 0
vn 0 1 0
vn 0 1 0
vn 0 1 0
vn 0 1 0
vn 0 -1 0
vn 0 -1 0
vn 0 -1 0
vn 0 -1 0
vn 0 -1 0
vn 0 -1 0
vn 0 -1 0
vn 0 -1 0
vn 0 -1 0
vn 0 -1 0
vn 0 -1 0
vn 0 -1 0
vn 0 -1 0
vn 0 -1 0
vn 0 -1 0
vn 0 -1 0
vn 0 -1 0
vn 0 -1 0
vn 0 -1 0
vn 0 -1 0
vn 0 -1 0
vn 0 -1 0
vn 0 -1 0
vn 0 -1 0
vn 0 -1 0
vn 0 -1 0
vn 0 -1 0
vn 0 -1 0
vn 0 -1 0
vn 0 -1 0
vn 0 -1 0
vn 0 -1 0
vn 0 -1 0
vn 0 -1 0
vn 0 -1 0
vn 0 -1 0
vn 0 -1 0
vn 0 -1 0
vn 0 -1 0
vn 0 -1 0
vn 0 -1 0
vn 0 -1 0
vn 0 -1 0
vn 0 -1 0
vn 0 -1 0
vn 0 -1 0
vn 0 -1 0
vn 0 -1 0
vn 0 -1 0
vn 0 -1 0
vn 0 -1 0
vn 0 -1 0
vn 0 -1 0
vn 0 -1 0
vn 0 -1 0
vn 0 -1 0
vn 0 -1 0
vn 0 -1 0
vn 0 -1 0
vn 0 -1 0
vn 0 -1 0
vn 0 -1 0
vn 0 -1 0
vn 0 -1 0
vn 0 -1 0
vn 0 -1 0

g 
f 1//1 2//2 3//3 4//4
f 2//5 5//6 6//7 3//8
f 5//9 7//10 8//11 6//12
f 7//13 9//14 10//15 8//16
f 9//17 11//18 12//19 10//20
f 11//21 13//22 14//23 12//24
f 13//25 15//26 16//27 14//28
f 15//29 17//30 18//31 16//32
f 17//33 19//34 20//35 18//36
f 19//37 21//38 22//39 20//40
f 21//41 23//42 24//43 22//44
f 23//45 25//46 26//47 24//48
f 25//49 27//50 28//51 26//52
f 27//53 29//54 30//55 28//56
f 29//57 31//58 32//59 30//60
f 31//61 33//62 34//63 32//64
f 33//65 35//66 36//67 34//68
f 35//69 37//70 38//71 36//72
f 37//73 39//74 40//75 38//76
f 39//77 41//78 42//79 40//80
f 41//81 43//82 44//83 42//84
f 43//85 45//86 46//87 44//88
f 45//89 47//90 48//91 46//92
f 47//93 1//94 4//95 48//96
f 47//97 45//98 43//99
f 47//100 43//101 41//102
f 47//103 41//104 39//105
f 47//106 39//107 37//108
f 47//109 37//110 35//111
f 1//112 47//113 35//114
f 1//115 35//116 33//117
f 1//118 33//119 31//120
f 1//121 31//122 29//123
f 1//124 29//125 27//126
f 1//127 27//128 25//129
f 1//130 25//131 23//132
f 1//133 23//134 21//135
f 1//136 21//137 19//138
f 1//139 19//140 17//141
f 1//142 17//143 15//144
f 1//145 15//146 13//147
f 1//148 13//149 11//150
f 1//151 11//152 9//153
f 1//154 9//155 7//156
f 1//157 7//158 5//159
f 5//160 2//161 1//162
f 44//163 46//164 48//165
f 42//166 44//167 48//168
f 40//169 42//170 48//171
f 38//172 40//173 48//174
f 36//175 38//176 48//177
f 36//178 48//179 4//180
f 34//181 36//182 4//183
f 32//184 34//185 4//186
f 30//187 32//188 4//189
f 28//190 30//191 4//192
f 26//193 28//194 4//195
f 24//196 26//197 4//198
f 22//199 24//200 4//201
f 20//202 22//203 4//204
f 18//205 20//206 4//207
f 16//208 18//209 4//210
f 14//211 16//212 4//213
f 12//214 14//215 4//216
f 10//217 12//218 4//219
f 8//220 10//221 4//222
f 6//223 8//224 4//225
f 4//226 3//227 6//228