o 
v 24.980125926757811 1 73.079852785644533
v 26.209084273437504 1 76.217626191406254
v 26.209084273437504 0 76.217626191406254
v 24.980125926757811 0 73.079852785644533
v 27.662591202148437 1 79.207546290527347
v 27.662591202148437 0 79.207546290527347
v 29.328219875 1 82.03945515625
v 29.328219875 0 82.03945515625
v 31.193543454101562 1 84.7031948618164
v 31.193543454101562 0 84.7031948618164
v 33.2461351015625 1 87.188607480468747
v 33.2461351015625 0 87.188607480468747
v 35.473567979492188 1 89.485535085449214
v 35.473567979492188 0 89.485535085449214
v 37.86341525 1 91.58381975
v 37.86341525 0 91.58381975
v 40.403250075195317 1 93.473303547363287
v 40.403250075195317 0 93.473303547363287
v 43.0806456171875 1 95.143828550781251
v 43.0806456171875 0 95.143828550781251
v 45.883175038085938 1 96.585236833496083
v 45.883175038085938 0 96.585236833496083
v 48.7984115 1 97.78737046875
v 48.7984115 0 97.78737046875
v 51.813928165039059 1 98.740071529785155
v 51.813928165039059 0 98.740071529785155
v 54.9172981953125 1 99.43318208984374
v 54.9172981953125 0 99.43318208984374
v 58.096094752929687 1 99.856544222167969
v 58.096094752929687 0 99.856544222167969
v 61.337891 1 100
v 61.337891 0 100
v 12.583984 1 100
v 12.583984 0 100
v 13.855686279296874 1 99.875295784912112
v 13.855686279296874 0 99.875295784912112
v 15.090144625 1 99.538095216796876
v 15.090144625 0 99.538095216796876
v 17.4226013125 1 98.269025234375007
v 17.4226013125 0 98.269025234375007
v 19.53189765625 1 96.278430478515617
v 19.53189765625 0 96.278430478515617
v 21.36857725 1 93.651951375
v 21.36857725 0 93.651951375
v 22.8831836875 1 90.475228349609367
v 22.8831836875 0 90.475228349609367
v 24.0262605625 1 86.833901828125
v 24.0262605625 0 86.833901828125
v 24.748351468750002 1 82.813612236328126
v 24.748351468750002 0 82.813612236328126
v 25 1 78.5
v 25 0 78.5
v 24.737803875 1 74.0647735
v 24.737803875 0 74.0647735
v 23.988143 1 69.804384
v 23.988143 0 69.804384
vn 6.4132421914062547 0 -2.2209412734375036
vn 6.1276935048828136 0 -2.6824652753906264
vn 6.1276935048828136 0 -2.6824652753906264
vn 6.4132421914062547 0 -2.2209412734375036
vn 6.1276935048828136 0 -2.6824652753906264
vn 5.8218289648437462 0 -3.119135601562494
vn 5.8218289648437462 0 -3.119135601562494
vn 6.1276935048828136 0 -2.6824652753906264
vn 5.8218289648437462 0 -3.119135601562494
vn 5.4956485712890526 0 -3.5309522519531242
vn 5.4956485712890526 0 -3.5309522519531242
vn 5.8218289648437462 0 -3.119135601562494
vn 5.4956485712890526 0 -3.5309522519531242
vn 5.1491523242187469 0 -3.9179152265625028
vn 5.1491523242187469 0 -3.9179152265625028
vn 5.4956485712890526 0 -3.5309522519531242
vn 5.1491523242187469 0 -3.9179152265625028
vn 4.782340223632815 0 -4.2800245253906262
vn 4.782340223632815 0 -4.2800245253906262
vn 5.1491523242187469 0 -3.9179152265625028
vn 4.782340223632815 0 -4.2800245253906262
vn 4.3952122695312568 0 -4.6172801484375015
vn 4.3952122695312568 0 -4.6172801484375015
vn 4.782340223632815 0 -4.2800245253906262
vn 4.3952122695312568 0 -4.6172801484375015
vn 3.9877684619140723 0 -4.9296820957031287
vn 3.9877684619140723 0 -4.9296820957031287
vn 4.3952122695312568 0 -4.6172801484375015
vn 3.9877684619140723 0 -4.9296820957031287
vn 3.5600088007812474 0 -5.2172303671874971
vn 3.5600088007812474 0 -5.2172303671874971
vn 3.9877684619140723 0 -4.9296820957031287
vn 3.5600088007812474 0 -5.2172303671874971
vn 3.1119332861327962 0 -5.479924962890621
vn 3.1119332861327962 0 -5.479924962890621
vn 3.5600088007812474 0 -5.2172303671874971
vn 3.1119332861327962 0 -5.479924962890621
vn 2.6435419179687472 0 -5.7177658828125
vn 2.6435419179687472 0 -5.7177658828125
vn 3.1119332861327962 0 -5.479924962890621
vn 2.6435419179687472 0 -5.7177658828125
vn 2.1548346962890719 0 -5.9307531269531211
vn 2.1548346962890719 0 -5.9307531269531211
vn 2.6435419179687472 0 -5.7177658828125
vn 2.1548346962890719 0 -5.9307531269531211
vn 1.6458116210937419 0 -6.1188866953124972
vn 1.6458116210937419 0 -6.1188866953124972
vn 2.1548346962890719 0 -5.9307531269531211
vn 1.6458116210937419 0 -6.1188866953124972
vn 1.1164726923828141 0 -6.2821665878906288
vn 1.1164726923828141 0 -6.2821665878906288
vn 1.6458116210937419 0 -6.1188866953124972
vn 1.1164726923828141 0 -6.2821665878906288
vn 0.56681791015626 0 -6.4205928046875016
vn 0.56681791015626 0 -6.4205928046875016
vn 1.1164726923828141 0 -6.2821665878906288
vn 0.56681791015626 0 -6.4205928046875016
vn 0.00062200000000700584 0 -17.435487000000002
vn 0.00062200000000700584 0 -17.435487000000002
vn 0.56681791015626 0 -6.4205928046875016
vn 0 0 48.753907
vn 0 0 48.753907
vn 0 0 48.753907
vn 0 0 48.753907
vn -0.079401000000004274 0 -6.8707390000000022
vn -0.46190478320312423 0 -2.5061606250000015
vn -0.46190478320312423 0 -2.5061606250000015
vn -0.079401000000004274 0 -6.8707390000000022
vn -0.46190478320312423 0 -2.5061606250000015
vn -1.6062705505371042 0 -3.5669150332031254
vn -1.6062705505371042 0 -3.5669150332031254
vn -0.46190478320312423 0 -2.5061606250000015
vn -1.6062705505371042 0 -3.5669150332031254
vn -3.2596647382812591 0 -4.4417530312499984
vn -3.2596647382812591 0 -4.4417530312499984
vn -1.6062705505371042 0 -3.5669150332031254
vn -3.2596647382812591 0 -4.4417530312499984
vn -4.6170738593750116 0 -3.9459759375000019
vn -4.6170738593750116 0 -3.9459759375000019
vn -3.2596647382812591 0 -4.4417530312499984
vn -4.6170738593750116 0 -3.9459759375000019
vn -5.80320212890625 0 -3.3512860312500017
vn -5.80320212890625 0 -3.3512860312500017
vn -4.6170738593750116 0 -3.9459759375000019
vn -5.80320212890625 0 -3.3512860312500017
vn -6.8180495468750024 0 -2.6576833124999979
vn -6.8180495468750024 0 -2.6576833124999979
vn -5.80320212890625 0 -3.3512860312500017
vn -6.8180495468750024 0 -2.6576833124999979
vn -7.6616161132812408 0 -1.8651677812500012
vn -7.6616161132812408 0 -1.8651677812500012
vn -6.8180495468750024 0 -2.6576833124999979
vn -7.6616161132812408 0 -1.8651677812500012
vn -8.3339018281249935 0 -0.9737394375000008
vn -8.3339018281249935 0 -0.9737394375000008
vn -7.6616161132812408 0 -1.8651677812500012
vn -8.3339018281249935 0 -0.9737394375000008
vn -11.817937999999998 0 0.00015499999999946112
vn -11.817937999999998 0 0.00015499999999946112
vn -8.3339018281249935 0 -0.9737394375000008
vn -2.9871700000000061 0 0
vn -8.6956160000000011 0 1.0118569999999991
vn -8.6956160000000011 0 1.0118569999999991
vn -2.9871700000000061 0 0
vn -8.6956160000000011 0 1.0118569999999991
vn -2.7540539999999964 0 0.649953
vn -2.7540539999999964 0 0.649953
vn -8.6956160000000011 0 1.0118569999999991
vn 17.818296000000004 0 -4.6365489999999987
vn 6.4132421914062547 0 -2.2209412734375036
vn 6.4132421914062547 0 -2.2209412734375036
vn 17.818296000000004 0 -4.6365489999999987
vn 0 1 0
vn 0 1 0
vn 0 1 0
vn 0 1 0
vn 0 1 0
vn 0 1 0
vn 0 1 0
vn 0 1 0
vn 0 1 0
vn 0 1 0
vn 0 1 0
vn 0 1 0
vn 0 1 0
vn 0 1 0
vn 0 1 0
vn 0 1 0
vn 0 1 0
vn 0 1 0
vn 0 1 0
vn 0 1 0
vn 0 1 0
vn 0 1 0
vn 0 1 0
vn 0 1 0
vn 0 1 0
vn 0 1 0
vn 0 1 0
vn 0 1 0
vn 0 1 0
vn 0 1 0
vn 0 1 0
vn 0 1 0
vn 0 1 0
vn 0 1 0
vn 0 1 0
vn 0 1 0
vn 0 1 0
vn 0 1 0
vn 0 1 0
vn 0 1 0
vn 0 1 0
vn 0 1 0
vn 0 1 0
vn 0 1 0
vn 0 1 0
vn 0 1 0
vn 0 1 0
vn 0 1 0
vn 0 1 0
vn 0 1 0
vn 0 1 0
vn 0 1 0
vn 0 1 0
vn 0 1 0
vn 0 1 0
vn 0 1 0
vn 0 1 0
vn 0 1 0
vn 0 1 0
vn 0 1 0
vn 0 1 0
vn 0 1 0
vn 0 1 0
vn 0 1 0
vn 0 1 0
vn 0 1 0
vn 0 1 0
vn 0 1 0
vn 0 1 0
vn 0 1 0
vn 0 1 0
vn 0 1 0
vn 0 1 0
vn 0 1 0
vn 0 1 0
vn 0 1 0
vn 0 1 0
vn 0 1 0
vn 0 -1 0
vn 0 -1 0
vn 0 -1 0
vn 0 -1 0
vn 0 -1 0
vn 0 -1 0
vn 0 -1 0
vn 0 -1 0
vn 0 -1 0
vn 0 -1 0
vn 0 -1 0
vn 0 -1 0
vn 0 -1 0
vn 0 -1 0
vn 0 -1 0
vn 0 -1 0
vn 0 -1 0
vn 0 -1 0
vn 0 -1 0
vn 0 -1 0
vn 0 -1 0
vn 0 -1 0
vn 0 -1 0
vn 0 -1 0
vn 0 -1 0
vn 0 -1 0
vn 0 -1 0
vn 0 -1 0
vn 0 -1 0
vn 0 -1 0
vn 0 -1 0
vn 0 -1 0
vn 0 -1 0
vn 0 -1 0
vn 0 -1 0
vn 0 -1 0
vn 0 -1 0
vn 0 -1 0
vn 0 -1 0
vn 0 -1 0
vn 0 -1 0
vn 0 -1 0
vn 0 -1 0
vn 0 -1 0
vn 0 -1 0
vn 0 -1 0
vn 0 -1 0
vn 0 -1 0
vn 0 -1 0
vn 0 -1 0
vn 0 -1 0
vn 0 -1 0
vn 0 -1 0
vn 0 -1 0
vn 0 -1 0
vn 0 -1 0
vn 0 -1 0
vn 0 -1 0
vn 0 -1 0
vn 0 -1 0
vn 0 -1 0
vn 0 -1 0
vn 0 -1 0
vn 0 -1 0
vn 0 -1 0
vn 0 -1 0
vn 0 -1 0
vn 0 -1 0
vn 0 -1 0
vn 0 -1 0
vn 0 -1 0
vn 0 -1 0
vn 0 -1 0
vn 0 -1 0
vn 0 -1 0
vn 0 -1 0
vn 0 -1 0
vn 0 -1 0

g 
f 1//1 2//2 3//3 4//4
f 2//5 5//6 6//7 3//8
f 5//9 7//10 8//11 6//12
f 7//13 9//14 10//15 8//16
f 9//17 11//18 12//19 10//20
f 11//21 13//22 14//23 12//24
f 13//25 15//26 16//27 14//28
f 15//29 17//30 18//31 16//32
f 17//33 19//34 20//35 18//36
f 19//37 21//38 22//39 20//40
f 21//41 23//42 24//43 22//44
f 23//45 25//46 26//47 24//48
f 25//49 27//50 28//51 26//52
f 27//53 29//54 30//55 28//56
f 29//57 31//58 32//59 30//60
f 31//61 33//62 34//63 32//64
f 33//65 35//66 36//67 34//68
f 35//69 37//70 38//71 36//72
f 37//73 39//74 40//75 38//76
f 39//77 41//78 42//79 40//80
f 41//81 43//82 44//83 42//84
f 43//85 45//86 46//87 44//88
f 45//89 47//90 48//91 46//92
f 47//93 49//94 50//95 48//96
f 49//97 51//98 52//99 50//100
f 51//101 53//102 54//103 52//104
f 53//105 55//106 56//107 54//108
f 55//109 1//110 4//111 56//112
f 1//113 55//114 53//115
f 1//116 53//117 51//118
f 35//119 33//120 31//121
f 37//122 35//123 31//124
f 39//125 37//126 31//127
f 39//128 31//129 29//130
f 41//131 39//132 29//133
f 41//134 29//135 27//136
f 43//137 41//138 27//139
f 43//140 27//141 25//142
f 45//143 43//144 25//145
f 45//146 25//147 23//148
f 45//149 23//150 21//151
f 47//152 45//153 21//154
f 47//155 21//156 19//157
f 47//158 19//159 17//160
f 49//161 47//162 17//163
f 49//164 17//165 15//166
f 49//167 15//168 13//169
f 49//170 13//171 11//172
f 51//173 49//174 11//175
f 51//176 11//177 9//178
f 51//179 9//180 7//181
f 51//182 7//183 5//184
f 51//185 5//186 2//187
f 51//188 2//189 1//190
f 54//191 56//192 4//193
f 52//194 54//195 4//196
f 32//197 34//198 36//199
f 32//200 36//201 38//202
f 32//203 38//204 40//205
f 30//206 32//207 40//208
f 30//209 40//210 42//211
f 28//212 30//213 42//214
f 28//215 42//216 44//217
f 26//218 28//219 44//220
f 26//221 44//222 46//223
f 24//224 26//225 46//226
f 22//227 24//228 46//229
f 22//230 46//231 48//232
f 20//233 22//234 48//235
f 18//236 20//237 48//238
f 18//239 48//240 50//241
f 16//242 18//243 50//244
f 14//245 16//246 50//247
f 12//248 14//249 50//250
f 12//251 50//252 52//253
f 10//254 12//255 52//256
f 8//257 10//258 52//259
f 6//260 8//261 52//262
f 3//263 6//264 52//265
f 4//266 3//267 52//268