o 
v 18.753054937499996 1 -15.797785578125001
v 19.988883 1 -12.353919375000004
v 19.988883 0 -12.353919375000004
v 18.753054937499996 0 -15.797785578125001
v 20.743941562499998 1 -8.7330934843749972
v 20.743941562499998 0 -8.7330934843749972
v 21 1 -5
v 21 0 -5
v 20.891579370117185 1 -2.5461394165039053
v 20.891579370117185 0 -2.5461394165039053
v 20.5733546484375 1 -0.16316289453125421
v 20.5733546484375 0 -0.16316289453125421
v 20.055881586914069 1 2.1368658481445379
v 20.055881586914069 0 2.1368658481445379
v 19.349715937499994 1 4.341883093749999
v 19.349715937499994 0 4.341883093749999
v 18.465413452148439 1 6.4398251245117137
v 18.465413452148439 0 6.4398251245117137
v 17.413529882812497 1 8.4186282226562525
v 17.413529882812497 0 8.4186282226562525
v 16.204620981445316 1 10.266228670410158
v 16.204620981445316 0 10.266228670410158
v 14.849242500000003 1 11.97056275
v 14.849242500000003 0 11.97056275
v 13.357950190429691 1 13.519566743652348
v 13.357950190429691 0 13.519566743652348
v 11.7412998046875 1 14.901176933593746
v 11.7412998046875 0 14.901176933593746
v 10.009847094726567 1 16.103329602050778
v 10.009847094726567 0 16.103329602050778
v 8.1741478124999958 1 17.11396103125
v 8.1741478124999958 0 17.11396103125
v 6.2447577099609362 1 17.921007503417968
v 6.2447577099609362 0 17.921007503417968
v 4.2322325390625011 1 18.512405300781253
v 4.2322325390625011 0 18.512405300781253
v 2.1471280517578109 1 18.876090705566412
v 2.1471280517578109 0 18.876090705566412
v 0 1 19
v 0 0 19
v -2.145684514160159 1 18.876254345214846
v -2.145684514160159 0 18.876254345214846
v -4.229469972656247 1 18.513038667968743
v -4.229469972656247 0 18.513038667968743
v -6.2408151870117194 1 17.922388273925776
v -6.2408151870117194 0 17.922388273925776
v -8.1691789687500034 1 17.11633846875
v -8.1691789687500034 0 17.11633846875
v -10.004020129394526 1 16.106924558105476
v -10.004020129394526 0 16.106924558105476
v -11.73479748046875 1 14.906181847656256
v -11.73479748046875 0 14.906181847656256
v -13.350969833496095 1 13.526145643066414
v -13.350969833496095 0 13.526145643066414
v -14.841996000000002 1 11.978851249999991
v -14.841996000000002 0 11.978851249999991
v -16.197334791503906 1 10.276333974121087
v -16.197334791503906 0 10.276333974121087
v -17.406445019531251 1 8.4306291210937587
v -17.406445019531251 0 8.4306291210937587
v -18.458785495605468 1 6.4537719965820344
v -18.458785495605468 0 6.4537719965820344
v -19.34381503125 1 4.3577979062499992
v -19.34381503125 0 4.3577979062499992
v -20.050992437988281 1 2.1547421557617241
v -20.050992437988281 0 2.1547421557617241
v -20.569776527343748 1 -0.14335994921874828
v -20.569776527343748 0 -0.14335994921874828
v -20.889626110839842 1 -2.5244731030273471
v -20.889626110839842 0 -2.5244731030273471
v -21 1 -4.9765620000000013
v -21 0 -4.9765620000000013
v -19.008401125 1 -4.673723875
v -19.008401125 0 -4.673723875
v -17 1 -4.5722659999999991
v -17 0 -4.5722659999999991
v -13.778633126953125 1 -4.83250095117188
v -13.778633126953125 0 -4.83250095117188
v -10.675784078124998 1 -5.5933062343749924
v -10.675784078124998 0 -5.5933062343749924
v -7.7330490839843762 1 -6.8248583691406211
v -7.7330490839843762 0 -6.8248583691406211
v -4.9920243750000068 1 -8.4973338749999954
v -4.9920243750000068 0 -8.4973338749999954
v -2.4943061816406313 1 -10.580909271484373
v -2.4943061816406313 0 -10.580909271484373
v -0.28149073437499794 1 -13.045761078124997
v -0.28149073437499794 0 -13.045761078124997
v 1.6048257363281238 1 -15.862065814453125
v 1.6048257363281238 0 -15.862065814453125
v 3.1230469999999997 1 -19
v 3.1230469999999997 0 -19
v 17.054688 1 -19
v 17.054688 0 -19
vn 6.6460806249999962 0 -2.9341950000000026
vn 7.0646920937500042 0 -1.9908866250000017
vn 7.0646920937500042 0 -1.9908866250000017
vn 6.6460806249999962 0 -2.9341950000000026
vn 7.0646920937500042 0 -1.9908866250000017
vn 7.3539193750000038 0 -1.0111169999999987
vn 7.3539193750000038 0 -1.0111169999999987
vn 7.0646920937500042 0 -1.9908866250000017
vn 7.3539193750000038 0 -1.0111169999999987
vn 5.0235509999999977 0 -0.00064199999999914326
vn 5.0235509999999977 0 -0.00064199999999914326
vn 7.3539193750000038 0 -1.0111169999999987
vn 13.254834000000002 0 0
vn 4.8368371054687458 0 0.42664535156249883
vn 4.8368371054687458 0 0.42664535156249883
vn 13.254834000000002 0 0
vn 4.8368371054687458 0 0.42664535156249883
vn 4.6830052646484432 0 0.83569778320311627
vn 4.6830052646484432 0 0.83569778320311627
vn 4.8368371054687458 0 0.42664535156249883
vn 4.6830052646484432 0 0.83569778320311627
vn 4.5050459882812532 0 1.2236387109375073
vn 4.5050459882812532 0 1.2236387109375073
vn 4.6830052646484432 0 0.83569778320311627
vn 4.5050459882812532 0 1.2236387109375073
vn 4.3029592763671758 0 1.5904681347656293
vn 4.3029592763671758 0 1.5904681347656293
vn 4.5050459882812532 0 1.2236387109375073
vn 4.3029592763671758 0 1.5904681347656293
vn 4.0767451289062535 0 1.9361860546874965
vn 4.0767451289062535 0 1.9361860546874965
vn 4.3029592763671758 0 1.5904681347656293
vn 4.0767451289062535 0 1.9361860546874965
vn 3.8264035458984438 0 2.2607924707031231
vn 3.8264035458984438 0 2.2607924707031231
vn 4.0767451289062535 0 1.9361860546874965
vn 3.8264035458984438 0 2.2607924707031231
vn 3.5519345273437466 0 2.5642873828124948
vn 3.5519345273437466 0 2.5642873828124948
vn 3.8264035458984438 0 2.2607924707031231
vn 3.5519345273437466 0 2.5642873828124948
vn 3.2533380732421904 0 2.8466707910156259
vn 3.2533380732421904 0 2.8466707910156259
vn 3.5519345273437466 0 2.5642873828124948
vn 3.2533380732421904 0 2.8466707910156259
vn 2.9306141835937467 0 3.1079426953125022
vn 2.9306141835937467 0 3.1079426953125022
vn 3.2533380732421904 0 2.8466707910156259
vn 2.9306141835937467 0 3.1079426953125022
vn 2.58376285839843 0 3.3481030957031237
vn 2.58376285839843 0 3.3481030957031237
vn 2.9306141835937467 0 3.1079426953125022
vn 2.58376285839843 0 3.3481030957031237
vn 2.2127840976562538 0 3.5671519921875046
vn 2.2127840976562538 0 3.5671519921875046
vn 2.58376285839843 0 3.3481030957031237
vn 2.2127840976562538 0 3.5671519921875046
vn 1.8176779013671904 0 3.7650893847656306
vn 1.8176779013671904 0 3.7650893847656306
vn 2.2127840976562538 0 3.5671519921875046
vn 1.8176779013671904 0 3.7650893847656306
vn 1.3984442695312538 0 3.9419152734374947
vn 1.3984442695312538 0 3.9419152734374947
vn 1.8176779013671904 0 3.7650893847656306
vn 1.3984442695312538 0 3.9419152734374947
vn 0.95508320214844389 0 4.0976296582031253
vn 0.95508320214844389 0 4.0976296582031253
vn 1.3984442695312538 0 3.9419152734374947
vn 0.95508320214844389 0 4.0976296582031253
vn 0.48759469921874654 0 4.2322325390625011
vn 0.48759469921874654 0 4.2322325390625011
vn 0.95508320214844389 0 4.0976296582031253
vn 0.48759469921874654 0 4.2322325390625011
vn 0 0 11.59798
vn 0 0 11.59798
vn 0.48759469921874654 0 4.2322325390625011
vn 5.999999999062311E-06 0 11.589975000000003
vn -0.48696133203125669 0 4.229469972656247
vn -0.48696133203125669 0 4.229469972656247
vn 5.999999999062311E-06 0 11.589975000000003
vn -0.48696133203125669 0 4.229469972656247
vn -0.95386607128907031 0 4.09513067285156
vn -0.95386607128907031 0 4.09513067285156
vn -0.48696133203125669 0 4.229469972656247
vn -0.95386607128907031 0 4.09513067285156
vn -1.396700199218742 0 3.9397089960937564
vn -1.396700199218742 0 3.9397089960937564
vn -0.95386607128907031 0 4.09513067285156
vn -1.396700199218742 0 3.9397089960937564
vn -1.8154637158203002 0 3.7632049423828065
vn -1.8154637158203002 0 3.7632049423828065
vn -1.396700199218742 0 3.9397089960937564
vn -1.8154637158203002 0 3.7632049423828065
vn -2.2101566210937449 0 3.5656185117187462
vn -2.2101566210937449 0 3.5656185117187462
vn -1.8154637158203002 0 3.7632049423828065
vn -2.2101566210937449 0 3.5656185117187462
vn -2.5807789150390619 0 3.3469497041015686
vn -2.5807789150390619 0 3.3469497041015686
vn -2.2101566210937449 0 3.5656185117187462
vn -2.5807789150390619 0 3.3469497041015686
vn -2.9273305976562654 0 3.1071985195312521
vn -2.9273305976562654 0 3.1071985195312521
vn -2.5807789150390619 0 3.3469497041015686
vn -2.9273305976562654 0 3.1071985195312521
vn -3.2498116689453269 0 2.8463649580078112
vn -3.2498116689453269 0 2.8463649580078112
vn -2.9273305976562654 0 3.1071985195312521
vn -3.2498116689453269 0 2.8463649580078112
vn -3.5482221289062323 0 2.5644490195312493
vn -3.5482221289062323 0 2.5644490195312493
vn -3.2498116689453269 0 2.8463649580078112
vn -3.5482221289062323 0 2.5644490195312493
vn -3.8225619775390527 0 2.2614507041015628
vn -3.8225619775390527 0 2.2614507041015628
vn -3.5482221289062323 0 2.5644490195312493
vn -3.8225619775390527 0 2.2614507041015628
vn -4.0728312148437595 0 1.9373700117187482
vn -4.0728312148437595 0 1.9373700117187482
vn -3.8225619775390527 0 2.2614507041015628
vn -4.0728312148437595 0 1.9373700117187482
vn -4.29902984082031 0 1.5922069423828127
vn -4.29902984082031 0 1.5922069423828127
vn -4.0728312148437595 0 1.9373700117187482
vn -4.29902984082031 0 1.5922069423828127
vn -4.5011578554687475 0 1.2259614960937491
vn -4.5011578554687475 0 1.2259614960937491
vn -4.29902984082031 0 1.5922069423828127
vn -4.5011578554687475 0 1.2259614960937491
vn -4.6792152587890712 0 0.83863367285156087
vn -4.6792152587890712 0 0.83863367285156087
vn -4.5011578554687475 0 1.2259614960937491
vn -4.6792152587890712 0 0.83863367285156087
vn -4.833202050781253 0 0.43022347265625172
vn -4.833202050781253 0 0.43022347265625172
vn -4.6792152587890712 0 0.83863367285156087
vn -4.833202050781253 0 0.43022347265625172
vn -13.245680000000007 0 0.011319000000000301
vn -13.245680000000007 0 0.011319000000000301
vn -4.833202050781253 0 0.43022347265625172
vn 0.26873700000000156 0 -1.3193419999999989
vn 0.40429600000000221 0 -4
vn 0.40429600000000221 0 -4
vn 0.26873700000000156 0 -1.3193419999999989
vn 0.40429600000000221 0 -4
vn 0.00023000000000195087 0 -1.3417449999999995
vn 0.00023000000000195087 0 -1.3417449999999995
vn 0.40429600000000221 0 -4
vn -2.2999999998774E-05 0 -8.7113609999999966
vn -1.0210402343749934 0 -6.3242159218750018
vn -1.0210402343749934 0 -6.3242159218750018
vn -2.2999999998774E-05 0 -8.7113609999999966
vn -1.0210402343749934 0 -6.3242159218750018
vn -1.9923574179687407 0 -6.0455840429687484
vn -1.9923574179687407 0 -6.0455840429687484
vn -1.0210402343749934 0 -6.3242159218750018
vn -1.9923574179687407 0 -6.0455840429687484
vn -2.904027640625003 0 -5.6837597031249913
vn -2.904027640625003 0 -5.6837597031249913
vn -1.9923574179687407 0 -6.0455840429687484
vn -2.904027640625003 0 -5.6837597031249913
vn -3.7560509023437518 0 -5.2387429023437448
vn -3.7560509023437518 0 -5.2387429023437448
vn -2.904027640625003 0 -5.6837597031249913
vn -3.7560509023437518 0 -5.2387429023437448
vn -4.5484272031250015 0 -4.7105336406250089
vn -4.5484272031250015 0 -4.7105336406250089
vn -3.7560509023437518 0 -5.2387429023437448
vn -4.5484272031250015 0 -4.7105336406250089
vn -5.2811565429687519 0 -4.0991319179687551
vn -5.2811565429687519 0 -4.0991319179687551
vn -4.5484272031250015 0 -4.7105336406250089
vn -5.2811565429687519 0 -4.0991319179687551
vn -5.9542389218750031 0 -3.4045377343749976
vn -5.9542389218750031 0 -3.4045377343749976
vn -5.2811565429687519 0 -4.0991319179687551
vn -5.9542389218750031 0 -3.4045377343749976
vn -8.770153999999998 0 -3.5208220000000026
vn -8.770153999999998 0 -3.5208220000000026
vn -5.9542389218750031 0 -3.4045377343749976
vn 0 0 -13.931640999999999
vn 0 0 -13.931640999999999
vn 0 0 -13.931640999999999
vn 0 0 -13.931640999999999
vn 4.0797659999999993 0 -2.5647459999999995
vn 6.6460806249999962 0 -2.9341950000000026
vn 6.6460806249999962 0 -2.9341950000000026
vn 4.0797659999999993 0 -2.5647459999999995
vn 0 1 0
vn 0 1 0
vn 0 1 0
vn 0 1 0
vn 0 1 0
vn 0 1 0
vn 0 1 0
vn 0 1 0
vn 0 1 0
vn 0 1 0
vn 0 1 0
vn 0 1 0
vn 0 1 0
vn 0 1 0
vn 0 1 0
vn 0 1 0
vn 0 1 0
vn 0 1 0
vn 0 1 0
vn 0 1 0
vn 0 1 0
vn 0 1 0
vn 0 1 0
vn 0 1 0
vn 0 1 0
vn 0 1 0
vn 0 1 0
vn 0 1 0
vn 0 1 0
vn 0 1 0
vn 0 1 0
vn 0 1 0
vn 0 1 0
vn 0 1 0
vn 0 1 0
vn 0 1 0
vn 0 1 0
vn 0 1 0
vn 0 1 0
vn 0 1 0
vn 0 1 0
vn 0 1 0
vn 0 1 0
vn 0 1 0
vn 0 1 0
vn 0 1 0
vn 0 1 0
vn 0 1 0
vn 0 1 0
vn 0 1 0
vn 0 1 0
vn 0 1 0
vn 0 1 0
vn 0 1 0
vn 0 1 0
vn 0 1 0
vn 0 1 0
vn 0 1 0
vn 0 1 0
vn 0 1 0
vn 0 1 0
vn 0 1 0
vn 0 1 0
vn 0 1 0
vn 0 1 0
vn 0 1 0
vn 0 1 0
vn 0 1 0
vn 0 1 0
vn 0 1 0
vn 0 1 0
vn 0 1 0
vn 0 1 0
vn 0 1 0
vn 0 1 0
vn 0 1 0
vn 0 1 0
vn 0 1 0
vn 0 1 0
vn 0 1 0
vn 0 1 0
vn 0 1 0
vn 0 1 0
vn 0 1 0
vn 0 1 0
vn 0 1 0
vn 0 1 0
vn 0 1 0
vn 0 1 0
vn 0 1 0
vn 0 1 0
vn 0 1 0
vn 0 1 0
vn 0 1 0
vn 0 1 0
vn 0 1 0
vn 0 1 0
vn 0 1 0
vn 0 1 0
vn 0 1 0
vn 0 1 0
vn 0 1 0
vn 0 1 0
vn 0 1 0
vn 0 1 0
vn 0 1 0
vn 0 1 0
vn 0 1 0
vn 0 1 0
vn 0 1 0
vn 0 1 0
vn 0 1 0
vn 0 1 0
vn 0 1 0
vn 0 1 0
vn 0 1 0
vn 0 1 0
vn 0 1 0
vn 0 1 0
vn 0 1 0
vn 0 1 0
vn 0 1 0
vn 0 1 0
vn 0 1 0
vn 0 1 0
vn 0 1 0
vn 0 1 0
vn 0 1 0
vn 0 1 0
vn 0 1 0
vn 0 1 0
vn 0 1 0
vn 0 1 0
vn 0 1 0
vn 0 1 0
vn 0 -1 0
vn 0 -1 0
vn 0 -1 0
vn 0 -1 0
vn 0 -1 0
vn 0 -1 0
vn 0 -1 0
vn 0 -1 0
vn 0 -1 0
vn 0 -1 0
vn 0 -1 0
vn 0 -1 0
vn 0 -1 0
vn 0 -1 0
vn 0 -1 0
vn 0 -1 0
vn 0 -1 0
vn 0 -1 0
vn 0 -1 0
vn 0 -1 0
vn 0 -1 0
vn 0 -1 0
vn 0 -1 0
vn 0 -1 0
vn 0 -1 0
vn 0 -1 0
vn 0 -1 0
vn 0 -1 0
vn 0 -1 0
vn 0 -1 0
vn 0 -1 0
vn 0 -1 0
vn 0 -1 0
vn 0 -1 0
vn 0 -1 0
vn 0 -1 0
vn 0 -1 0
vn 0 -1 0
vn 0 -1 0
vn 0 -1 0
vn 0 -1 0
vn 0 -1 0
vn 0 -1 0
vn 0 -1 0
vn 0 -1 0
vn 0 -1 0
vn 0 -1 0
vn 0 -1 0
vn 0 -1 0
vn 0 -1 0
vn 0 -1 0
vn 0 -1 0
vn 0 -1 0
vn 0 -1 0
vn 0 -1 0
vn 0 -1 0
vn 0 -1 0
vn 0 -1 0
vn 0 -1 0
vn 0 -1 0
vn 0 -1 0
vn 0 -1 0
vn 0 -1 0
vn 0 -1 0
vn 0 -1 0
vn 0 -1 0
vn 0 -1 0
vn 0 -1 0
vn 0 -1 0
vn 0 -1 0
vn 0 -1 0
vn 0 -1 0
vn 0 -1 0
vn 0 -1 0
vn 0 -1 0
vn 0 -1 0
vn 0 -1 0
vn 0 -1 0
vn 0 -1 0
vn 0 -1 0
vn 0 -1 0
vn 0 -1 0
vn 0 -1 0
vn 0 -1 0
vn 0 -1 0
vn 0 -1 0
vn 0 -1 0
vn 0 -1 0
vn 0 -1 0
vn 0 -1 0
vn 0 -1 0
vn 0 -1 0
vn 0 -1 0
vn 0 -1 0
vn 0 -1 0
vn 0 -1 0
vn 0 -1 0
vn 0 -1 0
vn 0 -1 0
vn 0 -1 0
vn 0 -1 0
vn 0 -1 0
vn 0 -1 0
vn 0 -1 0
vn 0 -1 0
vn 0 -1 0
vn 0 -1 0
vn 0 -1 0
vn 0 -1 0
vn 0 -1 0
vn 0 -1 0
vn 0 -1 0
vn 0 -1 0
vn 0 -1 0
vn 0 -1 0
vn 0 -1 0
vn 0 -1 0
vn 0 -1 0
vn 0 -1 0
vn 0 -1 0
vn 0 -1 0
vn 0 -1 0
vn 0 -1 0
vn 0 -1 0
vn 0 -1 0
vn 0 -1 0
vn 0 -1 0
vn 0 -1 0
vn 0 -1 0
vn 0 -1 0
vn 0 -1 0
vn 0 -1 0
vn 0 -1 0
vn 0 -1 0
vn 0 -1 0

g 
f 1//1 2//2 3//3 4//4
f 2//5 5//6 6//7 3//8
f 5//9 7//10 8//11 6//12
f 7//13 9//14 10//15 8//16
f 9//17 11//18 12//19 10//20
f 11//21 13//22 14//23 12//24
f 13//25 15//26 16//27 14//28
f 15//29 17//30 18//31 16//32
f 17//33 19//34 20//35 18//36
f 19//37 21//38 22//39 20//40
f 21//41 23//42 24//43 22//44
f 23//45 25//46 26//47 24//48
f 25//49 27//50 28//51 26//52
f 27//53 29//54 30//55 28//56
f 29//57 31//58 32//59 30//60
f 31//61 33//62 34//63 32//64
f 33//65 35//66 36//67 34//68
f 35//69 37//70 38//71 36//72
f 37//73 39//74 40//75 38//76
f 39//77 41//78 42//79 40//80
f 41//81 43//82 44//83 42//84
f 43//85 45//86 46//87 44//88
f 45//89 47//90 48//91 46//92
f 47//93 49//94 50//95 48//96
f 49//97 51//98 52//99 50//100
f 51//101 53//102 54//103 52//104
f 53//105 55//106 56//107 54//108
f 55//109 57//110 58//111 56//112
f 57//113 59//114 60//115 58//116
f 59//117 61//118 62//119 60//120
f 61//121 63//122 64//123 62//124
f 63//125 65//126 66//127 64//128
f 65//129 67//130 68//131 66//132
f 67//133 69//134 70//135 68//136
f 69//137 71//138 72//139 70//140
f 71//141 73//142 74//143 72//144
f 73//145 75//146 76//147 74//148
f 75//149 77//150 78//151 76//152
f 77//153 79//154 80//155 78//156
f 79//157 81//158 82//159 80//160
f 81//161 83//162 84//163 82//164
f 83//165 85//166 86//167 84//168
f 85//169 87//170 88//171 86//172
f 87//173 89//174 90//175 88//176
f 89//177 91//178 92//179 90//180
f 91//181 93//182 94//183 92//184
f 93//185 1//186 4//187 94//188
f 1//189 93//190 91//191
f 1//192 91//193 89//194
f 1//195 89//196 87//197
f 1//198 87//199 85//200
f 1//201 85//202 83//203
f 1//204 83//205 81//206
f 1//207 81//208 79//209
f 73//210 71//211 69//212
f 75//213 73//214 69//215
f 77//216 75//217 69//218
f 79//219 77//220 69//221
f 79//222 69//223 67//224
f 1//225 79//226 67//227
f 1//228 67//229 65//230
f 1//231 65//232 63//233
f 1//234 63//235 61//236
f 1//237 61//238 59//239
f 1//240 59//241 57//242
f 1//243 57//244 55//245
f 1//246 55//247 53//248
f 1//249 53//250 51//251
f 1//252 51//253 49//254
f 1//255 49//256 47//257
f 1//258 47//259 45//260
f 1//261 45//262 43//263
f 1//264 43//265 41//266
f 1//267 41//268 39//269
f 1//270 39//271 37//272
f 1//273 37//274 35//275
f 1//276 35//277 33//278
f 1//279 33//280 31//281
f 1//282 31//283 29//284
f 1//285 29//286 27//287
f 1//288 27//289 25//290
f 1//291 25//292 23//293
f 1//294 23//295 21//296
f 1//297 21//298 19//299
f 1//300 19//301 17//302
f 1//303 17//304 15//305
f 1//306 15//307 13//308
f 1//309 13//310 11//311
f 1//312 11//313 9//314
f 1//315 9//316 7//317
f 1//318 7//319 5//320
f 5//321 2//322 1//323
f 92//324 94//325 4//326
f 90//327 92//328 4//329
f 88//330 90//331 4//332
f 86//333 88//334 4//335
f 84//336 86//337 4//338
f 82//339 84//340 4//341
f 80//342 82//343 4//344
f 70//345 72//346 74//347
f 70//348 74//349 76//350
f 70//351 76//352 78//353
f 70//354 78//355 80//356
f 68//357 70//358 80//359
f 68//360 80//361 4//362
f 66//363 68//364 4//365
f 64//366 66//367 4//368
f 62//369 64//370 4//371
f 60//372 62//373 4//374
f 58//375 60//376 4//377
f 56//378 58//379 4//380
f 54//381 56//382 4//383
f 52//384 54//385 4//386
f 50//387 52//388 4//389
f 48//390 50//391 4//392
f 46//393 48//394 4//395
f 44//396 46//397 4//398
f 42//399 44//400 4//401
f 40//402 42//403 4//404
f 38//405 40//406 4//407
f 36//408 38//409 4//410
f 34//411 36//412 4//413
f 32//414 34//415 4//416
f 30//417 32//418 4//419
f 28//420 30//421 4//422
f 26//423 28//424 4//425
f 24//426 26//427 4//428
f 22//429 24//430 4//431
f 20//432 22//433 4//434
f 18//435 20//436 4//437
f 16//438 18//439 4//440
f 14//441 16//442 4//443
f 12//444 14//445 4//446
f 10//447 12//448 4//449
f 8//450 10//451 4//452
f 6//453 8//454 4//455
f 4//456 3//457 6//458