o 
v 96 1 14
v 52.052734 1 14
v 52.052734 0 14
v 96 0 14
v 53.656834308593744 1 13.84976619140625
v 53.656834308593744 0 13.84976619140625
v 55.14977484375 1 13.436680468750001
v 55.14977484375 0 13.436680468750001
v 56.499893769531248 1 12.788630761718748
v 56.499893769531248 0 12.788630761718748
v 57.675529250000004 1 11.933505
v 57.675529250000004 0 11.933505
v 58.645019449218751 1 10.899191113281249
v 58.645019449218751 0 10.899191113281249
v 59.376702531250004 1 9.71357703125
v 59.376702531250004 0 9.71357703125
v 59.838916660156251 1 8.4045506835937509
v 59.838916660156251 0 8.4045506835937509
v 60 1 7
v 60 0 7
v 59.837468433593749 1 5.58925585859375
v 59.837468433593749 0 5.58925585859375
v 59.37132034375 1 4.27528411875
v 59.37132034375 0 4.27528411875
v 58.633725644531253 1 3.08623345703125
v 58.633725644531253 0 3.08623345703125
v 57.65685425 1 2.0502525499999997
v 57.65685425 0 2.0502525499999997
v 56.472876074218746 1 1.19549007421875
v 56.472876074218746 0 1.19549007421875
v 55.11396103125 1 0.55009470625
v 55.11396103125 0 0.55009470625
v 53.612279035156249 1 0.14221512265625
v 53.612279035156249 0 0.14221512265625
v 52 1 0
v 52 0 0
v 96 1 0
v 96 0 0
vn 0 0 43.947266
vn 0 0 43.947266
vn 0 0 43.947266
vn 0 0 43.947266
vn -0.025365000000000748 0 -4.397669999999998
vn -0.56331953124999856 0 -3.0970408437500012
vn -0.56331953124999856 0 -3.0970408437500012
vn -0.025365000000000748 0 -4.397669999999998
vn -0.56331953124999856 0 -3.0970408437500012
vn -1.0611354296875017 0 -2.8430594609375035
vn -1.0611354296875017 0 -2.8430594609375035
vn -0.56331953124999856 0 -3.0970408437500012
vn -1.0611354296875017 0 -2.8430594609375035
vn -1.5031754687500012 0 -2.5257544062500017
vn -1.5031754687500012 0 -2.5257544062500017
vn -1.0611354296875017 0 -2.8430594609375035
vn -1.5031754687500012 0 -2.5257544062500017
vn -1.8894396484374987 0 -2.1451256796875029
vn -1.8894396484374987 0 -2.1451256796875029
vn -1.5031754687500012 0 -2.5257544062500017
vn -1.8894396484374987 0 -2.1451256796875029
vn -2.2199279687499995 0 -1.70117328125
vn -2.2199279687499995 0 -1.70117328125
vn -1.8894396484374987 0 -2.1451256796875029
vn -2.2199279687499995 0 -1.70117328125
vn -2.4946404296874984 0 -1.1938972109375001
vn -2.4946404296874984 0 -1.1938972109375001
vn -2.2199279687499995 0 -1.70117328125
vn -2.4946404296874984 0 -1.1938972109375001
vn -2.7135770312500007 0 -0.62329746874999614
vn -2.7135770312500007 0 -0.62329746874999614
vn -2.4946404296874984 0 -1.1938972109375001
vn -2.7135770312500007 0 -0.62329746874999614
vn -3.8480450000000008 0 9.599999999920783E-05
vn -3.8480450000000008 0 9.599999999920783E-05
vn -2.7135770312500007 0 -0.62329746874999614
vn -3.8659932 0 0
vn -2.72471588125 0 0.62867965625000011
vn -2.72471588125 0 0.62867965625000011
vn -3.8659932 0 0
vn -2.72471588125 0 0.62867965625000011
vn -2.5030224015625 0 1.2037427890624954
vn -2.5030224015625 0 1.2037427890624954
vn -2.72471588125 0 0.62867965625000011
vn -2.5030224015625 0 1.2037427890624954
vn -2.2250315687500004 0 1.7144660937499978
vn -2.2250315687500004 0 1.7144660937499978
vn -2.5030224015625 0 1.2037427890624954
vn -2.2250315687500004 0 1.7144660937499978
vn -1.8907433828125002 0 2.1608495703125072
vn -1.8907433828125002 0 2.1608495703125072
vn -2.2250315687500004 0 1.7144660937499978
vn -1.8907433828125002 0 2.1608495703125072
vn -1.5001578437499998 0 2.5428932187500024
vn -1.5001578437499998 0 2.5428932187500024
vn -1.8907433828125002 0 2.1608495703125072
vn -1.5001578437499998 0 2.5428932187500024
vn -1.0532749515625 0 2.8605970390624975
vn -1.0532749515625 0 2.8605970390624975
vn -1.5001578437499998 0 2.5428932187500024
vn -1.0532749515625 0 2.8605970390624975
vn -0.55009470625 0 3.1139610312499997
vn -0.55009470625 0 3.1139610312499997
vn -1.0532749515625 0 2.8605970390624975
vn -0.55009470625 0 3.1139610312499997
vn 0 0 4.4182780000000008
vn 0 0 4.4182780000000008
vn -0.55009470625 0 3.1139610312499997
vn 0 0 -44
vn 0 0 -44
vn 0 0 -44
vn 0 0 -44
vn 14 0 0
vn 14 0 0
vn 14 0 0
vn 14 0 0
vn 0 1 0
vn 0 1 0
vn 0 1 0
vn 0 1 0
vn 0 1 0
vn 0 1 0
vn 0 1 0
vn 0 1 0
vn 0 1 0
vn 0 1 0
vn 0 1 0
vn 0 1 0
vn 0 1 0
vn 0 1 0
vn 0 1 0
vn 0 1 0
vn 0 1 0
vn 0 1 0
vn 0 1 0
vn 0 1 0
vn 0 1 0
vn 0 1 0
vn 0 1 0
vn 0 1 0
vn 0 1 0
vn 0 1 0
vn 0 1 0
vn 0 1 0
vn 0 1 0
vn 0 1 0
vn 0 1 0
vn 0 1 0
vn 0 1 0
vn 0 1 0
vn 0 1 0
vn 0 1 0
vn 0 1 0
vn 0 1 0
vn 0 1 0
vn 0 1 0
vn 0 1 0
vn 0 1 0
vn 0 1 0
vn 0 1 0
vn 0 1 0
vn 0 1 0
vn 0 1 0
vn 0 1 0
vn 0 1 0
vn 0 1 0
vn 0 1 0
vn 0 -1 0
vn 0 -1 0
vn 0 -1 0
vn 0 -1 0
vn 0 -1 0
vn 0 -1 0
vn 0 -1 0
vn 0 -1 0
vn 0 -1 0
vn 0 -1 0
vn 0 -1 0
vn 0 -1 0
vn 0 -1 0
vn 0 -1 0
vn 0 -1 0
vn 0 -1 0
vn 0 -1 0
vn 0 -1 0
vn 0 -1 0
vn 0 -1 0
vn 0 -1 0
vn 0 -1 0
vn 0 -1 0
vn 0 -1 0
vn 0 -1 0
vn 0 -1 0
vn 0 -1 0
vn 0 -1 0
vn 0 -1 0
vn 0 -1 0
vn 0 -1 0
vn 0 -1 0
vn 0 -1 0
vn 0 -1 0
vn 0 -1 0
vn 0 -1 0
vn 0 -1 0
vn 0 -1 0
vn 0 -1 0
vn 0 -1 0
vn 0 -1 0
vn 0 -1 0
vn 0 -1 0
vn 0 -1 0
vn 0 -1 0
vn 0 -1 0
vn 0 -1 0
vn 0 -1 0
vn 0 -1 0
vn 0 -1 0
vn 0 -1 0

g 
f 1//1 2//2 3//3 4//4
f 2//5 5//6 6//7 3//8
f 5//9 7//10 8//11 6//12
f 7//13 9//14 10//15 8//16
f 9//17 11//18 12//19 10//20
f 11//21 13//22 14//23 12//24
f 13//25 15//26 16//27 14//28
f 15//29 17//30 18//31 16//32
f 17//33 19//34 20//35 18//36
f 19//37 21//38 22//39 20//40
f 21//41 23//42 24//43 22//44
f 23//45 25//46 26//47 24//48
f 25//49 27//50 28//51 26//52
f 27//53 29//54 30//55 28//56
f 29//57 31//58 32//59 30//60
f 31//61 33//62 34//63 32//64
f 33//65 35//66 36//67 34//68
f 35//69 37//70 38//71 36//72
f 37//73 1//74 4//75 38//76
f 37//77 35//78 33//79
f 37//80 33//81 31//82
f 1//83 37//84 31//85
f 1//86 31//87 29//88
f 1//89 29//90 27//91
f 1//92 27//93 25//94
f 1//95 25//96 23//97
f 1//98 23//99 21//100
f 1//101 21//102 19//103
f 1//104 19//105 17//106
f 1//107 17//108 15//109
f 1//110 15//111 13//112
f 1//113 13//114 11//115
f 1//116 11//117 9//118
f 1//119 9//120 7//121
f 1//122 7//123 5//124
f 5//125 2//126 1//127
f 34//128 36//129 38//130
f 32//131 34//132 38//133
f 32//134 38//135 4//136
f 30//137 32//138 4//139
f 28//140 30//141 4//142
f 26//143 28//144 4//145
f 24//146 26//147 4//148
f 22//149 24//150 4//151
f 20//152 22//153 4//154
f 18//155 20//156 4//157
f 16//158 18//159 4//160
f 14//161 16//162 4//163
f 12//164 14//165 4//166
f 10//167 12//168 4//169
f 8//170 10//171 4//172
f 6//173 8//174 4//175
f 4//176 3//177 6//178