o 
v 99.810892966796871 1 54.946550832031249
v 99.250219046875 1 50.96177628125
v 99.250219046875 0 50.96177628125
v 99.810892966796871 0 54.946550832031249
v 98.328489009765619 1 47.07258177734375
v 98.328489009765619 0 47.07258177734375
v 97.056213625 1 43.30587275
v 97.056213625 0 43.30587275
v 95.443903662109378 1 39.688554628906246
v 95.443903662109378 0 39.688554628906246
v 93.502069890625 1 36.24753284375
v 93.502069890625 0 36.24753284375
v 91.241223080078129 1 33.009712824218752
v 91.241223080078129 0 33.009712824218752
v 88.671874 1 30.002
v 88.671874 0 30.002
v 88.683594 1 30
v 88.683594 0 30
v 100 1 0
v 100 0 0
v 100 1 59
v 100 0 59
vn -8.0382237187499967 0 0.749780953124997
vn -7.8739690546875 0 1.4824039570312522
vn -7.8739690546875 0 1.4824039570312522
vn -8.0382237187499967 0 0.749780953124997
vn -7.8739690546875 0 1.4824039570312522
vn -7.6559035312500043 0 2.1940054218750049
vn -7.6559035312500043 0 2.1940054218750049
vn -7.8739690546875 0 1.4824039570312522
vn -7.6559035312500043 0 2.1940054218750049
vn -7.3840271484375037 0 2.8845853476562411
vn -7.3840271484375037 0 2.8845853476562411
vn -7.6559035312500043 0 2.1940054218750049
vn -7.3840271484375037 0 2.8845853476562411
vn -7.0583399062499979 0 3.5541437343750033
vn -7.0583399062499979 0 3.5541437343750033
vn -7.3840271484375037 0 2.8845853476562411
vn -7.0583399062499979 0 3.5541437343750033
vn -6.6788418046874938 0 4.2026805820312489
vn -6.6788418046874938 0 4.2026805820312489
vn -7.0583399062499979 0 3.5541437343750033
vn -6.6788418046874938 0 4.2026805820312489
vn -6.2455328437500022 0 4.8301958906249922
vn -6.2455328437500022 0 4.8301958906249922
vn -6.6788418046874938 0 4.2026805820312489
vn -6.2455328437500022 0 4.8301958906249922
vn -7.6898420000000023 0 7.253591
vn -7.6898420000000023 0 7.253591
vn -6.2455328437500022 0 4.8301958906249922
vn -0.0019999999999988916 0 -0.011719999999996844
vn -0.0019999999999988916 0 -0.011719999999996844
vn -0.0019999999999988916 0 -0.011719999999996844
vn -0.0019999999999988916 0 -0.011719999999996844
vn -30 0 -11.316406
vn -30 0 -11.316406
vn -30 0 -11.316406
vn -30 0 -11.316406
vn 59 0 0
vn 59 0 0
vn 59 0 0
vn 59 0 0
vn -10.876848000000003 0 -0.00047999999999603915
vn -8.0382237187499967 0 0.749780953124997
vn -8.0382237187499967 0 0.749780953124997
vn -10.876848000000003 0 -0.00047999999999603915
vn 0 1 0
vn 0 1 0
vn 0 1 0
vn 0 1 0
vn 0 1 0
vn 0 1 0
vn 0 1 0
vn 0 1 0
vn 0 1 0
vn 0 1 0
vn 0 1 0
vn 0 1 0
vn 0 1 0
vn 0 1 0
vn 0 1 0
vn 0 1 0
vn 0 1 0
vn 0 1 0
vn 0 1 0
vn 0 1 0
vn 0 1 0
vn 0 1 0
vn 0 1 0
vn 0 1 0
vn 0 1 0
vn 0 1 0
vn 0 1 0
vn 0 -1 0
vn 0 -1 0
vn 0 -1 0
vn 0 -1 0
vn 0 -1 0
vn 0 -1 0
vn 0 -1 0
vn 0 -1 0
vn 0 -1 0
vn 0 -1 0
vn 0 -1 0
vn 0 -1 0
vn 0 -1 0
vn 0 -1 0
vn 0 -1 0
vn 0 -1 0
vn 0 -1 0
vn 0 -1 0
vn 0 -1 0
vn 0 -1 0
vn 0 -1 0
vn 0 -1 0
vn 0 -1 0
vn 0 -1 0
vn 0 -1 0
vn 0 -1 0
vn 0 -1 0

g 
f 1//1 2//2 3//3 4//4
f 2//5 5//6 6//7 3//8
f 5//9 7//10 8//11 6//12
f 7//13 9//14 10//15 8//16
f 9//17 11//18 12//19 10//20
f 11//21 13//22 14//23 12//24
f 13//25 15//26 16//27 14//28
f 15//29 17//30 18//31 16//32
f 17//33 19//34 20//35 18//36
f 19//37 21//38 22//39 20//40
f 21//41 1//42 4//43 22//44
f 1//45 21//46 19//47
f 17//48 15//49 13//50
f 19//51 17//52 13//53
f 19//54 13//55 11//56
f 19//57 11//58 9//59
f 19//60 9//61 7//62
f 19//63 7//64 5//65
f 19//66 5//67 2//68
f 19//69 2//70 1//71
f 20//72 22//73 4//74
f 14//75 16//76 18//77
f 14//78 18//79 20//80
f 12//81 14//82 20//83
f 10//84 12//85 20//86
f 8//87 10//88 20//89
f 6//90 8//91 20//92
f 3//93 6//94 20//95
f 4//96 3//97 20//98