o 
v 15.933641832989759 1 0.1163155560913086
v 14.168600774932598 1 0.43024977279296878
v 14.168600774932598 0 0.43024977279296878
v 15.933641832989759 0 0.1163155560913086
v 10.833676218518907 1 1.6111507010937503
v 10.833676218518907 0 1.6111507010937503
v 7.8178737964417 1 3.4630558110351566
v 7.8178737964417 0 3.4630558110351566
v 5.19188797438375 1 5.90631812875
v 5.19188797438375 0 5.90631812875
v 3.0264132180278325 1 8.8612906803710949
v 3.0264132180278325 0 8.8612906803710949
v 1.3921439930567188 1 12.24832649203125
v 1.3921439930567188 0 12.24832649203125
v 0.35977476515318357 1 15.987778589863282
v 0.35977476515318357 0 15.987778589863282
v 0 1 20
v 0 0 20
v 0 1 0
v 0 0 0
v 17.751953 1 0
v 17.751953 0 0
vn 0.43024977279296878 0 3.5833522250674026
vn 1.4948351450024415 0 5.0999656144708521
vn 1.4948351450024415 0 5.0999656144708521
vn 0.43024977279296878 0 3.5833522250674026
vn 1.4948351450024415 0 5.0999656144708521
vn 3.032806038242188 0 6.350726978490898
vn 3.032806038242188 0 6.350726978490898
vn 1.4948351450024415 0 5.0999656144708521
vn 3.032806038242188 0 6.350726978490898
vn 4.2951674276562493 0 5.6417882441351566
vn 4.2951674276562493 0 5.6417882441351566
vn 3.032806038242188 0 6.350726978490898
vn 4.2951674276562493 0 5.6417882441351566
vn 5.3982348693359388 0 4.7914605784138669
vn 5.3982348693359388 0 4.7914605784138669
vn 4.2951674276562493 0 5.6417882441351566
vn 5.3982348693359388 0 4.7914605784138669
vn 6.34200836328125 0 3.7997439813270315
vn 6.34200836328125 0 3.7997439813270315
vn 5.3982348693359388 0 4.7914605784138669
vn 6.34200836328125 0 3.7997439813270315
vn 7.1264879094921874 0 2.6666384528746487
vn 7.1264879094921874 0 2.6666384528746487
vn 6.34200836328125 0 3.7997439813270315
vn 7.1264879094921874 0 2.6666384528746487
vn 7.75167350796875 0 1.3921439930567188
vn 7.75167350796875 0 1.3921439930567188
vn 7.1264879094921874 0 2.6666384528746487
vn 7.75167350796875 0 1.3921439930567188
vn 10.9921522 0 -0.00023276831
vn 10.9921522 0 -0.00023276831
vn 7.75167350796875 0 1.3921439930567188
vn -20 0 0
vn -20 0 0
vn -20 0 0
vn -20 0 0
vn 0 0 -17.751953
vn 0 0 -17.751953
vn 0 0 -17.751953
vn 0 0 -17.751953
vn 0.07566721 0 9.8240033000000011
vn 0.43024977279296878 0 3.5833522250674026
vn 0.43024977279296878 0 3.5833522250674026
vn 0.07566721 0 9.8240033000000011
vn 0 1 0
vn 0 1 0
vn 0 1 0
vn 0 1 0
vn 0 1 0
vn 0 1 0
vn 0 1 0
vn 0 1 0
vn 0 1 0
vn 0 1 0
vn 0 1 0
vn 0 1 0
vn 0 1 0
vn 0 1 0
vn 0 1 0
vn 0 1 0
vn 0 1 0
vn 0 1 0
vn 0 1 0
vn 0 1 0
vn 0 1 0
vn 0 1 0
vn 0 1 0
vn 0 1 0
vn 0 1 0
vn 0 1 0
vn 0 1 0
vn 0 -1 0
vn 0 -1 0
vn 0 -1 0
vn 0 -1 0
vn 0 -1 0
vn 0 -1 0
vn 0 -1 0
vn 0 -1 0
vn 0 -1 0
vn 0 -1 0
vn 0 -1 0
vn 0 -1 0
vn 0 -1 0
vn 0 -1 0
vn 0 -1 0
vn 0 -1 0
vn 0 -1 0
vn 0 -1 0
vn 0 -1 0
vn 0 -1 0
vn 0 -1 0
vn 0 -1 0
vn 0 -1 0
vn 0 -1 0
vn 0 -1 0
vn 0 -1 0
vn 0 -1 0

g 
f 1//1 2//2 3//3 4//4
f 2//5 5//6 6//7 3//8
f 5//9 7//10 8//11 6//12
f 7//13 9//14 10//15 8//16
f 9//17 11//18 12//19 10//20
f 11//21 13//22 14//23 12//24
f 13//25 15//26 16//27 14//28
f 15//29 17//30 18//31 16//32
f 17//33 19//34 20//35 18//36
f 19//37 21//38 22//39 20//40
f 21//41 1//42 4//43 22//44
f 1//45 21//46 19//47
f 19//48 17//49 15//50
f 19//51 15//52 13//53
f 19//54 13//55 11//56
f 19//57 11//58 9//59
f 19//60 9//61 7//62
f 19//63 7//64 5//65
f 19//66 5//67 2//68
f 19//69 2//70 1//71
f 20//72 22//73 4//74
f 16//75 18//76 20//77
f 14//78 16//79 20//80
f 12//81 14//82 20//83
f 10//84 12//85 20//86
f 8//87 10//88 20//89
f 6//90 8//91 20//92
f 3//93 6//94 20//95
f 4//96 3//97 20//98