o 
v 19.814150874609375 1 -1.868791930859377
v 19.480772571875 1 0.31560315312500009
v 19.480772571875 0 0.31560315312500009
v 19.814150874609375 0 -1.868791930859377
v 18.938657901953121 1 2.4239627917968747
v 18.938657901953121 0 2.4239627917968747
v 18.198865274999996 1 4.445228574999998
v 18.198865274999996 0 4.445228574999998
v 17.27245310117187 1 6.3683420925781213
v 17.27245310117187 0 6.3683420925781213
v 16.170479790625002 1 8.1822449343749959
v 16.170479790625002 0 8.1822449343749959
v 14.904003753515625 1 9.8758786902343765
v 14.904003753515625 0 9.8758786902343765
v 13.484083399999996 1 11.438184949999997
v 13.484083399999996 0 11.438184949999997
v 11.921777140234376 1 12.858105303515625
v 11.921777140234376 0 12.858105303515625
v 10.228143384374995 1 14.124581340625003
v 10.228143384374995 0 14.124581340625003
v 8.41424054257812 1 15.22655465117187
v 8.41424054257812 0 15.22655465117187
v 6.4911270249999973 1 16.152966824999996
v 6.4911270249999973 0 16.152966824999996
v 4.4698612417968739 1 16.892759451953129
v 4.4698612417968739 0 16.892759451953129
v 2.3615016031249993 1 17.434874121875
v 2.3615016031249993 0 17.434874121875
v 0.17710651914062225 1 17.768252424609376
v 0.17710651914062225 0 17.768252424609376
v -2.0722656000000015 1 17.88183595
v -2.0722656000000015 0 17.88183595
v -4.7017517791015635 1 17.724273979296878
v -4.7017517791015635 0 17.724273979296878
v -7.2663666765625017 1 17.260039996874998
v -7.2663666765625017 0 17.260039996874998
v -9.74175270761719 1 16.501613897265617
v -9.74175270761719 0 16.501613897265617
v -12.103552287500003 1 15.461475574999998
v -12.103552287500003 0 15.461475574999998
v -14.327407831445315 1 14.152104924609372
v -14.327407831445315 0 14.152104924609372
v -16.3889617546875 1 12.585981840625
v -16.3889617546875 0 12.585981840625
v -18.263856472460937 1 10.775586217578127
v -18.263856472460937 0 10.775586217578127
v -19.927734400000002 1 8.73339795
v -19.927734400000002 0 8.73339795
v 15.0898434 1 -17.881835950000003
v 15.0898434 0 -17.881835950000003
v 17.166705821875 1 -14.788003335937502
v 17.166705821875 0 -14.788003335937502
v 18.682911274999995 1 -11.4127006625
v 18.682911274999995 0 -11.4127006625
v 19.612055540625 1 -7.8310476578125012
v 19.612055540625 0 -7.8310476578125012
v 19.9277344 1 -4.1181640500000007
v 19.9277344 0 -4.1181640500000007
vn 4.4337672031250008 0 0.44696182812499785
vn 4.2927547226562517 0 0.8754929726562537
vn 4.2927547226562517 0 0.8754929726562537
vn 4.4337672031250008 0 0.44696182812499785
vn 4.2927547226562517 0 0.8754929726562537
vn 4.1296254218749979 0 1.2819072968750049
vn 4.1296254218749979 0 1.2819072968750049
vn 4.2927547226562517 0 0.8754929726562537
vn 4.1296254218749979 0 1.2819072968750049
vn 3.9443793007812467 0 1.6662048007812516
vn 3.9443793007812467 0 1.6662048007812516
vn 4.1296254218749979 0 1.2819072968750049
vn 3.9443793007812467 0 1.6662048007812516
vn 3.7370163593749979 0 2.0283854843749936
vn 3.7370163593749979 0 2.0283854843749936
vn 3.9443793007812467 0 1.6662048007812516
vn 3.7370163593749979 0 2.0283854843749936
vn 3.5075365976562551 0 2.3684493476562452
vn 3.5075365976562551 0 2.3684493476562452
vn 3.7370163593749979 0 2.0283854843749936
vn 3.5075365976562551 0 2.3684493476562452
vn 3.2559400156250007 0 2.6863963906250063
vn 3.2559400156250007 0 2.6863963906250063
vn 3.5075365976562551 0 2.3684493476562452
vn 3.2559400156250007 0 2.6863963906250063
vn 2.9822266132812487 0 2.9822266132812487
vn 2.9822266132812487 0 2.9822266132812487
vn 3.2559400156250007 0 2.6863963906250063
vn 2.9822266132812487 0 2.9822266132812487
vn 2.6863963906250063 0 3.2559400156250007
vn 2.6863963906250063 0 3.2559400156250007
vn 2.9822266132812487 0 2.9822266132812487
vn 2.6863963906250063 0 3.2559400156250007
vn 2.3684493476562452 0 3.5075365976562551
vn 2.3684493476562452 0 3.5075365976562551
vn 2.6863963906250063 0 3.2559400156250007
vn 2.3684493476562452 0 3.5075365976562551
vn 2.0283854843749936 0 3.7370163593749979
vn 2.0283854843749936 0 3.7370163593749979
vn 2.3684493476562452 0 3.5075365976562551
vn 2.0283854843749936 0 3.7370163593749979
vn 1.6662048007812587 0 3.9443793007812467
vn 1.6662048007812587 0 3.9443793007812467
vn 2.0283854843749936 0 3.7370163593749979
vn 1.6662048007812587 0 3.9443793007812467
vn 1.2819072968750049 0 4.1296254218749979
vn 1.2819072968750049 0 4.1296254218749979
vn 1.6662048007812587 0 3.9443793007812467
vn 1.2819072968750049 0 4.1296254218749979
vn 0.87549297265624659 0 4.2927547226562517
vn 0.87549297265624659 0 4.2927547226562517
vn 1.2819072968750049 0 4.1296254218749979
vn 0.87549297265624659 0 4.2927547226562517
vn 0.44696182812499785 0 4.4337672031250008
vn 0.44696182812499785 0 4.4337672031250008
vn 0.87549297265624659 0 4.2927547226562517
vn 0.44696182812499785 0 4.4337672031250008
vn 0 0 12.150264
vn 0 0 12.150264
vn 0.44696182812499785 0 4.4337672031250008
vn -0.00017600000000328464 0 7.0768070000000005
vn -0.62179595312500169 0 5.1941010765625
vn -0.62179595312500169 0 5.1941010765625
vn -0.00017600000000328464 0 7.0768070000000005
vn -0.62179595312500169 0 5.1941010765625
vn -1.2226600820312612 0 5.0400009285156262
vn -1.2226600820312612 0 5.0400009285156262
vn -0.62179595312500169 0 5.1941010765625
vn -1.2226600820312612 0 5.0400009285156262
vn -1.7985644218749997 0 4.8371856109375013
vn -1.7985644218749997 0 4.8371856109375013
vn -1.2226600820312612 0 5.0400009285156262
vn -1.7985644218749997 0 4.8371856109375013
vn -2.3495089726562455 0 4.5856551238281256
vn -2.3495089726562455 0 4.5856551238281256
vn -1.7985644218749997 0 4.8371856109375013
vn -2.3495089726562455 0 4.5856551238281256
vn -2.8754937343749987 0 4.285409467187498
vn -2.8754937343749987 0 4.285409467187498
vn -2.3495089726562455 0 4.5856551238281256
vn -2.8754937343749987 0 4.285409467187498
vn -3.376518707031245 0 3.9364486410156232
vn -3.376518707031245 0 3.9364486410156232
vn -2.8754937343749987 0 4.285409467187498
vn -3.376518707031245 0 3.9364486410156232
vn -3.8525838906249987 0 3.5387726453125
vn -3.8525838906249987 0 3.5387726453125
vn -3.376518707031245 0 3.9364486410156232
vn -3.8525838906249987 0 3.5387726453125
vn -5.7437989999999957 0 4.1340008999999993
vn -5.7437989999999957 0 4.1340008999999993
vn -3.8525838906249987 0 3.5387726453125
vn -26.6152339 0 -35.0175778
vn -26.6152339 0 -35.0175778
vn -26.6152339 0 -35.0175778
vn -26.6152339 0 -35.0175778
vn 3.9040768999999997 0 -3.1311859999999996
vn 6.4691352875 0 -3.5930678749999956
vn 6.4691352875 0 -3.5930678749999956
vn 3.9040768999999997 0 -3.1311859999999996
vn 6.4691352875 0 -3.5930678749999956
vn 6.956955678125 0 -2.445349718750002
vn 6.956955678125 0 -2.445349718750002
vn 6.4691352875 0 -3.5930678749999956
vn 6.956955678125 0 -2.445349718750002
vn 7.2945366125 0 -1.2448231250000035
vn 7.2945366125 0 -1.2448231250000035
vn 6.956955678125 0 -2.445349718750002
vn 7.2945366125 0 -1.2448231250000035
vn 5.0046120000000016 0 -0.00019300000000299633
vn 5.0046120000000016 0 -0.00019300000000299633
vn 7.2945366125 0 -1.2448231250000035
vn 12.150264 0 0
vn 4.4337672031250008 0 0.44696182812499785
vn 4.4337672031250008 0 0.44696182812499785
vn 12.150264 0 0
vn 0 1 0
vn 0 1 0
vn 0 1 0
vn 0 1 0
vn 0 1 0
vn 0 1 0
vn 0 1 0
vn 0 1 0
vn 0 1 0
vn 0 1 0
vn 0 1 0
vn 0 1 0
vn 0 1 0
vn 0 1 0
vn 0 1 0
vn 0 1 0
vn 0 1 0
vn 0 1 0
vn 0 1 0
vn 0 1 0
vn 0 1 0
vn 0 1 0
vn 0 1 0
vn 0 1 0
vn 0 1 0
vn 0 1 0
vn 0 1 0
vn 0 1 0
vn 0 1 0
vn 0 1 0
vn 0 1 0
vn 0 1 0
vn 0 1 0
vn 0 1 0
vn 0 1 0
vn 0 1 0
vn 0 1 0
vn 0 1 0
vn 0 1 0
vn 0 1 0
vn 0 1 0
vn 0 1 0
vn 0 1 0
vn 0 1 0
vn 0 1 0
vn 0 1 0
vn 0 1 0
vn 0 1 0
vn 0 1 0
vn 0 1 0
vn 0 1 0
vn 0 1 0
vn 0 1 0
vn 0 1 0
vn 0 1 0
vn 0 1 0
vn 0 1 0
vn 0 1 0
vn 0 1 0
vn 0 1 0
vn 0 1 0
vn 0 1 0
vn 0 1 0
vn 0 1 0
vn 0 1 0
vn 0 1 0
vn 0 1 0
vn 0 1 0
vn 0 1 0
vn 0 1 0
vn 0 1 0
vn 0 1 0
vn 0 1 0
vn 0 1 0
vn 0 1 0
vn 0 1 0
vn 0 1 0
vn 0 1 0
vn 0 1 0
vn 0 1 0
vn 0 1 0
vn 0 -1 0
vn 0 -1 0
vn 0 -1 0
vn 0 -1 0
vn 0 -1 0
vn 0 -1 0
vn 0 -1 0
vn 0 -1 0
vn 0 -1 0
vn 0 -1 0
vn 0 -1 0
vn 0 -1 0
vn 0 -1 0
vn 0 -1 0
vn 0 -1 0
vn 0 -1 0
vn 0 -1 0
vn 0 -1 0
vn 0 -1 0
vn 0 -1 0
vn 0 -1 0
vn 0 -1 0
vn 0 -1 0
vn 0 -1 0
vn 0 -1 0
vn 0 -1 0
vn 0 -1 0
vn 0 -1 0
vn 0 -1 0
vn 0 -1 0
vn 0 -1 0
vn 0 -1 0
vn 0 -1 0
vn 0 -1 0
vn 0 -1 0
vn 0 -1 0
vn 0 -1 0
vn 0 -1 0
vn 0 -1 0
vn 0 -1 0
vn 0 -1 0
vn 0 -1 0
vn 0 -1 0
vn 0 -1 0
vn 0 -1 0
vn 0 -1 0
vn 0 -1 0
vn 0 -1 0
vn 0 -1 0
vn 0 -1 0
vn 0 -1 0
vn 0 -1 0
vn 0 -1 0
vn 0 -1 0
vn 0 -1 0
vn 0 -1 0
vn 0 -1 0
vn 0 -1 0
vn 0 -1 0
vn 0 -1 0
vn 0 -1 0
vn 0 -1 0
vn 0 -1 0
vn 0 -1 0
vn 0 -1 0
vn 0 -1 0
vn 0 -1 0
vn 0 -1 0
vn 0 -1 0
vn 0 -1 0
vn 0 -1 0
vn 0 -1 0
vn 0 -1 0
vn 0 -1 0
vn 0 -1 0
vn 0 -1 0
vn 0 -1 0
vn 0 -1 0
vn 0 -1 0
vn 0 -1 0
vn 0 -1 0

g 
f 1//1 2//2 3//3 4//4
f 2//5 5//6 6//7 3//8
f 5//9 7//10 8//11 6//12
f 7//13 9//14 10//15 8//16
f 9//17 11//18 12//19 10//20
f 11//21 13//22 14//23 12//24
f 13//25 15//26 16//27 14//28
f 15//29 17//30 18//31 16//32
f 17//33 19//34 20//35 18//36
f 19//37 21//38 22//39 20//40
f 21//41 23//42 24//43 22//44
f 23//45 25//46 26//47 24//48
f 25//49 27//50 28//51 26//52
f 27//53 29//54 30//55 28//56
f 29//57 31//58 32//59 30//60
f 31//61 33//62 34//63 32//64
f 33//65 35//66 36//67 34//68
f 35//69 37//70 38//71 36//72
f 37//73 39//74 40//75 38//76
f 39//77 41//78 42//79 40//80
f 41//81 43//82 44//83 42//84
f 43//85 45//86 46//87 44//88
f 45//89 47//90 48//91 46//92
f 47//93 49//94 50//95 48//96
f 49//97 51//98 52//99 50//100
f 51//101 53//102 54//103 52//104
f 53//105 55//106 56//107 54//108
f 55//109 57//110 58//111 56//112
f 57//113 1//114 4//115 58//116
f 1//117 57//118 55//119
f 1//120 55//121 53//122
f 1//123 53//124 51//125
f 1//126 51//127 49//128
f 1//129 49//130 47//131
f 1//132 47//133 45//134
f 1//135 45//136 43//137
f 1//138 43//139 41//140
f 1//141 41//142 39//143
f 1//144 39//145 37//146
f 1//147 37//148 35//149
f 1//150 35//151 33//152
f 1//153 33//154 31//155
f 1//156 31//157 29//158
f 1//159 29//160 27//161
f 1//162 27//163 25//164
f 1//165 25//166 23//167
f 1//168 23//169 21//170
f 1//171 21//172 19//173
f 1//174 19//175 17//176
f 1//177 17//178 15//179
f 1//180 15//181 13//182
f 1//183 13//184 11//185
f 1//186 11//187 9//188
f 1//189 9//190 7//191
f 1//192 7//193 5//194
f 5//195 2//196 1//197
f 56//198 58//199 4//200
f 54//201 56//202 4//203
f 52//204 54//205 4//206
f 50//207 52//208 4//209
f 48//210 50//211 4//212
f 46//213 48//214 4//215
f 44//216 46//217 4//218
f 42//219 44//220 4//221
f 40//222 42//223 4//224
f 38//225 40//226 4//227
f 36//228 38//229 4//230
f 34//231 36//232 4//233
f 32//234 34//235 4//236
f 30//237 32//238 4//239
f 28//240 30//241 4//242
f 26//243 28//244 4//245
f 24//246 26//247 4//248
f 22//249 24//250 4//251
f 20//252 22//253 4//254
f 18//255 20//256 4//257
f 16//258 18//259 4//260
f 14//261 16//262 4//263
f 12//264 14//265 4//266
f 10//267 12//268 4//269
f 8//270 10//271 4//272
f 6//273 8//274 4//275
f 4//276 3//277 6//278