o 
v 52.123047 1 48
v 52.90447471875 1 45.757774140625
v 52.90447471875 0 45.757774140625
v 52.123047 0 48
v 53.4791115 1 43.447103375
v 53.4791115 0 43.447103375
v 53.84348953125 1 41.085244171875004
v 53.84348953125 0 41.085244171875004
v 53.994141 1 38.689453
v 53.994141 0 38.689453
v 57.519379937500005 1 40.064979
v 57.519379937500005 0 40.064979
v 60.75274925 1 42.112454
v 60.75274925 0 42.112454
v 63.6219511875 1 44.77606525
v 63.6219511875 0 44.77606525
v 66.054688 1 48
v 66.054688 0 48
vn -2.9363349999999997 0 -1.1782230000000027
vn -4.5528966250000025 0 -1.3560645000000022
vn -4.5528966250000025 0 -1.3560645000000022
vn -2.9363349999999997 0 -1.1782230000000027
vn -4.5528966250000025 0 -1.3560645000000022
vn -4.6725299687499984 0 -0.93901481249999819
vn -4.6725299687499984 0 -0.93901481249999819
vn -4.5528966250000025 0 -1.3560645000000022
vn -4.6725299687499984 0 -0.93901481249999819
vn -4.7576503749999972 0 -0.51502949999999714
vn -4.7576503749999972 0 -0.51502949999999714
vn -4.6725299687499984 0 -0.93901481249999819
vn -4.7576503749999972 0 -0.51502949999999714
vn -3.2093399999999974 0 -0.056843000000000643
vn -3.2093399999999974 0 -0.056843000000000643
vn -4.7576503749999972 0 -0.51502949999999714
vn 1.361263000000001 0 -4.8627660000000006
vn 3.4230009999999993 0 -6.7586082500000018
vn 3.4230009999999993 0 -6.7586082500000018
vn 1.361263000000001 0 -4.8627660000000006
vn 3.4230009999999993 0 -6.7586082500000018
vn 4.711086250000001 0 -6.1025712499999969
vn 4.711086250000001 0 -6.1025712499999969
vn 3.4230009999999993 0 -6.7586082500000018
vn 4.711086250000001 0 -6.1025712499999969
vn 5.887546 0 -5.3019387499999979
vn 5.887546 0 -5.3019387499999979
vn 4.711086250000001 0 -6.1025712499999969
vn 5.887546 0 -5.3019387499999979
vn 4.647323 0 -2.9205400000000026
vn 4.647323 0 -2.9205400000000026
vn 5.887546 0 -5.3019387499999979
vn 0 0 13.931640999999999
vn 0 0 13.931640999999999
vn 0 0 13.931640999999999
vn 0 0 13.931640999999999
vn 0 1 0
vn 0 1 0
vn 0 1 0
vn 0 1 0
vn 0 1 0
vn 0 1 0
vn 0 1 0
vn 0 1 0
vn 0 1 0
vn 0 1 0
vn 0 1 0
vn 0 1 0
vn 0 1 0
vn 0 1 0
vn 0 1 0
vn 0 1 0
vn 0 1 0
vn 0 1 0
vn 0 1 0
vn 0 1 0
vn 0 1 0
vn 0 -1 0
vn 0 -1 0
vn 0 -1 0
vn 0 -1 0
vn 0 -1 0
vn 0 -1 0
vn 0 -1 0
vn 0 -1 0
vn 0 -1 0
vn 0 -1 0
vn 0 -1 0
vn 0 -1 0
vn 0 -1 0
vn 0 -1 0
vn 0 -1 0
vn 0 -1 0
vn 0 -1 0
vn 0 -1 0
vn 0 -1 0
vn 0 -1 0
vn 0 -1 0

g 
f 1//1 2//2 3//3 4//4
f 2//5 5//6 6//7 3//8
f 5//9 7//10 8//11 6//12
f 7//13 9//14 10//15 8//16
f 9//17 11//18 12//19 10//20
f 11//21 13//22 14//23 12//24
f 13//25 15//26 16//27 14//28
f 15//29 17//30 18//31 16//32
f 17//33 1//34 4//35 18//36
f 1//37 17//38 15//39
f 1//40 15//41 13//42
f 1//43 13//44 11//45
f 11//46 9//47 7//48
f 11//49 7//50 5//51
f 11//52 5//53 2//54
f 11//55 2//56 1//57
f 16//58 18//59 4//60
f 14//61 16//62 4//63
f 12//64 14//65 4//66
f 8//67 10//68 12//69
f 6//70 8//71 12//72
f 3//73 6//74 12//75
f 4//76 3//77 12//78