o 
v 0 1 100
v 0 1 70
v 0 0 70
v 0 0 100
v 0.314453125 1 72.16064453125
v 0.314453125 0 72.16064453125
v 1.203125 1 74.16015625
v 1.203125 0 74.16015625
v 2.583984375 1 76.02490234375
v 2.583984375 0 76.02490234375
v 4.375 1 77.78125
v 4.375 0 77.78125
v 8.859375 1 81.07421875
v 8.859375 0 81.07421875
v 14 1 84.25
v 14 0 84.25
v 19.140625 1 87.51953125
v 19.140625 0 87.51953125
v 21.505859375 1 89.25537109375
v 21.505859375 0 89.25537109375
v 23.625 1 91.09375
v 23.625 0 91.09375
v 25.416015625 1 93.06103515625
v 25.416015625 0 93.06103515625
v 26.796875 1 95.18359375
v 26.796875 0 95.18359375
v 27.685546875 1 97.48779296875
v 27.685546875 0 97.48779296875
v 28 1 100
v 28 0 100
vn -30 0 0
vn -30 0 0
vn -30 0 0
vn -30 0 0
vn 12 0 0
vn 4.16015625 0 -1.203125
vn 4.16015625 0 -1.203125
vn 12 0 0
vn 4.16015625 0 -1.203125
vn 3.8642578125 0 -2.26953125
vn 3.8642578125 0 -2.26953125
vn 4.16015625 0 -1.203125
vn 3.8642578125 0 -2.26953125
vn 3.62109375 0 -3.171875
vn 3.62109375 0 -3.171875
vn 3.8642578125 0 -2.26953125
vn 3.62109375 0 -3.171875
vn 5.04931640625 0 -6.275390625
vn 5.04931640625 0 -6.275390625
vn 3.62109375 0 -3.171875
vn 5.04931640625 0 -6.275390625
vn 6.46875 0 -9.625
vn 6.46875 0 -9.625
vn 5.04931640625 0 -6.275390625
vn 6.46875 0 -9.625
vn 6.4453125 0 -10.28125
vn 6.4453125 0 -10.28125
vn 6.46875 0 -9.625
vn 6.4453125 0 -10.28125
vn 5.00537109375 0 -7.505859375
vn 5.00537109375 0 -7.505859375
vn 6.4453125 0 -10.28125
vn 5.00537109375 0 -7.505859375
vn 3.57421875 0 -4.484375
vn 3.57421875 0 -4.484375
vn 5.00537109375 0 -7.505859375
vn 3.57421875 0 -4.484375
vn 3.8056640625 0 -3.91015625
vn 3.8056640625 0 -3.91015625
vn 3.57421875 0 -4.484375
vn 3.8056640625 0 -3.91015625
vn 4.08984375 0 -3.171875
vn 4.08984375 0 -3.171875
vn 3.8056640625 0 -3.91015625
vn 4.08984375 0 -3.171875
vn 4.4267578125 0 -2.26953125
vn 4.4267578125 0 -2.26953125
vn 4.08984375 0 -3.171875
vn 4.4267578125 0 -2.26953125
vn 4.81640625 0 -1.203125
vn 4.81640625 0 -1.203125
vn 4.4267578125 0 -2.26953125
vn 4.81640625 0 -1.203125
vn 14 0 0
vn 14 0 0
vn 4.81640625 0 -1.203125
vn 0 0 28
vn 0 0 28
vn 0 0 28
vn 0 0 28
vn 0 1 0
vn 0 1 0
vn 0 1 0
vn 0 1 0
vn 0 1 0
vn 0 1 0
vn 0 1 0
vn 0 1 0
vn 0 1 0
vn 0 1 0
vn 0 1 0
vn 0 1 0
vn 0 1 0
vn 0 1 0
vn 0 1 0
vn 0 1 0
vn 0 1 0
vn 0 1 0
vn 0 1 0
vn 0 1 0
vn 0 1 0
vn 0 1 0
vn 0 1 0
vn 0 1 0
vn 0 1 0
vn 0 1 0
vn 0 1 0
vn 0 1 0
vn 0 1 0
vn 0 1 0
vn 0 1 0
vn 0 1 0
vn 0 1 0
vn 0 1 0
vn 0 1 0
vn 0 1 0
vn 0 1 0
vn 0 1 0
vn 0 1 0
vn 0 -1 0
vn 0 -1 0
vn 0 -1 0
vn 0 -1 0
vn 0 -1 0
vn 0 -1 0
vn 0 -1 0
vn 0 -1 0
vn 0 -1 0
vn 0 -1 0
vn 0 -1 0
vn 0 -1 0
vn 0 -1 0
vn 0 -1 0
vn 0 -1 0
vn 0 -1 0
vn 0 -1 0
vn 0 -1 0
vn 0 -1 0
vn 0 -1 0
vn 0 -1 0
vn 0 -1 0
vn 0 -1 0
vn 0 -1 0
vn 0 -1 0
vn 0 -1 0
vn 0 -1 0
vn 0 -1 0
vn 0 -1 0
vn 0 -1 0
vn 0 -1 0
vn 0 -1 0
vn 0 -1 0
vn 0 -1 0
vn 0 -1 0
vn 0 -1 0
vn 0 -1 0
vn 0 -1 0
vn 0 -1 0

g 
f 1//1 2//2 3//3 4//4
f 2//5 5//6 6//7 3//8
f 5//9 7//10 8//11 6//12
f 7//13 9//14 10//15 8//16
f 9//17 11//18 12//19 10//20
f 11//21 13//22 14//23 12//24
f 13//25 15//26 16//27 14//28
f 15//29 17//30 18//31 16//32
f 17//33 19//34 20//35 18//36
f 19//37 21//38 22//39 20//40
f 21//41 23//42 24//43 22//44
f 23//45 25//46 26//47 24//48
f 25//49 27//50 28//51 26//52
f 27//53 29//54 30//55 28//56
f 29//57 1//58 4//59 30//60
f 1//61 29//62 27//63
f 1//64 27//65 25//66
f 1//67 25//68 23//69
f 1//70 23//71 21//72
f 1//73 21//74 19//75
f 1//76 19//77 17//78
f 1//79 17//80 15//81
f 1//82 15//83 13//84
f 1//85 13//86 11//87
f 1//88 11//89 9//90
f 1//91 9//92 7//93
f 1//94 7//95 5//96
f 5//97 2//98 1//99
f 28//100 30//101 4//102
f 26//103 28//104 4//105
f 24//106 26//107 4//108
f 22//109 24//110 4//111
f 20//112 22//113 4//114
f 18//115 20//116 4//117
f 16//118 18//119 4//120
f 14//121 16//122 4//123
f 12//124 14//125 4//126
f 10//127 12//128 4//129
f 8//130 10//131 4//132
f 6//133 8//134 4//135
f 4//136 3//137 6//138