o 
v 53.843489531249993 1 41.085244171875004
v 53.4791115 1 43.447103375
v 53.4791115 0 43.447103375
v 53.843489531249993 0 41.085244171875004
v 52.904474718749995 1 45.757774140625
v 52.904474718749995 0 45.757774140625
v 52.123047 1 48
v 52.123047 0 48
v 31.943359 1 48
v 31.943359 0 48
v 33.531516771484377 1 45.767938650390619
v 33.531516771484377 0 45.767938650390619
v 35.321722234374995 1 43.789121328125006
v 35.321722234374995 0 43.789121328125006
v 37.290654736328122 1 42.077220498046877
v 37.290654736328122 0 42.077220498046877
v 39.414993624999994 1 40.645908625000004
v 39.414993624999994 0 40.645908625000004
v 41.671418248046876 1 39.508858173828123
v 41.671418248046876 0 39.508858173828123
v 44.036607953125 1 38.679741609375
v 44.036607953125 0 38.679741609375
v 46.487242087890621 1 38.172231396484378
v 46.487242087890621 0 38.172231396484378
v 49 1 38
v 49 0 38
v 51.515199500000008 1 38.173206375
v 51.515199500000008 0 38.173206375
v 53.994141 1 38.689453
v 53.994141 0 38.689453
vn 4.7576503749999972 0 0.51502949999999714
vn 4.6725299687499984 0 0.93901481249999819
vn 4.6725299687499984 0 0.93901481249999819
vn 4.7576503749999972 0 0.51502949999999714
vn 4.6725299687499984 0 0.93901481249999819
vn 4.5528966250000025 0 1.3560645000000022
vn 4.5528966250000025 0 1.3560645000000022
vn 4.6725299687499984 0 0.93901481249999819
vn 4.5528966250000025 0 1.3560645000000022
vn 2.9363349999999997 0 1.1782230000000027
vn 2.9363349999999997 0 1.1782230000000027
vn 4.5528966250000025 0 1.3560645000000022
vn 0 0 20.179688
vn 0 0 20.179688
vn 0 0 20.179688
vn 0 0 20.179688
vn -6.2776690000000031 0 -3.9449609999999993
vn -4.210878671874994 0 -3.3783632343749943
vn -4.210878671874994 0 -3.3783632343749943
vn -6.2776690000000031 0 -3.9449609999999993
vn -4.210878671874994 0 -3.3783632343749943
vn -3.6907181523437416 0 -3.7591379648437453
vn -3.6907181523437416 0 -3.7591379648437453
vn -4.210878671874994 0 -3.3783632343749943
vn -3.6907181523437416 0 -3.7591379648437453
vn -3.1432127031250019 0 -4.0932713906249987
vn -3.1432127031250019 0 -4.0932713906249987
vn -3.6907181523437416 0 -3.7591379648437453
vn -3.1432127031250019 0 -4.0932713906249987
vn -2.5683623242187537 0 -4.3807635117187544
vn -2.5683623242187537 0 -4.3807635117187544
vn -3.1432127031250019 0 -4.0932713906249987
vn -2.5683623242187537 0 -4.3807635117187544
vn -1.966167015625004 0 -4.6216143281250055
vn -1.966167015625004 0 -4.6216143281250055
vn -2.5683623242187537 0 -4.3807635117187544
vn -1.966167015625004 0 -4.6216143281250055
vn -1.3366267773437457 0 -4.8158238398437447
vn -1.3366267773437457 0 -4.8158238398437447
vn -1.966167015625004 0 -4.6216143281250055
vn -1.3366267773437457 0 -4.8158238398437447
vn -0.67974160937500017 0 -4.9633920468750006
vn -0.67974160937500017 0 -4.9633920468750006
vn -1.3366267773437457 0 -4.8158238398437447
vn -0.67974160937500017 0 -4.9633920468750006
vn -9.2000000002201432E-05 0 -6.7627900000000025
vn -9.2000000002201432E-05 0 -6.7627900000000025
vn -0.67974160937500017 0 -4.9633920468750006
vn 0.0002939999999966858 0 -1.6828720000000033
vn 0.68945300000000032 0 -4.9941409999999991
vn 0.68945300000000032 0 -4.9941409999999991
vn 0.0002939999999966858 0 -1.6828720000000033
vn 0.68945300000000032 0 -4.9941409999999991
vn 0.45768100000000089 0 -1.634527999999996
vn 0.45768100000000089 0 -1.634527999999996
vn 0.68945300000000032 0 -4.9941409999999991
vn 3.2093399999999974 0 0.056843000000000643
vn 4.7576503749999972 0 0.51502949999999714
vn 4.7576503749999972 0 0.51502949999999714
vn 3.2093399999999974 0 0.056843000000000643
vn 0 1 0
vn 0 1 0
vn 0 1 0
vn 0 1 0
vn 0 1 0
vn 0 1 0
vn 0 1 0
vn 0 1 0
vn 0 1 0
vn 0 1 0
vn 0 1 0
vn 0 1 0
vn 0 1 0
vn 0 1 0
vn 0 1 0
vn 0 1 0
vn 0 1 0
vn 0 1 0
vn 0 1 0
vn 0 1 0
vn 0 1 0
vn 0 1 0
vn 0 1 0
vn 0 1 0
vn 0 1 0
vn 0 1 0
vn 0 1 0
vn 0 1 0
vn 0 1 0
vn 0 1 0
vn 0 1 0
vn 0 1 0
vn 0 1 0
vn 0 1 0
vn 0 1 0
vn 0 1 0
vn 0 1 0
vn 0 1 0
vn 0 1 0
vn 0 -1 0
vn 0 -1 0
vn 0 -1 0
vn 0 -1 0
vn 0 -1 0
vn 0 -1 0
vn 0 -1 0
vn 0 -1 0
vn 0 -1 0
vn 0 -1 0
vn 0 -1 0
vn 0 -1 0
vn 0 -1 0
vn 0 -1 0
vn 0 -1 0
vn 0 -1 0
vn 0 -1 0
vn 0 -1 0
vn 0 -1 0
vn 0 -1 0
vn 0 -1 0
vn 0 -1 0
vn 0 -1 0
vn 0 -1 0
vn 0 -1 0
vn 0 -1 0
vn 0 -1 0
vn 0 -1 0
vn 0 -1 0
vn 0 -1 0
vn 0 -1 0
vn 0 -1 0
vn 0 -1 0
vn 0 -1 0
vn 0 -1 0
vn 0 -1 0
vn 0 -1 0
vn 0 -1 0
vn 0 -1 0

g 
f 1//1 2//2 3//3 4//4
f 2//5 5//6 6//7 3//8
f 5//9 7//10 8//11 6//12
f 7//13 9//14 10//15 8//16
f 9//17 11//18 12//19 10//20
f 11//21 13//22 14//23 12//24
f 13//25 15//26 16//27 14//28
f 15//29 17//30 18//31 16//32
f 17//33 19//34 20//35 18//36
f 19//37 21//38 22//39 20//40
f 21//41 23//42 24//43 22//44
f 23//45 25//46 26//47 24//48
f 25//49 27//50 28//51 26//52
f 27//53 29//54 30//55 28//56
f 29//57 1//58 4//59 30//60
f 1//61 29//62 27//63
f 1//64 27//65 25//66
f 1//67 25//68 23//69
f 1//70 23//71 21//72
f 1//73 21//74 19//75
f 1//76 19//77 17//78
f 1//79 17//80 15//81
f 1//82 15//83 13//84
f 1//85 13//86 11//87
f 1//88 11//89 9//90
f 1//91 9//92 7//93
f 1//94 7//95 5//96
f 5//97 2//98 1//99
f 28//100 30//101 4//102
f 26//103 28//104 4//105
f 24//106 26//107 4//108
f 22//109 24//110 4//111
f 20//112 22//113 4//114
f 18//115 20//116 4//117
f 16//118 18//119 4//120
f 14//121 16//122 4//123
f 12//124 14//125 4//126
f 10//127 12//128 4//129
f 8//130 10//131 4//132
f 6//133 8//134 4//135
f 4//136 3//137 6//138