o 
v 3.5722659999999991 1 6
v -6.34375 1 6
v -6.34375 0 6
v 3.5722659999999991 0 6
v 1.3710939999999994 1 -6
v 1.3710939999999994 0 -6
v 6.34375 1 0.96093799999999874
v 6.34375 0 0.96093799999999874
vn 0 0 9.9160159999999991
vn 0 0 9.9160159999999991
vn 0 0 9.9160159999999991
vn 0 0 9.9160159999999991
vn -12 0 -7.7148439999999994
vn -12 0 -7.7148439999999994
vn -12 0 -7.7148439999999994
vn -12 0 -7.7148439999999994
vn 6.9609379999999987 0 -4.9726560000000006
vn 6.9609379999999987 0 -4.9726560000000006
vn 6.9609379999999987 0 -4.9726560000000006
vn 6.9609379999999987 0 -4.9726560000000006
vn 5.0390620000000013 0 2.7714840000000009
vn 5.0390620000000013 0 2.7714840000000009
vn 5.0390620000000013 0 2.7714840000000009
vn 5.0390620000000013 0 2.7714840000000009
vn 0 1 0
vn 0 1 0
vn 0 1 0
vn 0 1 0
vn 0 1 0
vn 0 1 0
vn 0 -1 0
vn 0 -1 0
vn 0 -1 0
vn 0 -1 0
vn 0 -1 0
vn 0 -1 0

g 
f 1//1 2//2 3//3 4//4
f 2//5 5//6 6//7 3//8
f 5//9 7//10 8//11 6//12
f 7//13 1//14 4//15 8//16
f 1//17 7//18 5//19
f 5//20 2//21 1//22
f 6//23 8//24 4//25
f 4//26 3//27 6//28