o 
v 87.097656 1 78
v 92.583984 1 60.988281
v 92.583984 0 60.988281
v 87.097656 0 78
v 100 1 78
v 100 0 78
vn -17.011719 0 -5.486328
vn -17.011719 0 -5.486328
vn -17.011719 0 -5.486328
vn -17.011719 0 -5.486328
vn 17.011719 0 -7.4160159999999991
vn 17.011719 0 -7.4160159999999991
vn 17.011719 0 -7.4160159999999991
vn 17.011719 0 -7.4160159999999991
vn 0 0 12.902344
vn 0 0 12.902344
vn 0 0 12.902344
vn 0 0 12.902344
vn 0 1 0
vn 0 1 0
vn 0 1 0
vn 0 -1 0
vn 0 -1 0
vn 0 -1 0

g 
f 1//1 2//2 3//3 4//4
f 2//5 5//6 6//7 3//8
f 5//9 1//10 4//11 6//12
f 5//13 2//14 1//15
f 4//16 3//17 6//18