o 
v 11 1 -39
v 5 1 -39
v 5 0 -39
v 11 0 -39
v -5 1 -27
v -5 0 -27
v 11 1 -27
v 11 0 -27
v 11 1 43
v 11 0 43
v -11 1 43
v -11 0 43
v -11 1 -43
v -11 0 -43
v 11 1 -43
v 11 0 -43
vn 0 0 6
vn 0 0 6
vn 0 0 6
vn 0 0 6
vn 12 0 10
vn 12 0 10
vn 12 0 10
vn 12 0 10
vn 0 0 -16
vn 0 0 -16
vn 0 0 -16
vn 0 0 -16
vn 70 0 0
vn 70 0 0
vn 70 0 0
vn 70 0 0
vn 0 0 22
vn 0 0 22
vn 0 0 22
vn 0 0 22
vn -86 0 0
vn -86 0 0
vn -86 0 0
vn -86 0 0
vn 0 0 -22
vn 0 0 -22
vn 0 0 -22
vn 0 0 -22
vn 4 0 0
vn 4 0 0
vn 4 0 0
vn 4 0 0
vn 0 1 0
vn 0 1 0
vn 0 1 0
vn 0 1 0
vn 0 1 0
vn 0 1 0
vn 0 1 0
vn 0 1 0
vn 0 1 0
vn 0 1 0
vn 0 1 0
vn 0 1 0
vn 0 1 0
vn 0 1 0
vn 0 1 0
vn 0 1 0
vn 0 1 0
vn 0 1 0
vn 0 -1 0
vn 0 -1 0
vn 0 -1 0
vn 0 -1 0
vn 0 -1 0
vn 0 -1 0
vn 0 -1 0
vn 0 -1 0
vn 0 -1 0
vn 0 -1 0
vn 0 -1 0
vn 0 -1 0
vn 0 -1 0
vn 0 -1 0
vn 0 -1 0
vn 0 -1 0
vn 0 -1 0
vn 0 -1 0

g 
f 1//1 2//2 3//3 4//4
f 2//5 5//6 6//7 3//8
f 5//9 7//10 8//11 6//12
f 7//13 9//14 10//15 8//16
f 9//17 11//18 12//19 10//20
f 11//21 13//22 14//23 12//24
f 13//25 15//26 16//27 14//28
f 15//29 1//30 4//31 16//32
f 1//33 15//34 13//35
f 13//36 11//37 9//38
f 9//39 7//40 5//41
f 13//42 9//43 5//44
f 13//45 5//46 2//47
f 13//48 2//49 1//50
f 14//51 16//52 4//53
f 10//54 12//55 14//56
f 6//57 8//58 10//59
f 6//60 10//61 14//62
f 3//63 6//64 14//65
f 4//66 3//67 14//68