o 
v -15.436523300000001 1 17.425781
v -17.220845552006562 1 14.487062984374997
v -17.220845552006562 0 14.487062984374997
v -15.436523300000001 0 17.425781
v -18.5191838470175 1 11.325844625000002
v -18.5191838470175 0 11.325844625000002
v -19.31232466851969 1 8.0017039531249985
v -19.31232466851969 0 8.0017039531249985
v -19.5810545 1 4.5742189999999994
v -19.5810545 0 4.5742189999999994
v -19.46747098010254 1 2.3248467984619126
v -19.46747098010254 0 2.3248467984619126
v -19.134092692382811 1 0.14045165332031218
v -19.134092692382811 0 0.14045165332031218
v -18.591978044799806 1 -1.9679080274658212
v -18.591978044799806 0 -1.9679080274658212
v -17.8521854453125 1 -3.9891738359374997
v -17.8521854453125 0 -3.9891738359374997
v -16.925773301879882 1 -5.912287364135743
v -16.925773301879882 0 -5.912287364135743
v -15.823800022460938 1 -7.7261902041015631
v -15.823800022460938 0 -7.7261902041015631
v -14.557324015014649 1 -9.4198239478759778
v -14.557324015014649 0 -9.4198239478759778
v -13.1374036875 1 -10.982130187500001
v -13.1374036875 0 -10.982130187500001
v -11.575097447875978 1 -12.402050515014649
v -11.575097447875978 0 -12.402050515014649
v -9.8814637041015629 1 -13.668526522460939
v -9.8814637041015629 0 -13.668526522460939
v -8.0675608641357428 1 -14.770499801879883
v -8.0675608641357428 0 -14.770499801879883
v -6.1444473359375 1 -15.6969119453125
v -6.1444473359375 0 -15.6969119453125
v -4.123181527465821 1 -16.436704544799806
v -4.123181527465821 0 -16.436704544799806
v -2.0148218466796877 1 -16.978819192382812
v -2.0148218466796877 0 -16.978819192382812
v 0.16957329846191271 1 -17.31219748010254
v 0.16957329846191271 0 -17.31219748010254
v 2.4189454999999995 1 -17.425781
v 2.4189454999999995 0 -17.425781
v 4.9012515781250023 1 -17.28536272861842
v 4.9012515781250023 0 -17.28536272861842
v 7.3289028125000009 1 -16.870924365903594
v 7.3289028125000009 0 -16.870924365903594
v 9.6810777031249984 1 -16.192458423076662
v 9.6810777031249984 0 -16.192458423076662
v 11.936954749999998 1 -15.259957411358752
v 11.936954749999998 0 -15.259957411358752
v 14.075712453125 1 -14.083413841970998
v 14.075712453125 0 -14.083413841970998
v 16.0765293125 1 -12.672820226134531
v 16.0765293125 0 -12.672820226134531
v 17.918583828125 1 -11.038169075070488
v 17.918583828125 0 -11.038169075070488
v 19.5810545 1 -9.1894529000000009
v 19.5810545 0 -9.1894529000000009
vn -3.7434779999999996 0 2.6945463000000003
vn -6.0999363749999986 0 3.0826605470175004
vn -6.0999363749999986 0 3.0826605470175004
vn -3.7434779999999996 0 2.6945463000000003
vn -6.0999363749999986 0 3.0826605470175004
vn -6.4853590312499989 0 2.091479116513125
vn -6.4853590312499989 0 2.091479116513125
vn -6.0999363749999986 0 3.0826605470175004
vn -6.4853590312499989 0 2.091479116513125
vn -6.7516256250000026 0 1.0618706529825002
vn -6.7516256250000026 0 1.0618706529825002
vn -6.4853590312499989 0 2.091479116513125
vn -6.7516256250000026 0 1.0618706529825002
vn -4.6123970000000014 0 0.00015977462
vn -4.6123970000000014 0 0.00015977462
vn -6.7516256250000026 0 1.0618706529825002
vn -12.1502645 0 0
vn -4.4337673466796872 0 -0.44696180761718751
vn -4.4337673466796872 0 -0.44696180761718751
vn -12.1502645 0 0
vn -4.4337673466796872 0 -0.44696180761718751
vn -4.2927548259277337 0 -0.87549293530273442
vn -4.2927548259277337 0 -0.87549293530273442
vn -4.4337673466796872 0 -0.44696180761718751
vn -4.2927548259277337 0 -0.87549293530273442
vn -4.1296254892578119 0 -1.2819072470703126
vn -4.1296254892578119 0 -1.2819072470703126
vn -4.2927548259277337 0 -0.87549293530273442
vn -4.1296254892578119 0 -1.2819072470703126
vn -3.9443793366699218 0 -1.666204742919922
vn -3.9443793366699218 0 -1.666204742919922
vn -4.1296254892578119 0 -1.2819072470703126
vn -3.9443793366699218 0 -1.666204742919922
vn -3.7370163681640634 0 -2.0283854228515623
vn -3.7370163681640634 0 -2.0283854228515623
vn -3.9443793366699218 0 -1.666204742919922
vn -3.7370163681640634 0 -2.0283854228515623
vn -3.5075365837402348 0 -2.3684492868652347
vn -3.5075365837402348 0 -2.3684492868652347
vn -3.7370163681640634 0 -2.0283854228515623
vn -3.5075365837402348 0 -2.3684492868652347
vn -3.2559399833984379 0 -2.6863963349609374
vn -3.2559399833984379 0 -2.6863963349609374
vn -3.5075365837402348 0 -2.3684492868652347
vn -3.2559399833984379 0 -2.6863963349609374
vn -2.982226567138671 0 -2.982226567138671
vn -2.982226567138671 0 -2.982226567138671
vn -3.2559399833984379 0 -2.6863963349609374
vn -2.982226567138671 0 -2.982226567138671
vn -2.6863963349609374 0 -3.2559399833984379
vn -2.6863963349609374 0 -3.2559399833984379
vn -2.982226567138671 0 -2.982226567138671
vn -2.6863963349609374 0 -3.2559399833984379
vn -2.3684492868652347 0 -3.5075365837402348
vn -2.3684492868652347 0 -3.5075365837402348
vn -2.6863963349609374 0 -3.2559399833984379
vn -2.3684492868652347 0 -3.5075365837402348
vn -2.0283854228515623 0 -3.7370163681640634
vn -2.0283854228515623 0 -3.7370163681640634
vn -2.3684492868652347 0 -3.5075365837402348
vn -2.0283854228515623 0 -3.7370163681640634
vn -1.666204742919922 0 -3.9443793366699218
vn -1.666204742919922 0 -3.9443793366699218
vn -2.0283854228515623 0 -3.7370163681640634
vn -1.666204742919922 0 -3.9443793366699218
vn -1.2819072470703126 0 -4.1296254892578119
vn -1.2819072470703126 0 -4.1296254892578119
vn -1.666204742919922 0 -3.9443793366699218
vn -1.2819072470703126 0 -4.1296254892578119
vn -0.87549293530273442 0 -4.2927548259277337
vn -0.87549293530273442 0 -4.2927548259277337
vn -1.2819072470703126 0 -4.1296254892578119
vn -0.87549293530273442 0 -4.2927548259277337
vn -0.44696180761718751 0 -4.4337673466796872
vn -0.44696180761718751 0 -4.4337673466796872
vn -0.87549293530273442 0 -4.2927548259277337
vn -0.44696180761718751 0 -4.4337673466796872
vn 0 0 -12.1502645
vn 0 0 -12.1502645
vn -0.44696180761718751 0 -4.4337673466796872
vn 0.00020636971 0 -6.673848
vn 0.55485663409640629 0 -4.9099573125000013
vn 0.55485663409640629 0 -4.9099573125000013
vn 0.00020636971 0 -6.673848
vn 0.55485663409640629 0 -4.9099573125000013
vn 1.0929043055417578 0 -4.779826124999996
vn 1.0929043055417578 0 -4.779826124999996
vn 0.55485663409640629 0 -4.9099573125000013
vn 1.0929043055417578 0 -4.779826124999996
vn 1.6109669545448437 0 -4.6080519374999973
vn 1.6109669545448437 0 -4.6080519374999973
vn 1.0929043055417578 0 -4.779826124999996
vn 1.6109669545448437 0 -4.6080519374999973
vn 2.109044581105664 0 -4.3946347500000016
vn 2.109044581105664 0 -4.3946347500000016
vn 1.6109669545448437 0 -4.6080519374999973
vn 2.109044581105664 0 -4.3946347500000016
vn 2.5871371852242193 0 -4.1395745625000018
vn 2.5871371852242193 0 -4.1395745625000018
vn 2.109044581105664 0 -4.3946347500000016
vn 2.5871371852242193 0 -4.1395745625000018
vn 3.0452447669005078 0 -3.8428713750000014
vn 3.0452447669005078 0 -3.8428713750000014
vn 2.5871371852242193 0 -4.1395745625000018
vn 3.0452447669005078 0 -3.8428713750000014
vn 3.4833673261345304 0 -3.5045251875000005
vn 3.4833673261345304 0 -3.5045251875000005
vn 3.0452447669005078 0 -3.8428713750000014
vn 3.4833673261345304 0 -3.5045251875000005
vn 5.2064476 0 -4.1753020000000021
vn 5.2064476 0 -4.1753020000000021
vn 3.4833673261345304 0 -3.5045251875000005
vn 26.6152339 0 35.0175778
vn 26.6152339 0 35.0175778
vn 26.6152339 0 35.0175778
vn 26.6152339 0 35.0175778
vn 0 1 0
vn 0 1 0
vn 0 1 0
vn 0 1 0
vn 0 1 0
vn 0 1 0
vn 0 1 0
vn 0 1 0
vn 0 1 0
vn 0 1 0
vn 0 1 0
vn 0 1 0
vn 0 1 0
vn 0 1 0
vn 0 1 0
vn 0 1 0
vn 0 1 0
vn 0 1 0
vn 0 1 0
vn 0 1 0
vn 0 1 0
vn 0 1 0
vn 0 1 0
vn 0 1 0
vn 0 1 0
vn 0 1 0
vn 0 1 0
vn 0 1 0
vn 0 1 0
vn 0 1 0
vn 0 1 0
vn 0 1 0
vn 0 1 0
vn 0 1 0
vn 0 1 0
vn 0 1 0
vn 0 1 0
vn 0 1 0
vn 0 1 0
vn 0 1 0
vn 0 1 0
vn 0 1 0
vn 0 1 0
vn 0 1 0
vn 0 1 0
vn 0 1 0
vn 0 1 0
vn 0 1 0
vn 0 1 0
vn 0 1 0
vn 0 1 0
vn 0 1 0
vn 0 1 0
vn 0 1 0
vn 0 1 0
vn 0 1 0
vn 0 1 0
vn 0 1 0
vn 0 1 0
vn 0 1 0
vn 0 1 0
vn 0 1 0
vn 0 1 0
vn 0 1 0
vn 0 1 0
vn 0 1 0
vn 0 1 0
vn 0 1 0
vn 0 1 0
vn 0 1 0
vn 0 1 0
vn 0 1 0
vn 0 1 0
vn 0 1 0
vn 0 1 0
vn 0 1 0
vn 0 1 0
vn 0 1 0
vn 0 1 0
vn 0 1 0
vn 0 1 0
vn 0 -1 0
vn 0 -1 0
vn 0 -1 0
vn 0 -1 0
vn 0 -1 0
vn 0 -1 0
vn 0 -1 0
vn 0 -1 0
vn 0 -1 0
vn 0 -1 0
vn 0 -1 0
vn 0 -1 0
vn 0 -1 0
vn 0 -1 0
vn 0 -1 0
vn 0 -1 0
vn 0 -1 0
vn 0 -1 0
vn 0 -1 0
vn 0 -1 0
vn 0 -1 0
vn 0 -1 0
vn 0 -1 0
vn 0 -1 0
vn 0 -1 0
vn 0 -1 0
vn 0 -1 0
vn 0 -1 0
vn 0 -1 0
vn 0 -1 0
vn 0 -1 0
vn 0 -1 0
vn 0 -1 0
vn 0 -1 0
vn 0 -1 0
vn 0 -1 0
vn 0 -1 0
vn 0 -1 0
vn 0 -1 0
vn 0 -1 0
vn 0 -1 0
vn 0 -1 0
vn 0 -1 0
vn 0 -1 0
vn 0 -1 0
vn 0 -1 0
vn 0 -1 0
vn 0 -1 0
vn 0 -1 0
vn 0 -1 0
vn 0 -1 0
vn 0 -1 0
vn 0 -1 0
vn 0 -1 0
vn 0 -1 0
vn 0 -1 0
vn 0 -1 0
vn 0 -1 0
vn 0 -1 0
vn 0 -1 0
vn 0 -1 0
vn 0 -1 0
vn 0 -1 0
vn 0 -1 0
vn 0 -1 0
vn 0 -1 0
vn 0 -1 0
vn 0 -1 0
vn 0 -1 0
vn 0 -1 0
vn 0 -1 0
vn 0 -1 0
vn 0 -1 0
vn 0 -1 0
vn 0 -1 0
vn 0 -1 0
vn 0 -1 0
vn 0 -1 0
vn 0 -1 0
vn 0 -1 0
vn 0 -1 0

g 
f 1//1 2//2 3//3 4//4
f 2//5 5//6 6//7 3//8
f 5//9 7//10 8//11 6//12
f 7//13 9//14 10//15 8//16
f 9//17 11//18 12//19 10//20
f 11//21 13//22 14//23 12//24
f 13//25 15//26 16//27 14//28
f 15//29 17//30 18//31 16//32
f 17//33 19//34 20//35 18//36
f 19//37 21//38 22//39 20//40
f 21//41 23//42 24//43 22//44
f 23//45 25//46 26//47 24//48
f 25//49 27//50 28//51 26//52
f 27//53 29//54 30//55 28//56
f 29//57 31//58 32//59 30//60
f 31//61 33//62 34//63 32//64
f 33//65 35//66 36//67 34//68
f 35//69 37//70 38//71 36//72
f 37//73 39//74 40//75 38//76
f 39//77 41//78 42//79 40//80
f 41//81 43//82 44//83 42//84
f 43//85 45//86 46//87 44//88
f 45//89 47//90 48//91 46//92
f 47//93 49//94 50//95 48//96
f 49//97 51//98 52//99 50//100
f 51//101 53//102 54//103 52//104
f 53//105 55//106 56//107 54//108
f 55//109 57//110 58//111 56//112
f 57//113 1//114 4//115 58//116
f 1//117 57//118 55//119
f 1//120 55//121 53//122
f 1//123 53//124 51//125
f 1//126 51//127 49//128
f 1//129 49//130 47//131
f 1//132 47//133 45//134
f 1//135 45//136 43//137
f 1//138 43//139 41//140
f 1//141 41//142 39//143
f 1//144 39//145 37//146
f 1//147 37//148 35//149
f 1//150 35//151 33//152
f 1//153 33//154 31//155
f 1//156 31//157 29//158
f 1//159 29//160 27//161
f 1//162 27//163 25//164
f 1//165 25//166 23//167
f 1//168 23//169 21//170
f 1//171 21//172 19//173
f 1//174 19//175 17//176
f 1//177 17//178 15//179
f 1//180 15//181 13//182
f 1//183 13//184 11//185
f 1//186 11//187 9//188
f 1//189 9//190 7//191
f 1//192 7//193 5//194
f 5//195 2//196 1//197
f 56//198 58//199 4//200
f 54//201 56//202 4//203
f 52//204 54//205 4//206
f 50//207 52//208 4//209
f 48//210 50//211 4//212
f 46//213 48//214 4//215
f 44//216 46//217 4//218
f 42//219 44//220 4//221
f 40//222 42//223 4//224
f 38//225 40//226 4//227
f 36//228 38//229 4//230
f 34//231 36//232 4//233
f 32//234 34//235 4//236
f 30//237 32//238 4//239
f 28//240 30//241 4//242
f 26//243 28//244 4//245
f 24//246 26//247 4//248
f 22//249 24//250 4//251
f 20//252 22//253 4//254
f 18//255 20//256 4//257
f 16//258 18//259 4//260
f 14//261 16//262 4//263
f 12//264 14//265 4//266
f 10//267 12//268 4//269
f 8//270 10//271 4//272
f 6//273 8//274 4//275
f 4//276 3//277 6//278