o 
v 0 1 100
v 0 1 78.644531
v 0 0 78.644531
v 0 0 100
v 0.26855726236328126 1 82.9551151171875
v 0.26855726236328126 0 82.9551151171875
v 1.00639381765625 1 86.96692787500001
v 1.00639381765625 0 86.96692787500001
v 2.1637189819335938 1 90.5949048828125
v 2.1637189819335938 0 90.5949048828125
v 3.69074207125 1 93.75398175
v 3.69074207125 0 93.75398175
v 5.5376724016601564 1 96.3590940859375
v 5.5376724016601564 0 96.3590940859375
v 7.65471928921875 1 98.3251775
v 7.65471928921875 0 98.3251775
v 9.9920920499804691 1 99.5671676015625
v 9.9920920499804691 0 99.5671676015625
v 11.22784104407959 1 99.89004503808593
v 11.22784104407959 0 99.89004503808593
v 12.5 1 100
v 12.5 0 100
vn -21.355469 0 0
vn -21.355469 0 0
vn -21.355469 0 0
vn -21.355469 0 0
vn 11.817639999999997 0 -0.04618859
vn 8.32239687500001 0 -1.00639381765625
vn 8.32239687500001 0 -1.00639381765625
vn 11.817639999999997 0 -0.04618859
vn 8.32239687500001 0 -1.00639381765625
vn 7.6397897656249967 0 -1.8951617195703125
vn 7.6397897656249967 0 -1.8951617195703125
vn 8.32239687500001 0 -1.00639381765625
vn 7.6397897656249967 0 -1.8951617195703125
vn 6.7870538749999838 0 -2.68434825359375
vn 6.7870538749999838 0 -2.68434825359375
vn 7.6397897656249967 0 -1.8951617195703125
vn 6.7870538749999838 0 -2.68434825359375
vn 5.7641892031249995 0 -3.3739534197265626
vn 5.7641892031249995 0 -3.3739534197265626
vn 6.7870538749999838 0 -2.68434825359375
vn 5.7641892031249995 0 -3.3739534197265626
vn 4.5711957500000011 0 -3.9639772179687505
vn 4.5711957500000011 0 -3.9639772179687505
vn 5.7641892031249995 0 -3.3739534197265626
vn 4.5711957500000011 0 -3.9639772179687505
vn 3.2080735156250029 0 -4.4544196483203127
vn 3.2080735156250029 0 -4.4544196483203127
vn 4.5711957500000011 0 -3.9639772179687505
vn 3.2080735156250029 0 -4.4544196483203127
vn 1.5648675380859345 0 -3.5731217548608392
vn 1.5648675380859345 0 -3.5731217548608392
vn 3.2080735156250029 0 -4.4544196483203127
vn 1.5648675380859345 0 -3.5731217548608392
vn 0.43283239843749755 0 -2.5079079500195309
vn 0.43283239843749755 0 -2.5079079500195309
vn 1.5648675380859345 0 -3.5731217548608392
vn 0.43283239843749755 0 -2.5079079500195309
vn -0.00027000000000043656 0 -6.8708764
vn -0.00027000000000043656 0 -6.8708764
vn 0.43283239843749755 0 -2.5079079500195309
vn 0 0 12.5
vn 0 0 12.5
vn 0 0 12.5
vn 0 0 12.5
vn 0 1 0
vn 0 1 0
vn 0 1 0
vn 0 1 0
vn 0 1 0
vn 0 1 0
vn 0 1 0
vn 0 1 0
vn 0 1 0
vn 0 1 0
vn 0 1 0
vn 0 1 0
vn 0 1 0
vn 0 1 0
vn 0 1 0
vn 0 1 0
vn 0 1 0
vn 0 1 0
vn 0 1 0
vn 0 1 0
vn 0 1 0
vn 0 1 0
vn 0 1 0
vn 0 1 0
vn 0 1 0
vn 0 1 0
vn 0 1 0
vn 0 -1 0
vn 0 -1 0
vn 0 -1 0
vn 0 -1 0
vn 0 -1 0
vn 0 -1 0
vn 0 -1 0
vn 0 -1 0
vn 0 -1 0
vn 0 -1 0
vn 0 -1 0
vn 0 -1 0
vn 0 -1 0
vn 0 -1 0
vn 0 -1 0
vn 0 -1 0
vn 0 -1 0
vn 0 -1 0
vn 0 -1 0
vn 0 -1 0
vn 0 -1 0
vn 0 -1 0
vn 0 -1 0
vn 0 -1 0
vn 0 -1 0
vn 0 -1 0
vn 0 -1 0

g 
f 1//1 2//2 3//3 4//4
f 2//5 5//6 6//7 3//8
f 5//9 7//10 8//11 6//12
f 7//13 9//14 10//15 8//16
f 9//17 11//18 12//19 10//20
f 11//21 13//22 14//23 12//24
f 13//25 15//26 16//27 14//28
f 15//29 17//30 18//31 16//32
f 17//33 19//34 20//35 18//36
f 19//37 21//38 22//39 20//40
f 21//41 1//42 4//43 22//44
f 1//45 21//46 19//47
f 1//48 19//49 17//50
f 1//51 17//52 15//53
f 1//54 15//55 13//56
f 1//57 13//58 11//59
f 1//60 11//61 9//62
f 1//63 9//64 7//65
f 1//66 7//67 5//68
f 5//69 2//70 1//71
f 20//72 22//73 4//74
f 18//75 20//76 4//77
f 16//78 18//79 4//80
f 14//81 16//82 4//83
f 12//84 14//85 4//86
f 10//87 12//88 4//89
f 8//90 10//91 4//92
f 6//93 8//94 4//95
f 4//96 3//97 6//98