o 
v -3.9628905000000003 1 3.0683590000000009
v -3.9628905000000003 1 -9.091797
v -3.9628905000000003 0 -9.091797
v -3.9628905000000003 0 3.0683590000000009
v 3.9628905000000003 1 9.091797
v 3.9628905000000003 0 9.091797
vn -12.160156 0 0
vn -12.160156 0 0
vn -12.160156 0 0
vn -12.160156 0 0
vn 18.183594 0 -7.9257810000000006
vn 18.183594 0 -7.9257810000000006
vn 18.183594 0 -7.9257810000000006
vn 18.183594 0 -7.9257810000000006
vn -6.0234379999999987 0 7.9257810000000006
vn -6.0234379999999987 0 7.9257810000000006
vn -6.0234379999999987 0 7.9257810000000006
vn -6.0234379999999987 0 7.9257810000000006
vn 0 1 0
vn 0 1 0
vn 0 1 0
vn 0 -1 0
vn 0 -1 0
vn 0 -1 0

g 
f 1//1 2//2 3//3 4//4
f 2//5 5//6 6//7 3//8
f 5//9 1//10 4//11 6//12
f 5//13 2//14 1//15
f 4//16 3//17 6//18