o 
v 64 1 94
v 69.005859 1 85.240234
v 69.005859 0 85.240234
v 64 0 94
v 87.400391 1 94
v 87.400391 0 94
vn -8.7597659999999991 0 -5.0058590000000009
vn -8.7597659999999991 0 -5.0058590000000009
vn -8.7597659999999991 0 -5.0058590000000009
vn -8.7597659999999991 0 -5.0058590000000009
vn 8.7597659999999991 0 -18.394531999999998
vn 8.7597659999999991 0 -18.394531999999998
vn 8.7597659999999991 0 -18.394531999999998
vn 8.7597659999999991 0 -18.394531999999998
vn 0 0 23.400391
vn 0 0 23.400391
vn 0 0 23.400391
vn 0 0 23.400391
vn 0 1 0
vn 0 1 0
vn 0 1 0
vn 0 -1 0
vn 0 -1 0
vn 0 -1 0

g 
f 1//1 2//2 3//3 4//4
f 2//5 5//6 6//7 3//8
f 5//9 1//10 4//11 6//12
f 5//13 2//14 1//15
f 4//16 3//17 6//18