o 
v 78.007812 1 41.322266
v 76.27862291406251 1 39.661510353515624
v 76.27862291406251 0 39.661510353515624
v 78.007812 0 41.322266
v 74.417214687499992 1 38.200165703125
v 74.417214687499992 0 38.200165703125
v 72.4390467421875 1 36.945022607421876
v 72.4390467421875 0 36.945022607421876
v 70.3595785 1 35.902871625
v 70.3595785 0 35.902871625
v 68.1942693828125 1 35.080503314453125
v 68.1942693828125 0 35.080503314453125
v 65.9585788125 1 34.484708234375006
v 65.9585788125 0 34.484708234375006
v 63.667966210937507 1 34.122276943359374
v 63.667966210937507 0 34.122276943359374
v 61.337891 1 34
v 61.337891 0 34
v 61.306641 1 34
v 61.306641 0 34
v 58.980703734375 1 34.125127611328125
v 58.980703734375 0 34.125127611328125
v 56.6943275625 1 34.489548828125
v 56.6943275625 0 34.489548828125
v 54.462889546875 1 35.086496224609384
v 54.462889546875 0 35.086496224609384
v 52.30176675 1 35.909202375
v 52.30176675 0 35.909202375
v 50.226336234375 1 36.950899853515622
v 50.226336234375 0 36.950899853515622
v 48.2519750625 1 38.204821234375004
v 48.2519750625 0 38.204821234375004
v 46.394060296875 1 39.664199091796874
v 46.394060296875 0 39.664199091796874
v 44.667969 1 41.322266
v 44.667969 0 41.322266
v 31.505859 1 32.990234
v 31.505859 0 32.990234
v 31.492189 1 32.941404
v 31.492189 0 32.941404
v 34.4091053203125 1 29.583441925781248
v 34.4091053203125 0 29.583441925781248
v 37.6288191875 1 26.616090093750003
v 37.6288191875 0 26.616090093750003
v 41.1161884609375 1 24.056941464843746
v 41.1161884609375 0 24.056941464843746
v 44.836071000000004 1 21.923589
v 44.836071000000004 0 21.923589
v 48.753324664062504 1 20.23362566015625
v 48.753324664062504 0 20.23362566015625
v 52.832807312499995 1 19.00464440625
v 52.832807312499995 0 19.00464440625
v 57.0393768046875 1 18.254238199218747
v 57.0393768046875 0 18.254238199218747
v 61.337891 1 18
v 61.337891 0 18
v 65.159337833984367 1 18.200353517578122
v 65.159337833984367 0 18.200353517578122
v 68.916077796875 1 18.794586703125
v 68.916077796875 0 18.794586703125
v 72.58275483007813 1 19.771563005859377
v 72.58275483007813 0 19.771563005859377
v 76.134012875 1 21.120145875000002
v 76.134012875 0 21.120145875000002
v 79.54449587304687 1 22.829198759765625
v 79.54449587304687 0 22.829198759765625
v 82.788847765625007 1 24.887585109375003
v 82.788847765625007 0 24.887585109375003
v 85.841712494140623 1 27.284168373046874
v 85.841712494140623 0 27.284168373046874
v 88.677734 1 30.007812
v 88.677734 0 30.007812
vn -4.6885270000000006 0 4.4211370000000016
vn -3.1221002968749971 0 3.5905973125000088
vn -3.1221002968749971 0 3.5905973125000088
vn -4.6885270000000006 0 4.4211370000000016
vn -3.1221002968749971 0 3.5905973125000088
vn -2.7164877460937475 0 3.8395761718750094
vn -2.7164877460937475 0 3.8395761718750094
vn -3.1221002968749971 0 3.5905973125000088
vn -2.7164877460937475 0 3.8395761718750094
vn -2.2972940781249989 0 4.0576361874999947
vn -2.2972940781249989 0 4.0576361874999947
vn -2.7164877460937475 0 3.8395761718750094
vn -2.2972940781249989 0 4.0576361874999947
vn -1.8645192929687511 0 4.2447773593750071
vn -1.8645192929687511 0 4.2447773593750071
vn -2.2972940781249989 0 4.0576361874999947
vn -1.8645192929687511 0 4.2447773593750071
vn -1.4181633906249971 0 4.4009996875000041
vn -1.4181633906249971 0 4.4009996875000041
vn -1.8645192929687511 0 4.2447773593750071
vn -1.4181633906249971 0 4.4009996875000041
vn -0.95822637109375108 0 4.5263031718749858
vn -0.95822637109375108 0 4.5263031718749858
vn -1.4181633906249971 0 4.4009996875000041
vn -0.95822637109375108 0 4.5263031718749858
vn -0.484708234375006 0 4.6206878124999946
vn -0.484708234375006 0 4.6206878124999946
vn -0.95822637109375108 0 4.5263031718749858
vn -0.484708234375006 0 4.6206878124999946
vn 0.0001699999999971169 0 6.252409
vn 0.0001699999999971169 0 6.252409
vn -0.484708234375006 0 4.6206878124999946
vn 0 0 0.03125
vn 0 0 0.03125
vn 0 0 0.03125
vn 0 0 0.03125
vn 0.0086000000000012733 0 6.2415790000000015
vn 0.48954882812500244 0 4.6123134374999992
vn 0.48954882812500244 0 4.6123134374999992
vn 0.0086000000000012733 0 6.2415790000000015
vn 0.48954882812500244 0 4.6123134374999992
vn 0.96136861328125889 0 4.5178141875000009
vn 0.96136861328125889 0 4.5178141875000009
vn 0.48954882812500244 0 4.6123134374999992
vn 0.96136861328125889 0 4.5178141875000009
vn 1.4196535468749971 0 4.3925608125000011
vn 1.4196535468749971 0 4.3925608125000011
vn 0.96136861328125889 0 4.5178141875000009
vn 1.4196535468749971 0 4.3925608125000011
vn 1.8644036289062385 0 4.2365533125
vn 1.8644036289062385 0 4.2365533125
vn 1.4196535468749971 0 4.3925608125000011
vn 1.8644036289062385 0 4.2365533125
vn 2.2956188593750042 0 4.0497916874999973
vn 2.2956188593750042 0 4.0497916874999973
vn 1.8644036289062385 0 4.2365533125
vn 2.2956188593750042 0 4.0497916874999973
vn 2.7132992382812517 0 3.8322759375000004
vn 2.7132992382812517 0 3.8322759375000004
vn 2.2956188593750042 0 4.0497916874999973
vn 2.7132992382812517 0 3.8322759375000004
vn 3.1174447656249953 0 3.5840060625000021
vn 3.1174447656249953 0 3.5840060625000021
vn 2.7132992382812517 0 3.8322759375000004
vn 3.1174447656249953 0 3.5840060625000021
vn 4.6804149999999964 0 4.413477
vn 4.6804149999999964 0 4.413477
vn 3.1174447656249953 0 3.5840060625000021
vn -8.3320319999999981 0 13.162109999999998
vn -8.3320319999999981 0 13.162109999999998
vn -8.3320319999999981 0 13.162109999999998
vn -8.3320319999999981 0 13.162109999999998
vn -0.048830000000002372 0 0.013670000000001181
vn -0.048830000000002372 0 0.013670000000001181
vn -0.048830000000002372 0 0.013670000000001181
vn -0.048830000000002372 0 0.013670000000001181
vn -9.4597409999999975 0 -7.343475999999999
vn -6.3253139062499955 0 -6.1366301875
vn -6.3253139062499955 0 -6.1366301875
vn -9.4597409999999975 0 -7.343475999999999
vn -6.3253139062499955 0 -6.1366301875
vn -5.5265004609375019 0 -6.7070831406250022
vn -5.5265004609375019 0 -6.7070831406250022
vn -6.3253139062499955 0 -6.1366301875
vn -5.5265004609375019 0 -6.7070831406250022
vn -4.6925010937500033 0 -7.2072518125000045
vn -4.6925010937500033 0 -7.2072518125000045
vn -5.5265004609375019 0 -6.7070831406250022
vn -4.6925010937500033 0 -7.2072518125000045
vn -3.8233158046874962 0 -7.637136203125003
vn -3.8233158046874962 0 -7.637136203125003
vn -4.6925010937500033 0 -7.2072518125000045
vn -3.8233158046874962 0 -7.637136203125003
vn -2.9189445937499983 0 -7.9967363124999906
vn -2.9189445937499983 0 -7.9967363124999906
vn -3.8233158046874962 0 -7.637136203125003
vn -2.9189445937499983 0 -7.9967363124999906
vn -1.9793874609375024 0 -8.2860521406249958
vn -1.9793874609375024 0 -8.2860521406249958
vn -2.9189445937499983 0 -7.9967363124999906
vn -1.9793874609375024 0 -8.2860521406249958
vn -1.0046444062500015 0 -8.5050836875000044
vn -1.0046444062500015 0 -8.5050836875000044
vn -1.9793874609375024 0 -8.2860521406249958
vn -1.0046444062500015 0 -8.5050836875000044
vn -0.00077299999999880242 0 -11.55406
vn -0.00077299999999880242 0 -11.55406
vn -1.0046444062500015 0 -8.5050836875000044
vn -0.00079600000000112914 0 -10.254261999999997
vn 0.79458670312499891 0 -7.5781867968750021
vn 0.79458670312499891 0 -7.5781867968750021
vn -0.00079600000000112914 0 -10.254261999999997
vn 0.79458670312499891 0 -7.5781867968750021
vn 1.5712094882812551 0 -7.4234169960937635
vn 1.5712094882812551 0 -7.4234169960937635
vn 0.79458670312499891 0 -7.5781867968750021
vn 1.5712094882812551 0 -7.4234169960937635
vn 2.3255591718750033 0 -7.2179350781249951
vn 2.3255591718750033 0 -7.2179350781249951
vn 1.5712094882812551 0 -7.4234169960937635
vn 2.3255591718750033 0 -7.2179350781249951
vn 3.0576357539062471 0 -6.96174104296874
vn 3.0576357539062471 0 -6.96174104296874
vn 2.3255591718750033 0 -7.2179350781249951
vn 3.0576357539062471 0 -6.96174104296874
vn 3.7674392343750007 0 -6.6548348906250112
vn 3.7674392343750007 0 -6.6548348906250112
vn 3.0576357539062471 0 -6.96174104296874
vn 3.7674392343750007 0 -6.6548348906250112
vn 4.45496961328125 0 -6.297216621093753
vn 4.45496961328125 0 -6.297216621093753
vn 3.7674392343750007 0 -6.6548348906250112
vn 4.45496961328125 0 -6.297216621093753
vn 5.1202268906249984 0 -5.8888862343749935
vn 5.1202268906249984 0 -5.8888862343749935
vn 4.45496961328125 0 -6.297216621093753
vn 5.1202268906249984 0 -5.8888862343749935
vn 7.6892309999999995 0 -7.2510610000000071
vn 7.6892309999999995 0 -7.2510610000000071
vn 5.1202268906249984 0 -5.8888862343749935
vn 11.314453999999998 0 10.669922
vn 11.314453999999998 0 10.669922
vn 11.314453999999998 0 10.669922
vn 11.314453999999998 0 10.669922
vn 0 1 0
vn 0 1 0
vn 0 1 0
vn 0 1 0
vn 0 1 0
vn 0 1 0
vn 0 1 0
vn 0 1 0
vn 0 1 0
vn 0 1 0
vn 0 1 0
vn 0 1 0
vn 0 1 0
vn 0 1 0
vn 0 1 0
vn 0 1 0
vn 0 1 0
vn 0 1 0
vn 0 1 0
vn 0 1 0
vn 0 1 0
vn 0 1 0
vn 0 1 0
vn 0 1 0
vn 0 1 0
vn 0 1 0
vn 0 1 0
vn 0 1 0
vn 0 1 0
vn 0 1 0
vn 0 1 0
vn 0 1 0
vn 0 1 0
vn 0 1 0
vn 0 1 0
vn 0 1 0
vn 0 1 0
vn 0 1 0
vn 0 1 0
vn 0 1 0
vn 0 1 0
vn 0 1 0
vn 0 1 0
vn 0 1 0
vn 0 1 0
vn 0 1 0
vn 0 1 0
vn 0 1 0
vn 0 1 0
vn 0 1 0
vn 0 1 0
vn 0 1 0
vn 0 1 0
vn 0 1 0
vn 0 1 0
vn 0 1 0
vn 0 1 0
vn 0 1 0
vn 0 1 0
vn 0 1 0
vn 0 1 0
vn 0 1 0
vn 0 1 0
vn 0 1 0
vn 0 1 0
vn 0 1 0
vn 0 1 0
vn 0 1 0
vn 0 1 0
vn 0 1 0
vn 0 1 0
vn 0 1 0
vn 0 1 0
vn 0 1 0
vn 0 1 0
vn 0 1 0
vn 0 1 0
vn 0 1 0
vn 0 1 0
vn 0 1 0
vn 0 1 0
vn 0 1 0
vn 0 1 0
vn 0 1 0
vn 0 1 0
vn 0 1 0
vn 0 1 0
vn 0 1 0
vn 0 1 0
vn 0 1 0
vn 0 1 0
vn 0 1 0
vn 0 1 0
vn 0 1 0
vn 0 1 0
vn 0 1 0
vn 0 1 0
vn 0 1 0
vn 0 1 0
vn 0 1 0
vn 0 1 0
vn 0 1 0
vn 0 -1 0
vn 0 -1 0
vn 0 -1 0
vn 0 -1 0
vn 0 -1 0
vn 0 -1 0
vn 0 -1 0
vn 0 -1 0
vn 0 -1 0
vn 0 -1 0
vn 0 -1 0
vn 0 -1 0
vn 0 -1 0
vn 0 -1 0
vn 0 -1 0
vn 0 -1 0
vn 0 -1 0
vn 0 -1 0
vn 0 -1 0
vn 0 -1 0
vn 0 -1 0
vn 0 -1 0
vn 0 -1 0
vn 0 -1 0
vn 0 -1 0
vn 0 -1 0
vn 0 -1 0
vn 0 -1 0
vn 0 -1 0
vn 0 -1 0
vn 0 -1 0
vn 0 -1 0
vn 0 -1 0
vn 0 -1 0
vn 0 -1 0
vn 0 -1 0
vn 0 -1 0
vn 0 -1 0
vn 0 -1 0
vn 0 -1 0
vn 0 -1 0
vn 0 -1 0
vn 0 -1 0
vn 0 -1 0
vn 0 -1 0
vn 0 -1 0
vn 0 -1 0
vn 0 -1 0
vn 0 -1 0
vn 0 -1 0
vn 0 -1 0
vn 0 -1 0
vn 0 -1 0
vn 0 -1 0
vn 0 -1 0
vn 0 -1 0
vn 0 -1 0
vn 0 -1 0
vn 0 -1 0
vn 0 -1 0
vn 0 -1 0
vn 0 -1 0
vn 0 -1 0
vn 0 -1 0
vn 0 -1 0
vn 0 -1 0
vn 0 -1 0
vn 0 -1 0
vn 0 -1 0
vn 0 -1 0
vn 0 -1 0
vn 0 -1 0
vn 0 -1 0
vn 0 -1 0
vn 0 -1 0
vn 0 -1 0
vn 0 -1 0
vn 0 -1 0
vn 0 -1 0
vn 0 -1 0
vn 0 -1 0
vn 0 -1 0
vn 0 -1 0
vn 0 -1 0
vn 0 -1 0
vn 0 -1 0
vn 0 -1 0
vn 0 -1 0
vn 0 -1 0
vn 0 -1 0
vn 0 -1 0
vn 0 -1 0
vn 0 -1 0
vn 0 -1 0
vn 0 -1 0
vn 0 -1 0
vn 0 -1 0
vn 0 -1 0
vn 0 -1 0
vn 0 -1 0
vn 0 -1 0
vn 0 -1 0

g 
f 1//1 2//2 3//3 4//4
f 2//5 5//6 6//7 3//8
f 5//9 7//10 8//11 6//12
f 7//13 9//14 10//15 8//16
f 9//17 11//18 12//19 10//20
f 11//21 13//22 14//23 12//24
f 13//25 15//26 16//27 14//28
f 15//29 17//30 18//31 16//32
f 17//33 19//34 20//35 18//36
f 19//37 21//38 22//39 20//40
f 21//41 23//42 24//43 22//44
f 23//45 25//46 26//47 24//48
f 25//49 27//50 28//51 26//52
f 27//53 29//54 30//55 28//56
f 29//57 31//58 32//59 30//60
f 31//61 33//62 34//63 32//64
f 33//65 35//66 36//67 34//68
f 35//69 37//70 38//71 36//72
f 37//73 39//74 40//75 38//76
f 39//77 41//78 42//79 40//80
f 41//81 43//82 44//83 42//84
f 43//85 45//86 46//87 44//88
f 45//89 47//90 48//91 46//92
f 47//93 49//94 50//95 48//96
f 49//97 51//98 52//99 50//100
f 51//101 53//102 54//103 52//104
f 53//105 55//106 56//107 54//108
f 55//109 57//110 58//111 56//112
f 57//113 59//114 60//115 58//116
f 59//117 61//118 62//119 60//120
f 61//121 63//122 64//123 62//124
f 63//125 65//126 66//127 64//128
f 65//129 67//130 68//131 66//132
f 67//133 69//134 70//135 68//136
f 69//137 71//138 72//139 70//140
f 71//141 1//142 4//143 72//144
f 1//145 71//146 69//147
f 1//148 69//149 67//150
f 1//151 67//152 65//153
f 1//154 65//155 63//156
f 1//157 63//158 61//159
f 1//160 61//161 59//162
f 1//163 59//164 57//165
f 1//166 57//167 55//168
f 1//169 55//170 53//171
f 53//172 51//173 49//174
f 53//175 49//176 47//177
f 53//178 47//179 45//180
f 53//181 45//182 43//183
f 53//184 43//185 41//186
f 53//187 41//188 39//189
f 53//190 39//191 37//192
f 53//193 37//194 35//195
f 53//196 35//197 33//198
f 53//199 33//200 31//201
f 53//202 31//203 29//204
f 53//205 29//206 27//207
f 53//208 27//209 25//210
f 53//211 25//212 23//213
f 53//214 23//215 21//216
f 53//217 21//218 19//219
f 53//220 19//221 17//222
f 53//223 17//224 15//225
f 53//226 15//227 13//228
f 53//229 13//230 11//231
f 53//232 11//233 9//234
f 53//235 9//236 7//237
f 53//238 7//239 5//240
f 53//241 5//242 2//243
f 53//244 2//245 1//246
f 70//247 72//248 4//249
f 68//250 70//251 4//252
f 66//253 68//254 4//255
f 64//256 66//257 4//258
f 62//259 64//260 4//261
f 60//262 62//263 4//264
f 58//265 60//266 4//267
f 56//268 58//269 4//270
f 54//271 56//272 4//273
f 50//274 52//275 54//276
f 48//277 50//278 54//279
f 46//280 48//281 54//282
f 44//283 46//284 54//285
f 42//286 44//287 54//288
f 40//289 42//290 54//291
f 38//292 40//293 54//294
f 36//295 38//296 54//297
f 34//298 36//299 54//300
f 32//301 34//302 54//303
f 30//304 32//305 54//306
f 28//307 30//308 54//309
f 26//310 28//311 54//312
f 24//313 26//314 54//315
f 22//316 24//317 54//318
f 20//319 22//320 54//321
f 18//322 20//323 54//324
f 16//325 18//326 54//327
f 14//328 16//329 54//330
f 12//331 14//332 54//333
f 10//334 12//335 54//336
f 8//337 10//338 54//339
f 6//340 8//341 54//342
f 3//343 6//344 54//345
f 4//346 3//347 54//348