o 
v 66 1 62
v 76 1 62
v 76 0 62
v 66 0 62
v 76 1 82
v 76 0 82
v 60 1 90
v 60 0 90
v 60 1 83
v 60 0 83
v 62.418418552734373 1 82.735886214843745
v 62.418418552734373 0 82.735886214843745
v 64.670941546875 1 81.978395593750008
v 64.670941546875 0 81.978395593750008
v 66.709314111328126 1 80.779804238281258
v 66.709314111328126 0 80.779804238281258
v 68.485281375 1 79.19238825
v 68.485281375 0 79.19238825
v 69.950588466796873 1 77.268423730468754
v 69.950588466796873 0 77.268423730468754
v 71.056980515625 1 75.06018678125
v 71.056980515625 0 75.06018678125
v 71.756202650390634 1 72.61995350390626
v 71.756202650390634 0 72.61995350390626
v 72 1 70
v 72 0 70
v 60 1 70
v 60 0 70
v 60 1 52
v 60 0 52
v 64 1 52
v 64 0 52
vn 0 0 -10
vn 0 0 -10
vn 0 0 -10
vn 0 0 -10
vn 20 0 0
vn 20 0 0
vn 20 0 0
vn 20 0 0
vn 8 0 16
vn 8 0 16
vn 8 0 16
vn 8 0 16
vn -7 0 0
vn -7 0 0
vn -7 0 0
vn -7 0 0
vn 0 0 -6.6274169999999941
vn -1.0216044062499918 0 -4.6709415468749995
vn -1.0216044062499918 0 -4.6709415468749995
vn 0 0 -6.6274169999999941
vn -1.0216044062499918 0 -4.6709415468749995
vn -1.9560819765624871 0 -4.2908955585937534
vn -1.9560819765624871 0 -4.2908955585937534
vn -1.0216044062499918 0 -4.6709415468749995
vn -1.9560819765624871 0 -4.2908955585937534
vn -2.7860073437500148 0 -3.814339828125
vn -2.7860073437500148 0 -3.814339828125
vn -1.9560819765624871 0 -4.2908955585937534
vn -2.7860073437500148 0 -3.814339828125
vn -3.511380507812504 0 -3.2412743554687466
vn -3.511380507812504 0 -3.2412743554687466
vn -2.7860073437500148 0 -3.814339828125
vn -3.511380507812504 0 -3.2412743554687466
vn -4.1322014687499973 0 -2.5716991406250003
vn -4.1322014687499973 0 -2.5716991406250003
vn -3.511380507812504 0 -3.2412743554687466
vn -4.1322014687499973 0 -2.5716991406250003
vn -4.6484702265624946 0 -1.8056141835937609
vn -4.6484702265624946 0 -1.8056141835937609
vn -4.1322014687499973 0 -2.5716991406250003
vn -4.6484702265624946 0 -1.8056141835937609
vn -5.0601867812499961 0 -0.94301948437500016
vn -5.0601867812499961 0 -0.94301948437500016
vn -4.6484702265624946 0 -1.8056141835937609
vn -5.0601867812499961 0 -0.94301948437500016
vn -7.179702000000006 0 0
vn -7.179702000000006 0 0
vn -5.0601867812499961 0 -0.94301948437500016
vn 0 0 12
vn 0 0 12
vn 0 0 12
vn 0 0 12
vn -18 0 0
vn -18 0 0
vn -18 0 0
vn -18 0 0
vn 0 0 -4
vn 0 0 -4
vn 0 0 -4
vn 0 0 -4
vn 10 0 -2
vn 10 0 -2
vn 10 0 -2
vn 10 0 -2
vn 0 1 0
vn 0 1 0
vn 0 1 0
vn 0 1 0
vn 0 1 0
vn 0 1 0
vn 0 1 0
vn 0 1 0
vn 0 1 0
vn 0 1 0
vn 0 1 0
vn 0 1 0
vn 0 1 0
vn 0 1 0
vn 0 1 0
vn 0 1 0
vn 0 1 0
vn 0 1 0
vn 0 1 0
vn 0 1 0
vn 0 1 0
vn 0 1 0
vn 0 1 0
vn 0 1 0
vn 0 1 0
vn 0 1 0
vn 0 1 0
vn 0 1 0
vn 0 1 0
vn 0 1 0
vn 0 1 0
vn 0 1 0
vn 0 1 0
vn 0 1 0
vn 0 1 0
vn 0 1 0
vn 0 1 0
vn 0 1 0
vn 0 1 0
vn 0 1 0
vn 0 1 0
vn 0 1 0
vn 0 -1 0
vn 0 -1 0
vn 0 -1 0
vn 0 -1 0
vn 0 -1 0
vn 0 -1 0
vn 0 -1 0
vn 0 -1 0
vn 0 -1 0
vn 0 -1 0
vn 0 -1 0
vn 0 -1 0
vn 0 -1 0
vn 0 -1 0
vn 0 -1 0
vn 0 -1 0
vn 0 -1 0
vn 0 -1 0
vn 0 -1 0
vn 0 -1 0
vn 0 -1 0
vn 0 -1 0
vn 0 -1 0
vn 0 -1 0
vn 0 -1 0
vn 0 -1 0
vn 0 -1 0
vn 0 -1 0
vn 0 -1 0
vn 0 -1 0
vn 0 -1 0
vn 0 -1 0
vn 0 -1 0
vn 0 -1 0
vn 0 -1 0
vn 0 -1 0
vn 0 -1 0
vn 0 -1 0
vn 0 -1 0
vn 0 -1 0
vn 0 -1 0
vn 0 -1 0

g 
f 1//1 2//2 3//3 4//4
f 2//5 5//6 6//7 3//8
f 5//9 7//10 8//11 6//12
f 7//13 9//14 10//15 8//16
f 9//17 11//18 12//19 10//20
f 11//21 13//22 14//23 12//24
f 13//25 15//26 16//27 14//28
f 15//29 17//30 18//31 16//32
f 17//33 19//34 20//35 18//36
f 19//37 21//38 22//39 20//40
f 21//41 23//42 24//43 22//44
f 23//45 25//46 26//47 24//48
f 25//49 27//50 28//51 26//52
f 27//53 29//54 30//55 28//56
f 29//57 31//58 32//59 30//60
f 31//61 1//62 4//63 32//64
f 1//65 31//66 29//67
f 1//68 29//69 27//70
f 1//71 27//72 25//73
f 11//74 9//75 7//76
f 13//77 11//78 7//79
f 15//80 13//81 7//82
f 17//83 15//84 7//85
f 17//86 7//87 5//88
f 19//89 17//90 5//91
f 21//92 19//93 5//94
f 23//95 21//96 5//97
f 25//98 23//99 5//100
f 25//101 5//102 2//103
f 25//104 2//105 1//106
f 30//107 32//108 4//109
f 28//110 30//111 4//112
f 26//113 28//114 4//115
f 8//116 10//117 12//118
f 8//119 12//120 14//121
f 8//122 14//123 16//124
f 8//125 16//126 18//127
f 6//128 8//129 18//130
f 6//131 18//132 20//133
f 6//134 20//135 22//136
f 6//137 22//138 24//139
f 6//140 24//141 26//142
f 3//143 6//144 26//145
f 4//146 3//147 26//148