o 
v 100 1 16
v 100 1 46
v 100 0 46
v 100 0 16
v 78.65625 1 8.2382812
v 78.65625 0 8.2382812
vn 30 0 0
vn 30 0 0
vn 30 0 0
vn 30 0 0
vn -37.7617188 0 21.34375
vn -37.7617188 0 21.34375
vn -37.7617188 0 21.34375
vn -37.7617188 0 21.34375
vn 7.7617188000000006 0 -21.34375
vn 7.7617188000000006 0 -21.34375
vn 7.7617188000000006 0 -21.34375
vn 7.7617188000000006 0 -21.34375
vn 0 1 0
vn 0 1 0
vn 0 1 0
vn 0 -1 0
vn 0 -1 0
vn 0 -1 0

g 
f 1//1 2//2 3//3 4//4
f 2//5 5//6 6//7 3//8
f 5//9 1//10 4//11 6//12
f 5//13 2//14 1//15
f 4//16 3//17 6//18