o 
v 10.807124248046875 1 4.0523817871093684
v 10.246779796875003 1 8.0361468593750089
v 10.246779796875003 0 8.0361468593750089
v 10.807124248046875 0 4.0523817871093684
v 9.3255603535156268 1 11.924409533203118
v 9.3255603535156268 0 11.924409533203118
v 8.0539656250000036 1 15.690284125000005
v 8.0539656250000036 0 15.690284125000005
v 6.442495318359363 1 19.306884951171867
v 6.442495318359363 0 19.306884951171867
v 4.5016491406250054 1 22.747326328125
v 4.5016491406250054 0 22.747326328125
v 2.2419267988281177 1 25.984722572265625
v 2.2419267988281177 0 25.984722572265625
v -0.32617199999999968 1 28.992188
v -0.32617199999999968 0 28.992188
v -10.996094 1 17.677734
v -10.996094 0 17.677734
v -9.4301477871093766 1 15.843982874999995
v -9.4301477871093766 0 15.843982874999995
v -8.052227734375009 1 13.870027125000007
v -8.052227734375009 0 13.870027125000007
v -6.8687363457031125 1 11.772259687499997
v -6.8687363457031125 0 11.772259687499997
v -5.8860761250000024 1 9.5670734999999922
v -5.8860761250000024 0 9.5670734999999922
v -5.11064957617188 1 7.2708614999999952
v -5.11064957617188 0 7.2708614999999952
v -4.5488592031249908 1 4.9000166249999992
v -4.5488592031249908 0 4.9000166249999992
v -4.2071075097656205 1 2.4709318124999982
v -4.2071075097656205 0 2.4709318124999982
v -4.091797 1 0
v -4.091797 0 0
v -4.2071075097656205 1 -2.4709318124999982
v -4.2071075097656205 0 -2.4709318124999982
v -4.548859203125005 1 -4.9000166249999992
v -4.548859203125005 0 -4.9000166249999992
v -5.11064957617188 1 -7.2708615000000023
v -5.11064957617188 0 -7.2708615000000023
v -5.8860761249999882 1 -9.5670734999999922
v -5.8860761249999882 0 -9.5670734999999922
v -6.8687363457031267 1 -11.772259687499997
v -6.8687363457031267 0 -11.772259687499997
v -8.052227734375009 1 -13.870027124999993
v -8.052227734375009 0 -13.870027124999993
v -9.4301477871093766 1 -15.843982875000002
v -9.4301477871093766 0 -15.843982875000002
v -10.996094 1 -17.677734
v -10.996094 0 -17.677734
v -0.32617199999999968 1 -28.992188
v -0.32617199999999968 0 -28.992188
v 2.2419267988281177 1 -25.984722572265625
v 2.2419267988281177 0 -25.984722572265625
v 4.5016491406250054 1 -22.747326328125006
v 4.5016491406250054 0 -22.747326328125006
v 6.4424953183593772 1 -19.306884951171874
v 6.4424953183593772 0 -19.306884951171874
v 8.05396562499999 1 -15.690284125000005
v 8.05396562499999 0 -15.690284125000005
v 9.3255603535156268 1 -11.924409533203125
v 9.3255603535156268 0 -11.924409533203125
v 10.246779796875003 1 -8.0361468593750018
v 10.246779796875003 0 -8.0361468593750018
v 10.807124248046875 1 -4.0523817871093755
v 10.807124248046875 0 -4.0523817871093755
v 10.996094 1 0
v 10.996094 0 0
vn 8.0361468593750089 0 0.749314203124996
vn 7.87202774609375 0 1.4815638945312486
vn 7.87202774609375 0 1.4815638945312486
vn 8.0361468593750089 0 0.749314203124996
vn 7.87202774609375 0 1.4815638945312486
vn 7.6541372656249962 0 2.192814171875
vn 7.6541372656249962 0 2.192814171875
vn 7.87202774609375 0 1.4815638945312486
vn 7.6541372656249962 0 2.192814171875
vn 7.3824754179687488 0 2.8830650351562639
vn 7.3824754179687488 0 2.8830650351562639
vn 7.6541372656249962 0 2.192814171875
vn 7.3824754179687488 0 2.8830650351562639
vn 7.0570422031249933 0 3.5523164843749981
vn 7.0570422031249933 0 3.5523164843749981
vn 7.3824754179687488 0 2.8830650351562639
vn 7.0570422031249933 0 3.5523164843749981
vn 6.677837621093758 0 4.2005685195312452
vn 6.677837621093758 0 4.2005685195312452
vn 7.0570422031249933 0 3.5523164843749981
vn 6.677837621093758 0 4.2005685195312452
vn 6.244861671875 0 4.8278211406250051
vn 6.244861671875 0 4.8278211406250051
vn 6.677837621093758 0 4.2005685195312452
vn 6.244861671875 0 4.8278211406250051
vn 7.6894350000000031 0 7.2500989999999916
vn 7.6894350000000031 0 7.2500989999999916
vn 6.244861671875 0 4.8278211406250051
vn -11.314453999999998 0 10.669922
vn -11.314453999999998 0 10.669922
vn -11.314453999999998 0 10.669922
vn -11.314453999999998 0 10.669922
vn -4.6884919999999966 0 -4.4208670000000012
vn -3.8077068749999938 0 -2.9438662656249903
vn -3.8077068749999938 0 -2.9438662656249903
vn -4.6884919999999966 0 -4.4208670000000012
vn -3.8077068749999938 0 -2.9438662656249903
vn -4.0717231874999982 0 -2.5614114414062641
vn -4.0717231874999982 0 -2.5614114414062641
vn -3.8077068749999938 0 -2.9438662656249903
vn -4.0717231874999982 0 -2.5614114414062641
vn -4.3029536250000149 0 -2.1661516093750066
vn -4.3029536250000149 0 -2.1661516093750066
vn -4.0717231874999982 0 -2.5614114414062641
vn -4.3029536250000149 0 -2.1661516093750066
vn -4.5013981875000013 0 -1.7580867695312321
vn -4.5013981875000013 0 -1.7580867695312321
vn -4.3029536250000149 0 -2.1661516093750066
vn -4.5013981875000013 0 -1.7580867695312321
vn -4.667056874999993 0 -1.3372169218750116
vn -4.667056874999993 0 -1.3372169218750116
vn -4.5013981875000013 0 -1.7580867695312321
vn -4.667056874999993 0 -1.3372169218750116
vn -4.799929687499997 0 -0.90354206640625989
vn -4.799929687499997 0 -0.90354206640625989
vn -4.667056874999993 0 -1.3372169218750116
vn -4.799929687499997 0 -0.90354206640625989
vn -4.9000166249999992 0 -0.45706220312499113
vn -4.9000166249999992 0 -0.45706220312499113
vn -4.799929687499997 0 -0.90354206640625989
vn -4.9000166249999992 0 -0.45706220312499113
vn -6.6303759999999983 0 0.00011800000000050659
vn -6.6303759999999983 0 0.00011800000000050659
vn -4.9000166249999992 0 -0.45706220312499113
vn -6.6303759999999983 0 -0.00011800000000050659
vn -4.9000166249999992 0 0.45706220312500534
vn -4.9000166249999992 0 0.45706220312500534
vn -6.6303759999999983 0 -0.00011800000000050659
vn -4.9000166249999992 0 0.45706220312500534
vn -4.7999296875000041 0 0.90354206640625989
vn -4.7999296875000041 0 0.90354206640625989
vn -4.9000166249999992 0 0.45706220312500534
vn -4.7999296875000041 0 0.90354206640625989
vn -4.667056874999993 0 1.3372169218749832
vn -4.667056874999993 0 1.3372169218749832
vn -4.7999296875000041 0 0.90354206640625989
vn -4.667056874999993 0 1.3372169218749832
vn -4.5013981874999942 0 1.7580867695312463
vn -4.5013981874999942 0 1.7580867695312463
vn -4.667056874999993 0 1.3372169218749832
vn -4.5013981874999942 0 1.7580867695312463
vn -4.3029536250000007 0 2.1661516093750208
vn -4.3029536250000007 0 2.1661516093750208
vn -4.5013981874999942 0 1.7580867695312463
vn -4.3029536250000007 0 2.1661516093750208
vn -4.0717231875000053 0 2.56141144140625
vn -4.0717231875000053 0 2.56141144140625
vn -4.3029536250000007 0 2.1661516093750208
vn -4.0717231875000053 0 2.56141144140625
vn -3.807706875000008 0 2.9438662656249903
vn -3.807706875000008 0 2.9438662656249903
vn -4.0717231875000053 0 2.56141144140625
vn -3.807706875000008 0 2.9438662656249903
vn -4.6884920000000037 0 4.4208670000000012
vn -4.6884920000000037 0 4.4208670000000012
vn -3.807706875000008 0 2.9438662656249903
vn -11.314453999999998 0 -10.669922
vn -11.314453999999998 0 -10.669922
vn -11.314453999999998 0 -10.669922
vn -11.314453999999998 0 -10.669922
vn 7.689434999999996 0 -7.2500990000000058
vn 6.2448616718749932 0 -4.8278211406250051
vn 6.2448616718749932 0 -4.8278211406250051
vn 7.689434999999996 0 -7.2500990000000058
vn 6.2448616718749932 0 -4.8278211406250051
vn 6.6778376210937509 0 -4.2005685195312594
vn 6.6778376210937509 0 -4.2005685195312594
vn 6.2448616718749932 0 -4.8278211406250051
vn 6.6778376210937509 0 -4.2005685195312594
vn 7.057042203125 0 -3.5523164843749839
vn 7.057042203125 0 -3.5523164843749839
vn 6.6778376210937509 0 -4.2005685195312594
vn 7.057042203125 0 -3.5523164843749839
vn 7.3824754179687488 0 -2.8830650351562497
vn 7.3824754179687488 0 -2.8830650351562497
vn 7.057042203125 0 -3.5523164843749839
vn 7.3824754179687488 0 -2.8830650351562497
vn 7.6541372656250033 0 -2.192814171875014
vn 7.6541372656250033 0 -2.192814171875014
vn 7.3824754179687488 0 -2.8830650351562497
vn 7.6541372656250033 0 -2.192814171875014
vn 7.87202774609375 0 -1.4815638945312486
vn 7.87202774609375 0 -1.4815638945312486
vn 7.6541372656250033 0 -2.192814171875014
vn 7.87202774609375 0 -1.4815638945312486
vn 8.0361468593750018 0 -0.749314203124996
vn 8.0361468593750018 0 -0.749314203124996
vn 7.87202774609375 0 -1.4815638945312486
vn 8.0361468593750018 0 -0.749314203124996
vn 10.873942 0 0.00057999999999935881
vn 10.873942 0 0.00057999999999935881
vn 8.0361468593750018 0 -0.749314203124996
vn 10.873942 0 -0.00057999999999935881
vn 8.0361468593750089 0 0.749314203124996
vn 8.0361468593750089 0 0.749314203124996
vn 10.873942 0 -0.00057999999999935881
vn 0 1 0
vn 0 1 0
vn 0 1 0
vn 0 1 0
vn 0 1 0
vn 0 1 0
vn 0 1 0
vn 0 1 0
vn 0 1 0
vn 0 1 0
vn 0 1 0
vn 0 1 0
vn 0 1 0
vn 0 1 0
vn 0 1 0
vn 0 1 0
vn 0 1 0
vn 0 1 0
vn 0 1 0
vn 0 1 0
vn 0 1 0
vn 0 1 0
vn 0 1 0
vn 0 1 0
vn 0 1 0
vn 0 1 0
vn 0 1 0
vn 0 1 0
vn 0 1 0
vn 0 1 0
vn 0 1 0
vn 0 1 0
vn 0 1 0
vn 0 1 0
vn 0 1 0
vn 0 1 0
vn 0 1 0
vn 0 1 0
vn 0 1 0
vn 0 1 0
vn 0 1 0
vn 0 1 0
vn 0 1 0
vn 0 1 0
vn 0 1 0
vn 0 1 0
vn 0 1 0
vn 0 1 0
vn 0 1 0
vn 0 1 0
vn 0 1 0
vn 0 1 0
vn 0 1 0
vn 0 1 0
vn 0 1 0
vn 0 1 0
vn 0 1 0
vn 0 1 0
vn 0 1 0
vn 0 1 0
vn 0 1 0
vn 0 1 0
vn 0 1 0
vn 0 1 0
vn 0 1 0
vn 0 1 0
vn 0 1 0
vn 0 1 0
vn 0 1 0
vn 0 1 0
vn 0 1 0
vn 0 1 0
vn 0 1 0
vn 0 1 0
vn 0 1 0
vn 0 1 0
vn 0 1 0
vn 0 1 0
vn 0 1 0
vn 0 1 0
vn 0 1 0
vn 0 1 0
vn 0 1 0
vn 0 1 0
vn 0 1 0
vn 0 1 0
vn 0 1 0
vn 0 1 0
vn 0 1 0
vn 0 1 0
vn 0 1 0
vn 0 1 0
vn 0 1 0
vn 0 1 0
vn 0 1 0
vn 0 1 0
vn 0 -1 0
vn 0 -1 0
vn 0 -1 0
vn 0 -1 0
vn 0 -1 0
vn 0 -1 0
vn 0 -1 0
vn 0 -1 0
vn 0 -1 0
vn 0 -1 0
vn 0 -1 0
vn 0 -1 0
vn 0 -1 0
vn 0 -1 0
vn 0 -1 0
vn 0 -1 0
vn 0 -1 0
vn 0 -1 0
vn 0 -1 0
vn 0 -1 0
vn 0 -1 0
vn 0 -1 0
vn 0 -1 0
vn 0 -1 0
vn 0 -1 0
vn 0 -1 0
vn 0 -1 0
vn 0 -1 0
vn 0 -1 0
vn 0 -1 0
vn 0 -1 0
vn 0 -1 0
vn 0 -1 0
vn 0 -1 0
vn 0 -1 0
vn 0 -1 0
vn 0 -1 0
vn 0 -1 0
vn 0 -1 0
vn 0 -1 0
vn 0 -1 0
vn 0 -1 0
vn 0 -1 0
vn 0 -1 0
vn 0 -1 0
vn 0 -1 0
vn 0 -1 0
vn 0 -1 0
vn 0 -1 0
vn 0 -1 0
vn 0 -1 0
vn 0 -1 0
vn 0 -1 0
vn 0 -1 0
vn 0 -1 0
vn 0 -1 0
vn 0 -1 0
vn 0 -1 0
vn 0 -1 0
vn 0 -1 0
vn 0 -1 0
vn 0 -1 0
vn 0 -1 0
vn 0 -1 0
vn 0 -1 0
vn 0 -1 0
vn 0 -1 0
vn 0 -1 0
vn 0 -1 0
vn 0 -1 0
vn 0 -1 0
vn 0 -1 0
vn 0 -1 0
vn 0 -1 0
vn 0 -1 0
vn 0 -1 0
vn 0 -1 0
vn 0 -1 0
vn 0 -1 0
vn 0 -1 0
vn 0 -1 0
vn 0 -1 0
vn 0 -1 0
vn 0 -1 0
vn 0 -1 0
vn 0 -1 0
vn 0 -1 0
vn 0 -1 0
vn 0 -1 0
vn 0 -1 0
vn 0 -1 0
vn 0 -1 0
vn 0 -1 0
vn 0 -1 0
vn 0 -1 0
vn 0 -1 0

g 
f 1//1 2//2 3//3 4//4
f 2//5 5//6 6//7 3//8
f 5//9 7//10 8//11 6//12
f 7//13 9//14 10//15 8//16
f 9//17 11//18 12//19 10//20
f 11//21 13//22 14//23 12//24
f 13//25 15//26 16//27 14//28
f 15//29 17//30 18//31 16//32
f 17//33 19//34 20//35 18//36
f 19//37 21//38 22//39 20//40
f 21//41 23//42 24//43 22//44
f 23//45 25//46 26//47 24//48
f 25//49 27//50 28//51 26//52
f 27//53 29//54 30//55 28//56
f 29//57 31//58 32//59 30//60
f 31//61 33//62 34//63 32//64
f 33//65 35//66 36//67 34//68
f 35//69 37//70 38//71 36//72
f 37//73 39//74 40//75 38//76
f 39//77 41//78 42//79 40//80
f 41//81 43//82 44//83 42//84
f 43//85 45//86 46//87 44//88
f 45//89 47//90 48//91 46//92
f 47//93 49//94 50//95 48//96
f 49//97 51//98 52//99 50//100
f 51//101 53//102 54//103 52//104
f 53//105 55//106 56//107 54//108
f 55//109 57//110 58//111 56//112
f 57//113 59//114 60//115 58//116
f 59//117 61//118 62//119 60//120
f 61//121 63//122 64//123 62//124
f 63//125 65//126 66//127 64//128
f 65//129 67//130 68//131 66//132
f 67//133 1//134 4//135 68//136
f 1//137 67//138 65//139
f 1//140 65//141 63//142
f 1//143 63//144 61//145
f 1//146 61//147 59//148
f 1//149 59//150 57//151
f 1//152 57//153 55//154
f 1//155 55//156 53//157
f 1//158 53//159 51//160
f 1//161 51//162 49//163
f 1//164 49//165 47//166
f 1//167 47//168 45//169
f 1//170 45//171 43//172
f 1//173 43//174 41//175
f 1//176 41//177 39//178
f 1//179 39//180 37//181
f 1//182 37//183 35//184
f 1//185 35//186 33//187
f 1//188 33//189 31//190
f 1//191 31//192 29//193
f 1//194 29//195 27//196
f 1//197 27//198 25//199
f 1//200 25//201 23//202
f 1//203 23//204 21//205
f 1//206 21//207 19//208
f 1//209 19//210 17//211
f 1//212 17//213 15//214
f 1//215 15//216 13//217
f 1//218 13//219 11//220
f 1//221 11//222 9//223
f 1//224 9//225 7//226
f 1//227 7//228 5//229
f 5//230 2//231 1//232
f 66//233 68//234 4//235
f 64//236 66//237 4//238
f 62//239 64//240 4//241
f 60//242 62//243 4//244
f 58//245 60//246 4//247
f 56//248 58//249 4//250
f 54//251 56//252 4//253
f 52//254 54//255 4//256
f 50//257 52//258 4//259
f 48//260 50//261 4//262
f 46//263 48//264 4//265
f 44//266 46//267 4//268
f 42//269 44//270 4//271
f 40//272 42//273 4//274
f 38//275 40//276 4//277
f 36//278 38//279 4//280
f 34//281 36//282 4//283
f 32//284 34//285 4//286
f 30//287 32//288 4//289
f 28//290 30//291 4//292
f 26//293 28//294 4//295
f 24//296 26//297 4//298
f 22//299 24//300 4//301
f 20//302 22//303 4//304
f 18//305 20//306 4//307
f 16//308 18//309 4//310
f 14//311 16//312 4//313
f 12//314 14//315 4//316
f 10//317 12//318 4//319
f 8//320 10//321 4//322
f 6//323 8//324 4//325
f 4//326 3//327 6//328