o 
v 13.291992000000008 1 15.908203
v 7.8056640000000073 1 32.919922
v 7.8056640000000073 0 32.919922
v 13.291992000000008 0 15.908203
v -13.291991999999993 1 32.919922
v -13.291991999999993 0 32.919922
v -13.291991999999993 1 -32.919922
v -13.291991999999993 0 -32.919922
v -5.3662109999999927 1 -26.896484
v -5.3662109999999927 0 -26.896484
vn 17.011719 0 5.486328
vn 17.011719 0 5.486328
vn 17.011719 0 5.486328
vn 17.011719 0 5.486328
vn 0 0 21.097656
vn 0 0 21.097656
vn 0 0 21.097656
vn 0 0 21.097656
vn -65.839844 0 0
vn -65.839844 0 0
vn -65.839844 0 0
vn -65.839844 0 0
vn 6.0234379999999987 0 -7.9257810000000006
vn 6.0234379999999987 0 -7.9257810000000006
vn 6.0234379999999987 0 -7.9257810000000006
vn 6.0234379999999987 0 -7.9257810000000006
vn 42.804687 0 -18.658203
vn 42.804687 0 -18.658203
vn 42.804687 0 -18.658203
vn 42.804687 0 -18.658203
vn 0 1 0
vn 0 1 0
vn 0 1 0
vn 0 1 0
vn 0 1 0
vn 0 1 0
vn 0 1 0
vn 0 1 0
vn 0 1 0
vn 0 -1 0
vn 0 -1 0
vn 0 -1 0
vn 0 -1 0
vn 0 -1 0
vn 0 -1 0
vn 0 -1 0
vn 0 -1 0
vn 0 -1 0

g 
f 1//1 2//2 3//3 4//4
f 2//5 5//6 6//7 3//8
f 5//9 7//10 8//11 6//12
f 7//13 9//14 10//15 8//16
f 9//17 1//18 4//19 10//20
f 1//21 9//22 7//23
f 1//24 7//25 5//26
f 5//27 2//28 1//29
f 8//30 10//31 4//32
f 6//33 8//34 4//35
f 4//36 3//37 6//38