o 
v 18.4140625 1 8.729492
v -14.814452500000002 1 8.729492
v -14.814452500000002 0 8.729492
v 18.4140625 0 8.729492
v -18.4140625 1 3.6904299999999992
v -18.4140625 0 3.6904299999999992
v -11.5839845 1 -8.729492
v -11.5839845 0 -8.729492
v 12.841797499999998 1 -1.4013670000000005
v 12.841797499999998 0 -1.4013670000000005
vn 0 0 33.228515
vn 0 0 33.228515
vn 0 0 33.228515
vn 0 0 33.228515
vn -5.0390620000000013 0 3.5996099999999984
vn -5.0390620000000013 0 3.5996099999999984
vn -5.0390620000000013 0 3.5996099999999984
vn -5.0390620000000013 0 3.5996099999999984
vn -12.419922 0 -6.830078
vn -12.419922 0 -6.830078
vn -12.419922 0 -6.830078
vn -12.419922 0 -6.830078
vn 7.328125 0 -24.425781999999998
vn 7.328125 0 -24.425781999999998
vn 7.328125 0 -24.425781999999998
vn 7.328125 0 -24.425781999999998
vn 10.130859000000001 0 -5.5722650000000016
vn 10.130859000000001 0 -5.5722650000000016
vn 10.130859000000001 0 -5.5722650000000016
vn 10.130859000000001 0 -5.5722650000000016
vn 0 1 0
vn 0 1 0
vn 0 1 0
vn 0 1 0
vn 0 1 0
vn 0 1 0
vn 0 1 0
vn 0 1 0
vn 0 1 0
vn 0 -1 0
vn 0 -1 0
vn 0 -1 0
vn 0 -1 0
vn 0 -1 0
vn 0 -1 0
vn 0 -1 0
vn 0 -1 0
vn 0 -1 0

g 
f 1//1 2//2 3//3 4//4
f 2//5 5//6 6//7 3//8
f 5//9 7//10 8//11 6//12
f 7//13 9//14 10//15 8//16
f 9//17 1//18 4//19 10//20
f 1//21 9//22 7//23
f 1//24 7//25 5//26
f 5//27 2//28 1//29
f 8//30 10//31 4//32
f 6//33 8//34 4//35
f 4//36 3//37 6//38