o 
v 11 1 3
v -1 1 3
v -1 0 3
v 11 0 3
v -1 1 9
v -1 0 9
v -11 1 9
v -11 0 9
v -11 1 -9
v -11 0 -9
v 11 1 -9
v 11 0 -9
vn 0 0 12
vn 0 0 12
vn 0 0 12
vn 0 0 12
vn 6 0 0
vn 6 0 0
vn 6 0 0
vn 6 0 0
vn 0 0 10
vn 0 0 10
vn 0 0 10
vn 0 0 10
vn -18 0 0
vn -18 0 0
vn -18 0 0
vn -18 0 0
vn 0 0 -22
vn 0 0 -22
vn 0 0 -22
vn 0 0 -22
vn 12 0 0
vn 12 0 0
vn 12 0 0
vn 12 0 0
vn 0 1 0
vn 0 1 0
vn 0 1 0
vn 0 1 0
vn 0 1 0
vn 0 1 0
vn 0 1 0
vn 0 1 0
vn 0 1 0
vn 0 1 0
vn 0 1 0
vn 0 1 0
vn 0 -1 0
vn 0 -1 0
vn 0 -1 0
vn 0 -1 0
vn 0 -1 0
vn 0 -1 0
vn 0 -1 0
vn 0 -1 0
vn 0 -1 0
vn 0 -1 0
vn 0 -1 0
vn 0 -1 0

g 
f 1//1 2//2 3//3 4//4
f 2//5 5//6 6//7 3//8
f 5//9 7//10 8//11 6//12
f 7//13 9//14 10//15 8//16
f 9//17 11//18 12//19 10//20
f 11//21 1//22 4//23 12//24
f 1//25 11//26 9//27
f 9//28 7//29 5//30
f 9//31 5//32 2//33
f 9//34 2//35 1//36
f 10//37 12//38 4//39
f 6//40 8//41 10//42
f 3//43 6//44 10//45
f 4//46 3//47 10//48