o 
v -7.0767566406249962 1 -8.7789695781249932
v -3.308288625000003 1 -9.8154258750000025
v -3.308288625000003 0 -9.8154258750000025
v -7.0767566406249962 0 -8.7789695781249932
v 0.21735095312499908 1 -11.502274484375
v 0.21735095312499908 0 -11.502274484375
v 3.4121090000000009 1 -13.806640000000002
v 3.4121090000000009 0 -13.806640000000002
v 33 1 17.574219
v 33 0 17.574219
v -22.677734 1 17.574219
v -22.677734 0 17.574219
v -33 1 -14.425781
v -33 0 -14.425781
v -28.8554688 1 -17.574219
v -28.8554688 0 -17.574219
v -27.191590872460939 1 -15.532030732421873
v -27.191590872460939 0 -15.532030732421873
v -25.3166961546875 1 -13.721635109375
v -25.3166961546875 0 -13.721635109375
v -23.255142231445312 1 -12.155512025390628
v -23.255142231445312 0 -12.155512025390628
v -21.0312866875 1 -10.846141375000002
v -21.0312866875 0 -10.846141375000002
v -18.669487107617186 1 -9.8060030527343756
v -18.669487107617186 0 -9.8060030527343756
v -16.1941010765625 1 -9.0475769531250023
v -16.1941010765625 0 -9.0475769531250023
v -13.629486179101562 1 -8.5833429707031286
v -13.629486179101562 0 -8.5833429707031286
v -11 1 -8.425781
v -11 0 -8.425781
vn -1.3896448750000019 0 -7.691711374999997
vn -2.7233049062500072 0 -7.2941075937499953
vn -2.7233049062500072 0 -7.2941075937499953
vn -1.3896448750000019 0 -7.691711374999997
vn -2.7233049062500072 0 -7.2941075937499953
vn -3.9912141249999991 0 -6.7203976250000039
vn -3.9912141249999991 0 -6.7203976250000039
vn -2.7233049062500072 0 -7.2941075937499953
vn -3.9912141249999991 0 -6.7203976250000039
vn -3.4695540000000022 0 -3.999955
vn -3.4695540000000022 0 -3.999955
vn -3.9912141249999991 0 -6.7203976250000039
vn 31.380859 0 -29.587891
vn 31.380859 0 -29.587891
vn 31.380859 0 -29.587891
vn 31.380859 0 -29.587891
vn 0 0 55.677734
vn 0 0 55.677734
vn 0 0 55.677734
vn 0 0 55.677734
vn -32 0 10.322266
vn -32 0 10.322266
vn -32 0 10.322266
vn -32 0 10.322266
vn -3.1484379999999987 0 -4.1445312
vn -3.1484379999999987 0 -4.1445312
vn -3.1484379999999987 0 -4.1445312
vn -3.1484379999999987 0 -4.1445312
vn 5.7437989999999957 0 -4.1340008999999993
vn 3.8525838906249987 0 -3.5387726453125
vn 3.8525838906249987 0 -3.5387726453125
vn 5.7437989999999957 0 -4.1340008999999993
vn 3.8525838906249987 0 -3.5387726453125
vn 3.376518707031245 0 -3.9364486410156259
vn 3.376518707031245 0 -3.9364486410156259
vn 3.8525838906249987 0 -3.5387726453125
vn 3.376518707031245 0 -3.9364486410156259
vn 2.8754937343749987 0 -4.2854094671875
vn 2.8754937343749987 0 -4.2854094671875
vn 3.376518707031245 0 -3.9364486410156259
vn 2.8754937343749987 0 -4.2854094671875
vn 2.3495089726562526 0 -4.5856551238281238
vn 2.3495089726562526 0 -4.5856551238281238
vn 2.8754937343749987 0 -4.2854094671875
vn 2.3495089726562526 0 -4.5856551238281238
vn 1.7985644218749997 0 -4.8371856109374995
vn 1.7985644218749997 0 -4.8371856109374995
vn 2.3495089726562526 0 -4.5856551238281238
vn 1.7985644218749997 0 -4.8371856109374995
vn 1.222660082031247 0 -5.0400009285156262
vn 1.222660082031247 0 -5.0400009285156262
vn 1.7985644218749997 0 -4.8371856109374995
vn 1.222660082031247 0 -5.0400009285156262
vn 0.62179595312500169 0 -5.1941010765625
vn 0.62179595312500169 0 -5.1941010765625
vn 1.222660082031247 0 -5.0400009285156262
vn 0.62179595312500169 0 -5.1941010765625
vn 0.00017600000000328464 0 -7.0768070000000005
vn 0.00017600000000328464 0 -7.0768070000000005
vn 0.62179595312500169 0 -5.1941010765625
vn -0.00079499999999654847 0 -5.29504
vn -1.3896448750000019 0 -7.691711374999997
vn -1.3896448750000019 0 -7.691711374999997
vn -0.00079499999999654847 0 -5.29504
vn 0 1 0
vn 0 1 0
vn 0 1 0
vn 0 1 0
vn 0 1 0
vn 0 1 0
vn 0 1 0
vn 0 1 0
vn 0 1 0
vn 0 1 0
vn 0 1 0
vn 0 1 0
vn 0 1 0
vn 0 1 0
vn 0 1 0
vn 0 1 0
vn 0 1 0
vn 0 1 0
vn 0 1 0
vn 0 1 0
vn 0 1 0
vn 0 1 0
vn 0 1 0
vn 0 1 0
vn 0 1 0
vn 0 1 0
vn 0 1 0
vn 0 1 0
vn 0 1 0
vn 0 1 0
vn 0 1 0
vn 0 1 0
vn 0 1 0
vn 0 1 0
vn 0 1 0
vn 0 1 0
vn 0 1 0
vn 0 1 0
vn 0 1 0
vn 0 1 0
vn 0 1 0
vn 0 1 0
vn 0 -1 0
vn 0 -1 0
vn 0 -1 0
vn 0 -1 0
vn 0 -1 0
vn 0 -1 0
vn 0 -1 0
vn 0 -1 0
vn 0 -1 0
vn 0 -1 0
vn 0 -1 0
vn 0 -1 0
vn 0 -1 0
vn 0 -1 0
vn 0 -1 0
vn 0 -1 0
vn 0 -1 0
vn 0 -1 0
vn 0 -1 0
vn 0 -1 0
vn 0 -1 0
vn 0 -1 0
vn 0 -1 0
vn 0 -1 0
vn 0 -1 0
vn 0 -1 0
vn 0 -1 0
vn 0 -1 0
vn 0 -1 0
vn 0 -1 0
vn 0 -1 0
vn 0 -1 0
vn 0 -1 0
vn 0 -1 0
vn 0 -1 0
vn 0 -1 0
vn 0 -1 0
vn 0 -1 0
vn 0 -1 0
vn 0 -1 0
vn 0 -1 0
vn 0 -1 0

g 
f 1//1 2//2 3//3 4//4
f 2//5 5//6 6//7 3//8
f 5//9 7//10 8//11 6//12
f 7//13 9//14 10//15 8//16
f 9//17 11//18 12//19 10//20
f 11//21 13//22 14//23 12//24
f 13//25 15//26 16//27 14//28
f 15//29 17//30 18//31 16//32
f 17//33 19//34 20//35 18//36
f 19//37 21//38 22//39 20//40
f 21//41 23//42 24//43 22//44
f 23//45 25//46 26//47 24//48
f 25//49 27//50 28//51 26//52
f 27//53 29//54 30//55 28//56
f 29//57 31//58 32//59 30//60
f 31//61 1//62 4//63 32//64
f 17//65 15//66 13//67
f 19//68 17//69 13//70
f 21//71 19//72 13//73
f 23//74 21//75 13//76
f 25//77 23//78 13//79
f 25//80 13//81 11//82
f 27//83 25//84 11//85
f 29//86 27//87 11//88
f 31//89 29//90 11//91
f 1//92 31//93 11//94
f 1//95 11//96 9//97
f 9//98 7//99 5//100
f 9//101 5//102 2//103
f 9//104 2//105 1//106
f 14//107 16//108 18//109
f 14//110 18//111 20//112
f 14//113 20//114 22//115
f 14//116 22//117 24//118
f 14//119 24//120 26//121
f 12//122 14//123 26//124
f 12//125 26//126 28//127
f 12//128 28//129 30//130
f 12//131 30//132 32//133
f 12//134 32//135 4//136
f 10//137 12//138 4//139
f 6//140 8//141 10//142
f 3//143 6//144 10//145
f 4//146 3//147 10//148