o 
v 19.750627798461913 1 0.11358351989746093
v 17.566232653320313 1 0.44696180761718746
v 17.566232653320313 0 0.44696180761718746
v 19.750627798461913 0 0.11358351989746093
v 15.45787297253418 1 0.98907645520019527
v 15.45787297253418 0 0.98907645520019527
v 13.4366071640625 1 1.7288690546874999
v 13.4366071640625 0 1.7288690546874999
v 11.513493635864258 1 2.6552811981201172
v 11.513493635864258 0 2.6552811981201172
v 9.6995907958984375 1 3.7572544775390622
v 9.6995907958984375 0 3.7572544775390622
v 8.0059570521240229 1 5.0237304849853519
v 8.0059570521240229 0 5.0237304849853519
v 6.4436508125 1 6.4436508125
v 6.4436508125 0 6.4436508125
v 5.0237304849853519 1 8.0059570521240229
v 5.0237304849853519 0 8.0059570521240229
v 3.7572544775390622 1 9.6995907958984375
v 3.7572544775390622 0 9.6995907958984375
v 2.6552811981201172 1 11.513493635864258
v 2.6552811981201172 0 11.513493635864258
v 1.7288690546874999 1 13.4366071640625
v 1.7288690546874999 0 13.4366071640625
v 0.98907645520019527 1 15.45787297253418
v 0.98907645520019527 0 15.45787297253418
v 0.44696180761718746 1 17.566232653320313
v 0.44696180761718746 0 17.566232653320313
v 0.11358351989746093 1 19.750627798461913
v 0.11358351989746093 0 19.750627798461913
v 0 1 22
v 0 0 22
v 0 1 0
v 0 0 0
v 22 1 0
v 22 0 0
vn 0.44696180761718751 0 4.4337673466796872
vn 0.87549293530273442 0 4.2927548259277337
vn 0.87549293530273442 0 4.2927548259277337
vn 0.44696180761718751 0 4.4337673466796872
vn 0.87549293530273442 0 4.2927548259277337
vn 1.2819072470703126 0 4.1296254892578119
vn 1.2819072470703126 0 4.1296254892578119
vn 0.87549293530273442 0 4.2927548259277337
vn 1.2819072470703126 0 4.1296254892578119
vn 1.666204742919922 0 3.9443793366699218
vn 1.666204742919922 0 3.9443793366699218
vn 1.2819072470703126 0 4.1296254892578119
vn 1.666204742919922 0 3.9443793366699218
vn 2.0283854228515623 0 3.7370163681640634
vn 2.0283854228515623 0 3.7370163681640634
vn 1.666204742919922 0 3.9443793366699218
vn 2.0283854228515623 0 3.7370163681640634
vn 2.3684492868652347 0 3.5075365837402348
vn 2.3684492868652347 0 3.5075365837402348
vn 2.0283854228515623 0 3.7370163681640634
vn 2.3684492868652347 0 3.5075365837402348
vn 2.6863963349609374 0 3.2559399833984379
vn 2.6863963349609374 0 3.2559399833984379
vn 2.3684492868652347 0 3.5075365837402348
vn 2.6863963349609374 0 3.2559399833984379
vn 2.982226567138671 0 2.982226567138671
vn 2.982226567138671 0 2.982226567138671
vn 2.6863963349609374 0 3.2559399833984379
vn 2.982226567138671 0 2.982226567138671
vn 3.2559399833984379 0 2.6863963349609374
vn 3.2559399833984379 0 2.6863963349609374
vn 2.982226567138671 0 2.982226567138671
vn 3.2559399833984379 0 2.6863963349609374
vn 3.5075365837402348 0 2.3684492868652347
vn 3.5075365837402348 0 2.3684492868652347
vn 3.2559399833984379 0 2.6863963349609374
vn 3.5075365837402348 0 2.3684492868652347
vn 3.7370163681640634 0 2.0283854228515623
vn 3.7370163681640634 0 2.0283854228515623
vn 3.5075365837402348 0 2.3684492868652347
vn 3.7370163681640634 0 2.0283854228515623
vn 3.9443793366699218 0 1.666204742919922
vn 3.9443793366699218 0 1.666204742919922
vn 3.7370163681640634 0 2.0283854228515623
vn 3.9443793366699218 0 1.666204742919922
vn 4.1296254892578119 0 1.2819072470703126
vn 4.1296254892578119 0 1.2819072470703126
vn 3.9443793366699218 0 1.666204742919922
vn 4.1296254892578119 0 1.2819072470703126
vn 4.2927548259277337 0 0.87549293530273442
vn 4.2927548259277337 0 0.87549293530273442
vn 4.1296254892578119 0 1.2819072470703126
vn 4.2927548259277337 0 0.87549293530273442
vn 4.4337673466796872 0 0.44696180761718751
vn 4.4337673466796872 0 0.44696180761718751
vn 4.2927548259277337 0 0.87549293530273442
vn 4.4337673466796872 0 0.44696180761718751
vn 12.1502645 0 0
vn 12.1502645 0 0
vn 4.4337673466796872 0 0.44696180761718751
vn -22 0 0
vn -22 0 0
vn -22 0 0
vn -22 0 0
vn 0 0 -22
vn 0 0 -22
vn 0 0 -22
vn 0 0 -22
vn 0 0 12.1502645
vn 0.44696180761718751 0 4.4337673466796872
vn 0.44696180761718751 0 4.4337673466796872
vn 0 0 12.1502645
vn 0 1 0
vn 0 1 0
vn 0 1 0
vn 0 1 0
vn 0 1 0
vn 0 1 0
vn 0 1 0
vn 0 1 0
vn 0 1 0
vn 0 1 0
vn 0 1 0
vn 0 1 0
vn 0 1 0
vn 0 1 0
vn 0 1 0
vn 0 1 0
vn 0 1 0
vn 0 1 0
vn 0 1 0
vn 0 1 0
vn 0 1 0
vn 0 1 0
vn 0 1 0
vn 0 1 0
vn 0 1 0
vn 0 1 0
vn 0 1 0
vn 0 1 0
vn 0 1 0
vn 0 1 0
vn 0 1 0
vn 0 1 0
vn 0 1 0
vn 0 1 0
vn 0 1 0
vn 0 1 0
vn 0 1 0
vn 0 1 0
vn 0 1 0
vn 0 1 0
vn 0 1 0
vn 0 1 0
vn 0 1 0
vn 0 1 0
vn 0 1 0
vn 0 1 0
vn 0 1 0
vn 0 1 0
vn 0 -1 0
vn 0 -1 0
vn 0 -1 0
vn 0 -1 0
vn 0 -1 0
vn 0 -1 0
vn 0 -1 0
vn 0 -1 0
vn 0 -1 0
vn 0 -1 0
vn 0 -1 0
vn 0 -1 0
vn 0 -1 0
vn 0 -1 0
vn 0 -1 0
vn 0 -1 0
vn 0 -1 0
vn 0 -1 0
vn 0 -1 0
vn 0 -1 0
vn 0 -1 0
vn 0 -1 0
vn 0 -1 0
vn 0 -1 0
vn 0 -1 0
vn 0 -1 0
vn 0 -1 0
vn 0 -1 0
vn 0 -1 0
vn 0 -1 0
vn 0 -1 0
vn 0 -1 0
vn 0 -1 0
vn 0 -1 0
vn 0 -1 0
vn 0 -1 0
vn 0 -1 0
vn 0 -1 0
vn 0 -1 0
vn 0 -1 0
vn 0 -1 0
vn 0 -1 0
vn 0 -1 0
vn 0 -1 0
vn 0 -1 0
vn 0 -1 0
vn 0 -1 0
vn 0 -1 0

g 
f 1//1 2//2 3//3 4//4
f 2//5 5//6 6//7 3//8
f 5//9 7//10 8//11 6//12
f 7//13 9//14 10//15 8//16
f 9//17 11//18 12//19 10//20
f 11//21 13//22 14//23 12//24
f 13//25 15//26 16//27 14//28
f 15//29 17//30 18//31 16//32
f 17//33 19//34 20//35 18//36
f 19//37 21//38 22//39 20//40
f 21//41 23//42 24//43 22//44
f 23//45 25//46 26//47 24//48
f 25//49 27//50 28//51 26//52
f 27//53 29//54 30//55 28//56
f 29//57 31//58 32//59 30//60
f 31//61 33//62 34//63 32//64
f 33//65 35//66 36//67 34//68
f 35//69 1//70 4//71 36//72
f 1//73 35//74 33//75
f 33//76 31//77 29//78
f 33//79 29//80 27//81
f 33//82 27//83 25//84
f 33//85 25//86 23//87
f 33//88 23//89 21//90
f 33//91 21//92 19//93
f 33//94 19//95 17//96
f 33//97 17//98 15//99
f 33//100 15//101 13//102
f 33//103 13//104 11//105
f 33//106 11//107 9//108
f 33//109 9//110 7//111
f 33//112 7//113 5//114
f 33//115 5//116 2//117
f 33//118 2//119 1//120
f 34//121 36//122 4//123
f 30//124 32//125 34//126
f 28//127 30//128 34//129
f 26//130 28//131 34//132
f 24//133 26//134 34//135
f 22//136 24//137 34//138
f 20//139 22//140 34//141
f 18//142 20//143 34//144
f 16//145 18//146 34//147
f 14//148 16//149 34//150
f 12//151 14//152 34//153
f 10//154 12//155 34//156
f 8//157 10//158 34//159
f 6//160 8//161 34//162
f 3//163 6//164 34//165
f 4//166 3//167 34//168