o 
v 53.9941 1 38.689453
v 51.515194375000007 1 38.173206375
v 51.515194375000007 0 38.173206375
v 53.9941 0 38.689453
v 49 1 38
v 49 0 38
v 46.487242087890621 1 38.172231396484378
v 46.487242087890621 0 38.172231396484378
v 44.036607953125 1 38.679741609375
v 44.036607953125 0 38.679741609375
v 41.671418248046869 1 39.508858173828123
v 41.671418248046869 0 39.508858173828123
v 39.414993624999994 1 40.645908625000004
v 39.414993624999994 0 40.645908625000004
v 37.290654736328122 1 42.077220498046877
v 37.290654736328122 0 42.077220498046877
v 35.321722234375 1 43.789121328125
v 35.321722234375 0 43.789121328125
v 33.531516771484377 1 45.767938650390626
v 33.531516771484377 0 45.767938650390626
v 31.943359 1 48
v 31.943359 0 48
v 28 1 48
v 28 0 48
v 32 1 14
v 32 0 14
v 34.2494078137207 1 14.125019499267578
v 34.2494078137207 0 14.125019499267578
v 36.433835494140624 1 14.491963259765626
v 36.433835494140624 0 14.491963259765626
v 38.542224275146488 1 15.08865917553711
v 38.542224275146488 0 15.08865917553711
v 40.563515390625 1 15.902935140624999
v 40.563515390625 0 15.902935140624999
v 42.486650074462887 1 16.922619049072267
v 42.486650074462887 0 16.922619049072267
v 44.300569560546876 1 18.135538794921878
v 44.300569560546876 0 18.135538794921878
v 45.994215082763674 1 19.5295222722168
v 45.994215082763674 0 19.5295222722168
v 47.556527875 1 21.092397375
v 47.556527875 0 21.092397375
v 48.976449171142576 1 22.81199199731445
v 48.976449171142576 0 22.81199199731445
v 50.242920205078121 1 24.676134033203127
v 50.242920205078121 0 24.676134033203127
v 51.344882210693356 1 26.672651376708984
v 51.344882210693356 0 26.672651376708984
v 52.271276421875 1 28.789371921875002
v 52.271276421875 0 28.789371921875002
v 53.011044072509762 1 31.014123562744143
v 53.011044072509762 0 31.014123562744143
v 53.553126396484373 1 33.334734193359374
v 53.553126396484373 0 33.334734193359374
v 53.886464627685548 1 35.739031707763672
v 53.886464627685548 0 35.739031707763672
v 54 1 38.214844
v 54 0 38.214844
vn -0.45768100000000089 0 1.634487
vn -0.68945300000000032 0 4.9941000000000031
vn -0.68945300000000032 0 4.9941000000000031
vn -0.45768100000000089 0 1.634487
vn -0.68945300000000032 0 4.9941000000000031
vn -0.0002939999999966858 0 1.6828720000000033
vn -0.0002939999999966858 0 1.6828720000000033
vn -0.68945300000000032 0 4.9941000000000031
vn 9.2000000002201432E-05 0 6.7627900000000025
vn 0.67974160937500017 0 4.9633920468750006
vn 0.67974160937500017 0 4.9633920468750006
vn 9.2000000002201432E-05 0 6.7627900000000025
vn 0.67974160937500017 0 4.9633920468750006
vn 1.3366267773437457 0 4.8158238398437518
vn 1.3366267773437457 0 4.8158238398437518
vn 0.67974160937500017 0 4.9633920468750006
vn 1.3366267773437457 0 4.8158238398437518
vn 1.966167015625004 0 4.6216143281250055
vn 1.966167015625004 0 4.6216143281250055
vn 1.3366267773437457 0 4.8158238398437518
vn 1.966167015625004 0 4.6216143281250055
vn 2.5683623242187537 0 4.3807635117187473
vn 2.5683623242187537 0 4.3807635117187473
vn 1.966167015625004 0 4.6216143281250055
vn 2.5683623242187537 0 4.3807635117187473
vn 3.1432127031249948 0 4.0932713906249916
vn 3.1432127031249948 0 4.0932713906249916
vn 2.5683623242187537 0 4.3807635117187473
vn 3.1432127031249948 0 4.0932713906249916
vn 3.6907181523437487 0 3.7591379648437453
vn 3.6907181523437487 0 3.7591379648437453
vn 3.1432127031249948 0 4.0932713906249916
vn 3.6907181523437487 0 3.7591379648437453
vn 4.2108786718750011 0 3.3783632343750014
vn 4.2108786718750011 0 3.3783632343750014
vn 3.6907181523437487 0 3.7591379648437453
vn 4.2108786718750011 0 3.3783632343750014
vn 6.2776690000000031 0 3.9449609999999993
vn 6.2776690000000031 0 3.9449609999999993
vn 4.2108786718750011 0 3.3783632343750014
vn 0 0 3.9433590000000009
vn 0 0 3.9433590000000009
vn 0 0 3.9433590000000009
vn 0 0 3.9433590000000009
vn -34 0 -4
vn -34 0 -4
vn -34 0 -4
vn -34 0 -4
vn 0 0 -12.150461999999997
vn 0.49196325976562605 0 -4.4338354941406237
vn 0.49196325976562605 0 -4.4338354941406237
vn 0 0 -12.150461999999997
vn 0.49196325976562605 0 -4.4338354941406237
vn 0.96363967626953162 0 -4.2928164614257867
vn 0.96363967626953162 0 -4.2928164614257867
vn 0.49196325976562605 0 -4.4338354941406237
vn 0.96363967626953162 0 -4.2928164614257867
vn 1.410971880859373 0 -4.1296798964843759
vn 1.410971880859373 0 -4.1296798964843759
vn 0.96363967626953162 0 -4.2928164614257867
vn 1.410971880859373 0 -4.1296798964843759
vn 1.8339598735351572 0 -3.9444257993163987
vn 1.8339598735351572 0 -3.9444257993163987
vn 1.410971880859373 0 -4.1296798964843759
vn 1.8339598735351572 0 -3.9444257993163987
vn 2.232603654296879 0 -3.7370541699218762
vn 2.232603654296879 0 -3.7370541699218762
vn 1.8339598735351572 0 -3.9444257993163987
vn 2.232603654296879 0 -3.7370541699218762
vn 2.6069032231445313 0 -3.5075650083007872
vn 2.6069032231445313 0 -3.5075650083007872
vn 2.232603654296879 0 -3.7370541699218762
vn 2.6069032231445313 0 -3.5075650083007872
vn 2.9568585800781229 0 -3.2559583144531246
vn 2.9568585800781229 0 -3.2559583144531246
vn 2.6069032231445313 0 -3.5075650083007872
vn 2.9568585800781229 0 -3.2559583144531246
vn 3.282469725097652 0 -2.9822340883789025
vn 3.282469725097652 0 -2.9822340883789025
vn 2.9568585800781229 0 -3.2559583144531246
vn 3.282469725097652 0 -2.9822340883789025
vn 3.5837366582031258 0 -2.6863923300781209
vn 3.5837366582031258 0 -2.6863923300781209
vn 3.282469725097652 0 -2.9822340883789025
vn 3.5837366582031258 0 -2.6863923300781209
vn 3.8606593793945336 0 -2.36843303955078
vn 3.8606593793945336 0 -2.36843303955078
vn 3.5837366582031258 0 -2.6863923300781209
vn 3.8606593793945336 0 -2.36843303955078
vn 4.1132378886718755 0 -2.0283562167968796
vn 4.1132378886718755 0 -2.0283562167968796
vn 3.8606593793945336 0 -2.36843303955078
vn 4.1132378886718755 0 -2.0283562167968796
vn 4.3414721860351584 0 -1.6661618618164056
vn 4.3414721860351584 0 -1.6661618618164056
vn 4.1132378886718755 0 -2.0283562167968796
vn 4.3414721860351584 0 -1.6661618618164056
vn 4.5453622714843718 0 -1.2818499746093721
vn 4.5453622714843718 0 -1.2818499746093721
vn 4.3414721860351584 0 -1.6661618618164056
vn 4.5453622714843718 0 -1.2818499746093721
vn 4.72490814501953 0 -0.87542055517578632
vn 4.72490814501953 0 -0.87542055517578632
vn 4.5453622714843718 0 -1.2818499746093721
vn 4.72490814501953 0 -0.87542055517578632
vn 4.8801098066406254 0 -0.44687360351562688
vn 4.8801098066406254 0 -0.44687360351562688
vn 4.72490814501953 0 -0.87542055517578632
vn 4.8801098066406254 0 -0.44687360351562688
vn 13.373399 0 0.00027899999999903
vn 13.373399 0 0.00027899999999903
vn 4.8801098066406254 0 -0.44687360351562688
vn 0.15822000000000003 0 0.00054399999999787951
vn 0.15817799999999949 0 0.0033999999999991815
vn 0.15817799999999949 0 0.0033999999999991815
vn 0.15822000000000003 0 0.00054399999999787951
vn 0 1 0
vn 0 1 0
vn 0 1 0
vn 0 1 0
vn 0 1 0
vn 0 1 0
vn 0 1 0
vn 0 1 0
vn 0 1 0
vn 0 1 0
vn 0 1 0
vn 0 1 0
vn 0 1 0
vn 0 1 0
vn 0 1 0
vn 0 1 0
vn 0 1 0
vn 0 1 0
vn 0 1 0
vn 0 1 0
vn 0 1 0
vn 0 1 0
vn 0 1 0
vn 0 1 0
vn 0 1 0
vn 0 1 0
vn 0 1 0
vn 0 1 0
vn 0 1 0
vn 0 1 0
vn 0 1 0
vn 0 1 0
vn 0 1 0
vn 0 1 0
vn 0 1 0
vn 0 1 0
vn 0 1 0
vn 0 1 0
vn 0 1 0
vn 0 1 0
vn 0 1 0
vn 0 1 0
vn 0 1 0
vn 0 1 0
vn 0 1 0
vn 0 1 0
vn 0 1 0
vn 0 1 0
vn 0 1 0
vn 0 1 0
vn 0 1 0
vn 0 1 0
vn 0 1 0
vn 0 1 0
vn 0 1 0
vn 0 1 0
vn 0 1 0
vn 0 1 0
vn 0 1 0
vn 0 1 0
vn 0 1 0
vn 0 1 0
vn 0 1 0
vn 0 1 0
vn 0 1 0
vn 0 1 0
vn 0 1 0
vn 0 1 0
vn 0 1 0
vn 0 1 0
vn 0 1 0
vn 0 1 0
vn 0 1 0
vn 0 1 0
vn 0 1 0
vn 0 1 0
vn 0 1 0
vn 0 1 0
vn 0 1 0
vn 0 1 0
vn 0 1 0
vn 0 -1 0
vn 0 -1 0
vn 0 -1 0
vn 0 -1 0
vn 0 -1 0
vn 0 -1 0
vn 0 -1 0
vn 0 -1 0
vn 0 -1 0
vn 0 -1 0
vn 0 -1 0
vn 0 -1 0
vn 0 -1 0
vn 0 -1 0
vn 0 -1 0
vn 0 -1 0
vn 0 -1 0
vn 0 -1 0
vn 0 -1 0
vn 0 -1 0
vn 0 -1 0
vn 0 -1 0
vn 0 -1 0
vn 0 -1 0
vn 0 -1 0
vn 0 -1 0
vn 0 -1 0
vn 0 -1 0
vn 0 -1 0
vn 0 -1 0
vn 0 -1 0
vn 0 -1 0
vn 0 -1 0
vn 0 -1 0
vn 0 -1 0
vn 0 -1 0
vn 0 -1 0
vn 0 -1 0
vn 0 -1 0
vn 0 -1 0
vn 0 -1 0
vn 0 -1 0
vn 0 -1 0
vn 0 -1 0
vn 0 -1 0
vn 0 -1 0
vn 0 -1 0
vn 0 -1 0
vn 0 -1 0
vn 0 -1 0
vn 0 -1 0
vn 0 -1 0
vn 0 -1 0
vn 0 -1 0
vn 0 -1 0
vn 0 -1 0
vn 0 -1 0
vn 0 -1 0
vn 0 -1 0
vn 0 -1 0
vn 0 -1 0
vn 0 -1 0
vn 0 -1 0
vn 0 -1 0
vn 0 -1 0
vn 0 -1 0
vn 0 -1 0
vn 0 -1 0
vn 0 -1 0
vn 0 -1 0
vn 0 -1 0
vn 0 -1 0
vn 0 -1 0
vn 0 -1 0
vn 0 -1 0
vn 0 -1 0
vn 0 -1 0
vn 0 -1 0
vn 0 -1 0
vn 0 -1 0
vn 0 -1 0

g 
f 1//1 2//2 3//3 4//4
f 2//5 5//6 6//7 3//8
f 5//9 7//10 8//11 6//12
f 7//13 9//14 10//15 8//16
f 9//17 11//18 12//19 10//20
f 11//21 13//22 14//23 12//24
f 13//25 15//26 16//27 14//28
f 15//29 17//30 18//31 16//32
f 17//33 19//34 20//35 18//36
f 19//37 21//38 22//39 20//40
f 21//41 23//42 24//43 22//44
f 23//45 25//46 26//47 24//48
f 25//49 27//50 28//51 26//52
f 27//53 29//54 30//55 28//56
f 29//57 31//58 32//59 30//60
f 31//61 33//62 34//63 32//64
f 33//65 35//66 36//67 34//68
f 35//69 37//70 38//71 36//72
f 37//73 39//74 40//75 38//76
f 39//77 41//78 42//79 40//80
f 41//81 43//82 44//83 42//84
f 43//85 45//86 46//87 44//88
f 45//89 47//90 48//91 46//92
f 47//93 49//94 50//95 48//96
f 49//97 51//98 52//99 50//100
f 51//101 53//102 54//103 52//104
f 53//105 55//106 56//107 54//108
f 55//109 57//110 58//111 56//112
f 57//113 1//114 4//115 58//116
f 1//117 57//118 55//119
f 1//120 55//121 53//122
f 1//123 53//124 51//125
f 1//126 51//127 49//128
f 1//129 49//130 47//131
f 1//132 47//133 45//134
f 1//135 45//136 43//137
f 1//138 43//139 41//140
f 1//141 41//142 39//143
f 1//144 39//145 37//146
f 1//147 37//148 35//149
f 1//150 35//151 33//152
f 1//153 33//154 31//155
f 1//156 31//157 29//158
f 1//159 29//160 27//161
f 1//162 27//163 25//164
f 25//165 23//166 21//167
f 25//168 21//169 19//170
f 25//171 19//172 17//173
f 25//174 17//175 15//176
f 25//177 15//178 13//179
f 25//180 13//181 11//182
f 25//183 11//184 9//185
f 25//186 9//187 7//188
f 25//189 7//190 5//191
f 25//192 5//193 2//194
f 25//195 2//196 1//197
f 56//198 58//199 4//200
f 54//201 56//202 4//203
f 52//204 54//205 4//206
f 50//207 52//208 4//209
f 48//210 50//211 4//212
f 46//213 48//214 4//215
f 44//216 46//217 4//218
f 42//219 44//220 4//221
f 40//222 42//223 4//224
f 38//225 40//226 4//227
f 36//228 38//229 4//230
f 34//231 36//232 4//233
f 32//234 34//235 4//236
f 30//237 32//238 4//239
f 28//240 30//241 4//242
f 26//243 28//244 4//245
f 22//246 24//247 26//248
f 20//249 22//250 26//251
f 18//252 20//253 26//254
f 16//255 18//256 26//257
f 14//258 16//259 26//260
f 12//261 14//262 26//263
f 10//264 12//265 26//266
f 8//267 10//268 26//269
f 6//270 8//271 26//272
f 3//273 6//274 26//275
f 4//276 3//277 26//278