o 
v 74 1 6.5449219
v 74 1 46
v 74 0 46
v 74 0 6.5449219
v 60.228516 1 41.869141
v 60.228516 0 41.869141
v 46 1 16
v 46 0 16
v 35.802734 1 34.541016
v 35.802734 0 34.541016
v 4 1 25
v 4 0 25
v 4 1 52
v 4 0 52
v 16.285156 1 52
v 16.285156 0 52
v 6 1 68
v 6 0 68
v 20.5 1 68
v 20.5 0 68
v 4 1 92
v 4 0 92
v 26 1 92
v 26 0 92
v 26 1 68
v 26 0 68
v 44 1 68
v 44 0 68
v 35.429688 1 56
v 35.429688 0 56
v 68 1 56
v 68 0 56
v 65.800781 1 52
v 65.800781 0 52
v 94 1 52
v 94 0 52
v 100 1 46
v 100 0 46
v 100 1 100
v 100 0 100
v 87.400391 1 94
v 87.400391 0 94
v 96 1 94
v 96 0 94
v 80 1 66
v 80 0 66
v 69.005859 1 85.240234
v 69.005859 0 85.240234
v 58 1 80
v 58 0 80
v 58 1 100
v 58 0 100
v 0 1 100
v 0 0 100
v 0 1 0
v 0 0 0
v 56 1 0
v 56 0 0
vn 39.4550781 0 0
vn 39.4550781 0 0
vn 39.4550781 0 0
vn 39.4550781 0 0
vn -4.1308590000000009 0 13.771484000000001
vn -4.1308590000000009 0 13.771484000000001
vn -4.1308590000000009 0 13.771484000000001
vn -4.1308590000000009 0 13.771484000000001
vn -25.869141 0 14.228515999999999
vn -25.869141 0 14.228515999999999
vn -25.869141 0 14.228515999999999
vn -25.869141 0 14.228515999999999
vn 18.541016 0 10.197265999999999
vn 18.541016 0 10.197265999999999
vn 18.541016 0 10.197265999999999
vn 18.541016 0 10.197265999999999
vn -9.5410159999999991 0 31.802734
vn -9.5410159999999991 0 31.802734
vn -9.5410159999999991 0 31.802734
vn -9.5410159999999991 0 31.802734
vn 27 0 0
vn 27 0 0
vn 27 0 0
vn 27 0 0
vn 0 0 -12.285156
vn 0 0 -12.285156
vn 0 0 -12.285156
vn 0 0 -12.285156
vn 16 0 10.285156
vn 16 0 10.285156
vn 16 0 10.285156
vn 16 0 10.285156
vn 0 0 -14.5
vn 0 0 -14.5
vn 0 0 -14.5
vn 0 0 -14.5
vn 24 0 16.5
vn 24 0 16.5
vn 24 0 16.5
vn 24 0 16.5
vn 0 0 -22
vn 0 0 -22
vn 0 0 -22
vn 0 0 -22
vn -24 0 0
vn -24 0 0
vn -24 0 0
vn -24 0 0
vn 0 0 -18
vn 0 0 -18
vn 0 0 -18
vn 0 0 -18
vn -12 0 8.5703120000000013
vn -12 0 8.5703120000000013
vn -12 0 8.5703120000000013
vn -12 0 8.5703120000000013
vn 0 0 -32.570312
vn 0 0 -32.570312
vn 0 0 -32.570312
vn 0 0 -32.570312
vn -4 0 2.1992189999999994
vn -4 0 2.1992189999999994
vn -4 0 2.1992189999999994
vn -4 0 2.1992189999999994
vn 0 0 -28.199219
vn 0 0 -28.199219
vn 0 0 -28.199219
vn 0 0 -28.199219
vn -6 0 20
vn -6 0 20
vn -6 0 20
vn -6 0 20
vn 0 0 -26
vn 0 0 -26
vn 0 0 -26
vn 0 0 -26
vn 54 0 0
vn 54 0 0
vn 54 0 0
vn 54 0 0
vn -6 0 12.599609000000001
vn -6 0 12.599609000000001
vn -6 0 12.599609000000001
vn -6 0 12.599609000000001
vn 0 0 -8.5996090000000009
vn 0 0 -8.5996090000000009
vn 0 0 -8.5996090000000009
vn 0 0 -8.5996090000000009
vn -28 0 16
vn -28 0 16
vn -28 0 16
vn -28 0 16
vn 19.240234 0 10.994140999999999
vn 19.240234 0 10.994140999999999
vn 19.240234 0 10.994140999999999
vn 19.240234 0 10.994140999999999
vn -5.2402340000000009 0 11.005859000000001
vn -5.2402340000000009 0 11.005859000000001
vn -5.2402340000000009 0 11.005859000000001
vn -5.2402340000000009 0 11.005859000000001
vn 20 0 0
vn 20 0 0
vn 20 0 0
vn 20 0 0
vn 0 0 58
vn 0 0 58
vn 0 0 58
vn 0 0 58
vn -100 0 0
vn -100 0 0
vn -100 0 0
vn -100 0 0
vn 0 0 -56
vn 0 0 -56
vn 0 0 -56
vn 0 0 -56
vn 6.5449219 0 -18
vn 6.5449219 0 -18
vn 6.5449219 0 -18
vn 6.5449219 0 -18
vn 0 1 0
vn 0 1 0
vn 0 1 0
vn 0 1 0
vn 0 1 0
vn 0 1 0
vn 0 1 0
vn 0 1 0
vn 0 1 0
vn 0 1 0
vn 0 1 0
vn 0 1 0
vn 0 1 0
vn 0 1 0
vn 0 1 0
vn 0 1 0
vn 0 1 0
vn 0 1 0
vn 0 1 0
vn 0 1 0
vn 0 1 0
vn 0 1 0
vn 0 1 0
vn 0 1 0
vn 0 1 0
vn 0 1 0
vn 0 1 0
vn 0 1 0
vn 0 1 0
vn 0 1 0
vn 0 1 0
vn 0 1 0
vn 0 1 0
vn 0 1 0
vn 0 1 0
vn 0 1 0
vn 0 1 0
vn 0 1 0
vn 0 1 0
vn 0 1 0
vn 0 1 0
vn 0 1 0
vn 0 1 0
vn 0 1 0
vn 0 1 0
vn 0 1 0
vn 0 1 0
vn 0 1 0
vn 0 1 0
vn 0 1 0
vn 0 1 0
vn 0 1 0
vn 0 1 0
vn 0 1 0
vn 0 1 0
vn 0 1 0
vn 0 1 0
vn 0 1 0
vn 0 1 0
vn 0 1 0
vn 0 1 0
vn 0 1 0
vn 0 1 0
vn 0 1 0
vn 0 1 0
vn 0 1 0
vn 0 1 0
vn 0 1 0
vn 0 1 0
vn 0 1 0
vn 0 1 0
vn 0 1 0
vn 0 1 0
vn 0 1 0
vn 0 1 0
vn 0 1 0
vn 0 1 0
vn 0 1 0
vn 0 1 0
vn 0 1 0
vn 0 1 0
vn 0 1 0
vn 0 1 0
vn 0 1 0
vn 0 -1 0
vn 0 -1 0
vn 0 -1 0
vn 0 -1 0
vn 0 -1 0
vn 0 -1 0
vn 0 -1 0
vn 0 -1 0
vn 0 -1 0
vn 0 -1 0
vn 0 -1 0
vn 0 -1 0
vn 0 -1 0
vn 0 -1 0
vn 0 -1 0
vn 0 -1 0
vn 0 -1 0
vn 0 -1 0
vn 0 -1 0
vn 0 -1 0
vn 0 -1 0
vn 0 -1 0
vn 0 -1 0
vn 0 -1 0
vn 0 -1 0
vn 0 -1 0
vn 0 -1 0
vn 0 -1 0
vn 0 -1 0
vn 0 -1 0
vn 0 -1 0
vn 0 -1 0
vn 0 -1 0
vn 0 -1 0
vn 0 -1 0
vn 0 -1 0
vn 0 -1 0
vn 0 -1 0
vn 0 -1 0
vn 0 -1 0
vn 0 -1 0
vn 0 -1 0
vn 0 -1 0
vn 0 -1 0
vn 0 -1 0
vn 0 -1 0
vn 0 -1 0
vn 0 -1 0
vn 0 -1 0
vn 0 -1 0
vn 0 -1 0
vn 0 -1 0
vn 0 -1 0
vn 0 -1 0
vn 0 -1 0
vn 0 -1 0
vn 0 -1 0
vn 0 -1 0
vn 0 -1 0
vn 0 -1 0
vn 0 -1 0
vn 0 -1 0
vn 0 -1 0
vn 0 -1 0
vn 0 -1 0
vn 0 -1 0
vn 0 -1 0
vn 0 -1 0
vn 0 -1 0
vn 0 -1 0
vn 0 -1 0
vn 0 -1 0
vn 0 -1 0
vn 0 -1 0
vn 0 -1 0
vn 0 -1 0
vn 0 -1 0
vn 0 -1 0
vn 0 -1 0
vn 0 -1 0
vn 0 -1 0
vn 0 -1 0
vn 0 -1 0
vn 0 -1 0

g 
f 1//1 2//2 3//3 4//4
f 2//5 5//6 6//7 3//8
f 5//9 7//10 8//11 6//12
f 7//13 9//14 10//15 8//16
f 9//17 11//18 12//19 10//20
f 11//21 13//22 14//23 12//24
f 13//25 15//26 16//27 14//28
f 15//29 17//30 18//31 16//32
f 17//33 19//34 20//35 18//36
f 19//37 21//38 22//39 20//40
f 21//41 23//42 24//43 22//44
f 23//45 25//46 26//47 24//48
f 25//49 27//50 28//51 26//52
f 27//53 29//54 30//55 28//56
f 29//57 31//58 32//59 30//60
f 31//61 33//62 34//63 32//64
f 33//65 35//66 36//67 34//68
f 35//69 2//70 3//71 36//72
f 2//73 37//74 38//75 3//76
f 37//77 39//78 40//79 38//80
f 39//81 41//82 42//83 40//84
f 41//85 43//86 44//87 42//88
f 43//89 45//90 46//91 44//92
f 45//93 47//94 48//95 46//96
f 47//97 49//98 50//99 48//100
f 49//101 51//102 52//103 50//104
f 51//105 53//106 54//107 52//108
f 53//109 55//110 56//111 54//112
f 55//113 57//114 58//115 56//116
f 57//117 1//118 4//119 58//120
f 1//121 57//122 55//123
f 49//124 47//125 45//126
f 43//127 41//128 39//129
f 45//130 43//131 39//132
f 37//133 2//134 35//135
f 39//136 37//137 35//138
f 45//139 39//140 35//141
f 49//142 45//143 35//144
f 35//145 33//146 31//147
f 49//148 35//149 31//150
f 49//151 31//152 29//153
f 49//154 29//155 27//156
f 51//157 49//158 27//159
f 51//160 27//161 25//162
f 51//163 25//164 23//165
f 53//166 51//167 23//168
f 53//169 23//170 21//171
f 55//172 53//173 21//174
f 21//175 19//176 17//177
f 17//178 15//179 13//180
f 21//181 17//182 13//183
f 55//184 21//185 13//186
f 55//187 13//188 11//189
f 1//190 55//191 11//192
f 11//193 9//194 7//195
f 1//196 11//197 7//198
f 1//199 7//200 5//201
f 5//202 2//203 1//204
f 56//205 58//206 4//207
f 46//208 48//209 50//210
f 40//211 42//212 44//213
f 40//214 44//215 46//216
f 36//217 3//218 38//219
f 36//220 38//221 40//222
f 36//223 40//224 46//225
f 36//226 46//227 50//228
f 32//229 34//230 36//231
f 32//232 36//233 50//234
f 30//235 32//236 50//237
f 28//238 30//239 50//240
f 28//241 50//242 52//243
f 26//244 28//245 52//246
f 24//247 26//248 52//249
f 24//250 52//251 54//252
f 22//253 24//254 54//255
f 22//256 54//257 56//258
f 18//259 20//260 22//261
f 14//262 16//263 18//264
f 14//265 18//266 22//267
f 14//268 22//269 56//270
f 12//271 14//272 56//273
f 12//274 56//275 4//276
f 8//277 10//278 12//279
f 8//280 12//281 4//282
f 6//283 8//284 4//285
f 4//286 3//287 6//288