o 
v 57.581581447265627 1 82.735886214843745
v 55.329058453125 1 81.978395593750008
v 55.329058453125 0 81.978395593750008
v 57.581581447265627 0 82.735886214843745
v 53.290685888671874 1 80.779804238281258
v 53.290685888671874 0 80.779804238281258
v 51.514718625 1 79.19238825
v 51.514718625 0 79.19238825
v 50.049411533203127 1 77.268423730468754
v 50.049411533203127 0 77.268423730468754
v 48.943019484375 1 75.06018678125
v 48.943019484375 0 75.06018678125
v 48.243797349609373 1 72.61995350390626
v 48.243797349609373 0 72.61995350390626
v 48 1 70
v 48 0 70
v 48.243797349609373 1 67.380046496093755
v 48.243797349609373 0 67.380046496093755
v 48.943019484375 1 64.93981321875
v 48.943019484375 0 64.93981321875
v 50.049411533203127 1 62.731576269531246
v 50.049411533203127 0 62.731576269531246
v 51.514718625 1 60.80761175
v 51.514718625 0 60.80761175
v 53.290685888671874 1 59.220195761718749
v 53.290685888671874 0 59.220195761718749
v 55.329058453125 1 58.02160440625
v 55.329058453125 0 58.02160440625
v 57.581581447265627 1 57.264113785156255
v 57.581581447265627 0 57.264113785156255
v 60 1 57
v 60 0 57
v 60 1 83
v 60 0 83
vn -1.0216044062499918 0 4.6709415468749995
vn -1.9560819765624871 0 4.2908955585937534
vn -1.9560819765624871 0 4.2908955585937534
vn -1.0216044062499918 0 4.6709415468749995
vn -1.9560819765624871 0 4.2908955585937534
vn -2.7860073437500148 0 3.814339828125
vn -2.7860073437500148 0 3.814339828125
vn -1.9560819765624871 0 4.2908955585937534
vn -2.7860073437500148 0 3.814339828125
vn -3.511380507812504 0 3.2412743554687466
vn -3.511380507812504 0 3.2412743554687466
vn -2.7860073437500148 0 3.814339828125
vn -3.511380507812504 0 3.2412743554687466
vn -4.1322014687499973 0 2.5716991406250003
vn -4.1322014687499973 0 2.5716991406250003
vn -3.511380507812504 0 3.2412743554687466
vn -4.1322014687499973 0 2.5716991406250003
vn -4.6484702265624946 0 1.8056141835937538
vn -4.6484702265624946 0 1.8056141835937538
vn -4.1322014687499973 0 2.5716991406250003
vn -4.6484702265624946 0 1.8056141835937538
vn -5.0601867812499961 0 0.94301948437500016
vn -5.0601867812499961 0 0.94301948437500016
vn -4.6484702265624946 0 1.8056141835937538
vn -5.0601867812499961 0 0.94301948437500016
vn -7.179702000000006 0 0
vn -7.179702000000006 0 0
vn -5.0601867812499961 0 0.94301948437500016
vn -7.1797019999999989 0 0
vn -5.0601867812499961 0 -0.94301948437500016
vn -5.0601867812499961 0 -0.94301948437500016
vn -7.1797019999999989 0 0
vn -5.0601867812499961 0 -0.94301948437500016
vn -4.6484702265625089 0 -1.8056141835937538
vn -4.6484702265625089 0 -1.8056141835937538
vn -5.0601867812499961 0 -0.94301948437500016
vn -4.6484702265625089 0 -1.8056141835937538
vn -4.1322014687500044 0 -2.5716991406250003
vn -4.1322014687500044 0 -2.5716991406250003
vn -4.6484702265625089 0 -1.8056141835937538
vn -4.1322014687500044 0 -2.5716991406250003
vn -3.5113805078124969 0 -3.2412743554687466
vn -3.5113805078124969 0 -3.2412743554687466
vn -4.1322014687500044 0 -2.5716991406250003
vn -3.5113805078124969 0 -3.2412743554687466
vn -2.7860073437500006 0 -3.814339828125
vn -2.7860073437500006 0 -3.814339828125
vn -3.5113805078124969 0 -3.2412743554687466
vn -2.7860073437500006 0 -3.814339828125
vn -1.9560819765624942 0 -4.2908955585937534
vn -1.9560819765624942 0 -4.2908955585937534
vn -2.7860073437500006 0 -3.814339828125
vn -1.9560819765624942 0 -4.2908955585937534
vn -1.0216044062499989 0 -4.6709415468749995
vn -1.0216044062499989 0 -4.6709415468749995
vn -1.9560819765624942 0 -4.2908955585937534
vn -1.0216044062499989 0 -4.6709415468749995
vn 0 0 -6.6274170000000012
vn 0 0 -6.6274170000000012
vn -1.0216044062499989 0 -4.6709415468749995
vn 26 0 0
vn 26 0 0
vn 26 0 0
vn 26 0 0
vn 0 0 6.6274170000000012
vn -1.0216044062499918 0 4.6709415468749995
vn -1.0216044062499918 0 4.6709415468749995
vn 0 0 6.6274170000000012
vn 0 1 0
vn 0 1 0
vn 0 1 0
vn 0 1 0
vn 0 1 0
vn 0 1 0
vn 0 1 0
vn 0 1 0
vn 0 1 0
vn 0 1 0
vn 0 1 0
vn 0 1 0
vn 0 1 0
vn 0 1 0
vn 0 1 0
vn 0 1 0
vn 0 1 0
vn 0 1 0
vn 0 1 0
vn 0 1 0
vn 0 1 0
vn 0 1 0
vn 0 1 0
vn 0 1 0
vn 0 1 0
vn 0 1 0
vn 0 1 0
vn 0 1 0
vn 0 1 0
vn 0 1 0
vn 0 1 0
vn 0 1 0
vn 0 1 0
vn 0 1 0
vn 0 1 0
vn 0 1 0
vn 0 1 0
vn 0 1 0
vn 0 1 0
vn 0 1 0
vn 0 1 0
vn 0 1 0
vn 0 1 0
vn 0 1 0
vn 0 1 0
vn 0 -1 0
vn 0 -1 0
vn 0 -1 0
vn 0 -1 0
vn 0 -1 0
vn 0 -1 0
vn 0 -1 0
vn 0 -1 0
vn 0 -1 0
vn 0 -1 0
vn 0 -1 0
vn 0 -1 0
vn 0 -1 0
vn 0 -1 0
vn 0 -1 0
vn 0 -1 0
vn 0 -1 0
vn 0 -1 0
vn 0 -1 0
vn 0 -1 0
vn 0 -1 0
vn 0 -1 0
vn 0 -1 0
vn 0 -1 0
vn 0 -1 0
vn 0 -1 0
vn 0 -1 0
vn 0 -1 0
vn 0 -1 0
vn 0 -1 0
vn 0 -1 0
vn 0 -1 0
vn 0 -1 0
vn 0 -1 0
vn 0 -1 0
vn 0 -1 0
vn 0 -1 0
vn 0 -1 0
vn 0 -1 0
vn 0 -1 0
vn 0 -1 0
vn 0 -1 0
vn 0 -1 0
vn 0 -1 0
vn 0 -1 0

g 
f 1//1 2//2 3//3 4//4
f 2//5 5//6 6//7 3//8
f 5//9 7//10 8//11 6//12
f 7//13 9//14 10//15 8//16
f 9//17 11//18 12//19 10//20
f 11//21 13//22 14//23 12//24
f 13//25 15//26 16//27 14//28
f 15//29 17//30 18//31 16//32
f 17//33 19//34 20//35 18//36
f 19//37 21//38 22//39 20//40
f 21//41 23//42 24//43 22//44
f 23//45 25//46 26//47 24//48
f 25//49 27//50 28//51 26//52
f 27//53 29//54 30//55 28//56
f 29//57 31//58 32//59 30//60
f 31//61 33//62 34//63 32//64
f 33//65 1//66 4//67 34//68
f 1//69 33//70 31//71
f 1//72 31//73 29//74
f 1//75 29//76 27//77
f 1//78 27//79 25//80
f 1//81 25//82 23//83
f 1//84 23//85 21//86
f 1//87 21//88 19//89
f 1//90 19//91 17//92
f 1//93 17//94 15//95
f 1//96 15//97 13//98
f 1//99 13//100 11//101
f 1//102 11//103 9//104
f 1//105 9//106 7//107
f 1//108 7//109 5//110
f 5//111 2//112 1//113
f 32//114 34//115 4//116
f 30//117 32//118 4//119
f 28//120 30//121 4//122
f 26//123 28//124 4//125
f 24//126 26//127 4//128
f 22//129 24//130 4//131
f 20//132 22//133 4//134
f 18//135 20//136 4//137
f 16//138 18//139 4//140
f 14//141 16//142 4//143
f 12//144 14//145 4//146
f 10//147 12//148 4//149
f 8//150 10//151 4//152
f 6//153 8//154 4//155
f 4//156 3//157 6//158