o 
v 13 1 19.72753905
v -13 1 19.72753905
v -13 0 19.72753905
v 13 0 19.72753905
v -13 1 -19.727539049999997
v -13 0 -19.727539049999997
v -8.34375 1 -18.03417975
v -8.34375 0 -18.03417975
vn 0 0 26
vn 0 0 26
vn 0 0 26
vn 0 0 26
vn -39.4550781 0 0
vn -39.4550781 0 0
vn -39.4550781 0 0
vn -39.4550781 0 0
vn 1.6933592999999991 0 -4.65625
vn 1.6933592999999991 0 -4.65625
vn 1.6933592999999991 0 -4.65625
vn 1.6933592999999991 0 -4.65625
vn 37.7617188 0 -21.34375
vn 37.7617188 0 -21.34375
vn 37.7617188 0 -21.34375
vn 37.7617188 0 -21.34375
vn 0 1 0
vn 0 1 0
vn 0 1 0
vn 0 1 0
vn 0 1 0
vn 0 1 0
vn 0 -1 0
vn 0 -1 0
vn 0 -1 0
vn 0 -1 0
vn 0 -1 0
vn 0 -1 0

g 
f 1//1 2//2 3//3 4//4
f 2//5 5//6 6//7 3//8
f 5//9 7//10 8//11 6//12
f 7//13 1//14 4//15 8//16
f 1//17 7//18 5//19
f 5//20 2//21 1//22
f 6//23 8//24 4//25
f 4//26 3//27 6//28