o 
v 100 1 38
v 73.925781 1 18.183594
v 73.925781 0 18.183594
v 100 0 38
v 66 1 0
v 66 0 0
v 100 1 0
v 100 0 0
vn -19.816406 0 26.074219
vn -19.816406 0 26.074219
vn -19.816406 0 26.074219
vn -19.816406 0 26.074219
vn -18.183594 0 7.9257810000000006
vn -18.183594 0 7.9257810000000006
vn -18.183594 0 7.9257810000000006
vn -18.183594 0 7.9257810000000006
vn 0 0 -34
vn 0 0 -34
vn 0 0 -34
vn 0 0 -34
vn 38 0 0
vn 38 0 0
vn 38 0 0
vn 38 0 0
vn 0 1 0
vn 0 1 0
vn 0 1 0
vn 0 1 0
vn 0 1 0
vn 0 1 0
vn 0 -1 0
vn 0 -1 0
vn 0 -1 0
vn 0 -1 0
vn 0 -1 0
vn 0 -1 0

g 
f 1//1 2//2 3//3 4//4
f 2//5 5//6 6//7 3//8
f 5//9 7//10 8//11 6//12
f 7//13 1//14 4//15 8//16
f 1//17 7//18 5//19
f 5//20 2//21 1//22
f 6//23 8//24 4//25
f 4//26 3//27 6//28