o 
v 63.6679662109375 1 83.877723056640619
v 65.9585788125 1 83.515291765625008
v 65.9585788125 0 83.515291765625008
v 63.6679662109375 0 83.877723056640619
v 68.1942693828125 1 82.919496685546875
v 68.1942693828125 0 82.919496685546875
v 70.3595785 1 82.097128375
v 70.3595785 0 82.097128375
v 72.4390467421875 1 81.054977392578124
v 72.4390467421875 0 81.054977392578124
v 74.4172146875 1 79.799834296874991
v 74.4172146875 0 79.799834296874991
v 76.2786229140625 1 78.338489646484362
v 76.2786229140625 0 78.338489646484362
v 78.007812 1 76.677734
v 78.007812 0 76.677734
v 88.677734 1 87.992188
v 88.677734 0 87.992188
v 85.841712494140623 1 90.715831791015617
v 85.841712494140623 0 90.715831791015617
v 82.788847765625 1 93.11241545312501
v 82.788847765625 0 93.11241545312501
v 79.54449587304687 1 95.170802294921884
v 79.54449587304687 0 95.170802294921884
v 76.134012875 1 96.879855625
v 76.134012875 0 96.879855625
v 72.582754830078116 1 98.228438751953121
v 72.582754830078116 0 98.228438751953121
v 68.916077796875 1 99.205414984375
v 68.916077796875 0 99.205414984375
v 65.159337833984381 1 99.799647630859369
v 65.159337833984381 0 99.799647630859369
v 61.337891 1 100
v 61.337891 0 100
v 57.516702767578131 1 99.799468925781241
v 57.516702767578131 0 99.799468925781241
v 53.760227453125005 1 99.205111656250011
v 53.760227453125005 0 99.205111656250011
v 50.093816005859374 1 98.228063371093739
v 50.093816005859374 0 98.228063371093739
v 46.542819374999993 1 96.87945925
v 46.542819374999993 0 96.87945925
v 43.132588509765625 1 95.17043447265624
v 43.132588509765625 0 95.17043447265624
v 39.888474359375 1 93.112124218750012
v 39.888474359375 0 93.112124218750012
v 36.835827873046874 1 90.715663667968755
v 36.835827873046874 0 90.715663667968755
v 34 1 87.992188
v 34 0 87.992188
v 44.669922 1 76.677734
v 44.669922 0 76.677734
v 46.39891769921875 1 78.338321564453125
v 46.39891769921875 0 78.338321564453125
v 48.26010771875 1 79.799543203125012
v 48.26010771875 0 79.799543203125012
v 50.238037816406255 1 81.054609833984372
v 50.238037816406255 0 81.054609833984372
v 52.31725375 1 82.096732375
v 52.31725375 0 82.096732375
v 54.482301277343751 1 82.919121744140625
v 54.482301277343751 0 82.919121744140625
v 56.717726156249995 1 83.514988859375
v 56.717726156249995 0 83.514988859375
v 59.00807414453125 1 83.877544638671878
v 59.00807414453125 0 83.877544638671878
v 61.337891 1 84
v 61.337891 0 84
vn -0.48470823437499178 0 -4.6206878124999946
vn -0.958226371093744 0 -4.5263031718749929
vn -0.958226371093744 0 -4.5263031718749929
vn -0.48470823437499178 0 -4.6206878124999946
vn -0.958226371093744 0 -4.5263031718749929
vn -1.4181633906250113 0 -4.4009996875000041
vn -1.4181633906250113 0 -4.4009996875000041
vn -0.958226371093744 0 -4.5263031718749929
vn -1.4181633906250113 0 -4.4009996875000041
vn -1.8645192929687511 0 -4.2447773593750071
vn -1.8645192929687511 0 -4.2447773593750071
vn -1.4181633906250113 0 -4.4009996875000041
vn -1.8645192929687511 0 -4.2447773593750071
vn -2.297294078125006 0 -4.0576361875000089
vn -2.297294078125006 0 -4.0576361875000089
vn -1.8645192929687511 0 -4.2447773593750071
vn -2.297294078125006 0 -4.0576361875000089
vn -2.7164877460937618 0 -3.8395761718749952
vn -2.7164877460937618 0 -3.8395761718749952
vn -2.297294078125006 0 -4.0576361875000089
vn -2.7164877460937618 0 -3.8395761718749952
vn -3.12210029687499 0 -3.5905973124999946
vn -3.12210029687499 0 -3.5905973124999946
vn -2.7164877460937618 0 -3.8395761718749952
vn -3.12210029687499 0 -3.5905973124999946
vn -4.6885269999999934 0 -4.4211370000000016
vn -4.6885269999999934 0 -4.4211370000000016
vn -3.12210029687499 0 -3.5905973124999946
vn 11.314453999999998 0 -10.669922
vn 11.314453999999998 0 -10.669922
vn 11.314453999999998 0 -10.669922
vn 11.314453999999998 0 -10.669922
vn 7.6892310000000066 0 7.2510610000000071
vn 5.1202274531250112 0 5.8888862343750077
vn 5.1202274531250112 0 5.8888862343750077
vn 7.6892310000000066 0 7.2510610000000071
vn 5.1202274531250112 0 5.8888862343750077
vn 4.4549705039062673 0 6.297216621093753
vn 4.4549705039062673 0 6.297216621093753
vn 5.1202274531250112 0 5.8888862343750077
vn 4.4549705039062673 0 6.297216621093753
vn 3.7674401718749948 0 6.654834890624997
vn 3.7674401718749948 0 6.654834890624997
vn 4.4549705039062673 0 6.297216621093753
vn 3.7674401718749948 0 6.654834890624997
vn 3.0576364570312364 0 6.9617410429687538
vn 3.0576364570312364 0 6.9617410429687538
vn 3.7674401718749948 0 6.654834890624997
vn 3.0576364570312364 0 6.9617410429687538
vn 2.3255593593749921 0 7.2179350781249951
vn 2.3255593593749921 0 7.2179350781249951
vn 3.0576364570312364 0 6.9617410429687538
vn 2.3255593593749921 0 7.2179350781249951
vn 1.5712088789062477 0 7.4234169960937351
vn 1.5712088789062477 0 7.4234169960937351
vn 2.3255593593749921 0 7.2179350781249951
vn 1.5712088789062477 0 7.4234169960937351
vn 0.79458501562500317 0 7.5781867968750021
vn 0.79458501562500317 0 7.5781867968750021
vn 1.5712088789062477 0 7.4234169960937351
vn 0.79458501562500317 0 7.5781867968750021
vn -0.00079999999999813554 0 10.254261999999997
vn -0.00079999999999813554 0 10.254261999999997
vn 0.79458501562500317 0 7.5781867968750021
vn 0.00024999999999408828 0 10.253585000000001
vn -0.79488834374998874 0 7.5776635468749944
vn -0.79488834374998874 0 7.5776635468749944
vn 0.00024999999999408828 0 10.253585000000001
vn -0.79488834374998874 0 7.5776635468749944
vn -1.5714055546875017 0 7.4228867617187575
vn -1.5714055546875017 0 7.4228867617187575
vn -0.79488834374998874 0 7.5776635468749944
vn -1.5714055546875017 0 7.4228867617187575
vn -2.3256524062500148 0 7.2174080781250112
vn -2.3256524062500148 0 7.2174080781250112
vn -1.5714055546875017 0 7.4228867617187575
vn -2.3256524062500148 0 7.2174080781250112
vn -3.0576288984374997 0 6.9612274960937484
vn -3.0576288984374997 0 6.9612274960937484
vn -2.3256524062500148 0 7.2174080781250112
vn -3.0576288984374997 0 6.9612274960937484
vn -3.7673350312499849 0 6.65434501562499
vn -3.7673350312499849 0 6.65434501562499
vn -3.0576288984374997 0 6.9612274960937484
vn -3.7673350312499849 0 6.65434501562499
vn -4.4547708046874845 0 6.2967606367187514
vn -4.4547708046874845 0 6.2967606367187514
vn -3.7673350312499849 0 6.65434501562499
vn -4.4547708046874845 0 6.2967606367187514
vn -5.1199362187500128 0 5.8884743593750031
vn -5.1199362187500128 0 5.8884743593750031
vn -4.4547708046874845 0 6.2967606367187514
vn -5.1199362187500128 0 5.8884743593750031
vn -7.6887240000000077 0 7.2505820000000014
vn -7.6887240000000077 0 7.2505820000000014
vn -5.1199362187500128 0 5.8884743593750031
vn -11.314453999999998 0 -10.669922
vn -11.314453999999998 0 -10.669922
vn -11.314453999999998 0 -10.669922
vn -11.314453999999998 0 -10.669922
vn 4.6880199999999945 0 -4.4206590000000006
vn 3.1218092031250109 0 -3.59018571875
vn 3.1218092031250109 0 -3.59018571875
vn 4.6880199999999945 0 -4.4206590000000006
vn 3.1218092031250109 0 -3.59018571875
vn 2.7162882695312476 0 -3.8391201171875053
vn 2.7162882695312476 0 -3.8391201171875053
vn 3.1218092031250109 0 -3.59018571875
vn 2.7162882695312476 0 -3.8391201171875053
vn 2.29718917187499 0 -4.0571460312499994
vn 2.29718917187499 0 -4.0571460312499994
vn 2.7162882695312476 0 -3.8391201171875053
vn 2.29718917187499 0 -4.0571460312499994
vn 1.8645119101562528 0 -4.2442634609374963
vn 1.8645119101562528 0 -4.2442634609374963
vn 2.29718917187499 0 -4.0571460312499994
vn 1.8645119101562528 0 -4.2442634609374963
vn 1.418256484374993 0 -4.400472406249996
vn 1.418256484374993 0 -4.400472406249996
vn 1.8645119101562528 0 -4.2442634609374963
vn 1.418256484374993 0 -4.400472406249996
vn 0.95842289453125318 0 -4.5257728671874986
vn 0.95842289453125318 0 -4.5257728671874986
vn 1.418256484374993 0 -4.400472406249996
vn 0.95842289453125318 0 -4.5257728671874986
vn 0.48501114062500505 0 -4.620164843750004
vn 0.48501114062500505 0 -4.620164843750004
vn 0.95842289453125318 0 -4.5257728671874986
vn 0.48501114062500505 0 -4.620164843750004
vn 0.00037899999999524425 0 -6.2517330000000015
vn 0.00037899999999524425 0 -6.2517330000000015
vn 0.48501114062500505 0 -4.620164843750004
vn 0.0001699999999971169 0 -6.252409
vn -0.48470823437499178 0 -4.6206878124999946
vn -0.48470823437499178 0 -4.6206878124999946
vn 0.0001699999999971169 0 -6.252409
vn 0 1 0
vn 0 1 0
vn 0 1 0
vn 0 1 0
vn 0 1 0
vn 0 1 0
vn 0 1 0
vn 0 1 0
vn 0 1 0
vn 0 1 0
vn 0 1 0
vn 0 1 0
vn 0 1 0
vn 0 1 0
vn 0 1 0
vn 0 1 0
vn 0 1 0
vn 0 1 0
vn 0 1 0
vn 0 1 0
vn 0 1 0
vn 0 1 0
vn 0 1 0
vn 0 1 0
vn 0 1 0
vn 0 1 0
vn 0 1 0
vn 0 1 0
vn 0 1 0
vn 0 1 0
vn 0 1 0
vn 0 1 0
vn 0 1 0
vn 0 1 0
vn 0 1 0
vn 0 1 0
vn 0 1 0
vn 0 1 0
vn 0 1 0
vn 0 1 0
vn 0 1 0
vn 0 1 0
vn 0 1 0
vn 0 1 0
vn 0 1 0
vn 0 1 0
vn 0 1 0
vn 0 1 0
vn 0 1 0
vn 0 1 0
vn 0 1 0
vn 0 1 0
vn 0 1 0
vn 0 1 0
vn 0 1 0
vn 0 1 0
vn 0 1 0
vn 0 1 0
vn 0 1 0
vn 0 1 0
vn 0 1 0
vn 0 1 0
vn 0 1 0
vn 0 1 0
vn 0 1 0
vn 0 1 0
vn 0 1 0
vn 0 1 0
vn 0 1 0
vn 0 1 0
vn 0 1 0
vn 0 1 0
vn 0 1 0
vn 0 1 0
vn 0 1 0
vn 0 1 0
vn 0 1 0
vn 0 1 0
vn 0 1 0
vn 0 1 0
vn 0 1 0
vn 0 1 0
vn 0 1 0
vn 0 1 0
vn 0 1 0
vn 0 1 0
vn 0 1 0
vn 0 1 0
vn 0 1 0
vn 0 1 0
vn 0 1 0
vn 0 1 0
vn 0 1 0
vn 0 1 0
vn 0 1 0
vn 0 1 0
vn 0 -1 0
vn 0 -1 0
vn 0 -1 0
vn 0 -1 0
vn 0 -1 0
vn 0 -1 0
vn 0 -1 0
vn 0 -1 0
vn 0 -1 0
vn 0 -1 0
vn 0 -1 0
vn 0 -1 0
vn 0 -1 0
vn 0 -1 0
vn 0 -1 0
vn 0 -1 0
vn 0 -1 0
vn 0 -1 0
vn 0 -1 0
vn 0 -1 0
vn 0 -1 0
vn 0 -1 0
vn 0 -1 0
vn 0 -1 0
vn 0 -1 0
vn 0 -1 0
vn 0 -1 0
vn 0 -1 0
vn 0 -1 0
vn 0 -1 0
vn 0 -1 0
vn 0 -1 0
vn 0 -1 0
vn 0 -1 0
vn 0 -1 0
vn 0 -1 0
vn 0 -1 0
vn 0 -1 0
vn 0 -1 0
vn 0 -1 0
vn 0 -1 0
vn 0 -1 0
vn 0 -1 0
vn 0 -1 0
vn 0 -1 0
vn 0 -1 0
vn 0 -1 0
vn 0 -1 0
vn 0 -1 0
vn 0 -1 0
vn 0 -1 0
vn 0 -1 0
vn 0 -1 0
vn 0 -1 0
vn 0 -1 0
vn 0 -1 0
vn 0 -1 0
vn 0 -1 0
vn 0 -1 0
vn 0 -1 0
vn 0 -1 0
vn 0 -1 0
vn 0 -1 0
vn 0 -1 0
vn 0 -1 0
vn 0 -1 0
vn 0 -1 0
vn 0 -1 0
vn 0 -1 0
vn 0 -1 0
vn 0 -1 0
vn 0 -1 0
vn 0 -1 0
vn 0 -1 0
vn 0 -1 0
vn 0 -1 0
vn 0 -1 0
vn 0 -1 0
vn 0 -1 0
vn 0 -1 0
vn 0 -1 0
vn 0 -1 0
vn 0 -1 0
vn 0 -1 0
vn 0 -1 0
vn 0 -1 0
vn 0 -1 0
vn 0 -1 0
vn 0 -1 0
vn 0 -1 0
vn 0 -1 0
vn 0 -1 0
vn 0 -1 0
vn 0 -1 0
vn 0 -1 0
vn 0 -1 0

g 
f 1//1 2//2 3//3 4//4
f 2//5 5//6 6//7 3//8
f 5//9 7//10 8//11 6//12
f 7//13 9//14 10//15 8//16
f 9//17 11//18 12//19 10//20
f 11//21 13//22 14//23 12//24
f 13//25 15//26 16//27 14//28
f 15//29 17//30 18//31 16//32
f 17//33 19//34 20//35 18//36
f 19//37 21//38 22//39 20//40
f 21//41 23//42 24//43 22//44
f 23//45 25//46 26//47 24//48
f 25//49 27//50 28//51 26//52
f 27//53 29//54 30//55 28//56
f 29//57 31//58 32//59 30//60
f 31//61 33//62 34//63 32//64
f 33//65 35//66 36//67 34//68
f 35//69 37//70 38//71 36//72
f 37//73 39//74 40//75 38//76
f 39//77 41//78 42//79 40//80
f 41//81 43//82 44//83 42//84
f 43//85 45//86 46//87 44//88
f 45//89 47//90 48//91 46//92
f 47//93 49//94 50//95 48//96
f 49//97 51//98 52//99 50//100
f 51//101 53//102 54//103 52//104
f 53//105 55//106 56//107 54//108
f 55//109 57//110 58//111 56//112
f 57//113 59//114 60//115 58//116
f 59//117 61//118 62//119 60//120
f 61//121 63//122 64//123 62//124
f 63//125 65//126 66//127 64//128
f 65//129 67//130 68//131 66//132
f 67//133 1//134 4//135 68//136
f 53//137 51//138 49//139
f 55//140 53//141 49//142
f 57//143 55//144 49//145
f 59//146 57//147 49//148
f 61//149 59//150 49//151
f 63//152 61//153 49//154
f 65//155 63//156 49//157
f 67//158 65//159 49//160
f 1//161 67//162 49//163
f 1//164 49//165 47//166
f 1//167 47//168 45//169
f 1//170 45//171 43//172
f 1//173 43//174 41//175
f 1//176 41//177 39//178
f 1//179 39//180 37//181
f 1//182 37//183 35//184
f 1//185 35//186 33//187
f 1//188 33//189 31//190
f 1//191 31//192 29//193
f 1//194 29//195 27//196
f 1//197 27//198 25//199
f 1//200 25//201 23//202
f 1//203 23//204 21//205
f 1//206 21//207 19//208
f 1//209 19//210 17//211
f 17//212 15//213 13//214
f 17//215 13//216 11//217
f 17//218 11//219 9//220
f 17//221 9//222 7//223
f 17//224 7//225 5//226
f 17//227 5//228 2//229
f 17//230 2//231 1//232
f 50//233 52//234 54//235
f 50//236 54//237 56//238
f 50//239 56//240 58//241
f 50//242 58//243 60//244
f 50//245 60//246 62//247
f 50//248 62//249 64//250
f 50//251 64//252 66//253
f 50//254 66//255 68//256
f 50//257 68//258 4//259
f 48//260 50//261 4//262
f 46//263 48//264 4//265
f 44//266 46//267 4//268
f 42//269 44//270 4//271
f 40//272 42//273 4//274
f 38//275 40//276 4//277
f 36//278 38//279 4//280
f 34//281 36//282 4//283
f 32//284 34//285 4//286
f 30//287 32//288 4//289
f 28//290 30//291 4//292
f 26//293 28//294 4//295
f 24//296 26//297 4//298
f 22//299 24//300 4//301
f 20//302 22//303 4//304
f 18//305 20//306 4//307
f 14//308 16//309 18//310
f 12//311 14//312 18//313
f 10//314 12//315 18//316
f 8//317 10//318 18//319
f 6//320 8//321 18//322
f 3//323 6//324 18//325
f 4//326 3//327 18//328