o 
v 4.8388670000000005 1 15
v -4.8388669999999987 1 -15
v -4.8388669999999987 0 -15
v 4.8388670000000005 0 15
v 4.8388670000000005 1 -15
v 4.8388670000000005 0 -15
vn -30 0 9.677734
vn -30 0 9.677734
vn -30 0 9.677734
vn -30 0 9.677734
vn 0 0 -9.677734
vn 0 0 -9.677734
vn 0 0 -9.677734
vn 0 0 -9.677734
vn 30 0 0
vn 30 0 0
vn 30 0 0
vn 30 0 0
vn 0 1 0
vn 0 1 0
vn 0 1 0
vn 0 -1 0
vn 0 -1 0
vn 0 -1 0

g 
f 1//1 2//2 3//3 4//4
f 2//5 5//6 6//7 3//8
f 5//9 1//10 4//11 6//12
f 5//13 2//14 1//15
f 4//16 3//17 6//18