o 
v 99.811030248046876 1 63.052381787109368
v 99.250685796875 1 67.036146859375009
v 99.250685796875 0 67.036146859375009
v 99.811030248046876 0 63.052381787109368
v 98.329466353515627 1 70.924409533203118
v 98.329466353515627 0 70.924409533203118
v 97.057871625 1 74.690284125
v 97.057871625 0 74.690284125
v 95.446401318359364 1 78.306884951171867
v 95.446401318359364 0 78.306884951171867
v 93.505555140625 1 81.747326328125
v 93.505555140625 0 81.747326328125
v 91.245832798828118 1 84.984722572265625
v 91.245832798828118 0 84.984722572265625
v 88.677734 1 87.992188
v 88.677734 0 87.992188
v 78.007812 1 76.677734
v 78.007812 0 76.677734
v 79.573758212890624 1 74.843982875
v 79.573758212890624 0 74.843982875
v 80.951678265624992 1 72.870027125000007
v 80.951678265624992 0 72.870027125000007
v 82.135169654296888 1 70.7722596875
v 82.135169654296888 0 70.7722596875
v 83.117829875 1 68.567073499999992
v 83.117829875 0 68.567073499999992
v 83.89325642382812 1 66.2708615
v 83.89325642382812 0 66.2708615
v 84.45504679687501 1 63.900016625
v 84.45504679687501 0 63.900016625
v 84.79679849023438 1 61.4709318125
v 84.79679849023438 0 61.4709318125
v 84.912109 1 59
v 84.912109 0 59
v 84.79679849023438 1 56.5290681875
v 84.79679849023438 0 56.5290681875
v 84.455046796875 1 54.099983375
v 84.455046796875 0 54.099983375
v 83.89325642382812 1 51.7291385
v 83.89325642382812 0 51.7291385
v 83.117829875000012 1 49.432926500000008
v 83.117829875000012 0 49.432926500000008
v 82.135169654296874 1 47.2277403125
v 82.135169654296874 0 47.2277403125
v 80.951678265624992 1 45.129972875000007
v 80.951678265624992 0 45.129972875000007
v 79.573758212890624 1 43.156017125
v 79.573758212890624 0 43.156017125
v 78.007812 1 41.322266
v 78.007812 0 41.322266
v 88.677734 1 30.007812
v 88.677734 0 30.007812
v 91.245832798828118 1 33.015277427734375
v 91.245832798828118 0 33.015277427734375
v 93.505555140625 1 36.252673671874994
v 93.505555140625 0 36.252673671874994
v 95.446401318359378 1 39.693115048828126
v 95.446401318359378 0 39.693115048828126
v 97.05787162499999 1 43.309715874999995
v 97.05787162499999 0 43.309715874999995
v 98.329466353515627 1 47.075590466796875
v 98.329466353515627 0 47.075590466796875
v 99.250685796875 1 50.963853140625
v 99.250685796875 0 50.963853140625
v 99.811030248046876 1 54.947618212890625
v 99.811030248046876 0 54.947618212890625
v 100 1 59
v 100 0 59
vn 8.0361468593750089 0 0.749314203124996
vn 7.87202774609375 0 1.4815638945312486
vn 7.87202774609375 0 1.4815638945312486
vn 8.0361468593750089 0 0.749314203124996
vn 7.87202774609375 0 1.4815638945312486
vn 7.6541372656249962 0 2.192814171875
vn 7.6541372656249962 0 2.192814171875
vn 7.87202774609375 0 1.4815638945312486
vn 7.6541372656249962 0 2.192814171875
vn 7.3824754179687488 0 2.8830650351562639
vn 7.3824754179687488 0 2.8830650351562639
vn 7.6541372656249962 0 2.192814171875
vn 7.3824754179687488 0 2.8830650351562639
vn 7.0570422031249933 0 3.5523164843749981
vn 7.0570422031249933 0 3.5523164843749981
vn 7.3824754179687488 0 2.8830650351562639
vn 7.0570422031249933 0 3.5523164843749981
vn 6.677837621093758 0 4.2005685195312452
vn 6.677837621093758 0 4.2005685195312452
vn 7.0570422031249933 0 3.5523164843749981
vn 6.677837621093758 0 4.2005685195312452
vn 6.244861671875 0 4.8278211406250051
vn 6.244861671875 0 4.8278211406250051
vn 6.677837621093758 0 4.2005685195312452
vn 6.244861671875 0 4.8278211406250051
vn 7.6894350000000031 0 7.2500989999999916
vn 7.6894350000000031 0 7.2500989999999916
vn 6.244861671875 0 4.8278211406250051
vn -11.314453999999998 0 10.669922
vn -11.314453999999998 0 10.669922
vn -11.314453999999998 0 10.669922
vn -11.314453999999998 0 10.669922
vn -4.6884919999999966 0 -4.4208670000000012
vn -3.8077068749999938 0 -2.9438662656249903
vn -3.8077068749999938 0 -2.9438662656249903
vn -4.6884919999999966 0 -4.4208670000000012
vn -3.8077068749999938 0 -2.9438662656249903
vn -4.0717231874999982 0 -2.5614114414062641
vn -4.0717231874999982 0 -2.5614114414062641
vn -3.8077068749999938 0 -2.9438662656249903
vn -4.0717231874999982 0 -2.5614114414062641
vn -4.3029536250000149 0 -2.1661516093750066
vn -4.3029536250000149 0 -2.1661516093750066
vn -4.0717231874999982 0 -2.5614114414062641
vn -4.3029536250000149 0 -2.1661516093750066
vn -4.5013981875000013 0 -1.7580867695312321
vn -4.5013981875000013 0 -1.7580867695312321
vn -4.3029536250000149 0 -2.1661516093750066
vn -4.5013981875000013 0 -1.7580867695312321
vn -4.667056874999993 0 -1.3372169218750116
vn -4.667056874999993 0 -1.3372169218750116
vn -4.5013981875000013 0 -1.7580867695312321
vn -4.667056874999993 0 -1.3372169218750116
vn -4.799929687499997 0 -0.90354206640625989
vn -4.799929687499997 0 -0.90354206640625989
vn -4.667056874999993 0 -1.3372169218750116
vn -4.799929687499997 0 -0.90354206640625989
vn -4.9000166249999992 0 -0.45706220312499113
vn -4.9000166249999992 0 -0.45706220312499113
vn -4.799929687499997 0 -0.90354206640625989
vn -4.9000166249999992 0 -0.45706220312499113
vn -6.6303759999999983 0 0.00011800000000050659
vn -6.6303759999999983 0 0.00011800000000050659
vn -4.9000166249999992 0 -0.45706220312499113
vn -6.6303759999999983 0 -0.00011800000000050659
vn -4.9000166249999992 0 0.45706220312500534
vn -4.9000166249999992 0 0.45706220312500534
vn -6.6303759999999983 0 -0.00011800000000050659
vn -4.9000166249999992 0 0.45706220312500534
vn -4.7999296875000041 0 0.90354206640625989
vn -4.7999296875000041 0 0.90354206640625989
vn -4.9000166249999992 0 0.45706220312500534
vn -4.7999296875000041 0 0.90354206640625989
vn -4.667056874999993 0 1.3372169218749832
vn -4.667056874999993 0 1.3372169218749832
vn -4.7999296875000041 0 0.90354206640625989
vn -4.667056874999993 0 1.3372169218749832
vn -4.5013981874999942 0 1.7580867695312463
vn -4.5013981874999942 0 1.7580867695312463
vn -4.667056874999993 0 1.3372169218749832
vn -4.5013981874999942 0 1.7580867695312463
vn -4.3029536250000007 0 2.1661516093750208
vn -4.3029536250000007 0 2.1661516093750208
vn -4.5013981874999942 0 1.7580867695312463
vn -4.3029536250000007 0 2.1661516093750208
vn -4.0717231875000053 0 2.56141144140625
vn -4.0717231875000053 0 2.56141144140625
vn -4.3029536250000007 0 2.1661516093750208
vn -4.0717231875000053 0 2.56141144140625
vn -3.807706875000008 0 2.9438662656249903
vn -3.807706875000008 0 2.9438662656249903
vn -4.0717231875000053 0 2.56141144140625
vn -3.807706875000008 0 2.9438662656249903
vn -4.6884920000000037 0 4.4208670000000012
vn -4.6884920000000037 0 4.4208670000000012
vn -3.807706875000008 0 2.9438662656249903
vn -11.314453999999998 0 -10.669922
vn -11.314453999999998 0 -10.669922
vn -11.314453999999998 0 -10.669922
vn -11.314453999999998 0 -10.669922
vn 7.689434999999996 0 -7.2500990000000058
vn 6.2448616718749932 0 -4.8278211406250051
vn 6.2448616718749932 0 -4.8278211406250051
vn 7.689434999999996 0 -7.2500990000000058
vn 6.2448616718749932 0 -4.8278211406250051
vn 6.6778376210937509 0 -4.2005685195312594
vn 6.6778376210937509 0 -4.2005685195312594
vn 6.2448616718749932 0 -4.8278211406250051
vn 6.6778376210937509 0 -4.2005685195312594
vn 7.057042203125 0 -3.5523164843749839
vn 7.057042203125 0 -3.5523164843749839
vn 6.6778376210937509 0 -4.2005685195312594
vn 7.057042203125 0 -3.5523164843749839
vn 7.3824754179687488 0 -2.8830650351562497
vn 7.3824754179687488 0 -2.8830650351562497
vn 7.057042203125 0 -3.5523164843749839
vn 7.3824754179687488 0 -2.8830650351562497
vn 7.6541372656250033 0 -2.192814171875014
vn 7.6541372656250033 0 -2.192814171875014
vn 7.3824754179687488 0 -2.8830650351562497
vn 7.6541372656250033 0 -2.192814171875014
vn 7.87202774609375 0 -1.4815638945312486
vn 7.87202774609375 0 -1.4815638945312486
vn 7.6541372656250033 0 -2.192814171875014
vn 7.87202774609375 0 -1.4815638945312486
vn 8.0361468593750018 0 -0.749314203124996
vn 8.0361468593750018 0 -0.749314203124996
vn 7.87202774609375 0 -1.4815638945312486
vn 8.0361468593750018 0 -0.749314203124996
vn 10.873942 0 0.00057999999999935881
vn 10.873942 0 0.00057999999999935881
vn 8.0361468593750018 0 -0.749314203124996
vn 10.873942 0 -0.00057999999999935881
vn 8.0361468593750089 0 0.749314203124996
vn 8.0361468593750089 0 0.749314203124996
vn 10.873942 0 -0.00057999999999935881
vn 0 1 0
vn 0 1 0
vn 0 1 0
vn 0 1 0
vn 0 1 0
vn 0 1 0
vn 0 1 0
vn 0 1 0
vn 0 1 0
vn 0 1 0
vn 0 1 0
vn 0 1 0
vn 0 1 0
vn 0 1 0
vn 0 1 0
vn 0 1 0
vn 0 1 0
vn 0 1 0
vn 0 1 0
vn 0 1 0
vn 0 1 0
vn 0 1 0
vn 0 1 0
vn 0 1 0
vn 0 1 0
vn 0 1 0
vn 0 1 0
vn 0 1 0
vn 0 1 0
vn 0 1 0
vn 0 1 0
vn 0 1 0
vn 0 1 0
vn 0 1 0
vn 0 1 0
vn 0 1 0
vn 0 1 0
vn 0 1 0
vn 0 1 0
vn 0 1 0
vn 0 1 0
vn 0 1 0
vn 0 1 0
vn 0 1 0
vn 0 1 0
vn 0 1 0
vn 0 1 0
vn 0 1 0
vn 0 1 0
vn 0 1 0
vn 0 1 0
vn 0 1 0
vn 0 1 0
vn 0 1 0
vn 0 1 0
vn 0 1 0
vn 0 1 0
vn 0 1 0
vn 0 1 0
vn 0 1 0
vn 0 1 0
vn 0 1 0
vn 0 1 0
vn 0 1 0
vn 0 1 0
vn 0 1 0
vn 0 1 0
vn 0 1 0
vn 0 1 0
vn 0 1 0
vn 0 1 0
vn 0 1 0
vn 0 1 0
vn 0 1 0
vn 0 1 0
vn 0 1 0
vn 0 1 0
vn 0 1 0
vn 0 1 0
vn 0 1 0
vn 0 1 0
vn 0 1 0
vn 0 1 0
vn 0 1 0
vn 0 1 0
vn 0 1 0
vn 0 1 0
vn 0 1 0
vn 0 1 0
vn 0 1 0
vn 0 1 0
vn 0 1 0
vn 0 1 0
vn 0 1 0
vn 0 1 0
vn 0 1 0
vn 0 -1 0
vn 0 -1 0
vn 0 -1 0
vn 0 -1 0
vn 0 -1 0
vn 0 -1 0
vn 0 -1 0
vn 0 -1 0
vn 0 -1 0
vn 0 -1 0
vn 0 -1 0
vn 0 -1 0
vn 0 -1 0
vn 0 -1 0
vn 0 -1 0
vn 0 -1 0
vn 0 -1 0
vn 0 -1 0
vn 0 -1 0
vn 0 -1 0
vn 0 -1 0
vn 0 -1 0
vn 0 -1 0
vn 0 -1 0
vn 0 -1 0
vn 0 -1 0
vn 0 -1 0
vn 0 -1 0
vn 0 -1 0
vn 0 -1 0
vn 0 -1 0
vn 0 -1 0
vn 0 -1 0
vn 0 -1 0
vn 0 -1 0
vn 0 -1 0
vn 0 -1 0
vn 0 -1 0
vn 0 -1 0
vn 0 -1 0
vn 0 -1 0
vn 0 -1 0
vn 0 -1 0
vn 0 -1 0
vn 0 -1 0
vn 0 -1 0
vn 0 -1 0
vn 0 -1 0
vn 0 -1 0
vn 0 -1 0
vn 0 -1 0
vn 0 -1 0
vn 0 -1 0
vn 0 -1 0
vn 0 -1 0
vn 0 -1 0
vn 0 -1 0
vn 0 -1 0
vn 0 -1 0
vn 0 -1 0
vn 0 -1 0
vn 0 -1 0
vn 0 -1 0
vn 0 -1 0
vn 0 -1 0
vn 0 -1 0
vn 0 -1 0
vn 0 -1 0
vn 0 -1 0
vn 0 -1 0
vn 0 -1 0
vn 0 -1 0
vn 0 -1 0
vn 0 -1 0
vn 0 -1 0
vn 0 -1 0
vn 0 -1 0
vn 0 -1 0
vn 0 -1 0
vn 0 -1 0
vn 0 -1 0
vn 0 -1 0
vn 0 -1 0
vn 0 -1 0
vn 0 -1 0
vn 0 -1 0
vn 0 -1 0
vn 0 -1 0
vn 0 -1 0
vn 0 -1 0
vn 0 -1 0
vn 0 -1 0
vn 0 -1 0
vn 0 -1 0
vn 0 -1 0
vn 0 -1 0

g 
f 1//1 2//2 3//3 4//4
f 2//5 5//6 6//7 3//8
f 5//9 7//10 8//11 6//12
f 7//13 9//14 10//15 8//16
f 9//17 11//18 12//19 10//20
f 11//21 13//22 14//23 12//24
f 13//25 15//26 16//27 14//28
f 15//29 17//30 18//31 16//32
f 17//33 19//34 20//35 18//36
f 19//37 21//38 22//39 20//40
f 21//41 23//42 24//43 22//44
f 23//45 25//46 26//47 24//48
f 25//49 27//50 28//51 26//52
f 27//53 29//54 30//55 28//56
f 29//57 31//58 32//59 30//60
f 31//61 33//62 34//63 32//64
f 33//65 35//66 36//67 34//68
f 35//69 37//70 38//71 36//72
f 37//73 39//74 40//75 38//76
f 39//77 41//78 42//79 40//80
f 41//81 43//82 44//83 42//84
f 43//85 45//86 46//87 44//88
f 45//89 47//90 48//91 46//92
f 47//93 49//94 50//95 48//96
f 49//97 51//98 52//99 50//100
f 51//101 53//102 54//103 52//104
f 53//105 55//106 56//107 54//108
f 55//109 57//110 58//111 56//112
f 57//113 59//114 60//115 58//116
f 59//117 61//118 62//119 60//120
f 61//121 63//122 64//123 62//124
f 63//125 65//126 66//127 64//128
f 65//129 67//130 68//131 66//132
f 67//133 1//134 4//135 68//136
f 1//137 67//138 65//139
f 1//140 65//141 63//142
f 1//143 63//144 61//145
f 1//146 61//147 59//148
f 1//149 59//150 57//151
f 1//152 57//153 55//154
f 1//155 55//156 53//157
f 1//158 53//159 51//160
f 1//161 51//162 49//163
f 1//164 49//165 47//166
f 1//167 47//168 45//169
f 1//170 45//171 43//172
f 1//173 43//174 41//175
f 1//176 41//177 39//178
f 1//179 39//180 37//181
f 1//182 37//183 35//184
f 1//185 35//186 33//187
f 1//188 33//189 31//190
f 1//191 31//192 29//193
f 1//194 29//195 27//196
f 1//197 27//198 25//199
f 1//200 25//201 23//202
f 1//203 23//204 21//205
f 1//206 21//207 19//208
f 1//209 19//210 17//211
f 1//212 17//213 15//214
f 1//215 15//216 13//217
f 1//218 13//219 11//220
f 1//221 11//222 9//223
f 1//224 9//225 7//226
f 1//227 7//228 5//229
f 5//230 2//231 1//232
f 66//233 68//234 4//235
f 64//236 66//237 4//238
f 62//239 64//240 4//241
f 60//242 62//243 4//244
f 58//245 60//246 4//247
f 56//248 58//249 4//250
f 54//251 56//252 4//253
f 52//254 54//255 4//256
f 50//257 52//258 4//259
f 48//260 50//261 4//262
f 46//263 48//264 4//265
f 44//266 46//267 4//268
f 42//269 44//270 4//271
f 40//272 42//273 4//274
f 38//275 40//276 4//277
f 36//278 38//279 4//280
f 34//281 36//282 4//283
f 32//284 34//285 4//286
f 30//287 32//288 4//289
f 28//290 30//291 4//292
f 26//293 28//294 4//295
f 24//296 26//297 4//298
f 22//299 24//300 4//301
f 20//302 22//303 4//304
f 18//305 20//306 4//307
f 16//308 18//309 4//310
f 14//311 16//312 4//313
f 12//314 14//315 4//316
f 10//317 12//318 4//319
f 8//320 10//321 4//322
f 6//323 8//324 4//325
f 4//326 3//327 6//328