o 
v 59.837468433593749 1 8.4107440839843743
v 59.37132034375 1 9.724715796875
v 59.37132034375 0 9.724715796875
v 59.837468433593749 0 8.4107440839843743
v 58.633725644531253 1 10.913766455078125
v 58.633725644531253 0 10.913766455078125
v 57.65685425 1 11.949747375
v 57.65685425 0 11.949747375
v 56.472876074218746 1 12.804509873046875
v 56.472876074218746 0 12.804509873046875
v 55.11396103125 1 13.449905265625
v 55.11396103125 0 13.449905265625
v 53.612279035156249 1 13.857784869140625
v 53.612279035156249 0 13.857784869140625
v 52 1 14
v 52 0 14
v 50.387720964843751 1 13.857784869140625
v 50.387720964843751 0 13.857784869140625
v 48.88603896875 1 13.449905265625
v 48.88603896875 0 13.449905265625
v 47.527123925781254 1 12.804509873046875
v 47.527123925781254 0 12.804509873046875
v 46.34314575 1 11.949747375
v 46.34314575 0 11.949747375
v 45.366274355468747 1 10.913766455078125
v 45.366274355468747 0 10.913766455078125
v 44.62867965625 1 9.724715796875
v 44.62867965625 0 9.724715796875
v 44.162531566406251 1 8.4107440839843743
v 44.162531566406251 0 8.4107440839843743
v 44 1 7
v 44 0 7
v 44.162531566406251 1 5.58925585859375
v 44.162531566406251 0 5.58925585859375
v 44.62867965625 1 4.27528411875
v 44.62867965625 0 4.27528411875
v 45.366274355468747 1 3.08623345703125
v 45.366274355468747 0 3.08623345703125
v 46.34314575 1 2.0502525499999997
v 46.34314575 0 2.0502525499999997
v 47.527123925781254 1 1.19549007421875
v 47.527123925781254 0 1.19549007421875
v 48.88603896875 1 0.55009470625
v 48.88603896875 0 0.55009470625
v 50.387720964843751 1 0.14221512265625
v 50.387720964843751 0 0.14221512265625
v 52 1 0
v 52 0 0
v 53.612279035156249 1 0.14221512265625
v 53.612279035156249 0 0.14221512265625
v 55.11396103125 1 0.55009470625
v 55.11396103125 0 0.55009470625
v 56.472876074218746 1 1.19549007421875
v 56.472876074218746 0 1.19549007421875
v 57.65685425 1 2.0502525499999997
v 57.65685425 0 2.0502525499999997
v 58.633725644531253 1 3.08623345703125
v 58.633725644531253 0 3.08623345703125
v 59.37132034375 1 4.27528411875
v 59.37132034375 0 4.27528411875
v 59.837468433593749 1 5.58925585859375
v 59.837468433593749 0 5.58925585859375
v 60 1 7
v 60 0 7
vn 2.7247157968749995 0 0.62867965625000011
vn 2.5030223710937509 0 1.2037427890624954
vn 2.5030223710937509 0 1.2037427890624954
vn 2.7247157968749995 0 0.62867965625000011
vn 2.5030223710937509 0 1.2037427890624954
vn 2.225031578125 0 1.7144660937499978
vn 2.225031578125 0 1.7144660937499978
vn 2.5030223710937509 0 1.2037427890624954
vn 2.225031578125 0 1.7144660937499978
vn 1.89074341796875 0 2.1608495703125072
vn 1.89074341796875 0 2.1608495703125072
vn 2.225031578125 0 1.7144660937499978
vn 1.89074341796875 0 2.1608495703125072
vn 1.500157890625001 0 2.5428932187500024
vn 1.500157890625001 0 2.5428932187500024
vn 1.89074341796875 0 2.1608495703125072
vn 1.500157890625001 0 2.5428932187500024
vn 1.0532749960937498 0 2.8605970390624975
vn 1.0532749960937498 0 2.8605970390624975
vn 1.500157890625001 0 2.5428932187500024
vn 1.0532749960937498 0 2.8605970390624975
vn 0.55009473437499956 0 3.1139610312499997
vn 0.55009473437499956 0 3.1139610312499997
vn 1.0532749960937498 0 2.8605970390624975
vn 0.55009473437499956 0 3.1139610312499997
vn 0 0 4.4182780000000008
vn 0 0 4.4182780000000008
vn 0.55009473437499956 0 3.1139610312499997
vn 0 0 4.4182780000000008
vn -0.55009473437499956 0 3.1139610312499997
vn -0.55009473437499956 0 3.1139610312499997
vn 0 0 4.4182780000000008
vn -0.55009473437499956 0 3.1139610312499997
vn -1.0532749960937498 0 2.8605970390624975
vn -1.0532749960937498 0 2.8605970390624975
vn -0.55009473437499956 0 3.1139610312499997
vn -1.0532749960937498 0 2.8605970390624975
vn -1.500157890625001 0 2.5428932187500024
vn -1.500157890625001 0 2.5428932187500024
vn -1.0532749960937498 0 2.8605970390624975
vn -1.500157890625001 0 2.5428932187500024
vn -1.89074341796875 0 2.1608495703125072
vn -1.89074341796875 0 2.1608495703125072
vn -1.500157890625001 0 2.5428932187500024
vn -1.89074341796875 0 2.1608495703125072
vn -2.225031578125 0 1.7144660937499978
vn -2.225031578125 0 1.7144660937499978
vn -1.89074341796875 0 2.1608495703125072
vn -2.225031578125 0 1.7144660937499978
vn -2.5030223710937509 0 1.2037427890624954
vn -2.5030223710937509 0 1.2037427890624954
vn -2.225031578125 0 1.7144660937499978
vn -2.5030223710937509 0 1.2037427890624954
vn -2.7247157968749995 0 0.62867965625000011
vn -2.7247157968749995 0 0.62867965625000011
vn -2.5030223710937509 0 1.2037427890624954
vn -2.7247157968749995 0 0.62867965625000011
vn -3.8659929999999996 0 0
vn -3.8659929999999996 0 0
vn -2.7247157968749995 0 0.62867965625000011
vn -3.8659932 0 0
vn -2.72471588125 0 -0.62867965625000011
vn -2.72471588125 0 -0.62867965625000011
vn -3.8659932 0 0
vn -2.72471588125 0 -0.62867965625000011
vn -2.5030224015625 0 -1.2037427890624954
vn -2.5030224015625 0 -1.2037427890624954
vn -2.72471588125 0 -0.62867965625000011
vn -2.5030224015625 0 -1.2037427890624954
vn -2.2250315687500004 0 -1.7144660937499978
vn -2.2250315687500004 0 -1.7144660937499978
vn -2.5030224015625 0 -1.2037427890624954
vn -2.2250315687500004 0 -1.7144660937499978
vn -1.8907433828125002 0 -2.1608495703125072
vn -1.8907433828125002 0 -2.1608495703125072
vn -2.2250315687500004 0 -1.7144660937499978
vn -1.8907433828125002 0 -2.1608495703125072
vn -1.5001578437499998 0 -2.5428932187500024
vn -1.5001578437499998 0 -2.5428932187500024
vn -1.8907433828125002 0 -2.1608495703125072
vn -1.5001578437499998 0 -2.5428932187500024
vn -1.0532749515625 0 -2.8605970390624975
vn -1.0532749515625 0 -2.8605970390624975
vn -1.5001578437499998 0 -2.5428932187500024
vn -1.0532749515625 0 -2.8605970390624975
vn -0.55009470625 0 -3.1139610312499997
vn -0.55009470625 0 -3.1139610312499997
vn -1.0532749515625 0 -2.8605970390624975
vn -0.55009470625 0 -3.1139610312499997
vn 0 0 -4.4182780000000008
vn 0 0 -4.4182780000000008
vn -0.55009470625 0 -3.1139610312499997
vn 0 0 -4.4182780000000008
vn 0.55009470625 0 -3.1139610312499997
vn 0.55009470625 0 -3.1139610312499997
vn 0 0 -4.4182780000000008
vn 0.55009470625 0 -3.1139610312499997
vn 1.0532749515625 0 -2.8605970390624975
vn 1.0532749515625 0 -2.8605970390624975
vn 0.55009470625 0 -3.1139610312499997
vn 1.0532749515625 0 -2.8605970390624975
vn 1.5001578437499998 0 -2.5428932187500024
vn 1.5001578437499998 0 -2.5428932187500024
vn 1.0532749515625 0 -2.8605970390624975
vn 1.5001578437499998 0 -2.5428932187500024
vn 1.8907433828125002 0 -2.1608495703125072
vn 1.8907433828125002 0 -2.1608495703125072
vn 1.5001578437499998 0 -2.5428932187500024
vn 1.8907433828125002 0 -2.1608495703125072
vn 2.2250315687500004 0 -1.7144660937499978
vn 2.2250315687500004 0 -1.7144660937499978
vn 1.8907433828125002 0 -2.1608495703125072
vn 2.2250315687500004 0 -1.7144660937499978
vn 2.5030224015625 0 -1.2037427890624954
vn 2.5030224015625 0 -1.2037427890624954
vn 2.2250315687500004 0 -1.7144660937499978
vn 2.5030224015625 0 -1.2037427890624954
vn 2.72471588125 0 -0.62867965625000011
vn 2.72471588125 0 -0.62867965625000011
vn 2.5030224015625 0 -1.2037427890624954
vn 2.72471588125 0 -0.62867965625000011
vn 3.8659932 0 0
vn 3.8659932 0 0
vn 2.72471588125 0 -0.62867965625000011
vn 3.8659929999999996 0 0
vn 2.7247157968749995 0 0.62867965625000011
vn 2.7247157968749995 0 0.62867965625000011
vn 3.8659929999999996 0 0
vn 0 1 0
vn 0 1 0
vn 0 1 0
vn 0 1 0
vn 0 1 0
vn 0 1 0
vn 0 1 0
vn 0 1 0
vn 0 1 0
vn 0 1 0
vn 0 1 0
vn 0 1 0
vn 0 1 0
vn 0 1 0
vn 0 1 0
vn 0 1 0
vn 0 1 0
vn 0 1 0
vn 0 1 0
vn 0 1 0
vn 0 1 0
vn 0 1 0
vn 0 1 0
vn 0 1 0
vn 0 1 0
vn 0 1 0
vn 0 1 0
vn 0 1 0
vn 0 1 0
vn 0 1 0
vn 0 1 0
vn 0 1 0
vn 0 1 0
vn 0 1 0
vn 0 1 0
vn 0 1 0
vn 0 1 0
vn 0 1 0
vn 0 1 0
vn 0 1 0
vn 0 1 0
vn 0 1 0
vn 0 1 0
vn 0 1 0
vn 0 1 0
vn 0 1 0
vn 0 1 0
vn 0 1 0
vn 0 1 0
vn 0 1 0
vn 0 1 0
vn 0 1 0
vn 0 1 0
vn 0 1 0
vn 0 1 0
vn 0 1 0
vn 0 1 0
vn 0 1 0
vn 0 1 0
vn 0 1 0
vn 0 1 0
vn 0 1 0
vn 0 1 0
vn 0 1 0
vn 0 1 0
vn 0 1 0
vn 0 1 0
vn 0 1 0
vn 0 1 0
vn 0 1 0
vn 0 1 0
vn 0 1 0
vn 0 1 0
vn 0 1 0
vn 0 1 0
vn 0 1 0
vn 0 1 0
vn 0 1 0
vn 0 1 0
vn 0 1 0
vn 0 1 0
vn 0 1 0
vn 0 1 0
vn 0 1 0
vn 0 1 0
vn 0 1 0
vn 0 1 0
vn 0 1 0
vn 0 1 0
vn 0 1 0
vn 0 -1 0
vn 0 -1 0
vn 0 -1 0
vn 0 -1 0
vn 0 -1 0
vn 0 -1 0
vn 0 -1 0
vn 0 -1 0
vn 0 -1 0
vn 0 -1 0
vn 0 -1 0
vn 0 -1 0
vn 0 -1 0
vn 0 -1 0
vn 0 -1 0
vn 0 -1 0
vn 0 -1 0
vn 0 -1 0
vn 0 -1 0
vn 0 -1 0
vn 0 -1 0
vn 0 -1 0
vn 0 -1 0
vn 0 -1 0
vn 0 -1 0
vn 0 -1 0
vn 0 -1 0
vn 0 -1 0
vn 0 -1 0
vn 0 -1 0
vn 0 -1 0
vn 0 -1 0
vn 0 -1 0
vn 0 -1 0
vn 0 -1 0
vn 0 -1 0
vn 0 -1 0
vn 0 -1 0
vn 0 -1 0
vn 0 -1 0
vn 0 -1 0
vn 0 -1 0
vn 0 -1 0
vn 0 -1 0
vn 0 -1 0
vn 0 -1 0
vn 0 -1 0
vn 0 -1 0
vn 0 -1 0
vn 0 -1 0
vn 0 -1 0
vn 0 -1 0
vn 0 -1 0
vn 0 -1 0
vn 0 -1 0
vn 0 -1 0
vn 0 -1 0
vn 0 -1 0
vn 0 -1 0
vn 0 -1 0
vn 0 -1 0
vn 0 -1 0
vn 0 -1 0
vn 0 -1 0
vn 0 -1 0
vn 0 -1 0
vn 0 -1 0
vn 0 -1 0
vn 0 -1 0
vn 0 -1 0
vn 0 -1 0
vn 0 -1 0
vn 0 -1 0
vn 0 -1 0
vn 0 -1 0
vn 0 -1 0
vn 0 -1 0
vn 0 -1 0
vn 0 -1 0
vn 0 -1 0
vn 0 -1 0
vn 0 -1 0
vn 0 -1 0
vn 0 -1 0
vn 0 -1 0
vn 0 -1 0
vn 0 -1 0
vn 0 -1 0
vn 0 -1 0
vn 0 -1 0

g 
f 1//1 2//2 3//3 4//4
f 2//5 5//6 6//7 3//8
f 5//9 7//10 8//11 6//12
f 7//13 9//14 10//15 8//16
f 9//17 11//18 12//19 10//20
f 11//21 13//22 14//23 12//24
f 13//25 15//26 16//27 14//28
f 15//29 17//30 18//31 16//32
f 17//33 19//34 20//35 18//36
f 19//37 21//38 22//39 20//40
f 21//41 23//42 24//43 22//44
f 23//45 25//46 26//47 24//48
f 25//49 27//50 28//51 26//52
f 27//53 29//54 30//55 28//56
f 29//57 31//58 32//59 30//60
f 31//61 33//62 34//63 32//64
f 33//65 35//66 36//67 34//68
f 35//69 37//70 38//71 36//72
f 37//73 39//74 40//75 38//76
f 39//77 41//78 42//79 40//80
f 41//81 43//82 44//83 42//84
f 43//85 45//86 46//87 44//88
f 45//89 47//90 48//91 46//92
f 47//93 49//94 50//95 48//96
f 49//97 51//98 52//99 50//100
f 51//101 53//102 54//103 52//104
f 53//105 55//106 56//107 54//108
f 55//109 57//110 58//111 56//112
f 57//113 59//114 60//115 58//116
f 59//117 61//118 62//119 60//120
f 61//121 63//122 64//123 62//124
f 63//125 1//126 4//127 64//128
f 1//129 63//130 61//131
f 1//132 61//133 59//134
f 1//135 59//136 57//137
f 1//138 57//139 55//140
f 1//141 55//142 53//143
f 1//144 53//145 51//146
f 1//147 51//148 49//149
f 1//150 49//151 47//152
f 1//153 47//154 45//155
f 1//156 45//157 43//158
f 1//159 43//160 41//161
f 1//162 41//163 39//164
f 1//165 39//166 37//167
f 1//168 37//169 35//170
f 1//171 35//172 33//173
f 1//174 33//175 31//176
f 1//177 31//178 29//179
f 1//180 29//181 27//182
f 1//183 27//184 25//185
f 1//186 25//187 23//188
f 1//189 23//190 21//191
f 1//192 21//193 19//194
f 1//195 19//196 17//197
f 1//198 17//199 15//200
f 1//201 15//202 13//203
f 1//204 13//205 11//206
f 1//207 11//208 9//209
f 1//210 9//211 7//212
f 1//213 7//214 5//215
f 5//216 2//217 1//218
f 62//219 64//220 4//221
f 60//222 62//223 4//224
f 58//225 60//226 4//227
f 56//228 58//229 4//230
f 54//231 56//232 4//233
f 52//234 54//235 4//236
f 50//237 52//238 4//239
f 48//240 50//241 4//242
f 46//243 48//244 4//245
f 44//246 46//247 4//248
f 42//249 44//250 4//251
f 40//252 42//253 4//254
f 38//255 40//256 4//257
f 36//258 38//259 4//260
f 34//261 36//262 4//263
f 32//264 34//265 4//266
f 30//267 32//268 4//269
f 28//270 30//271 4//272
f 26//273 28//274 4//275
f 24//276 26//277 4//278
f 22//279 24//280 4//281
f 20//282 22//283 4//284
f 18//285 20//286 4//287
f 16//288 18//289 4//290
f 14//291 16//292 4//293
f 12//294 14//295 4//296
f 10//297 12//298 4//299
f 8//300 10//301 4//302
f 6//303 8//304 4//305
f 4//306 3//307 6//308