o 
v 66 1 70
v 36.414062 1 38.621094
v 36.414062 0 38.621094
v 66 0 70
v 38.123443958984367 1 36.968732228515627
v 38.123443958984367 0 36.968732228515627
v 39.632168796875 1 35.158028828125005
v 39.632168796875 0 35.158028828125005
v 40.931830830078127 1 33.207401044921873
v 40.931830830078127 0 33.207401044921873
v 42.014024375 1 31.135266125
v 42.014024375 0 31.135266125
v 42.870343748046871 1 28.960041314453129
v 42.870343748046871 0 28.960041314453129
v 43.492383265624994 1 26.700143859375004
v 43.492383265624994 0 26.700143859375004
v 43.871737244140625 1 24.373991005859374
v 43.871737244140625 0 24.373991005859374
v 44 1 22
v 44 0 22
v 43.684321140624995 1 18.2871163921875
v 43.684321140624995 0 18.2871163921875
v 42.755176875 1 14.705463387499998
v 42.755176875 0 14.705463387499998
v 41.238971421875 1 11.3301607140625
v 41.238971421875 0 11.3301607140625
v 39.162109 1 8.2363281
v 39.162109 0 8.2363281
v 50 1 0
v 50 0 0
v 66 1 12
v 66 0 12
vn -31.378906 0 29.585938
vn -31.378906 0 29.585938
vn -31.378906 0 29.585938
vn -31.378906 0 29.585938
vn -4.178804999999997 0 -4.8184229999999957
vn -3.4630651718749945 0 -3.2181067968749986
vn -3.4630651718749945 0 -3.2181067968749986
vn -4.178804999999997 0 -4.8184229999999957
vn -3.4630651718749945 0 -3.2181067968749986
vn -3.7613311835937537 0 -2.8083868710937594
vn -3.7613311835937537 0 -2.8083868710937594
vn -3.4630651718749945 0 -3.2181067968749986
vn -3.7613311835937537 0 -2.8083868710937594
vn -4.0227627031250037 0 -2.3818555781249984
vn -4.0227627031250037 0 -2.3818555781249984
vn -3.7613311835937537 0 -2.8083868710937594
vn -4.0227627031250037 0 -2.3818555781249984
vn -4.2473597304687445 0 -1.9385129179687439
vn -4.2473597304687445 0 -1.9385129179687439
vn -4.0227627031250037 0 -2.3818555781249984
vn -4.2473597304687445 0 -1.9385129179687439
vn -4.4351222656249973 0 -1.478358890624996
vn -4.4351222656249973 0 -1.478358890624996
vn -4.2473597304687445 0 -1.9385129179687439
vn -4.4351222656249973 0 -1.478358890624996
vn -4.5860503085937552 0 -1.0013934960937547
vn -4.5860503085937552 0 -1.0013934960937547
vn -4.4351222656249973 0 -1.478358890624996
vn -4.5860503085937552 0 -1.0013934960937547
vn -4.7001438593750038 0 -0.50761673437500576
vn -4.7001438593750038 0 -0.50761673437500576
vn -4.5860503085937552 0 -1.0013934960937547
vn -4.7001438593750038 0 -0.50761673437500576
vn -6.3780560000000008 0 0.00022599999999783904
vn -6.3780560000000008 0 0.00022599999999783904
vn -4.7001438593750038 0 -0.50761673437500576
vn -5.0046120000000016 0 0.00019300000000299633
vn -7.2945366125000017 0 1.2448231250000035
vn -7.2945366125000017 0 1.2448231250000035
vn -5.0046120000000016 0 0.00019300000000299633
vn -7.2945366125000017 0 1.2448231250000035
vn -6.956955678125 0 2.4453497187499948
vn -6.956955678125 0 2.4453497187499948
vn -7.2945366125000017 0 1.2448231250000035
vn -6.956955678125 0 2.4453497187499948
vn -6.4691352874999986 0 3.5930678749999956
vn -6.4691352874999986 0 3.5930678749999956
vn -6.956955678125 0 2.4453497187499948
vn -6.4691352874999986 0 3.5930678749999956
vn -3.9040768999999997 0 3.1311859999999996
vn -3.9040768999999997 0 3.1311859999999996
vn -6.4691352874999986 0 3.5930678749999956
vn -8.2363281 0 -10.837890999999999
vn -8.2363281 0 -10.837890999999999
vn -8.2363281 0 -10.837890999999999
vn -8.2363281 0 -10.837890999999999
vn 12 0 -16
vn 12 0 -16
vn 12 0 -16
vn 12 0 -16
vn 58 0 0
vn 58 0 0
vn 58 0 0
vn 58 0 0
vn 0 1 0
vn 0 1 0
vn 0 1 0
vn 0 1 0
vn 0 1 0
vn 0 1 0
vn 0 1 0
vn 0 1 0
vn 0 1 0
vn 0 1 0
vn 0 1 0
vn 0 1 0
vn 0 1 0
vn 0 1 0
vn 0 1 0
vn 0 1 0
vn 0 1 0
vn 0 1 0
vn 0 1 0
vn 0 1 0
vn 0 1 0
vn 0 1 0
vn 0 1 0
vn 0 1 0
vn 0 1 0
vn 0 1 0
vn 0 1 0
vn 0 1 0
vn 0 1 0
vn 0 1 0
vn 0 1 0
vn 0 1 0
vn 0 1 0
vn 0 1 0
vn 0 1 0
vn 0 1 0
vn 0 1 0
vn 0 1 0
vn 0 1 0
vn 0 1 0
vn 0 1 0
vn 0 1 0
vn 0 -1 0
vn 0 -1 0
vn 0 -1 0
vn 0 -1 0
vn 0 -1 0
vn 0 -1 0
vn 0 -1 0
vn 0 -1 0
vn 0 -1 0
vn 0 -1 0
vn 0 -1 0
vn 0 -1 0
vn 0 -1 0
vn 0 -1 0
vn 0 -1 0
vn 0 -1 0
vn 0 -1 0
vn 0 -1 0
vn 0 -1 0
vn 0 -1 0
vn 0 -1 0
vn 0 -1 0
vn 0 -1 0
vn 0 -1 0
vn 0 -1 0
vn 0 -1 0
vn 0 -1 0
vn 0 -1 0
vn 0 -1 0
vn 0 -1 0
vn 0 -1 0
vn 0 -1 0
vn 0 -1 0
vn 0 -1 0
vn 0 -1 0
vn 0 -1 0
vn 0 -1 0
vn 0 -1 0
vn 0 -1 0
vn 0 -1 0
vn 0 -1 0
vn 0 -1 0

g 
f 1//1 2//2 3//3 4//4
f 2//5 5//6 6//7 3//8
f 5//9 7//10 8//11 6//12
f 7//13 9//14 10//15 8//16
f 9//17 11//18 12//19 10//20
f 11//21 13//22 14//23 12//24
f 13//25 15//26 16//27 14//28
f 15//29 17//30 18//31 16//32
f 17//33 19//34 20//35 18//36
f 19//37 21//38 22//39 20//40
f 21//41 23//42 24//43 22//44
f 23//45 25//46 26//47 24//48
f 25//49 27//50 28//51 26//52
f 27//53 29//54 30//55 28//56
f 29//57 31//58 32//59 30//60
f 31//61 1//62 4//63 32//64
f 1//65 31//66 29//67
f 29//68 27//69 25//70
f 29//71 25//72 23//73
f 1//74 29//75 23//76
f 1//77 23//78 21//79
f 1//80 21//81 19//82
f 1//83 19//84 17//85
f 1//86 17//87 15//88
f 1//89 15//90 13//91
f 1//92 13//93 11//94
f 1//95 11//96 9//97
f 1//98 9//99 7//100
f 1//101 7//102 5//103
f 5//104 2//105 1//106
f 30//107 32//108 4//109
f 26//110 28//111 30//112
f 24//113 26//114 30//115
f 24//116 30//117 4//118
f 22//119 24//120 4//121
f 20//122 22//123 4//124
f 18//125 20//126 4//127
f 16//128 18//129 4//130
f 14//131 16//132 4//133
f 12//134 14//135 4//136
f 10//137 12//138 4//139
f 8//140 10//141 4//142
f 6//143 8//144 4//145
f 4//146 3//147 6//148