o 
v 50.343165691406256 1 0.15023390908203127
v 48.85022515625 1 0.56331967890625
v 48.85022515625 0 0.56331967890625
v 50.343165691406256 0 0.15023390908203127
v 47.500106230468752 1 1.2113693920898438
v 47.500106230468752 0 1.2113693920898438
v 46.324470749999996 1 2.06649513125
v 46.324470749999996 0 2.06649513125
v 45.354980550781249 1 3.1008089790039062
v 45.354980550781249 0 3.1008089790039062
v 44.623297468749996 1 4.28642301796875
v 44.623297468749996 0 4.28642301796875
v 44.161083339843749 1 5.5954493307617188
v 44.161083339843749 0 5.5954493307617188
v 44 1 7
v 44 0 7
v 44.162531566406251 1 8.4107440839843743
v 44.162531566406251 0 8.4107440839843743
v 44.62867965625 1 9.724715796875
v 44.62867965625 0 9.724715796875
v 45.366274355468747 1 10.913766455078125
v 45.366274355468747 0 10.913766455078125
v 46.34314575 1 11.949747375
v 46.34314575 0 11.949747375
v 47.527123925781254 1 12.804509873046875
v 47.527123925781254 0 12.804509873046875
v 48.88603896875 1 13.449905265625
v 48.88603896875 0 13.449905265625
v 50.387720964843751 1 13.857784869140625
v 50.387720964843751 0 13.857784869140625
v 52 1 14
v 52 0 14
v 32 1 14
v 32 0 14
v 32 1 0
v 32 0 0
v 51.947266 1 0
v 51.947266 0 0
vn 0.56331967890625 0 3.0970408437500012
vn 1.0611354830078126 0 2.8430594609375035
vn 1.0611354830078126 0 2.8430594609375035
vn 0.56331967890625 0 3.0970408437500012
vn 1.0611354830078126 0 2.8430594609375035
vn 1.50317545234375 0 2.5257544062500017
vn 1.50317545234375 0 2.5257544062500017
vn 1.0611354830078126 0 2.8430594609375035
vn 1.50317545234375 0 2.5257544062500017
vn 1.8894395869140623 0 2.1451256796875029
vn 1.8894395869140623 0 2.1451256796875029
vn 1.50317545234375 0 2.5257544062500017
vn 1.8894395869140623 0 2.1451256796875029
vn 2.21992788671875 0 1.70117328125
vn 2.21992788671875 0 1.70117328125
vn 1.8894395869140623 0 2.1451256796875029
vn 2.21992788671875 0 1.70117328125
vn 2.4946403517578126 0 1.1938972109375001
vn 2.4946403517578126 0 1.1938972109375001
vn 2.21992788671875 0 1.70117328125
vn 2.4946403517578126 0 1.1938972109375001
vn 2.71357698203125 0 0.62329746874999614
vn 2.71357698203125 0 0.62329746874999614
vn 2.4946403517578126 0 1.1938972109375001
vn 2.71357698203125 0 0.62329746874999614
vn 3.848045 0 -9.599999999920783E-05
vn 3.848045 0 -9.599999999920783E-05
vn 2.71357698203125 0 0.62329746874999614
vn 3.8659929999999996 0 0
vn 2.7247157968749995 0 -0.62867965625000011
vn 2.7247157968749995 0 -0.62867965625000011
vn 3.8659929999999996 0 0
vn 2.7247157968749995 0 -0.62867965625000011
vn 2.5030223710937509 0 -1.2037427890624954
vn 2.5030223710937509 0 -1.2037427890624954
vn 2.7247157968749995 0 -0.62867965625000011
vn 2.5030223710937509 0 -1.2037427890624954
vn 2.225031578125 0 -1.7144660937499978
vn 2.225031578125 0 -1.7144660937499978
vn 2.5030223710937509 0 -1.2037427890624954
vn 2.225031578125 0 -1.7144660937499978
vn 1.89074341796875 0 -2.1608495703125072
vn 1.89074341796875 0 -2.1608495703125072
vn 2.225031578125 0 -1.7144660937499978
vn 1.89074341796875 0 -2.1608495703125072
vn 1.500157890625001 0 -2.5428932187500024
vn 1.500157890625001 0 -2.5428932187500024
vn 1.89074341796875 0 -2.1608495703125072
vn 1.500157890625001 0 -2.5428932187500024
vn 1.0532749960937498 0 -2.8605970390624975
vn 1.0532749960937498 0 -2.8605970390624975
vn 1.500157890625001 0 -2.5428932187500024
vn 1.0532749960937498 0 -2.8605970390624975
vn 0.55009473437499956 0 -3.1139610312499997
vn 0.55009473437499956 0 -3.1139610312499997
vn 1.0532749960937498 0 -2.8605970390624975
vn 0.55009473437499956 0 -3.1139610312499997
vn 0 0 -4.4182780000000008
vn 0 0 -4.4182780000000008
vn 0.55009473437499956 0 -3.1139610312499997
vn 0 0 20
vn 0 0 20
vn 0 0 20
vn 0 0 20
vn -14 0 0
vn -14 0 0
vn -14 0 0
vn -14 0 0
vn 0 0 -19.947266
vn 0 0 -19.947266
vn 0 0 -19.947266
vn 0 0 -19.947266
vn 0.02536535 0 4.397669999999998
vn 0.56331967890625 0 3.0970408437500012
vn 0.56331967890625 0 3.0970408437500012
vn 0.02536535 0 4.397669999999998
vn 0 1 0
vn 0 1 0
vn 0 1 0
vn 0 1 0
vn 0 1 0
vn 0 1 0
vn 0 1 0
vn 0 1 0
vn 0 1 0
vn 0 1 0
vn 0 1 0
vn 0 1 0
vn 0 1 0
vn 0 1 0
vn 0 1 0
vn 0 1 0
vn 0 1 0
vn 0 1 0
vn 0 1 0
vn 0 1 0
vn 0 1 0
vn 0 1 0
vn 0 1 0
vn 0 1 0
vn 0 1 0
vn 0 1 0
vn 0 1 0
vn 0 1 0
vn 0 1 0
vn 0 1 0
vn 0 1 0
vn 0 1 0
vn 0 1 0
vn 0 1 0
vn 0 1 0
vn 0 1 0
vn 0 1 0
vn 0 1 0
vn 0 1 0
vn 0 1 0
vn 0 1 0
vn 0 1 0
vn 0 1 0
vn 0 1 0
vn 0 1 0
vn 0 1 0
vn 0 1 0
vn 0 1 0
vn 0 1 0
vn 0 1 0
vn 0 1 0
vn 0 -1 0
vn 0 -1 0
vn 0 -1 0
vn 0 -1 0
vn 0 -1 0
vn 0 -1 0
vn 0 -1 0
vn 0 -1 0
vn 0 -1 0
vn 0 -1 0
vn 0 -1 0
vn 0 -1 0
vn 0 -1 0
vn 0 -1 0
vn 0 -1 0
vn 0 -1 0
vn 0 -1 0
vn 0 -1 0
vn 0 -1 0
vn 0 -1 0
vn 0 -1 0
vn 0 -1 0
vn 0 -1 0
vn 0 -1 0
vn 0 -1 0
vn 0 -1 0
vn 0 -1 0
vn 0 -1 0
vn 0 -1 0
vn 0 -1 0
vn 0 -1 0
vn 0 -1 0
vn 0 -1 0
vn 0 -1 0
vn 0 -1 0
vn 0 -1 0
vn 0 -1 0
vn 0 -1 0
vn 0 -1 0
vn 0 -1 0
vn 0 -1 0
vn 0 -1 0
vn 0 -1 0
vn 0 -1 0
vn 0 -1 0
vn 0 -1 0
vn 0 -1 0
vn 0 -1 0
vn 0 -1 0
vn 0 -1 0
vn 0 -1 0

g 
f 1//1 2//2 3//3 4//4
f 2//5 5//6 6//7 3//8
f 5//9 7//10 8//11 6//12
f 7//13 9//14 10//15 8//16
f 9//17 11//18 12//19 10//20
f 11//21 13//22 14//23 12//24
f 13//25 15//26 16//27 14//28
f 15//29 17//30 18//31 16//32
f 17//33 19//34 20//35 18//36
f 19//37 21//38 22//39 20//40
f 21//41 23//42 24//43 22//44
f 23//45 25//46 26//47 24//48
f 25//49 27//50 28//51 26//52
f 27//53 29//54 30//55 28//56
f 29//57 31//58 32//59 30//60
f 31//61 33//62 34//63 32//64
f 33//65 35//66 36//67 34//68
f 35//69 37//70 38//71 36//72
f 37//73 1//74 4//75 38//76
f 1//77 37//78 35//79
f 33//80 31//81 29//82
f 33//83 29//84 27//85
f 33//86 27//87 25//88
f 33//89 25//90 23//91
f 35//92 33//93 23//94
f 35//95 23//96 21//97
f 35//98 21//99 19//100
f 35//101 19//102 17//103
f 35//104 17//105 15//106
f 35//107 15//108 13//109
f 35//110 13//111 11//112
f 35//113 11//114 9//115
f 35//116 9//117 7//118
f 35//119 7//120 5//121
f 35//122 5//123 2//124
f 35//125 2//126 1//127
f 36//128 38//129 4//130
f 30//131 32//132 34//133
f 28//134 30//135 34//136
f 26//137 28//138 34//139
f 24//140 26//141 34//142
f 24//143 34//144 36//145
f 22//146 24//147 36//148
f 20//149 22//150 36//151
f 18//152 20//153 36//154
f 16//155 18//156 36//157
f 14//158 16//159 36//160
f 12//161 14//162 36//163
f 10//164 12//165 36//166
f 8//167 10//168 36//169
f 6//170 8//171 36//172
f 3//173 6//174 36//175
f 4//176 3//177 36//178