o 
v 35.7529296875 1 -22.05419921875
v 35.0546875 1 -18.43359375
v 35.0546875 0 -18.43359375
v 35.7529296875 0 -22.05419921875
v 33.9697265625 1 -15.08837890625
v 33.9697265625 0 -15.08837890625
v 32.5625 1 -11.96875
v 32.5625 0 -11.96875
v 30.8974609375 1 -9.02490234375
v 30.8974609375 0 -9.02490234375
v 29.0390625 1 -6.20703125
v 29.0390625 0 -6.20703125
v 25 1 -0.75
v 25 0 -0.75
v 20.9609375 1 4.80078125
v 20.9609375 0 4.80078125
v 19.1025390625 1 7.73583984375
v 19.1025390625 0 7.73583984375
v 17.4375 1 10.84375
v 17.4375 0 10.84375
v 16.0302734375 1 14.17431640625
v 16.0302734375 0 14.17431640625
v 14.9453125 1 17.77734375
v 14.9453125 0 17.77734375
v 14.2470703125 1 21.70263671875
v 14.2470703125 0 21.70263671875
v 14 1 26
v 14 0 26
v -36 1 26
v -36 0 26
v -36 1 -12
v -36 0 -12
v -35.891579370117185 1 -9.5461394165039053
v -35.891579370117185 0 -9.5461394165039053
v -35.5733546484375 1 -7.1631628945312542
v -35.5733546484375 0 -7.1631628945312542
v -35.055881586914062 1 -4.8631341518554621
v -35.055881586914062 0 -4.8631341518554621
v -34.3497159375 1 -2.658116906250001
v -34.3497159375 0 -2.658116906250001
v -33.465413452148439 1 -0.56017487548828626
v -33.465413452148439 0 -0.56017487548828626
v -32.4135298828125 1 1.4186282226562526
v -32.4135298828125 0 1.4186282226562526
v -31.204620981445316 1 3.2662286704101575
v -31.204620981445316 0 3.2662286704101575
v -29.849242500000003 1 4.9705627499999991
v -29.849242500000003 0 4.9705627499999991
v -28.35795019042969 1 6.5195667436523479
v -28.35795019042969 0 6.5195667436523479
v -26.7412998046875 1 7.9011769335937458
v -26.7412998046875 0 7.9011769335937458
v -25.009847094726567 1 9.1033296020507777
v -25.009847094726567 0 9.1033296020507777
v -23.174147812499996 1 10.11396103125
v -23.174147812499996 0 10.11396103125
v -21.244757709960936 1 10.921007503417968
v -21.244757709960936 0 10.921007503417968
v -19.2322325390625 1 11.512405300781254
v -19.2322325390625 0 11.512405300781254
v -17.147128051757811 1 11.876090705566412
v -17.147128051757811 0 11.876090705566412
v -15 1 12
v -15 0 12
v -12.852871948242189 1 11.876090705566412
v -12.852871948242189 0 11.876090705566412
v -10.767767460937499 1 11.512405300781254
v -10.767767460937499 0 11.512405300781254
v -8.7552422900390638 1 10.921007503417968
v -8.7552422900390638 0 10.921007503417968
v -6.8258521875000042 1 10.11396103125
v -6.8258521875000042 0 10.11396103125
v -4.9901529052734332 1 9.1033296020507777
v -4.9901529052734332 0 9.1033296020507777
v -3.2587001953124997 1 7.9011769335937458
v -3.2587001953124997 0 7.9011769335937458
v -1.6420498095703096 1 6.5195667436523479
v -1.6420498095703096 0 6.5195667436523479
v -0.15075749999999744 1 4.9705627499999991
v -0.15075749999999744 0 4.9705627499999991
v 1.2046209814453164 1 3.2662286704101575
v 1.2046209814453164 0 3.2662286704101575
v 2.4135298828124974 1 1.4186282226562526
v 2.4135298828124974 0 1.4186282226562526
v 3.4654134521484394 1 -0.56017487548828626
v 3.4654134521484394 0 -0.56017487548828626
v 4.3497159375000081 1 -2.658116906250001
v 4.3497159375000081 0 -2.658116906250001
v 5.0558815869140687 1 -4.8631341518554621
v 5.0558815869140687 0 -4.8631341518554621
v 5.5733546484375012 1 -7.1631628945312542
v 5.5733546484375012 0 -7.1631628945312542
v 5.891579370117185 1 -9.5461394165039053
v 5.891579370117185 0 -9.5461394165039053
v 6 1 -12
v 6 0 -12
v 5.7439415624999981 1 -15.733093484374997
v 5.7439415624999981 0 -15.733093484374997
v 4.9888829999999871 1 -19.353919375000004
v 4.9888829999999871 0 -19.353919375000004
v 3.7530549374999964 1 -22.797785578125
v 3.7530549374999964 0 -22.797785578125
v 2.0546879999999987 1 -26
v 2.0546879999999987 0 -26
v 36 1 -26
v 36 0 -26
vn 7.56640625 0 0.9453125
vn 6.9658203125 0 1.783203125
vn 6.9658203125 0 1.783203125
vn 7.56640625 0 0.9453125
vn 6.9658203125 0 1.783203125
vn 6.46484375 0 2.4921875
vn 6.46484375 0 2.4921875
vn 6.9658203125 0 1.783203125
vn 6.46484375 0 2.4921875
vn 6.0634765625 0 3.072265625
vn 6.0634765625 0 3.072265625
vn 6.46484375 0 2.4921875
vn 6.0634765625 0 3.072265625
vn 5.76171875 0 3.5234375
vn 5.76171875 0 3.5234375
vn 6.0634765625 0 3.072265625
vn 5.76171875 0 3.5234375
vn 8.27490234375 0 5.8974609375
vn 8.27490234375 0 5.8974609375
vn 5.76171875 0 3.5234375
vn 8.27490234375 0 5.8974609375
vn 11.0078125 0 8.078125
vn 11.0078125 0 8.078125
vn 8.27490234375 0 5.8974609375
vn 11.0078125 0 8.078125
vn 8.48583984375 0 5.8974609375
vn 8.48583984375 0 5.8974609375
vn 11.0078125 0 8.078125
vn 8.48583984375 0 5.8974609375
vn 6.04296875 0 3.5234375
vn 6.04296875 0 3.5234375
vn 8.48583984375 0 5.8974609375
vn 6.04296875 0 3.5234375
vn 6.4384765625 0 3.072265625
vn 6.4384765625 0 3.072265625
vn 6.04296875 0 3.5234375
vn 6.4384765625 0 3.072265625
vn 6.93359375 0 2.4921875
vn 6.93359375 0 2.4921875
vn 6.4384765625 0 3.072265625
vn 6.93359375 0 2.4921875
vn 7.5283203125 0 1.783203125
vn 7.5283203125 0 1.783203125
vn 6.93359375 0 2.4921875
vn 7.5283203125 0 1.783203125
vn 8.22265625 0 0.9453125
vn 8.22265625 0 0.9453125
vn 7.5283203125 0 1.783203125
vn 8.22265625 0 0.9453125
vn 24 0 0
vn 24 0 0
vn 8.22265625 0 0.9453125
vn 0 0 50
vn 0 0 50
vn 0 0 50
vn 0 0 50
vn -38 0 0
vn -38 0 0
vn -38 0 0
vn -38 0 0
vn 13.254834000000002 0 0
vn 4.8368371054687458 0 -0.42664535156249883
vn 4.8368371054687458 0 -0.42664535156249883
vn 13.254834000000002 0 0
vn 4.8368371054687458 0 -0.42664535156249883
vn 4.6830052646484432 0 -0.83569778320312693
vn 4.6830052646484432 0 -0.83569778320312693
vn 4.8368371054687458 0 -0.42664535156249883
vn 4.6830052646484432 0 -0.83569778320312693
vn 4.5050459882812532 0 -1.2236387109375002
vn 4.5050459882812532 0 -1.2236387109375002
vn 4.6830052646484432 0 -0.83569778320312693
vn 4.5050459882812532 0 -1.2236387109375002
vn 4.3029592763671758 0 -1.5904681347656222
vn 4.3029592763671758 0 -1.5904681347656222
vn 4.5050459882812532 0 -1.2236387109375002
vn 4.3029592763671758 0 -1.5904681347656222
vn 4.0767451289062535 0 -1.9361860546875036
vn 4.0767451289062535 0 -1.9361860546875036
vn 4.3029592763671758 0 -1.5904681347656222
vn 4.0767451289062535 0 -1.9361860546875036
vn 3.8264035458984438 0 -2.2607924707031231
vn 3.8264035458984438 0 -2.2607924707031231
vn 4.0767451289062535 0 -1.9361860546875036
vn 3.8264035458984438 0 -2.2607924707031231
vn 3.5519345273437466 0 -2.5642873828124948
vn 3.5519345273437466 0 -2.5642873828124948
vn 3.8264035458984438 0 -2.2607924707031231
vn 3.5519345273437466 0 -2.5642873828124948
vn 3.2533380732421904 0 -2.8466707910156259
vn 3.2533380732421904 0 -2.8466707910156259
vn 3.5519345273437466 0 -2.5642873828124948
vn 3.2533380732421904 0 -2.8466707910156259
vn 2.9306141835937467 0 -3.1079426953125022
vn 2.9306141835937467 0 -3.1079426953125022
vn 3.2533380732421904 0 -2.8466707910156259
vn 2.9306141835937467 0 -3.1079426953125022
vn 2.58376285839843 0 -3.3481030957031237
vn 2.58376285839843 0 -3.3481030957031237
vn 2.9306141835937467 0 -3.1079426953125022
vn 2.58376285839843 0 -3.3481030957031237
vn 2.2127840976562538 0 -3.5671519921875046
vn 2.2127840976562538 0 -3.5671519921875046
vn 2.58376285839843 0 -3.3481030957031237
vn 2.2127840976562538 0 -3.5671519921875046
vn 1.8176779013671904 0 -3.7650893847656306
vn 1.8176779013671904 0 -3.7650893847656306
vn 2.2127840976562538 0 -3.5671519921875046
vn 1.8176779013671904 0 -3.7650893847656306
vn 1.3984442695312538 0 -3.9419152734374947
vn 1.3984442695312538 0 -3.9419152734374947
vn 1.8176779013671904 0 -3.7650893847656306
vn 1.3984442695312538 0 -3.9419152734374947
vn 0.95508320214844389 0 -4.0976296582031253
vn 0.95508320214844389 0 -4.0976296582031253
vn 1.3984442695312538 0 -3.9419152734374947
vn 0.95508320214844389 0 -4.0976296582031253
vn 0.48759469921874654 0 -4.2322325390625011
vn 0.48759469921874654 0 -4.2322325390625011
vn 0.95508320214844389 0 -4.0976296582031253
vn 0.48759469921874654 0 -4.2322325390625011
vn 0 0 -11.59798
vn 0 0 -11.59798
vn 0.48759469921874654 0 -4.2322325390625011
vn 0 0 -11.59798
vn -0.48759469921874654 0 -4.2322325390625011
vn -0.48759469921874654 0 -4.2322325390625011
vn 0 0 -11.59798
vn -0.48759469921874654 0 -4.2322325390625011
vn -0.95508320214844389 0 -4.0976296582031253
vn -0.95508320214844389 0 -4.0976296582031253
vn -0.48759469921874654 0 -4.2322325390625011
vn -0.95508320214844389 0 -4.0976296582031253
vn -1.3984442695312538 0 -3.9419152734374947
vn -1.3984442695312538 0 -3.9419152734374947
vn -0.95508320214844389 0 -4.0976296582031253
vn -1.3984442695312538 0 -3.9419152734374947
vn -1.8176779013671904 0 -3.7650893847656306
vn -1.8176779013671904 0 -3.7650893847656306
vn -1.3984442695312538 0 -3.9419152734374947
vn -1.8176779013671904 0 -3.7650893847656306
vn -2.2127840976562538 0 -3.5671519921875046
vn -2.2127840976562538 0 -3.5671519921875046
vn -1.8176779013671904 0 -3.7650893847656306
vn -2.2127840976562538 0 -3.5671519921875046
vn -2.58376285839843 0 -3.3481030957031237
vn -2.58376285839843 0 -3.3481030957031237
vn -2.2127840976562538 0 -3.5671519921875046
vn -2.58376285839843 0 -3.3481030957031237
vn -2.9306141835937467 0 -3.1079426953125022
vn -2.9306141835937467 0 -3.1079426953125022
vn -2.58376285839843 0 -3.3481030957031237
vn -2.9306141835937467 0 -3.1079426953125022
vn -3.2533380732421904 0 -2.8466707910156259
vn -3.2533380732421904 0 -2.8466707910156259
vn -2.9306141835937467 0 -3.1079426953125022
vn -3.2533380732421904 0 -2.8466707910156259
vn -3.5519345273437466 0 -2.5642873828124948
vn -3.5519345273437466 0 -2.5642873828124948
vn -3.2533380732421904 0 -2.8466707910156259
vn -3.5519345273437466 0 -2.5642873828124948
vn -3.8264035458984438 0 -2.2607924707031231
vn -3.8264035458984438 0 -2.2607924707031231
vn -3.5519345273437466 0 -2.5642873828124948
vn -3.8264035458984438 0 -2.2607924707031231
vn -4.0767451289062535 0 -1.9361860546875107
vn -4.0767451289062535 0 -1.9361860546875107
vn -3.8264035458984438 0 -2.2607924707031231
vn -4.0767451289062535 0 -1.9361860546875107
vn -4.3029592763671758 0 -1.5904681347656293
vn -4.3029592763671758 0 -1.5904681347656293
vn -4.0767451289062535 0 -1.9361860546875107
vn -4.3029592763671758 0 -1.5904681347656293
vn -4.5050459882812532 0 -1.2236387109374931
vn -4.5050459882812532 0 -1.2236387109374931
vn -4.3029592763671758 0 -1.5904681347656293
vn -4.5050459882812532 0 -1.2236387109374931
vn -4.6830052646484432 0 -0.83569778320311627
vn -4.6830052646484432 0 -0.83569778320311627
vn -4.5050459882812532 0 -1.2236387109374931
vn -4.6830052646484432 0 -0.83569778320311627
vn -4.8368371054687458 0 -0.42664535156249883
vn -4.8368371054687458 0 -0.42664535156249883
vn -4.6830052646484432 0 -0.83569778320311627
vn -4.8368371054687458 0 -0.42664535156249883
vn -13.254834000000002 0 0
vn -13.254834000000002 0 0
vn -4.8368371054687458 0 -0.42664535156249883
vn -5.0235509999999977 0 0.00064199999999914326
vn -7.3539193750000038 0 1.0111170000000129
vn -7.3539193750000038 0 1.0111170000000129
vn -5.0235509999999977 0 0.00064199999999914326
vn -7.3539193750000038 0 1.0111170000000129
vn -7.0646920937500042 0 1.9908866250000017
vn -7.0646920937500042 0 1.9908866250000017
vn -7.3539193750000038 0 1.0111170000000129
vn -7.0646920937500042 0 1.9908866250000017
vn -6.6460806249999962 0 2.9341949999999883
vn -6.6460806249999962 0 2.9341949999999883
vn -7.0646920937500042 0 1.9908866250000017
vn -6.6460806249999962 0 2.9341949999999883
vn -4.0797659999999993 0 2.5647459999999995
vn -4.0797659999999993 0 2.5647459999999995
vn -6.6460806249999962 0 2.9341949999999883
vn 0 0 -33.945312
vn 0 0 -33.945312
vn 0 0 -33.945312
vn 0 0 -33.945312
vn 22 0 0
vn 7.56640625 0 0.9453125
vn 7.56640625 0 0.9453125
vn 22 0 0
vn 0 1 0
vn 0 1 0
vn 0 1 0
vn 0 1 0
vn 0 1 0
vn 0 1 0
vn 0 1 0
vn 0 1 0
vn 0 1 0
vn 0 1 0
vn 0 1 0
vn 0 1 0
vn 0 1 0
vn 0 1 0
vn 0 1 0
vn 0 1 0
vn 0 1 0
vn 0 1 0
vn 0 1 0
vn 0 1 0
vn 0 1 0
vn 0 1 0
vn 0 1 0
vn 0 1 0
vn 0 1 0
vn 0 1 0
vn 0 1 0
vn 0 1 0
vn 0 1 0
vn 0 1 0
vn 0 1 0
vn 0 1 0
vn 0 1 0
vn 0 1 0
vn 0 1 0
vn 0 1 0
vn 0 1 0
vn 0 1 0
vn 0 1 0
vn 0 1 0
vn 0 1 0
vn 0 1 0
vn 0 1 0
vn 0 1 0
vn 0 1 0
vn 0 1 0
vn 0 1 0
vn 0 1 0
vn 0 1 0
vn 0 1 0
vn 0 1 0
vn 0 1 0
vn 0 1 0
vn 0 1 0
vn 0 1 0
vn 0 1 0
vn 0 1 0
vn 0 1 0
vn 0 1 0
vn 0 1 0
vn 0 1 0
vn 0 1 0
vn 0 1 0
vn 0 1 0
vn 0 1 0
vn 0 1 0
vn 0 1 0
vn 0 1 0
vn 0 1 0
vn 0 1 0
vn 0 1 0
vn 0 1 0
vn 0 1 0
vn 0 1 0
vn 0 1 0
vn 0 1 0
vn 0 1 0
vn 0 1 0
vn 0 1 0
vn 0 1 0
vn 0 1 0
vn 0 1 0
vn 0 1 0
vn 0 1 0
vn 0 1 0
vn 0 1 0
vn 0 1 0
vn 0 1 0
vn 0 1 0
vn 0 1 0
vn 0 1 0
vn 0 1 0
vn 0 1 0
vn 0 1 0
vn 0 1 0
vn 0 1 0
vn 0 1 0
vn 0 1 0
vn 0 1 0
vn 0 1 0
vn 0 1 0
vn 0 1 0
vn 0 1 0
vn 0 1 0
vn 0 1 0
vn 0 1 0
vn 0 1 0
vn 0 1 0
vn 0 1 0
vn 0 1 0
vn 0 1 0
vn 0 1 0
vn 0 1 0
vn 0 1 0
vn 0 1 0
vn 0 1 0
vn 0 1 0
vn 0 1 0
vn 0 1 0
vn 0 1 0
vn 0 1 0
vn 0 1 0
vn 0 1 0
vn 0 1 0
vn 0 1 0
vn 0 1 0
vn 0 1 0
vn 0 1 0
vn 0 1 0
vn 0 1 0
vn 0 1 0
vn 0 1 0
vn 0 1 0
vn 0 1 0
vn 0 1 0
vn 0 1 0
vn 0 1 0
vn 0 1 0
vn 0 1 0
vn 0 1 0
vn 0 1 0
vn 0 1 0
vn 0 1 0
vn 0 1 0
vn 0 1 0
vn 0 1 0
vn 0 1 0
vn 0 1 0
vn 0 1 0
vn 0 1 0
vn 0 1 0
vn 0 1 0
vn 0 1 0
vn 0 -1 0
vn 0 -1 0
vn 0 -1 0
vn 0 -1 0
vn 0 -1 0
vn 0 -1 0
vn 0 -1 0
vn 0 -1 0
vn 0 -1 0
vn 0 -1 0
vn 0 -1 0
vn 0 -1 0
vn 0 -1 0
vn 0 -1 0
vn 0 -1 0
vn 0 -1 0
vn 0 -1 0
vn 0 -1 0
vn 0 -1 0
vn 0 -1 0
vn 0 -1 0
vn 0 -1 0
vn 0 -1 0
vn 0 -1 0
vn 0 -1 0
vn 0 -1 0
vn 0 -1 0
vn 0 -1 0
vn 0 -1 0
vn 0 -1 0
vn 0 -1 0
vn 0 -1 0
vn 0 -1 0
vn 0 -1 0
vn 0 -1 0
vn 0 -1 0
vn 0 -1 0
vn 0 -1 0
vn 0 -1 0
vn 0 -1 0
vn 0 -1 0
vn 0 -1 0
vn 0 -1 0
vn 0 -1 0
vn 0 -1 0
vn 0 -1 0
vn 0 -1 0
vn 0 -1 0
vn 0 -1 0
vn 0 -1 0
vn 0 -1 0
vn 0 -1 0
vn 0 -1 0
vn 0 -1 0
vn 0 -1 0
vn 0 -1 0
vn 0 -1 0
vn 0 -1 0
vn 0 -1 0
vn 0 -1 0
vn 0 -1 0
vn 0 -1 0
vn 0 -1 0
vn 0 -1 0
vn 0 -1 0
vn 0 -1 0
vn 0 -1 0
vn 0 -1 0
vn 0 -1 0
vn 0 -1 0
vn 0 -1 0
vn 0 -1 0
vn 0 -1 0
vn 0 -1 0
vn 0 -1 0
vn 0 -1 0
vn 0 -1 0
vn 0 -1 0
vn 0 -1 0
vn 0 -1 0
vn 0 -1 0
vn 0 -1 0
vn 0 -1 0
vn 0 -1 0
vn 0 -1 0
vn 0 -1 0
vn 0 -1 0
vn 0 -1 0
vn 0 -1 0
vn 0 -1 0
vn 0 -1 0
vn 0 -1 0
vn 0 -1 0
vn 0 -1 0
vn 0 -1 0
vn 0 -1 0
vn 0 -1 0
vn 0 -1 0
vn 0 -1 0
vn 0 -1 0
vn 0 -1 0
vn 0 -1 0
vn 0 -1 0
vn 0 -1 0
vn 0 -1 0
vn 0 -1 0
vn 0 -1 0
vn 0 -1 0
vn 0 -1 0
vn 0 -1 0
vn 0 -1 0
vn 0 -1 0
vn 0 -1 0
vn 0 -1 0
vn 0 -1 0
vn 0 -1 0
vn 0 -1 0
vn 0 -1 0
vn 0 -1 0
vn 0 -1 0
vn 0 -1 0
vn 0 -1 0
vn 0 -1 0
vn 0 -1 0
vn 0 -1 0
vn 0 -1 0
vn 0 -1 0
vn 0 -1 0
vn 0 -1 0
vn 0 -1 0
vn 0 -1 0
vn 0 -1 0
vn 0 -1 0
vn 0 -1 0
vn 0 -1 0
vn 0 -1 0
vn 0 -1 0
vn 0 -1 0
vn 0 -1 0
vn 0 -1 0
vn 0 -1 0
vn 0 -1 0
vn 0 -1 0
vn 0 -1 0
vn 0 -1 0
vn 0 -1 0
vn 0 -1 0
vn 0 -1 0
vn 0 -1 0
vn 0 -1 0
vn 0 -1 0
vn 0 -1 0
vn 0 -1 0

g 
f 1//1 2//2 3//3 4//4
f 2//5 5//6 6//7 3//8
f 5//9 7//10 8//11 6//12
f 7//13 9//14 10//15 8//16
f 9//17 11//18 12//19 10//20
f 11//21 13//22 14//23 12//24
f 13//25 15//26 16//27 14//28
f 15//29 17//30 18//31 16//32
f 17//33 19//34 20//35 18//36
f 19//37 21//38 22//39 20//40
f 21//41 23//42 24//43 22//44
f 23//45 25//46 26//47 24//48
f 25//49 27//50 28//51 26//52
f 27//53 29//54 30//55 28//56
f 29//57 31//58 32//59 30//60
f 31//61 33//62 34//63 32//64
f 33//65 35//66 36//67 34//68
f 35//69 37//70 38//71 36//72
f 37//73 39//74 40//75 38//76
f 39//77 41//78 42//79 40//80
f 41//81 43//82 44//83 42//84
f 43//85 45//86 46//87 44//88
f 45//89 47//90 48//91 46//92
f 47//93 49//94 50//95 48//96
f 49//97 51//98 52//99 50//100
f 51//101 53//102 54//103 52//104
f 53//105 55//106 56//107 54//108
f 55//109 57//110 58//111 56//112
f 57//113 59//114 60//115 58//116
f 59//117 61//118 62//119 60//120
f 61//121 63//122 64//123 62//124
f 63//125 65//126 66//127 64//128
f 65//129 67//130 68//131 66//132
f 67//133 69//134 70//135 68//136
f 69//137 71//138 72//139 70//140
f 71//141 73//142 74//143 72//144
f 73//145 75//146 76//147 74//148
f 75//149 77//150 78//151 76//152
f 77//153 79//154 80//155 78//156
f 79//157 81//158 82//159 80//160
f 81//161 83//162 84//163 82//164
f 83//165 85//166 86//167 84//168
f 85//169 87//170 88//171 86//172
f 87//173 89//174 90//175 88//176
f 89//177 91//178 92//179 90//180
f 91//181 93//182 94//183 92//184
f 93//185 95//186 96//187 94//188
f 95//189 97//190 98//191 96//192
f 97//193 99//194 100//195 98//196
f 99//197 101//198 102//199 100//200
f 101//201 103//202 104//203 102//204
f 103//205 105//206 106//207 104//208
f 105//209 1//210 4//211 106//212
f 1//213 105//214 103//215
f 1//216 103//217 101//218
f 1//219 101//220 99//221
f 1//222 99//223 97//224
f 1//225 97//226 95//227
f 1//228 95//229 93//230
f 1//231 93//232 91//233
f 1//234 91//235 89//236
f 1//237 89//238 87//239
f 1//240 87//241 85//242
f 1//243 85//244 83//245
f 1//246 83//247 81//248
f 1//249 81//250 79//251
f 1//252 79//253 77//254
f 1//255 77//256 75//257
f 33//258 31//259 29//260
f 35//261 33//262 29//263
f 37//264 35//265 29//266
f 39//267 37//268 29//269
f 41//270 39//271 29//272
f 43//273 41//274 29//275
f 45//276 43//277 29//278
f 47//279 45//280 29//281
f 49//282 47//283 29//284
f 51//285 49//286 29//287
f 53//288 51//289 29//290
f 55//291 53//292 29//293
f 57//294 55//295 29//296
f 59//297 57//298 29//299
f 61//300 59//301 29//302
f 63//303 61//304 29//305
f 65//306 63//307 29//308
f 67//309 65//310 29//311
f 69//312 67//313 29//314
f 71//315 69//316 29//317
f 71//318 29//319 27//320
f 73//321 71//322 27//323
f 75//324 73//325 27//326
f 75//327 27//328 25//329
f 75//330 25//331 23//332
f 75//333 23//334 21//335
f 75//336 21//337 19//338
f 75//339 19//340 17//341
f 1//342 75//343 17//344
f 1//345 17//346 15//347
f 1//348 15//349 13//350
f 1//351 13//352 11//353
f 1//354 11//355 9//356
f 1//357 9//358 7//359
f 1//360 7//361 5//362
f 5//363 2//364 1//365
f 104//366 106//367 4//368
f 102//369 104//370 4//371
f 100//372 102//373 4//374
f 98//375 100//376 4//377
f 96//378 98//379 4//380
f 94//381 96//382 4//383
f 92//384 94//385 4//386
f 90//387 92//388 4//389
f 88//390 90//391 4//392
f 86//393 88//394 4//395
f 84//396 86//397 4//398
f 82//399 84//400 4//401
f 80//402 82//403 4//404
f 78//405 80//406 4//407
f 76//408 78//409 4//410
f 30//411 32//412 34//413
f 30//414 34//415 36//416
f 30//417 36//418 38//419
f 30//420 38//421 40//422
f 30//423 40//424 42//425
f 30//426 42//427 44//428
f 30//429 44//430 46//431
f 30//432 46//433 48//434
f 30//435 48//436 50//437
f 30//438 50//439 52//440
f 30//441 52//442 54//443
f 30//444 54//445 56//446
f 30//447 56//448 58//449
f 30//450 58//451 60//452
f 30//453 60//454 62//455
f 30//456 62//457 64//458
f 30//459 64//460 66//461
f 30//462 66//463 68//464
f 30//465 68//466 70//467
f 30//468 70//469 72//470
f 28//471 30//472 72//473
f 28//474 72//475 74//476
f 28//477 74//478 76//479
f 26//480 28//481 76//482
f 24//483 26//484 76//485
f 22//486 24//487 76//488
f 20//489 22//490 76//491
f 18//492 20//493 76//494
f 18//495 76//496 4//497
f 16//498 18//499 4//500
f 14//501 16//502 4//503
f 12//504 14//505 4//506
f 10//507 12//508 4//509
f 8//510 10//511 4//512
f 6//513 8//514 4//515
f 4//516 3//517 6//518