o 
v -12.212890999999999 1 5.6064454999999995
v -2.015625 1 -12.9345705
v -2.015625 0 -12.9345705
v -12.212890999999999 0 5.6064454999999995
v 12.212890999999999 1 12.9345705
v 12.212890999999999 0 12.9345705
vn -18.541016 0 -10.197265999999999
vn -18.541016 0 -10.197265999999999
vn -18.541016 0 -10.197265999999999
vn -18.541016 0 -10.197265999999999
vn 25.869141 0 -14.228515999999999
vn 25.869141 0 -14.228515999999999
vn 25.869141 0 -14.228515999999999
vn 25.869141 0 -14.228515999999999
vn -7.328125 0 24.425781999999998
vn -7.328125 0 24.425781999999998
vn -7.328125 0 24.425781999999998
vn -7.328125 0 24.425781999999998
vn 0 1 0
vn 0 1 0
vn 0 1 0
vn 0 -1 0
vn 0 -1 0
vn 0 -1 0

g 
f 1//1 2//2 3//3 4//4
f 2//5 5//6 6//7 3//8
f 5//9 1//10 4//11 6//12
f 5//13 2//14 1//15
f 4//16 3//17 6//18