o 
v 60 1 57
v 57.581581447265627 1 57.264113785156248
v 57.581581447265627 0 57.264113785156248
v 60 0 57
v 55.329058453125 1 58.02160440625
v 55.329058453125 0 58.02160440625
v 53.290685888671874 1 59.220195761718749
v 53.290685888671874 0 59.220195761718749
v 51.514718625 1 60.80761175
v 51.514718625 0 60.80761175
v 50.049411533203127 1 62.731576269531246
v 50.049411533203127 0 62.731576269531246
v 48.943019484375 1 64.93981321875
v 48.943019484375 0 64.93981321875
v 48.243797349609373 1 67.380046496093755
v 48.243797349609373 0 67.380046496093755
v 48 1 70
v 48 0 70
v 48.243797349609373 1 72.61995350390626
v 48.243797349609373 0 72.61995350390626
v 48.943019484375 1 75.06018678125
v 48.943019484375 0 75.06018678125
v 50.049411533203127 1 77.268423730468754
v 50.049411533203127 0 77.268423730468754
v 51.514718625 1 79.19238825
v 51.514718625 0 79.19238825
v 53.290685888671874 1 80.779804238281258
v 53.290685888671874 0 80.779804238281258
v 55.329058453125 1 81.978395593750008
v 55.329058453125 0 81.978395593750008
v 57.581581447265627 1 82.735886214843745
v 57.581581447265627 0 82.735886214843745
v 60 1 83
v 60 0 83
v 60 1 100
v 60 0 100
v 44 1 100
v 44 0 100
v 44 1 52
v 44 0 52
v 60 1 52
v 60 0 52
vn 0 0 6.6274170000000012
vn 1.0216044062499989 0 4.6709415468749995
vn 1.0216044062499989 0 4.6709415468749995
vn 0 0 6.6274170000000012
vn 1.0216044062499989 0 4.6709415468749995
vn 1.9560819765625013 0 4.2908955585937534
vn 1.9560819765625013 0 4.2908955585937534
vn 1.0216044062499989 0 4.6709415468749995
vn 1.9560819765625013 0 4.2908955585937534
vn 2.7860073437500006 0 3.814339828125
vn 2.7860073437500006 0 3.814339828125
vn 1.9560819765625013 0 4.2908955585937534
vn 2.7860073437500006 0 3.814339828125
vn 3.5113805078124969 0 3.2412743554687466
vn 3.5113805078124969 0 3.2412743554687466
vn 2.7860073437500006 0 3.814339828125
vn 3.5113805078124969 0 3.2412743554687466
vn 4.1322014687500044 0 2.5716991406250003
vn 4.1322014687500044 0 2.5716991406250003
vn 3.5113805078124969 0 3.2412743554687466
vn 4.1322014687500044 0 2.5716991406250003
vn 4.6484702265625089 0 1.8056141835937538
vn 4.6484702265625089 0 1.8056141835937538
vn 4.1322014687500044 0 2.5716991406250003
vn 4.6484702265625089 0 1.8056141835937538
vn 5.0601867812499961 0 0.94301948437500016
vn 5.0601867812499961 0 0.94301948437500016
vn 4.6484702265625089 0 1.8056141835937538
vn 5.0601867812499961 0 0.94301948437500016
vn 7.1797019999999989 0 0
vn 7.1797019999999989 0 0
vn 5.0601867812499961 0 0.94301948437500016
vn 7.179702000000006 0 0
vn 5.0601867812499961 0 -0.94301948437500016
vn 5.0601867812499961 0 -0.94301948437500016
vn 7.179702000000006 0 0
vn 5.0601867812499961 0 -0.94301948437500016
vn 4.6484702265624946 0 -1.8056141835937538
vn 4.6484702265624946 0 -1.8056141835937538
vn 5.0601867812499961 0 -0.94301948437500016
vn 4.6484702265624946 0 -1.8056141835937538
vn 4.1322014687499973 0 -2.5716991406250003
vn 4.1322014687499973 0 -2.5716991406250003
vn 4.6484702265624946 0 -1.8056141835937538
vn 4.1322014687499973 0 -2.5716991406250003
vn 3.511380507812504 0 -3.2412743554687466
vn 3.511380507812504 0 -3.2412743554687466
vn 4.1322014687499973 0 -2.5716991406250003
vn 3.511380507812504 0 -3.2412743554687466
vn 2.7860073437500148 0 -3.814339828125
vn 2.7860073437500148 0 -3.814339828125
vn 3.511380507812504 0 -3.2412743554687466
vn 2.7860073437500148 0 -3.814339828125
vn 1.9560819765624871 0 -4.2908955585937534
vn 1.9560819765624871 0 -4.2908955585937534
vn 2.7860073437500148 0 -3.814339828125
vn 1.9560819765624871 0 -4.2908955585937534
vn 1.0216044062499918 0 -4.6709415468749995
vn 1.0216044062499918 0 -4.6709415468749995
vn 1.9560819765624871 0 -4.2908955585937534
vn 1.0216044062499918 0 -4.6709415468749995
vn 0 0 -6.6274170000000012
vn 0 0 -6.6274170000000012
vn 1.0216044062499918 0 -4.6709415468749995
vn 17 0 0
vn 17 0 0
vn 17 0 0
vn 17 0 0
vn 0 0 16
vn 0 0 16
vn 0 0 16
vn 0 0 16
vn -48 0 0
vn -48 0 0
vn -48 0 0
vn -48 0 0
vn 0 0 -16
vn 0 0 -16
vn 0 0 -16
vn 0 0 -16
vn 5 0 0
vn 5 0 0
vn 5 0 0
vn 5 0 0
vn 0 1 0
vn 0 1 0
vn 0 1 0
vn 0 1 0
vn 0 1 0
vn 0 1 0
vn 0 1 0
vn 0 1 0
vn 0 1 0
vn 0 1 0
vn 0 1 0
vn 0 1 0
vn 0 1 0
vn 0 1 0
vn 0 1 0
vn 0 1 0
vn 0 1 0
vn 0 1 0
vn 0 1 0
vn 0 1 0
vn 0 1 0
vn 0 1 0
vn 0 1 0
vn 0 1 0
vn 0 1 0
vn 0 1 0
vn 0 1 0
vn 0 1 0
vn 0 1 0
vn 0 1 0
vn 0 1 0
vn 0 1 0
vn 0 1 0
vn 0 1 0
vn 0 1 0
vn 0 1 0
vn 0 1 0
vn 0 1 0
vn 0 1 0
vn 0 1 0
vn 0 1 0
vn 0 1 0
vn 0 1 0
vn 0 1 0
vn 0 1 0
vn 0 1 0
vn 0 1 0
vn 0 1 0
vn 0 1 0
vn 0 1 0
vn 0 1 0
vn 0 1 0
vn 0 1 0
vn 0 1 0
vn 0 1 0
vn 0 1 0
vn 0 1 0
vn 0 -1 0
vn 0 -1 0
vn 0 -1 0
vn 0 -1 0
vn 0 -1 0
vn 0 -1 0
vn 0 -1 0
vn 0 -1 0
vn 0 -1 0
vn 0 -1 0
vn 0 -1 0
vn 0 -1 0
vn 0 -1 0
vn 0 -1 0
vn 0 -1 0
vn 0 -1 0
vn 0 -1 0
vn 0 -1 0
vn 0 -1 0
vn 0 -1 0
vn 0 -1 0
vn 0 -1 0
vn 0 -1 0
vn 0 -1 0
vn 0 -1 0
vn 0 -1 0
vn 0 -1 0
vn 0 -1 0
vn 0 -1 0
vn 0 -1 0
vn 0 -1 0
vn 0 -1 0
vn 0 -1 0
vn 0 -1 0
vn 0 -1 0
vn 0 -1 0
vn 0 -1 0
vn 0 -1 0
vn 0 -1 0
vn 0 -1 0
vn 0 -1 0
vn 0 -1 0
vn 0 -1 0
vn 0 -1 0
vn 0 -1 0
vn 0 -1 0
vn 0 -1 0
vn 0 -1 0
vn 0 -1 0
vn 0 -1 0
vn 0 -1 0
vn 0 -1 0
vn 0 -1 0
vn 0 -1 0
vn 0 -1 0
vn 0 -1 0
vn 0 -1 0

g 
f 1//1 2//2 3//3 4//4
f 2//5 5//6 6//7 3//8
f 5//9 7//10 8//11 6//12
f 7//13 9//14 10//15 8//16
f 9//17 11//18 12//19 10//20
f 11//21 13//22 14//23 12//24
f 13//25 15//26 16//27 14//28
f 15//29 17//30 18//31 16//32
f 17//33 19//34 20//35 18//36
f 19//37 21//38 22//39 20//40
f 21//41 23//42 24//43 22//44
f 23//45 25//46 26//47 24//48
f 25//49 27//50 28//51 26//52
f 27//53 29//54 30//55 28//56
f 29//57 31//58 32//59 30//60
f 31//61 33//62 34//63 32//64
f 33//65 35//66 36//67 34//68
f 35//69 37//70 38//71 36//72
f 37//73 39//74 40//75 38//76
f 39//77 41//78 42//79 40//80
f 41//81 1//82 4//83 42//84
f 1//85 41//86 39//87
f 37//88 35//89 33//90
f 37//91 33//92 31//93
f 37//94 31//95 29//96
f 37//97 29//98 27//99
f 37//100 27//101 25//102
f 37//103 25//104 23//105
f 37//106 23//107 21//108
f 37//109 21//110 19//111
f 39//112 37//113 19//114
f 39//115 19//116 17//117
f 39//118 17//119 15//120
f 39//121 15//122 13//123
f 39//124 13//125 11//126
f 39//127 11//128 9//129
f 39//130 9//131 7//132
f 39//133 7//134 5//135
f 39//136 5//137 2//138
f 39//139 2//140 1//141
f 40//142 42//143 4//144
f 34//145 36//146 38//147
f 32//148 34//149 38//150
f 30//151 32//152 38//153
f 28//154 30//155 38//156
f 26//157 28//158 38//159
f 24//160 26//161 38//162
f 22//163 24//164 38//165
f 20//166 22//167 38//168
f 20//169 38//170 40//171
f 18//172 20//173 40//174
f 16//175 18//176 40//177
f 14//178 16//179 40//180
f 12//181 14//182 40//183
f 10//184 12//185 40//186
f 8//187 10//188 40//189
f 6//190 8//191 40//192
f 3//193 6//194 40//195
f 4//196 3//197 40//198