o 
v 24 1 56
v 35.427734 1 56
v 35.427734 0 56
v 24 0 56
v 44 1 68
v 44 0 68
v 26 1 68
v 26 0 68
v 26 1 60
v 26 0 60
v 20.5 1 68
v 20.5 0 68
v 6 1 68
v 6 0 68
v 16.285156 1 52
v 16.285156 0 52
v 26.201172 1 52
v 26.201172 0 52
vn 0 0 -11.427734000000001
vn 0 0 -11.427734000000001
vn 0 0 -11.427734000000001
vn 0 0 -11.427734000000001
vn 12 0 -8.5722659999999991
vn 12 0 -8.5722659999999991
vn 12 0 -8.5722659999999991
vn 12 0 -8.5722659999999991
vn 0 0 18
vn 0 0 18
vn 0 0 18
vn 0 0 18
vn -8 0 0
vn -8 0 0
vn -8 0 0
vn -8 0 0
vn 8 0 5.5
vn 8 0 5.5
vn 8 0 5.5
vn 8 0 5.5
vn 0 0 14.5
vn 0 0 14.5
vn 0 0 14.5
vn 0 0 14.5
vn -16 0 -10.285156
vn -16 0 -10.285156
vn -16 0 -10.285156
vn -16 0 -10.285156
vn 0 0 -9.9160159999999991
vn 0 0 -9.9160159999999991
vn 0 0 -9.9160159999999991
vn 0 0 -9.9160159999999991
vn 4 0 2.2011719999999997
vn 4 0 2.2011719999999997
vn 4 0 2.2011719999999997
vn 4 0 2.2011719999999997
vn 0 1 0
vn 0 1 0
vn 0 1 0
vn 0 1 0
vn 0 1 0
vn 0 1 0
vn 0 1 0
vn 0 1 0
vn 0 1 0
vn 0 1 0
vn 0 1 0
vn 0 1 0
vn 0 1 0
vn 0 1 0
vn 0 1 0
vn 0 1 0
vn 0 1 0
vn 0 1 0
vn 0 1 0
vn 0 1 0
vn 0 1 0
vn 0 -1 0
vn 0 -1 0
vn 0 -1 0
vn 0 -1 0
vn 0 -1 0
vn 0 -1 0
vn 0 -1 0
vn 0 -1 0
vn 0 -1 0
vn 0 -1 0
vn 0 -1 0
vn 0 -1 0
vn 0 -1 0
vn 0 -1 0
vn 0 -1 0
vn 0 -1 0
vn 0 -1 0
vn 0 -1 0
vn 0 -1 0
vn 0 -1 0
vn 0 -1 0

g 
f 1//1 2//2 3//3 4//4
f 2//5 5//6 6//7 3//8
f 5//9 7//10 8//11 6//12
f 7//13 9//14 10//15 8//16
f 9//17 11//18 12//19 10//20
f 11//21 13//22 14//23 12//24
f 13//25 15//26 16//27 14//28
f 15//29 17//30 18//31 16//32
f 17//33 1//34 4//35 18//36
f 1//37 17//38 15//39
f 1//40 15//41 13//42
f 1//43 13//44 11//45
f 1//46 11//47 9//48
f 9//49 7//50 5//51
f 1//52 9//53 5//54
f 5//55 2//56 1//57
f 16//58 18//59 4//60
f 14//61 16//62 4//63
f 12//64 14//65 4//66
f 10//67 12//68 4//69
f 6//70 8//71 10//72
f 6//73 10//74 4//75
f 4//76 3//77 6//78