o 
v 39.162109 1 8.2363281
v 37.499638328125 1 6.3876119249295114
v 37.499638328125 0 6.3876119249295114
v 39.162109 0 8.2363281
v 35.6575838125 1 4.7529607738654684
v 35.6575838125 0 4.7529607738654684
v 33.656766953125 1 3.3423671580290035
v 33.656766953125 0 3.3423671580290035
v 31.51800925 1 2.16582358864125
v 31.51800925 0 2.16582358864125
v 29.262132203125 1 1.2333225769233398
v 29.262132203125 0 1.2333225769233398
v 26.909957312499998 1 0.55485663409640618
v 26.909957312499998 0 0.55485663409640618
v 24.482306078125 1 0.14041827138158203
v 24.482306078125 0 0.14041827138158203
v 22 1 0
v 22 0 0
v 50 1 0
v 50 0 0
vn -5.2064476 0 4.1753020000000021
vn -3.4833673261345313 0 3.5045251875000005
vn -3.4833673261345313 0 3.5045251875000005
vn -5.2064476 0 4.1753020000000021
vn -3.4833673261345313 0 3.5045251875000005
vn -3.0452447669005078 0 3.8428713750000014
vn -3.0452447669005078 0 3.8428713750000014
vn -3.4833673261345313 0 3.5045251875000005
vn -3.0452447669005078 0 3.8428713750000014
vn -2.5871371852242184 0 4.1395745625000018
vn -2.5871371852242184 0 4.1395745625000018
vn -3.0452447669005078 0 3.8428713750000014
vn -2.5871371852242184 0 4.1395745625000018
vn -2.109044581105664 0 4.3946347500000016
vn -2.109044581105664 0 4.3946347500000016
vn -2.5871371852242184 0 4.1395745625000018
vn -2.109044581105664 0 4.3946347500000016
vn -1.610966954544844 0 4.6080519375000009
vn -1.610966954544844 0 4.6080519375000009
vn -2.109044581105664 0 4.3946347500000016
vn -1.610966954544844 0 4.6080519375000009
vn -1.0929043055417578 0 4.779826125
vn -1.0929043055417578 0 4.779826125
vn -1.610966954544844 0 4.6080519375000009
vn -1.0929043055417578 0 4.779826125
vn -0.55485663409640618 0 4.9099573124999978
vn -0.55485663409640618 0 4.9099573124999978
vn -1.0929043055417578 0 4.779826125
vn -0.55485663409640618 0 4.9099573124999978
vn -0.00020636971 0 6.673848
vn -0.00020636971 0 6.673848
vn -0.55485663409640618 0 4.9099573124999978
vn 0 0 -28
vn 0 0 -28
vn 0 0 -28
vn 0 0 -28
vn 8.2363281 0 10.837890999999999
vn 8.2363281 0 10.837890999999999
vn 8.2363281 0 10.837890999999999
vn 8.2363281 0 10.837890999999999
vn 0 1 0
vn 0 1 0
vn 0 1 0
vn 0 1 0
vn 0 1 0
vn 0 1 0
vn 0 1 0
vn 0 1 0
vn 0 1 0
vn 0 1 0
vn 0 1 0
vn 0 1 0
vn 0 1 0
vn 0 1 0
vn 0 1 0
vn 0 1 0
vn 0 1 0
vn 0 1 0
vn 0 1 0
vn 0 1 0
vn 0 1 0
vn 0 1 0
vn 0 1 0
vn 0 1 0
vn 0 -1 0
vn 0 -1 0
vn 0 -1 0
vn 0 -1 0
vn 0 -1 0
vn 0 -1 0
vn 0 -1 0
vn 0 -1 0
vn 0 -1 0
vn 0 -1 0
vn 0 -1 0
vn 0 -1 0
vn 0 -1 0
vn 0 -1 0
vn 0 -1 0
vn 0 -1 0
vn 0 -1 0
vn 0 -1 0
vn 0 -1 0
vn 0 -1 0
vn 0 -1 0
vn 0 -1 0
vn 0 -1 0
vn 0 -1 0

g 
f 1//1 2//2 3//3 4//4
f 2//5 5//6 6//7 3//8
f 5//9 7//10 8//11 6//12
f 7//13 9//14 10//15 8//16
f 9//17 11//18 12//19 10//20
f 11//21 13//22 14//23 12//24
f 13//25 15//26 16//27 14//28
f 15//29 17//30 18//31 16//32
f 17//33 19//34 20//35 18//36
f 19//37 1//38 4//39 20//40
f 19//41 17//42 15//43
f 19//44 15//45 13//46
f 19//47 13//48 11//49
f 19//50 11//51 9//52
f 19//53 9//54 7//55
f 19//56 7//57 5//58
f 19//59 5//60 2//61
f 19//62 2//63 1//64
f 16//65 18//66 20//67
f 14//68 16//69 20//70
f 12//71 14//72 20//73
f 10//74 12//75 20//76
f 8//77 10//78 20//79
f 6//80 8//81 20//82
f 3//83 6//84 20//85
f 4//86 3//87 20//88