o 
v 2.0666717500000011 1 -9.3195854374999954
v 3.6495167500000019 1 -8.7840837499999935
v 3.6495167500000019 0 -8.7840837499999935
v 2.0666717500000011 0 -9.3195854374999954
v 5.1790877500000008 1 -7.9024386875000019
v 5.1790877500000008 0 -7.9024386875000019
v 6.63574225 1 -6.6835939999999994
v 6.63574225 0 -6.6835939999999994
v 5.6389561718750016 1 -0.094708609375004471
v 5.6389561718750016 0 -0.094708609375004471
v 4.9296162753906252 1 2.6663742871093774
v 4.9296162753906252 0 2.6663742871093774
v 4.102203375000002 1 5.0172776249999913
v 4.102203375000002 0 5.0172776249999913
v 3.173636146484375 1 6.9170466347656259
v 3.173636146484375 0 6.9170466347656259
v 2.1608332656250013 1 8.3247265468749987
v 2.1608332656250013 0 8.3247265468749987
v 1.080713408203124 1 9.19936259179687
v 1.080713408203124 0 9.19936259179687
v -0.049804749999999842 1 9.5
v -0.049804749999999842 0 9.5
v -1.1392338935546871 1 9.2206655332031175
v -1.1392338935546871 0 9.2206655332031175
v -2.1834853796874985 1 8.4066611406250047
v -2.1834853796874985 0 8.4066611406250047
v -3.1671213291015619 1 7.0936377089843745
v -3.1671213291015619 0 7.0936377089843745
v -4.0747038625 1 5.3172461250000111
v -4.0747038625 0 5.3172461250000111
v -4.8907951005859367 1 3.1131372753906277
v -4.8907951005859367 0 3.1131372753906277
v -5.5999571640625 1 0.516962046874994
v -5.5999571640625 0 0.516962046874994
v -6.63574225 1 -5.7089840000000009
v -6.63574225 0 -5.7089840000000009
v -5.0241278546874995 1 -7.3267179687500033
v -5.0241278546874995 0 -7.3267179687500033
v -3.3002057874999995 1 -8.5084782500000031
v -3.3002057874999995 0 -8.5084782500000031
v -1.4935635765625008 1 -9.2382454062500017
v -1.4935635765625008 0 -9.2382454062500017
v 0.366211250000001 1 -9.5
v 0.366211250000001 0 -9.5
v 0.45019125000000138 1 -9.5
v 0.45019125000000138 0 -9.5
v 0.45019525000000016 1 -9.5
v 0.45019525000000016 0 -9.5
vn 0.71591625000000647 0 -3.1993215000000017
vn 1.4171467499999935 0 -3.1124159999999996
vn 1.4171467499999935 0 -3.1124159999999996
vn 0.71591625000000647 0 -3.1993215000000017
vn 1.4171467499999935 0 -3.1124159999999996
vn 2.1004897499999942 0 -2.986225499999998
vn 2.1004897499999942 0 -2.986225499999998
vn 1.4171467499999935 0 -3.1124159999999996
vn 2.1004897499999942 0 -2.986225499999998
vn 1.8459509999999995 0 -1.8848649999999978
vn 1.8459509999999995 0 -1.8848649999999978
vn 2.1004897499999942 0 -2.986225499999998
vn 9.6241629999999958 0 0.90891500000000036
vn 9.3499682871093768 0 1.7061259746093747
vn 9.3499682871093768 0 1.7061259746093747
vn 9.6241629999999958 0 0.90891500000000036
vn 9.3499682871093768 0 1.7061259746093747
vn 5.1119862343749958 0 1.5367527968749997
vn 5.1119862343749958 0 1.5367527968749997
vn 9.3499682871093768 0 1.7061259746093747
vn 5.1119862343749958 0 1.5367527968749997
vn 4.2506723476562485 0 1.7559801289062502
vn 4.2506723476562485 0 1.7559801289062502
vn 5.1119862343749958 0 1.5367527968749997
vn 4.2506723476562485 0 1.7559801289062502
vn 3.3074489218750074 0 1.9413701093750007
vn 3.3074489218750074 0 1.9413701093750007
vn 4.2506723476562485 0 1.7559801289062502
vn 3.3074489218750074 0 1.9413701093750007
vn 2.2823159570312441 0 2.092922738281251
vn 2.2823159570312441 0 2.092922738281251
vn 3.3074489218750074 0 1.9413701093750007
vn 2.2823159570312441 0 2.092922738281251
vn 1.1752734531250013 0 2.2106380156250012
vn 1.1752734531250013 0 2.2106380156250012
vn 2.2823159570312441 0 2.092922738281251
vn 1.1752734531250013 0 2.2106380156250012
vn -3.5999999994373866E-05 0 3.0668740000000003
vn -3.5999999994373866E-05 0 3.0668740000000003
vn 1.1752734531250013 0 2.2106380156250012
vn -0.000309000000001447 0 2.9516586999999994
vn -1.0933388593749953 0 2.1336806296874986
vn -1.0933388593749953 0 2.1336806296874986
vn -0.000309000000001447 0 2.9516586999999994
vn -1.0933388593749953 0 2.1336806296874986
vn -2.127027824218743 0 2.0278874355468748
vn -2.127027824218743 0 2.0278874355468748
vn -1.0933388593749953 0 2.1336806296874986
vn -2.127027824218743 0 2.0278874355468748
vn -3.0894150156249935 0 1.8912184828125014
vn -3.0894150156249935 0 1.8912184828125014
vn -2.127027824218743 0 2.0278874355468748
vn -3.0894150156249935 0 1.8912184828125014
vn -3.9805004335937468 0 1.7236737714843748
vn -3.9805004335937468 0 1.7236737714843748
vn -3.0894150156249935 0 1.8912184828125014
vn -3.9805004335937468 0 1.7236737714843748
vn -4.8002840781250171 0 1.5252533015625005
vn -4.8002840781250171 0 1.5252533015625005
vn -3.9805004335937468 0 1.7236737714843748
vn -4.8002840781250171 0 1.5252533015625005
vn -8.8221212753906286 0 1.7449471494140632
vn -8.8221212753906286 0 1.7449471494140632
vn -4.8002840781250171 0 1.5252533015625005
vn -8.8221212753906286 0 1.7449471494140632
vn -9.124944 0 0.99984439999999974
vn -9.124944 0 0.99984439999999974
vn -8.8221212753906286 0 1.7449471494140632
vn -2.4405080000000012 0 -2.0607974000000002
vn -2.7994942500000022 0 -3.3355364625000004
vn -2.7994942500000022 0 -3.3355364625000004
vn -2.4405080000000012 0 -2.0607974000000002
vn -2.7994942500000022 0 -3.3355364625000004
vn -1.9115274374999984 0 -3.5305642781249986
vn -1.9115274374999984 0 -3.5305642781249986
vn -2.7994942500000022 0 -3.3355364625000004
vn -1.9115274374999984 0 -3.5305642781249986
vn -0.99152174999999687 0 -3.6664170375000005
vn -0.99152174999999687 0 -3.6664170375000005
vn -1.9115274374999984 0 -3.5305642781249986
vn -0.99152174999999687 0 -3.6664170375000005
vn -0.029877999999996518 0 -2.5019715000000016
vn -0.029877999999996518 0 -2.5019715000000016
vn -0.99152174999999687 0 -3.6664170375000005
vn -0.00016200000000310411 0 -0.027990000000000848
vn 0.00016200000000310411 0 -0.027990000000000848
vn 0.00016200000000310411 0 -0.027990000000000848
vn -0.00016200000000310411 0 -0.027990000000000848
vn 0 0 -3.999999998782755E-06
vn 0 0 -3.999999998782755E-06
vn 0 0 -3.999999998782755E-06
vn 0 0 -3.999999998782755E-06
vn -0.0001469999999983429 0 -2.1689930000000004
vn 0.71591625000000647 0 -3.1993215000000017
vn 0.71591625000000647 0 -3.1993215000000017
vn -0.0001469999999983429 0 -2.1689930000000004
vn 0 1 0
vn 0 1 0
vn 0 1 0
vn 0 1 0
vn 0 1 0
vn 0 1 0
vn 0 1 0
vn 0 1 0
vn 0 1 0
vn 0 1 0
vn 0 1 0
vn 0 1 0
vn 0 1 0
vn 0 1 0
vn 0 1 0
vn 0 1 0
vn 0 1 0
vn 0 1 0
vn 0 1 0
vn 0 1 0
vn 0 1 0
vn 0 1 0
vn 0 1 0
vn 0 1 0
vn 0 1 0
vn 0 1 0
vn 0 1 0
vn 0 1 0
vn 0 1 0
vn 0 1 0
vn 0 1 0
vn 0 1 0
vn 0 1 0
vn 0 1 0
vn 0 1 0
vn 0 1 0
vn 0 1 0
vn 0 1 0
vn 0 1 0
vn 0 1 0
vn 0 1 0
vn 0 1 0
vn 0 1 0
vn 0 1 0
vn 0 1 0
vn 0 1 0
vn 0 1 0
vn 0 1 0
vn 0 1 0
vn 0 1 0
vn 0 1 0
vn 0 1 0
vn 0 1 0
vn 0 1 0
vn 0 1 0
vn 0 1 0
vn 0 1 0
vn 0 1 0
vn 0 1 0
vn 0 1 0
vn 0 1 0
vn 0 1 0
vn 0 1 0
vn 0 1 0
vn 0 1 0
vn 0 1 0
vn 0 -1 0
vn 0 -1 0
vn 0 -1 0
vn 0 -1 0
vn 0 -1 0
vn 0 -1 0
vn 0 -1 0
vn 0 -1 0
vn 0 -1 0
vn 0 -1 0
vn 0 -1 0
vn 0 -1 0
vn 0 -1 0
vn 0 -1 0
vn 0 -1 0
vn 0 -1 0
vn 0 -1 0
vn 0 -1 0
vn 0 -1 0
vn 0 -1 0
vn 0 -1 0
vn 0 -1 0
vn 0 -1 0
vn 0 -1 0
vn 0 -1 0
vn 0 -1 0
vn 0 -1 0
vn 0 -1 0
vn 0 -1 0
vn 0 -1 0
vn 0 -1 0
vn 0 -1 0
vn 0 -1 0
vn 0 -1 0
vn 0 -1 0
vn 0 -1 0
vn 0 -1 0
vn 0 -1 0
vn 0 -1 0
vn 0 -1 0
vn 0 -1 0
vn 0 -1 0
vn 0 -1 0
vn 0 -1 0
vn 0 -1 0
vn 0 -1 0
vn 0 -1 0
vn 0 -1 0
vn 0 -1 0
vn 0 -1 0
vn 0 -1 0
vn 0 -1 0
vn 0 -1 0
vn 0 -1 0
vn 0 -1 0
vn 0 -1 0
vn 0 -1 0
vn 0 -1 0
vn 0 -1 0
vn 0 -1 0
vn 0 -1 0
vn 0 -1 0
vn 0 -1 0
vn 0 -1 0
vn 0 -1 0
vn 0 -1 0

g 
f 1//1 2//2 3//3 4//4
f 2//5 5//6 6//7 3//8
f 5//9 7//10 8//11 6//12
f 7//13 9//14 10//15 8//16
f 9//17 11//18 12//19 10//20
f 11//21 13//22 14//23 12//24
f 13//25 15//26 16//27 14//28
f 15//29 17//30 18//31 16//32
f 17//33 19//34 20//35 18//36
f 19//37 21//38 22//39 20//40
f 21//41 23//42 24//43 22//44
f 23//45 25//46 26//47 24//48
f 25//49 27//50 28//51 26//52
f 27//53 29//54 30//55 28//56
f 29//57 31//58 32//59 30//60
f 31//61 33//62 34//63 32//64
f 33//65 35//66 36//67 34//68
f 35//69 37//70 38//71 36//72
f 37//73 39//74 40//75 38//76
f 39//77 41//78 42//79 40//80
f 41//81 43//82 44//83 42//84
f 43//85 45//86 46//87 44//88
f 45//89 47//90 48//91 46//92
f 47//93 1//94 4//95 48//96
f 1//97 47//98 45//99
f 1//100 45//101 43//102
f 1//103 43//104 41//105
f 1//106 41//107 39//108
f 1//109 39//110 37//111
f 1//112 37//113 35//114
f 1//115 35//116 33//117
f 1//118 33//119 31//120
f 1//121 31//122 29//123
f 1//124 29//125 27//126
f 1//127 27//128 25//129
f 1//130 25//131 23//132
f 1//133 23//134 21//135
f 1//136 21//137 19//138
f 1//139 19//140 17//141
f 1//142 17//143 15//144
f 1//145 15//146 13//147
f 1//148 13//149 11//150
f 1//151 11//152 9//153
f 1//154 9//155 7//156
f 1//157 7//158 5//159
f 5//160 2//161 1//162
f 46//163 48//164 4//165
f 44//166 46//167 4//168
f 42//169 44//170 4//171
f 40//172 42//173 4//174
f 38//175 40//176 4//177
f 36//178 38//179 4//180
f 34//181 36//182 4//183
f 32//184 34//185 4//186
f 30//187 32//188 4//189
f 28//190 30//191 4//192
f 26//193 28//194 4//195
f 24//196 26//197 4//198
f 22//199 24//200 4//201
f 20//202 22//203 4//204
f 18//205 20//206 4//207
f 16//208 18//209 4//210
f 14//211 16//212 4//213
f 12//214 14//215 4//216
f 10//217 12//218 4//219
f 8//220 10//221 4//222
f 6//223 8//224 4//225
f 4//226 3//227 6//228