o 
v 11 1 12
v -11 1 12
v -11 0 12
v 11 0 12
v 5.5 1 -12
v 5.5 0 -12
v 11 1 -12
v 11 0 -12
vn 0 0 22
vn 0 0 22
vn 0 0 22
vn 0 0 22
vn 0 0 0
vn 0 0 0
vn 0 0 0
vn 0 0 0
vn -24 0 -16.5
vn -24 0 -16.5
vn -24 0 -16.5
vn -24 0 -16.5
vn 0 0 -5.5
vn 0 0 -5.5
vn 0 0 -5.5
vn 0 0 -5.5
vn 24 0 0
vn 24 0 0
vn 24 0 0
vn 24 0 0
vn 0 1 0
vn 0 1 0
vn 0 1 0
vn 0 1 0
vn 0 1 0
vn 0 1 0
vn 0 -1 0
vn 0 -1 0
vn 0 -1 0
vn 0 -1 0
vn 0 -1 0
vn 0 -1 0

g 
f 1//1 2//2 3//3 4//4
f 2//5 2//6 3//7 3//8
f 2//9 5//10 6//11 3//12
f 5//13 7//14 8//15 6//16
f 7//17 1//18 4//19 8//20
f 1//21 7//22 5//23
f 5//24 2//25 1//26
f 6//27 8//28 4//29
f 4//30 3//31 6//32