o 
v 100 1 16
v 78.65625 1 8.2382812
v 78.65625 0 8.2382812
v 100 0 16
v 74 1 0
v 74 0 0
v 100 1 0
v 100 0 0
vn -7.7617188000000006 0 21.34375
vn -7.7617188000000006 0 21.34375
vn -7.7617188000000006 0 21.34375
vn -7.7617188000000006 0 21.34375
vn -8.2382812 0 4.65625
vn -8.2382812 0 4.65625
vn -8.2382812 0 4.65625
vn -8.2382812 0 4.65625
vn 0 0 -26
vn 0 0 -26
vn 0 0 -26
vn 0 0 -26
vn 16 0 0
vn 16 0 0
vn 16 0 0
vn 16 0 0
vn 0 1 0
vn 0 1 0
vn 0 1 0
vn 0 1 0
vn 0 1 0
vn 0 1 0
vn 0 -1 0
vn 0 -1 0
vn 0 -1 0
vn 0 -1 0
vn 0 -1 0
vn 0 -1 0

g 
f 1//1 2//2 3//3 4//4
f 2//5 5//6 6//7 3//8
f 5//9 7//10 8//11 6//12
f 7//13 1//14 4//15 8//16
f 1//17 7//18 5//19
f 5//20 2//21 1//22
f 6//23 8//24 4//25
f 4//26 3//27 6//28